G04 (created by PCBNEW (2012-oct-18)-testing) date Mon 18 Feb 2013 10:37:03 UTC*
%MOIN*%
G04 Gerber Fmt 3.4, Leading zero omitted, Abs format*
%FSLAX34Y34*%
G01*
G70*
G90*
G04 APERTURE LIST*
%ADD10C,0.006*%
%ADD11R,0.06X0.06*%
%ADD12C,0.16*%
%ADD13C,0.0145*%
%ADD14C,0.008*%
G04 APERTURE END LIST*
G54D10*
G54D11*
X109500Y-45200D03*
X109500Y-37700D03*
X109500Y-39200D03*
X109500Y-42200D03*
X109500Y-43700D03*
X109500Y-46700D03*
X107500Y-37700D03*
X107500Y-39200D03*
X107500Y-42200D03*
X107500Y-43700D03*
X107500Y-45200D03*
X107500Y-46700D03*
X101500Y-49700D03*
X101500Y-37700D03*
X101500Y-39200D03*
X101500Y-42200D03*
X101500Y-43700D03*
X101500Y-45200D03*
X101500Y-46700D03*
X137500Y-66700D03*
X137500Y-64700D03*
X137500Y-62700D03*
X137500Y-60700D03*
X137500Y-58700D03*
X136000Y-66700D03*
X136000Y-64700D03*
X136000Y-62700D03*
X136000Y-60700D03*
X105500Y-37700D03*
X105500Y-39200D03*
X105500Y-42200D03*
X105500Y-43700D03*
X105500Y-45200D03*
X105500Y-46700D03*
X103500Y-37700D03*
X103500Y-39200D03*
X103500Y-42200D03*
X103500Y-43700D03*
X103500Y-45200D03*
X103500Y-46700D03*
X136000Y-58700D03*
X115000Y-34200D03*
X122500Y-30200D03*
X121000Y-34200D03*
X121000Y-32200D03*
X121000Y-30200D03*
X119500Y-34200D03*
X119500Y-32200D03*
X119500Y-30200D03*
X118000Y-34200D03*
X118000Y-32200D03*
X118000Y-30200D03*
X116500Y-34200D03*
X116500Y-32200D03*
X116500Y-30200D03*
X122500Y-32200D03*
X115000Y-32200D03*
X115000Y-30200D03*
X113500Y-34200D03*
X113500Y-32200D03*
X113500Y-30200D03*
X112000Y-34200D03*
X112000Y-32200D03*
X112000Y-30200D03*
X110500Y-34200D03*
X110500Y-32200D03*
X110500Y-30200D03*
X109000Y-34200D03*
X109000Y-32200D03*
X128500Y-34200D03*
X136000Y-30200D03*
X134500Y-34200D03*
X134500Y-32200D03*
X134500Y-30200D03*
X133000Y-34200D03*
X133000Y-32200D03*
X133000Y-30200D03*
X131500Y-34200D03*
X131500Y-32200D03*
X131500Y-30200D03*
X130000Y-34200D03*
X130000Y-32200D03*
X130000Y-30200D03*
X109000Y-30200D03*
X128500Y-32200D03*
X128500Y-30200D03*
X127000Y-34200D03*
X127000Y-32200D03*
X127000Y-30200D03*
X125500Y-34200D03*
X125500Y-32200D03*
X125500Y-30200D03*
X124000Y-34200D03*
X124000Y-32200D03*
X124000Y-30200D03*
X122500Y-34200D03*
X125500Y-26200D03*
X110500Y-28200D03*
X109000Y-28200D03*
X107500Y-28200D03*
X106000Y-28200D03*
X104500Y-28200D03*
X137500Y-26200D03*
X136000Y-26200D03*
X134500Y-26200D03*
X133000Y-26200D03*
X131500Y-26200D03*
X130000Y-26200D03*
X127000Y-26200D03*
X128500Y-26200D03*
X112000Y-28200D03*
X124000Y-26200D03*
X122500Y-26200D03*
X121000Y-26200D03*
X119500Y-26200D03*
X116500Y-26200D03*
X118000Y-26200D03*
X115000Y-26200D03*
X113500Y-26200D03*
X112000Y-26200D03*
X110500Y-26200D03*
X109000Y-26200D03*
X106000Y-26200D03*
X107500Y-26200D03*
X131500Y-28200D03*
X107500Y-34200D03*
X107500Y-32200D03*
X107500Y-30200D03*
X106000Y-34200D03*
X106000Y-32200D03*
X106000Y-30200D03*
X104500Y-34200D03*
X104500Y-32200D03*
X104500Y-30200D03*
X137500Y-28200D03*
X136000Y-28200D03*
X134500Y-28200D03*
X133000Y-28200D03*
X136000Y-32200D03*
X130000Y-28200D03*
X128500Y-28200D03*
X127000Y-28200D03*
X125500Y-28200D03*
X124000Y-28200D03*
X122500Y-28200D03*
X121000Y-28200D03*
X119500Y-28200D03*
X118000Y-28200D03*
X116500Y-28200D03*
X115000Y-28200D03*
X113500Y-28200D03*
X122500Y-66700D03*
X127000Y-62700D03*
X127000Y-60700D03*
X127000Y-58700D03*
X125500Y-66700D03*
X125500Y-64700D03*
X125500Y-62700D03*
X125500Y-60700D03*
X125500Y-58700D03*
X124000Y-66700D03*
X124000Y-64700D03*
X124000Y-62700D03*
X124000Y-60700D03*
X124000Y-58700D03*
X127000Y-64700D03*
X122500Y-64700D03*
X122500Y-62700D03*
X122500Y-60700D03*
X122500Y-58700D03*
X121000Y-66700D03*
X121000Y-64700D03*
X121000Y-62700D03*
X121000Y-60700D03*
X121000Y-58700D03*
X119500Y-66700D03*
X119500Y-64700D03*
X119500Y-62700D03*
X119500Y-60700D03*
X131500Y-60700D03*
X134500Y-66700D03*
X134500Y-64700D03*
X134500Y-62700D03*
X134500Y-60700D03*
X134500Y-58700D03*
X133000Y-66700D03*
X133000Y-64700D03*
X133000Y-62700D03*
X133000Y-60700D03*
X133000Y-58700D03*
X131500Y-66700D03*
X131500Y-64700D03*
X131500Y-62700D03*
X119500Y-58700D03*
X131500Y-58700D03*
X130000Y-66700D03*
X130000Y-64700D03*
X130000Y-62700D03*
X130000Y-60700D03*
X130000Y-58700D03*
X128500Y-66700D03*
X128500Y-64700D03*
X128500Y-62700D03*
X128500Y-60700D03*
X128500Y-58700D03*
X127000Y-66700D03*
X106000Y-66700D03*
X110500Y-62700D03*
X110500Y-60700D03*
X110500Y-58700D03*
X109000Y-66700D03*
X109000Y-64700D03*
X109000Y-62700D03*
X109000Y-60700D03*
X109000Y-58700D03*
X107500Y-66700D03*
X107500Y-64700D03*
X107500Y-62700D03*
X107500Y-60700D03*
X107500Y-58700D03*
X110500Y-64700D03*
X106000Y-64700D03*
X106000Y-62700D03*
X106000Y-60700D03*
X106000Y-58700D03*
X104500Y-66700D03*
X104500Y-64700D03*
X104500Y-62700D03*
X104500Y-60700D03*
X104500Y-58700D03*
X137500Y-34200D03*
X137500Y-32200D03*
X137500Y-30200D03*
X136000Y-34200D03*
X115000Y-60700D03*
X118000Y-66700D03*
X118000Y-64700D03*
X118000Y-62700D03*
X118000Y-60700D03*
X118000Y-58700D03*
X116500Y-66700D03*
X116500Y-64700D03*
X116500Y-62700D03*
X116500Y-60700D03*
X116500Y-58700D03*
X115000Y-66700D03*
X115000Y-64700D03*
X115000Y-62700D03*
X104500Y-26200D03*
X115000Y-58700D03*
X113500Y-66700D03*
X113500Y-64700D03*
X113500Y-62700D03*
X113500Y-60700D03*
X113500Y-58700D03*
X112000Y-66700D03*
X112000Y-64700D03*
X112000Y-62700D03*
X112000Y-60700D03*
X112000Y-58700D03*
X110500Y-66700D03*
X134500Y-51200D03*
X132500Y-45200D03*
X132500Y-43700D03*
X132500Y-42200D03*
X132500Y-40700D03*
X132500Y-39200D03*
X132500Y-37700D03*
X134500Y-55700D03*
X136500Y-54200D03*
X134500Y-52700D03*
X132500Y-46700D03*
X134500Y-49700D03*
X134500Y-48200D03*
X134500Y-46700D03*
X134500Y-45200D03*
X134500Y-43700D03*
X134500Y-42200D03*
X134500Y-40700D03*
X134500Y-39200D03*
X134500Y-37700D03*
X127000Y-38200D03*
X125500Y-38200D03*
X125500Y-36200D03*
X127000Y-56700D03*
X127000Y-54700D03*
X130500Y-49700D03*
X130500Y-48200D03*
X130500Y-46700D03*
X130500Y-45200D03*
X130500Y-43700D03*
X136500Y-55700D03*
X127000Y-36200D03*
X132500Y-54200D03*
X132500Y-55700D03*
X134500Y-54200D03*
X132500Y-52700D03*
X132500Y-51200D03*
X132500Y-49700D03*
X132500Y-48200D03*
X140500Y-51200D03*
X138500Y-45200D03*
X138500Y-43700D03*
X138500Y-42200D03*
X138500Y-40700D03*
X138500Y-39200D03*
X138500Y-37700D03*
X140500Y-55700D03*
X101500Y-54200D03*
X140500Y-52700D03*
X138500Y-46700D03*
X140500Y-49700D03*
X140500Y-48200D03*
X140500Y-46700D03*
X140500Y-45200D03*
X140500Y-43700D03*
X140500Y-42200D03*
X140500Y-40700D03*
X140500Y-39200D03*
X140500Y-37700D03*
X136500Y-40700D03*
X138500Y-54200D03*
X136500Y-52700D03*
X136500Y-51200D03*
X136500Y-49700D03*
X136500Y-48200D03*
X136500Y-46700D03*
X136500Y-45200D03*
X136500Y-43700D03*
X136500Y-42200D03*
X128500Y-43700D03*
X136500Y-39200D03*
X136500Y-37700D03*
X138500Y-55700D03*
X140500Y-54200D03*
X138500Y-52700D03*
X138500Y-51200D03*
X138500Y-49700D03*
X138500Y-48200D03*
X109500Y-51200D03*
X107500Y-55700D03*
X109500Y-54200D03*
X107500Y-52700D03*
X107500Y-51200D03*
X107500Y-49700D03*
X107500Y-48200D03*
X107500Y-40700D03*
X109500Y-55700D03*
X109500Y-52700D03*
X105500Y-40700D03*
X109500Y-49700D03*
X109500Y-48200D03*
X109500Y-40700D03*
X115000Y-56700D03*
X115000Y-54700D03*
X111500Y-49700D03*
X111500Y-48200D03*
X111500Y-46700D03*
X111500Y-45200D03*
X103500Y-49700D03*
X103500Y-54200D03*
X101500Y-52700D03*
X101500Y-51200D03*
X101500Y-48200D03*
X101500Y-40700D03*
X103500Y-55700D03*
X105500Y-54200D03*
X103500Y-52700D03*
X103500Y-51200D03*
X111500Y-43700D03*
X103500Y-48200D03*
X103500Y-40700D03*
X105500Y-55700D03*
X107500Y-54200D03*
X105500Y-52700D03*
X105500Y-51200D03*
X105500Y-49700D03*
X105500Y-48200D03*
X124000Y-54700D03*
X121000Y-56700D03*
X121000Y-54700D03*
X121000Y-38200D03*
X121000Y-36200D03*
X122500Y-56700D03*
X122500Y-54700D03*
X122500Y-38200D03*
X122500Y-36200D03*
X124000Y-56700D03*
X119500Y-36200D03*
X124000Y-38200D03*
X124000Y-36200D03*
X125500Y-56700D03*
X125500Y-54700D03*
X128500Y-49700D03*
X128500Y-48200D03*
X128500Y-46700D03*
X128500Y-45200D03*
X116500Y-38200D03*
X115000Y-38200D03*
X115000Y-36200D03*
X116500Y-56700D03*
X116500Y-54700D03*
X113500Y-49700D03*
X113500Y-48200D03*
X113500Y-46700D03*
X113500Y-45200D03*
X113500Y-43700D03*
X101500Y-55700D03*
X116500Y-36200D03*
X118000Y-56700D03*
X118000Y-54700D03*
X118000Y-38200D03*
X118000Y-36200D03*
X119500Y-56700D03*
X119500Y-54700D03*
X119500Y-38200D03*
G54D12*
X101000Y-26200D03*
X141000Y-26200D03*
X101000Y-67200D03*
X141000Y-67200D03*
G54D11*
X125300Y-82300D03*
X124100Y-79300D03*
X124100Y-77800D03*
X124100Y-82300D03*
X124100Y-80800D03*
X125300Y-70300D03*
X125300Y-68800D03*
X125300Y-73300D03*
X125300Y-71800D03*
X125300Y-76300D03*
X125300Y-74800D03*
X125300Y-79300D03*
X125300Y-77800D03*
X124100Y-74800D03*
X125300Y-80800D03*
X126500Y-70300D03*
X126500Y-68800D03*
X126500Y-73300D03*
X126500Y-71800D03*
X126500Y-76300D03*
X126500Y-74800D03*
X126500Y-79300D03*
X126500Y-77800D03*
X126500Y-82300D03*
X126500Y-80800D03*
X122900Y-71800D03*
X121700Y-68800D03*
X121700Y-73300D03*
X121700Y-71800D03*
X121700Y-76300D03*
X121700Y-74800D03*
X121700Y-79300D03*
X121700Y-77800D03*
X121700Y-82300D03*
X121700Y-80800D03*
X122900Y-70300D03*
X122900Y-68800D03*
X122900Y-73300D03*
X127700Y-70300D03*
X122900Y-76300D03*
X122900Y-74800D03*
X122900Y-79300D03*
X122900Y-77800D03*
X122900Y-82300D03*
X122900Y-80800D03*
X124100Y-70300D03*
X124100Y-68800D03*
X124100Y-73300D03*
X124100Y-71800D03*
X124100Y-76300D03*
X131300Y-82300D03*
X130100Y-79300D03*
X130100Y-77800D03*
X130100Y-82300D03*
X130100Y-80800D03*
X131300Y-70300D03*
X131300Y-68800D03*
X131300Y-73300D03*
X131300Y-71800D03*
X131300Y-76300D03*
X131300Y-74800D03*
X131300Y-79300D03*
X131300Y-77800D03*
X130100Y-74800D03*
X131300Y-80800D03*
X132500Y-70300D03*
X132500Y-68800D03*
X132500Y-73300D03*
X132500Y-71800D03*
X132500Y-76300D03*
X132500Y-74800D03*
X132500Y-79300D03*
X132500Y-77800D03*
X132500Y-82300D03*
X132500Y-80800D03*
X128900Y-71800D03*
X127700Y-68800D03*
X127700Y-73300D03*
X127700Y-71800D03*
X127700Y-76300D03*
X127700Y-74800D03*
X127700Y-79300D03*
X127700Y-77800D03*
X127700Y-82300D03*
X127700Y-80800D03*
X128900Y-70300D03*
X128900Y-68800D03*
X128900Y-73300D03*
X121700Y-70300D03*
X128900Y-76300D03*
X128900Y-74800D03*
X128900Y-79300D03*
X128900Y-77800D03*
X128900Y-82300D03*
X128900Y-80800D03*
X130100Y-70300D03*
X130100Y-68800D03*
X130100Y-73300D03*
X130100Y-71800D03*
X130100Y-76300D03*
X113300Y-82300D03*
X112100Y-79300D03*
X112100Y-77800D03*
X112100Y-82300D03*
X112100Y-80800D03*
X113300Y-70300D03*
X113300Y-68800D03*
X113300Y-73300D03*
X113300Y-71800D03*
X113300Y-76300D03*
X113300Y-74800D03*
X113300Y-79300D03*
X113300Y-77800D03*
X112100Y-74800D03*
X113300Y-80800D03*
X114500Y-70300D03*
X114500Y-68800D03*
X114500Y-73300D03*
X114500Y-71800D03*
X114500Y-76300D03*
X114500Y-74800D03*
X114500Y-79300D03*
X114500Y-77800D03*
X114500Y-82300D03*
X114500Y-80800D03*
X110900Y-71800D03*
X109700Y-68800D03*
X109700Y-73300D03*
X109700Y-71800D03*
X109700Y-76300D03*
X109700Y-74800D03*
X109700Y-79300D03*
X109700Y-77800D03*
X109700Y-82300D03*
X109700Y-80800D03*
X110900Y-70300D03*
X110900Y-68800D03*
X110900Y-73300D03*
X115700Y-70300D03*
X110900Y-76300D03*
X110900Y-74800D03*
X110900Y-79300D03*
X110900Y-77800D03*
X110900Y-82300D03*
X110900Y-80800D03*
X112100Y-70300D03*
X112100Y-68800D03*
X112100Y-73300D03*
X112100Y-71800D03*
X112100Y-76300D03*
X119300Y-82300D03*
X118100Y-79300D03*
X118100Y-77800D03*
X118100Y-82300D03*
X118100Y-80800D03*
X119300Y-70300D03*
X119300Y-68800D03*
X119300Y-73300D03*
X119300Y-71800D03*
X119300Y-76300D03*
X119300Y-74800D03*
X119300Y-79300D03*
X119300Y-77800D03*
X118100Y-74800D03*
X119300Y-80800D03*
X120500Y-70300D03*
X120500Y-68800D03*
X120500Y-73300D03*
X120500Y-71800D03*
X120500Y-76300D03*
X120500Y-74800D03*
X120500Y-79300D03*
X120500Y-77800D03*
X120500Y-82300D03*
X120500Y-80800D03*
X116900Y-71800D03*
X115700Y-68800D03*
X115700Y-73300D03*
X115700Y-71800D03*
X115700Y-76300D03*
X115700Y-74800D03*
X115700Y-79300D03*
X115700Y-77800D03*
X115700Y-82300D03*
X115700Y-80800D03*
X116900Y-70300D03*
X116900Y-68800D03*
X116900Y-73300D03*
X109700Y-70300D03*
X116900Y-76300D03*
X116900Y-74800D03*
X116900Y-79300D03*
X116900Y-77800D03*
X116900Y-82300D03*
X116900Y-80800D03*
X118100Y-70300D03*
X118100Y-68800D03*
X118100Y-73300D03*
X118100Y-71800D03*
X118100Y-76300D03*
G54D13*
X117925Y-48845D03*
X117925Y-49160D03*
X118240Y-49165D03*
X118555Y-48850D03*
X118240Y-48850D03*
X123280Y-49162D03*
X123596Y-49164D03*
X123910Y-49164D03*
X118555Y-47590D03*
X118555Y-47905D03*
X118240Y-47905D03*
X117925Y-47905D03*
X118240Y-47590D03*
X117925Y-47590D03*
X118240Y-48220D03*
X117925Y-48530D03*
X118240Y-48530D03*
X118555Y-48530D03*
X118555Y-48220D03*
X117925Y-48220D03*
X123280Y-47590D03*
X123596Y-47588D03*
X123910Y-47588D03*
X123910Y-46960D03*
X123596Y-46960D03*
X123280Y-46958D03*
X123910Y-47904D03*
X123280Y-47274D03*
X123596Y-47274D03*
X123910Y-47272D03*
X123910Y-48532D03*
X123596Y-48532D03*
X123280Y-48532D03*
X123282Y-48848D03*
X123596Y-48848D03*
X123910Y-48848D03*
X123596Y-48218D03*
X123596Y-47904D03*
X123280Y-47906D03*
X123280Y-48218D03*
X123910Y-48218D03*
X123280Y-49480D03*
X123595Y-49790D03*
X123595Y-50105D03*
X123280Y-49790D03*
X123280Y-50105D03*
X124225Y-49790D03*
X123910Y-49480D03*
X123910Y-49790D03*
X123910Y-50105D03*
X124225Y-50105D03*
X123595Y-49480D03*
X122335Y-49480D03*
X122340Y-49790D03*
X122335Y-50105D03*
X122020Y-50105D03*
X122965Y-49480D03*
X122965Y-50105D03*
X122965Y-49790D03*
X122650Y-49480D03*
X122650Y-49790D03*
X122650Y-50105D03*
X118240Y-46645D03*
X117925Y-46645D03*
X118555Y-46645D03*
X118555Y-46330D03*
X118240Y-46330D03*
X117925Y-46330D03*
X118555Y-47275D03*
X118240Y-47275D03*
X117925Y-47275D03*
X118555Y-46960D03*
X118240Y-46960D03*
X117925Y-46960D03*
X118240Y-45385D03*
X117925Y-45700D03*
X118556Y-45385D03*
X117925Y-45385D03*
X124220Y-49475D03*
X117925Y-46015D03*
X118555Y-46015D03*
X118240Y-46015D03*
X118555Y-45700D03*
X118240Y-45700D03*
X119500Y-47905D03*
X122336Y-46958D03*
X122020Y-46644D03*
X122334Y-46644D03*
X119815Y-47905D03*
X119815Y-47590D03*
X119500Y-47590D03*
X119815Y-47275D03*
X119500Y-47275D03*
X118242Y-44754D03*
X122338Y-47904D03*
X122022Y-47904D03*
X122336Y-47590D03*
X122022Y-47588D03*
X122022Y-47274D03*
X122338Y-47274D03*
X122022Y-46960D03*
X120760Y-48220D03*
X121390Y-48220D03*
X121390Y-48535D03*
X121075Y-48535D03*
X121075Y-48215D03*
X121705Y-48535D03*
X120760Y-48535D03*
X120445Y-48220D03*
X120445Y-48530D03*
X119815Y-46960D03*
X119500Y-46960D03*
X119815Y-46645D03*
X119500Y-46645D03*
X122020Y-48220D03*
X122020Y-48535D03*
X121705Y-48215D03*
X124210Y-83820D03*
X122500Y-83220D03*
X121340Y-83250D03*
X120670Y-83930D03*
X119490Y-83850D03*
X129720Y-83290D03*
X128460Y-83260D03*
X127320Y-83280D03*
X126090Y-83250D03*
X124910Y-83300D03*
X111130Y-83970D03*
X109950Y-83490D03*
X108600Y-83800D03*
X117980Y-83410D03*
X116530Y-83300D03*
X120135Y-48220D03*
X115460Y-83450D03*
X114250Y-83570D03*
X112320Y-82970D03*
X123280Y-45384D03*
X123594Y-45384D03*
X123908Y-45384D03*
X123908Y-45700D03*
X123594Y-45700D03*
X123596Y-46644D03*
X123910Y-46330D03*
X123280Y-46646D03*
X123910Y-46644D03*
X123280Y-45700D03*
X123278Y-46014D03*
X123594Y-46014D03*
X123908Y-46014D03*
X123278Y-46330D03*
X123594Y-46328D03*
X122018Y-46016D03*
X122020Y-45700D03*
X121702Y-46014D03*
X121704Y-45700D03*
X121388Y-46014D03*
X121390Y-45700D03*
X121074Y-46014D03*
X121074Y-45700D03*
X120760Y-46014D03*
X119500Y-48215D03*
X120130Y-48535D03*
X119815Y-48215D03*
X119815Y-48535D03*
X119500Y-48535D03*
X122334Y-46016D03*
X122336Y-45698D03*
X120130Y-46016D03*
X120760Y-45700D03*
X120444Y-46014D03*
X120444Y-45700D03*
X120130Y-45700D03*
X119816Y-46016D03*
X119816Y-45700D03*
X121705Y-47903D03*
X120130Y-47903D03*
X118555Y-49165D03*
X121390Y-46644D03*
X121706Y-47588D03*
X121390Y-47590D03*
X121076Y-47588D03*
X120760Y-47588D03*
X120446Y-47588D03*
X121706Y-47274D03*
X121390Y-47274D03*
X121076Y-47274D03*
X120762Y-47274D03*
X120448Y-47274D03*
X120132Y-47274D03*
X121706Y-46960D03*
X121390Y-46960D03*
X121078Y-46958D03*
X120762Y-46960D03*
X120132Y-46958D03*
X120446Y-46958D03*
X121076Y-46644D03*
X120760Y-46644D03*
X118555Y-44125D03*
X118555Y-44440D03*
X118556Y-44754D03*
X118870Y-44125D03*
X117925Y-44125D03*
X117925Y-44440D03*
X117926Y-44754D03*
X118240Y-44125D03*
X118240Y-44440D03*
X119816Y-44754D03*
X119816Y-44440D03*
X119816Y-44126D03*
X119500Y-44754D03*
X119500Y-44440D03*
X119500Y-44124D03*
X120130Y-44754D03*
X120444Y-44754D03*
X120446Y-44440D03*
X120446Y-44124D03*
X120130Y-44440D03*
X120130Y-44126D03*
X117610Y-44125D03*
X117610Y-44440D03*
X117612Y-44754D03*
X119186Y-44124D03*
X119186Y-44754D03*
X119186Y-44438D03*
X118870Y-44754D03*
X118870Y-44440D03*
X118870Y-50105D03*
X119185Y-50105D03*
X118870Y-49790D03*
X118870Y-49480D03*
X118555Y-49480D03*
X119500Y-49790D03*
X119500Y-50105D03*
X118555Y-49790D03*
X119500Y-49480D03*
X119185Y-49480D03*
X119185Y-49790D03*
X117925Y-49790D03*
X117925Y-50105D03*
X117610Y-50105D03*
X117925Y-49480D03*
X117295Y-49790D03*
X118555Y-50105D03*
X118240Y-50105D03*
X118240Y-49790D03*
X118240Y-49480D03*
X121390Y-49790D03*
X121390Y-50105D03*
X121075Y-50105D03*
X121075Y-49790D03*
X121075Y-49480D03*
X121705Y-50105D03*
X122020Y-49790D03*
X122020Y-49480D03*
X121705Y-49790D03*
X121705Y-49480D03*
X121390Y-49480D03*
X120130Y-49475D03*
X120130Y-49790D03*
X120130Y-50105D03*
X119820Y-49480D03*
X119815Y-49790D03*
X119820Y-50105D03*
X120445Y-49480D03*
X120760Y-50105D03*
X120760Y-49795D03*
X120760Y-49480D03*
X117610Y-49795D03*
X120445Y-49790D03*
X120445Y-50105D03*
X122020Y-44440D03*
X122020Y-44124D03*
X122020Y-44754D03*
X121706Y-44754D03*
X121704Y-44440D03*
X121706Y-44124D03*
X122650Y-44754D03*
X122650Y-44124D03*
X122650Y-44440D03*
X122336Y-44754D03*
X122336Y-44440D03*
X122336Y-44124D03*
X120760Y-44440D03*
X121076Y-44440D03*
X121076Y-44124D03*
X120760Y-44754D03*
X120760Y-44124D03*
X121390Y-44126D03*
X121390Y-44440D03*
X121390Y-44754D03*
X121076Y-44754D03*
X124224Y-44124D03*
X124224Y-44440D03*
X124224Y-44756D03*
X123908Y-44754D03*
X123910Y-44440D03*
X117610Y-49480D03*
X117295Y-49480D03*
X117295Y-50105D03*
X124542Y-44754D03*
X124538Y-44440D03*
X124538Y-44126D03*
X122966Y-44756D03*
X123280Y-44440D03*
X123280Y-44126D03*
X122964Y-44440D03*
X122964Y-44126D03*
X123910Y-44124D03*
X123594Y-44124D03*
X123594Y-44440D03*
X123594Y-44754D03*
X123280Y-44754D03*
X130890Y-83250D03*
X132400Y-83260D03*
G54D14*
X118400Y-49005D02*
X118555Y-48850D01*
X116875Y-49005D02*
X118400Y-49005D01*
X116545Y-49335D02*
X116875Y-49005D01*
X116545Y-49895D02*
X116545Y-49335D01*
X114650Y-51790D02*
X116545Y-49895D01*
X113770Y-51790D02*
X114650Y-51790D01*
X112365Y-53195D02*
X113770Y-51790D01*
X109815Y-53195D02*
X112365Y-53195D01*
X109500Y-53510D02*
X109815Y-53195D01*
X109500Y-54200D02*
X109500Y-53510D01*
X123440Y-49322D02*
X123280Y-49162D01*
X124848Y-49322D02*
X123440Y-49322D01*
X124993Y-49467D02*
X124848Y-49322D01*
X124993Y-50129D02*
X124993Y-49467D01*
X125960Y-51096D02*
X124993Y-50129D01*
X126726Y-51096D02*
X125960Y-51096D01*
X127360Y-51730D02*
X126726Y-51096D01*
X128566Y-51730D02*
X127360Y-51730D01*
X131508Y-54672D02*
X128566Y-51730D01*
X132148Y-54672D02*
X131508Y-54672D01*
X132500Y-55024D02*
X132148Y-54672D01*
X132500Y-55700D02*
X132500Y-55024D01*
X116495Y-47750D02*
X118395Y-47750D01*
X116175Y-47430D02*
X116495Y-47750D01*
X118395Y-47750D02*
X118555Y-47590D01*
X114820Y-47430D02*
X116175Y-47430D01*
X109500Y-48200D02*
X109500Y-47525D01*
X114595Y-47205D02*
X114820Y-47430D01*
X109820Y-47205D02*
X114595Y-47205D01*
X109500Y-47525D02*
X109820Y-47205D01*
X118400Y-48060D02*
X118555Y-47905D01*
X116630Y-48060D02*
X118400Y-48060D01*
X115995Y-48695D02*
X116630Y-48060D01*
X109770Y-48695D02*
X115995Y-48695D01*
X109500Y-48965D02*
X109770Y-48695D01*
X109500Y-49700D02*
X109500Y-48965D01*
X118395Y-48690D02*
X118555Y-48530D01*
X116675Y-48690D02*
X118395Y-48690D01*
X116305Y-49060D02*
X116675Y-48690D01*
X116305Y-49795D02*
X116305Y-49060D01*
X114550Y-51550D02*
X116305Y-49795D01*
X113670Y-51550D02*
X114550Y-51550D01*
X113525Y-51695D02*
X113670Y-51550D01*
X109835Y-51695D02*
X113525Y-51695D01*
X109500Y-52030D02*
X109835Y-51695D01*
X109500Y-52700D02*
X109500Y-52030D01*
X118400Y-48375D02*
X118555Y-48220D01*
X116655Y-48375D02*
X118400Y-48375D01*
X116065Y-48965D02*
X116655Y-48375D01*
X116065Y-49695D02*
X116065Y-48965D01*
X115565Y-50195D02*
X116065Y-49695D01*
X109835Y-50195D02*
X115565Y-50195D01*
X109500Y-50530D02*
X109835Y-50195D01*
X109500Y-51200D02*
X109500Y-50530D01*
X123436Y-47746D02*
X123280Y-47590D01*
X125730Y-47746D02*
X123436Y-47746D01*
X126262Y-47214D02*
X125730Y-47746D01*
X132056Y-47214D02*
X126262Y-47214D01*
X132500Y-47658D02*
X132056Y-47214D01*
X132500Y-48200D02*
X132500Y-47658D01*
X132500Y-45200D02*
X132500Y-44554D01*
X132500Y-44554D02*
X132166Y-44220D01*
X132166Y-44220D02*
X128406Y-44220D01*
X128406Y-44220D02*
X125508Y-47118D01*
X125508Y-47118D02*
X123440Y-47118D01*
X123440Y-47118D02*
X123280Y-46958D01*
X132500Y-46700D02*
X132500Y-46022D01*
X123438Y-47432D02*
X123280Y-47274D01*
X125534Y-47432D02*
X123438Y-47432D01*
X127256Y-45710D02*
X125534Y-47432D01*
X132188Y-45710D02*
X127256Y-45710D01*
X132500Y-46022D02*
X132188Y-45710D01*
X123440Y-48692D02*
X123280Y-48532D01*
X124968Y-48692D02*
X123440Y-48692D01*
X125354Y-49078D02*
X124968Y-48692D01*
X125354Y-49812D02*
X125354Y-49078D01*
X126156Y-50614D02*
X125354Y-49812D01*
X126922Y-50614D02*
X126156Y-50614D01*
X127558Y-51250D02*
X126922Y-50614D01*
X128764Y-51250D02*
X127558Y-51250D01*
X129214Y-51700D02*
X128764Y-51250D01*
X132198Y-51700D02*
X129214Y-51700D01*
X132500Y-52002D02*
X132198Y-51700D01*
X132500Y-52700D02*
X132500Y-52002D01*
X123440Y-49006D02*
X123282Y-48848D01*
X124940Y-49006D02*
X123440Y-49006D01*
X125114Y-49180D02*
X124940Y-49006D01*
X125114Y-49910D02*
X125114Y-49180D01*
X126058Y-50854D02*
X125114Y-49910D01*
X126824Y-50854D02*
X126058Y-50854D01*
X127460Y-51490D02*
X126824Y-50854D01*
X128664Y-51490D02*
X127460Y-51490D01*
X130370Y-53196D02*
X128664Y-51490D01*
X132184Y-53196D02*
X130370Y-53196D01*
X132500Y-53512D02*
X132184Y-53196D01*
X132500Y-54200D02*
X132500Y-53512D01*
X123436Y-48062D02*
X123280Y-47906D01*
X125184Y-48062D02*
X123436Y-48062D01*
X125838Y-48716D02*
X125184Y-48062D01*
X132126Y-48716D02*
X125838Y-48716D01*
X132500Y-49090D02*
X132126Y-48716D01*
X132500Y-49700D02*
X132500Y-49090D01*
X123438Y-48376D02*
X123280Y-48218D01*
X125158Y-48376D02*
X123438Y-48376D01*
X125716Y-48934D02*
X125158Y-48376D01*
X125716Y-49832D02*
X125716Y-48934D01*
X126114Y-50230D02*
X125716Y-49832D01*
X132198Y-50230D02*
X126114Y-50230D01*
X132500Y-50532D02*
X132198Y-50230D01*
X132500Y-51200D02*
X132500Y-50532D01*
X123120Y-49640D02*
X123280Y-49480D01*
X123120Y-50965D02*
X123120Y-49640D01*
X123620Y-51465D02*
X123120Y-50965D01*
X124100Y-51465D02*
X123620Y-51465D01*
X125395Y-52760D02*
X124100Y-51465D01*
X126330Y-52760D02*
X125395Y-52760D01*
X126575Y-53005D02*
X126330Y-52760D01*
X127795Y-53005D02*
X126575Y-53005D01*
X129265Y-54475D02*
X127795Y-53005D01*
X129265Y-56995D02*
X129265Y-54475D01*
X129845Y-57575D02*
X129265Y-56995D01*
X133065Y-57575D02*
X129845Y-57575D01*
X133535Y-58045D02*
X133065Y-57575D01*
X133535Y-58400D02*
X133535Y-58045D01*
X133000Y-58700D02*
X133235Y-58700D01*
X133235Y-58700D02*
X133535Y-58400D01*
X123750Y-49645D02*
X123750Y-49640D01*
X123750Y-49640D02*
X123910Y-49480D01*
X123750Y-50710D02*
X123750Y-49645D01*
X124045Y-51005D02*
X123750Y-50710D01*
X124320Y-51005D02*
X124045Y-51005D01*
X125595Y-52280D02*
X124320Y-51005D01*
X126530Y-52280D02*
X125595Y-52280D01*
X126775Y-52525D02*
X126530Y-52280D01*
X127995Y-52525D02*
X126775Y-52525D01*
X129745Y-54275D02*
X127995Y-52525D01*
X129745Y-56795D02*
X129745Y-54275D01*
X130045Y-57095D02*
X129745Y-56795D01*
X135940Y-57095D02*
X130045Y-57095D01*
X136000Y-58700D02*
X136195Y-58700D01*
X136545Y-57700D02*
X135940Y-57095D01*
X136545Y-58350D02*
X136545Y-57700D01*
X136195Y-58700D02*
X136545Y-58350D01*
X123435Y-49640D02*
X123595Y-49480D01*
X123435Y-50950D02*
X123435Y-49640D01*
X123710Y-51225D02*
X123435Y-50950D01*
X124205Y-51225D02*
X123710Y-51225D01*
X125500Y-52520D02*
X124205Y-51225D01*
X126430Y-52520D02*
X125500Y-52520D01*
X126675Y-52765D02*
X126430Y-52520D01*
X127895Y-52765D02*
X126675Y-52765D01*
X129505Y-54375D02*
X127895Y-52765D01*
X129505Y-56895D02*
X129505Y-54375D01*
X129945Y-57335D02*
X129505Y-56895D01*
X134670Y-57335D02*
X129945Y-57335D01*
X135070Y-57735D02*
X134670Y-57335D01*
X135070Y-58370D02*
X135070Y-57735D01*
X134500Y-58700D02*
X134740Y-58700D01*
X134740Y-58700D02*
X135070Y-58370D01*
X122180Y-49635D02*
X122335Y-49480D01*
X122180Y-51045D02*
X122180Y-49635D01*
X123320Y-52185D02*
X122180Y-51045D01*
X123805Y-52185D02*
X123320Y-52185D01*
X125100Y-53480D02*
X123805Y-52185D01*
X126035Y-53480D02*
X125100Y-53480D01*
X126280Y-53725D02*
X126035Y-53480D01*
X127500Y-53725D02*
X126280Y-53725D01*
X128540Y-54765D02*
X127500Y-53725D01*
X128540Y-57285D02*
X128540Y-54765D01*
X129040Y-57785D02*
X128540Y-57285D01*
X129040Y-58330D02*
X129040Y-57785D01*
X128500Y-58700D02*
X128670Y-58700D01*
X128670Y-58700D02*
X129040Y-58330D01*
X122805Y-49640D02*
X122965Y-49480D01*
X122805Y-50990D02*
X122805Y-49640D01*
X123515Y-51700D02*
X122805Y-50990D01*
X124000Y-51700D02*
X123515Y-51700D01*
X125300Y-53000D02*
X124000Y-51700D01*
X126230Y-53000D02*
X125300Y-53000D01*
X126475Y-53245D02*
X126230Y-53000D01*
X127695Y-53245D02*
X126475Y-53245D01*
X129025Y-54575D02*
X127695Y-53245D01*
X129025Y-57090D02*
X129025Y-54575D01*
X129750Y-57815D02*
X129025Y-57090D01*
X131780Y-57815D02*
X129750Y-57815D01*
X132085Y-58120D02*
X131780Y-57815D01*
X132085Y-58335D02*
X132085Y-58120D01*
X131500Y-58700D02*
X131720Y-58700D01*
X131720Y-58700D02*
X132085Y-58335D01*
X122495Y-49635D02*
X122650Y-49480D01*
X122495Y-51020D02*
X122495Y-49635D01*
X123420Y-51945D02*
X122495Y-51020D01*
X123905Y-51945D02*
X123420Y-51945D01*
X125200Y-53240D02*
X123905Y-51945D01*
X126130Y-53240D02*
X125200Y-53240D01*
X126375Y-53485D02*
X126130Y-53240D01*
X127600Y-53485D02*
X126375Y-53485D01*
X128785Y-54670D02*
X127600Y-53485D01*
X128785Y-57195D02*
X128785Y-54670D01*
X129645Y-58055D02*
X128785Y-57195D01*
X130310Y-58055D02*
X129645Y-58055D01*
X130525Y-58270D02*
X130310Y-58055D01*
X130525Y-58410D02*
X130525Y-58270D01*
X130000Y-58700D02*
X130235Y-58700D01*
X130235Y-58700D02*
X130525Y-58410D01*
X109500Y-43700D02*
X109500Y-43090D01*
X109500Y-43090D02*
X109895Y-42695D01*
X109895Y-42695D02*
X113565Y-42695D01*
X113565Y-42695D02*
X114275Y-43405D01*
X114275Y-43405D02*
X114275Y-43795D01*
X114275Y-43795D02*
X114540Y-44060D01*
X114540Y-44060D02*
X114540Y-44960D01*
X114540Y-44960D02*
X116380Y-46800D01*
X116380Y-46800D02*
X118400Y-46800D01*
X118400Y-46800D02*
X118555Y-46645D01*
X109500Y-42200D02*
X109500Y-41625D01*
X109500Y-41625D02*
X109925Y-41200D01*
X109925Y-41200D02*
X112690Y-41200D01*
X112690Y-41200D02*
X114780Y-43290D01*
X114780Y-43290D02*
X114780Y-44865D01*
X114780Y-44865D02*
X116400Y-46485D01*
X116400Y-46485D02*
X118400Y-46485D01*
X118400Y-46485D02*
X118555Y-46330D01*
X114605Y-45700D02*
X114705Y-45700D01*
X114705Y-45700D02*
X116435Y-47430D01*
X109500Y-46700D02*
X109500Y-46110D01*
X116435Y-47430D02*
X118400Y-47430D01*
X118400Y-47430D02*
X118555Y-47275D01*
X109910Y-45700D02*
X114605Y-45700D01*
X114605Y-45700D02*
X114600Y-45700D01*
X109500Y-46110D02*
X109910Y-45700D01*
X109500Y-45200D02*
X109500Y-44625D01*
X109500Y-44625D02*
X109935Y-44190D01*
X109935Y-44190D02*
X113890Y-44190D01*
X113890Y-44190D02*
X114300Y-44600D01*
X114300Y-44600D02*
X114300Y-45060D01*
X114300Y-45060D02*
X116355Y-47115D01*
X116355Y-47115D02*
X118400Y-47115D01*
X118400Y-47115D02*
X118555Y-46960D01*
X116562Y-45542D02*
X118399Y-45542D01*
X115380Y-44360D02*
X116562Y-45542D01*
X109500Y-37700D02*
X110039Y-37700D01*
X115380Y-43040D02*
X115380Y-44360D01*
X110039Y-37700D02*
X115380Y-43040D01*
X118399Y-45542D02*
X118556Y-45385D01*
X124065Y-49630D02*
X124220Y-49475D01*
X124065Y-50755D02*
X124065Y-49630D01*
X124194Y-50884D02*
X124065Y-50755D01*
X124539Y-50884D02*
X124194Y-50884D01*
X125695Y-52040D02*
X124539Y-50884D01*
X126630Y-52040D02*
X125695Y-52040D01*
X126875Y-52285D02*
X126630Y-52040D01*
X128100Y-52285D02*
X126875Y-52285D01*
X129985Y-54170D02*
X128100Y-52285D01*
X129985Y-56695D02*
X129985Y-54170D01*
X130145Y-56855D02*
X129985Y-56695D01*
X137465Y-56855D02*
X130145Y-56855D01*
X138035Y-57425D02*
X137465Y-56855D01*
X138035Y-58320D02*
X138035Y-57425D01*
X137500Y-58700D02*
X137655Y-58700D01*
X137655Y-58700D02*
X138035Y-58320D01*
X109500Y-40700D02*
X109500Y-40145D01*
X109500Y-40145D02*
X109935Y-39710D01*
X109935Y-39710D02*
X111555Y-39710D01*
X111555Y-39710D02*
X115025Y-43180D01*
X115025Y-43180D02*
X115025Y-44770D01*
X115025Y-44770D02*
X116430Y-46175D01*
X116430Y-46175D02*
X118395Y-46175D01*
X118395Y-46175D02*
X118555Y-46015D01*
X109500Y-39200D02*
X111370Y-39200D01*
X111370Y-39200D02*
X111560Y-39390D01*
X111560Y-39390D02*
X115260Y-43090D01*
X115260Y-43090D02*
X115260Y-44665D01*
X115260Y-44665D02*
X116450Y-45855D01*
X116450Y-45855D02*
X118400Y-45855D01*
X118400Y-45855D02*
X118555Y-45700D01*
X118398Y-44598D02*
X118242Y-44754D01*
X107500Y-34200D02*
X107500Y-34610D01*
X107500Y-34610D02*
X108076Y-35186D01*
X108076Y-35186D02*
X108270Y-35380D01*
X108270Y-35380D02*
X109270Y-35380D01*
X109270Y-35380D02*
X109780Y-35890D01*
X109780Y-35890D02*
X110926Y-35890D01*
X110926Y-35890D02*
X112666Y-37630D01*
X112666Y-37630D02*
X112666Y-39028D01*
X112666Y-39028D02*
X114804Y-41166D01*
X114804Y-41166D02*
X117620Y-41166D01*
X117620Y-41166D02*
X118398Y-41944D01*
X118398Y-41944D02*
X118398Y-44598D01*
X124100Y-68800D02*
X124100Y-69120D01*
X123690Y-83300D02*
X124210Y-83820D01*
X123690Y-69530D02*
X123690Y-83300D01*
X124100Y-69120D02*
X123690Y-69530D01*
X122900Y-68800D02*
X122900Y-69160D01*
X122480Y-83200D02*
X122500Y-83220D01*
X122480Y-69580D02*
X122480Y-83200D01*
X122900Y-69160D02*
X122480Y-69580D01*
X121700Y-68800D02*
X121700Y-69220D01*
X121280Y-83190D02*
X121340Y-83250D01*
X121280Y-69640D02*
X121280Y-83190D01*
X121700Y-69220D02*
X121280Y-69640D01*
X120500Y-68800D02*
X120500Y-69160D01*
X120080Y-83340D02*
X120670Y-83930D01*
X120080Y-69580D02*
X120080Y-83340D01*
X120500Y-69160D02*
X120080Y-69580D01*
X119300Y-68800D02*
X119300Y-69160D01*
X118880Y-83240D02*
X119490Y-83850D01*
X118880Y-69580D02*
X118880Y-83240D01*
X119300Y-69160D02*
X118880Y-69580D01*
X130100Y-68800D02*
X130100Y-69050D01*
X129680Y-83250D02*
X129720Y-83290D01*
X129680Y-69470D02*
X129680Y-83250D01*
X130100Y-69050D02*
X129680Y-69470D01*
X128900Y-68800D02*
X128900Y-69230D01*
X128480Y-83240D02*
X128460Y-83260D01*
X128480Y-69650D02*
X128480Y-83240D01*
X128900Y-69230D02*
X128480Y-69650D01*
X127700Y-68800D02*
X127700Y-69310D01*
X127280Y-83240D02*
X127320Y-83280D01*
X127280Y-69730D02*
X127280Y-83240D01*
X127700Y-69310D02*
X127280Y-69730D01*
X126500Y-68800D02*
X126500Y-69360D01*
X126080Y-83240D02*
X126090Y-83250D01*
X126080Y-69780D02*
X126080Y-83240D01*
X126500Y-69360D02*
X126080Y-69780D01*
X125300Y-68800D02*
X125300Y-69300D01*
X124880Y-83270D02*
X124910Y-83300D01*
X124880Y-69720D02*
X124880Y-83270D01*
X125300Y-69300D02*
X124880Y-69720D01*
X112100Y-68800D02*
X112100Y-69080D01*
X111680Y-83420D02*
X111130Y-83970D01*
X111680Y-69500D02*
X111680Y-83420D01*
X112100Y-69080D02*
X111680Y-69500D01*
X110900Y-68800D02*
X110900Y-69020D01*
X110480Y-82960D02*
X109950Y-83490D01*
X110480Y-69440D02*
X110480Y-82960D01*
X110900Y-69020D02*
X110480Y-69440D01*
X109700Y-68800D02*
X109700Y-69120D01*
X109280Y-83120D02*
X108600Y-83800D01*
X109280Y-69540D02*
X109280Y-83120D01*
X109700Y-69120D02*
X109280Y-69540D01*
X118100Y-68800D02*
X118100Y-69040D01*
X117680Y-83110D02*
X117980Y-83410D01*
X117680Y-69460D02*
X117680Y-83110D01*
X118100Y-69040D02*
X117680Y-69460D01*
X116900Y-68800D02*
X116900Y-69120D01*
X116480Y-83250D02*
X116530Y-83300D01*
X116480Y-69540D02*
X116480Y-83250D01*
X116900Y-69120D02*
X116480Y-69540D01*
X115700Y-68800D02*
X115700Y-69090D01*
X115280Y-83270D02*
X115460Y-83450D01*
X115280Y-69510D02*
X115280Y-83270D01*
X115700Y-69090D02*
X115280Y-69510D01*
X114500Y-68800D02*
X114500Y-69370D01*
X114080Y-83400D02*
X114250Y-83570D01*
X114080Y-69790D02*
X114080Y-83400D01*
X114500Y-69370D02*
X114080Y-69790D01*
X113300Y-68800D02*
X113300Y-69120D01*
X112910Y-82380D02*
X112320Y-82970D01*
X112910Y-69510D02*
X112910Y-82380D01*
X113300Y-69120D02*
X112910Y-69510D01*
X132500Y-37700D02*
X131528Y-37700D01*
X131528Y-37700D02*
X131408Y-37820D01*
X131408Y-37820D02*
X131408Y-38372D01*
X131408Y-38372D02*
X130840Y-38940D01*
X130840Y-38940D02*
X130840Y-41544D01*
X130840Y-41544D02*
X130618Y-41766D01*
X130618Y-41766D02*
X127526Y-41766D01*
X127526Y-41766D02*
X126096Y-43196D01*
X126096Y-43196D02*
X126096Y-44834D01*
X126096Y-44834D02*
X125388Y-45542D01*
X125388Y-45542D02*
X123438Y-45542D01*
X123438Y-45542D02*
X123280Y-45384D01*
X132500Y-43700D02*
X132500Y-43204D01*
X132500Y-43204D02*
X132020Y-42724D01*
X132020Y-42724D02*
X127928Y-42724D01*
X127928Y-42724D02*
X127056Y-43596D01*
X127056Y-43596D02*
X127056Y-45232D01*
X127056Y-45232D02*
X125486Y-46802D01*
X125486Y-46802D02*
X123436Y-46802D01*
X123436Y-46802D02*
X123280Y-46646D01*
X132500Y-39200D02*
X131406Y-39200D01*
X131406Y-39200D02*
X131080Y-39526D01*
X131080Y-39526D02*
X131080Y-41646D01*
X131080Y-41646D02*
X130720Y-42006D01*
X130720Y-42006D02*
X127626Y-42006D01*
X127626Y-42006D02*
X126336Y-43296D01*
X126336Y-43296D02*
X126336Y-44932D01*
X126336Y-44932D02*
X125412Y-45856D01*
X125412Y-45856D02*
X123436Y-45856D01*
X123436Y-45856D02*
X123280Y-45700D01*
X132500Y-40700D02*
X131458Y-40700D01*
X131458Y-40700D02*
X131318Y-40840D01*
X131318Y-40840D02*
X131318Y-42134D01*
X131318Y-42134D02*
X131206Y-42246D01*
X131206Y-42246D02*
X127726Y-42246D01*
X127726Y-42246D02*
X126576Y-43396D01*
X126576Y-43396D02*
X126576Y-45032D01*
X126576Y-45032D02*
X125436Y-46172D01*
X125436Y-46172D02*
X123436Y-46172D01*
X123436Y-46172D02*
X123278Y-46014D01*
X132500Y-42200D02*
X131590Y-42200D01*
X131590Y-42200D02*
X131304Y-42486D01*
X131304Y-42486D02*
X127826Y-42486D01*
X127826Y-42486D02*
X126816Y-43496D01*
X126816Y-43496D02*
X126816Y-45132D01*
X126816Y-45132D02*
X125460Y-46488D01*
X125460Y-46488D02*
X123436Y-46488D01*
X123436Y-46488D02*
X123278Y-46330D01*
X109500Y-55700D02*
X109500Y-55125D01*
X118395Y-49325D02*
X118555Y-49165D01*
X117015Y-49325D02*
X118395Y-49325D01*
X116785Y-49555D02*
X117015Y-49325D01*
X116785Y-49995D02*
X116785Y-49555D01*
X114750Y-52030D02*
X116785Y-49995D01*
X113870Y-52030D02*
X114750Y-52030D01*
X111205Y-54695D02*
X113870Y-52030D01*
X109930Y-54695D02*
X111205Y-54695D01*
X109500Y-55125D02*
X109930Y-54695D01*
X118712Y-44598D02*
X118556Y-44754D01*
X109000Y-34200D02*
X109000Y-34770D01*
X109000Y-34770D02*
X109370Y-35140D01*
X109370Y-35140D02*
X109880Y-35650D01*
X109880Y-35650D02*
X111026Y-35650D01*
X111026Y-35650D02*
X112906Y-37530D01*
X112906Y-37530D02*
X112906Y-38930D01*
X112906Y-38930D02*
X114902Y-40926D01*
X114902Y-40926D02*
X117950Y-40926D01*
X117950Y-40926D02*
X118712Y-41688D01*
X118712Y-41688D02*
X118712Y-44598D01*
X118082Y-44598D02*
X117926Y-44754D01*
X118082Y-42042D02*
X118082Y-44598D01*
X117446Y-41406D02*
X118082Y-42042D01*
X114704Y-41406D02*
X117446Y-41406D01*
X112424Y-39126D02*
X114704Y-41406D01*
X112424Y-37726D02*
X112424Y-39126D01*
X110828Y-36130D02*
X112424Y-37726D01*
X109680Y-36130D02*
X110828Y-36130D01*
X109170Y-35620D02*
X109680Y-36130D01*
X108170Y-35620D02*
X109170Y-35620D01*
X107976Y-35426D02*
X108170Y-35620D01*
X106234Y-35426D02*
X107976Y-35426D01*
X106000Y-34200D02*
X106000Y-35192D01*
X106000Y-35192D02*
X106234Y-35426D01*
X119972Y-44598D02*
X119816Y-44754D01*
X119972Y-41590D02*
X119972Y-44598D01*
X118348Y-39966D02*
X119972Y-41590D01*
X115300Y-39966D02*
X118348Y-39966D01*
X114066Y-38732D02*
X115300Y-39966D01*
X114066Y-34748D02*
X114066Y-38732D01*
X114614Y-34200D02*
X114066Y-34748D01*
X115000Y-34200D02*
X114614Y-34200D01*
X119656Y-44598D02*
X119500Y-44754D01*
X119656Y-41614D02*
X119656Y-44598D01*
X118248Y-40206D02*
X119656Y-41614D01*
X115202Y-40206D02*
X118248Y-40206D01*
X113624Y-38628D02*
X115202Y-40206D01*
X113624Y-36502D02*
X113624Y-38628D01*
X113500Y-36378D02*
X113624Y-36502D01*
X113500Y-34200D02*
X113500Y-36378D01*
X120286Y-44598D02*
X120130Y-44754D01*
X120286Y-41564D02*
X120286Y-44598D01*
X118448Y-39726D02*
X120286Y-41564D01*
X115954Y-39726D02*
X118448Y-39726D01*
X115566Y-39338D02*
X115954Y-39726D01*
X115566Y-34592D02*
X115566Y-39338D01*
X115958Y-34200D02*
X115566Y-34592D01*
X116500Y-34200D02*
X115958Y-34200D01*
X120602Y-44596D02*
X120444Y-44754D01*
X120602Y-41542D02*
X120602Y-44596D01*
X118546Y-39486D02*
X120602Y-41542D01*
X117524Y-39486D02*
X118546Y-39486D01*
X116998Y-38960D02*
X117524Y-39486D01*
X116998Y-34602D02*
X116998Y-38960D01*
X117400Y-34200D02*
X116998Y-34602D01*
X118000Y-34200D02*
X117400Y-34200D01*
X117768Y-44598D02*
X117612Y-44754D01*
X117768Y-42068D02*
X117768Y-44598D01*
X117346Y-41646D02*
X117768Y-42068D01*
X114606Y-41646D02*
X117346Y-41646D01*
X112184Y-39224D02*
X114606Y-41646D01*
X112184Y-37826D02*
X112184Y-39224D01*
X110728Y-36370D02*
X112184Y-37826D01*
X105094Y-36370D02*
X110728Y-36370D01*
X104572Y-35848D02*
X105094Y-36370D01*
X104500Y-35776D02*
X104572Y-35848D01*
X104500Y-34200D02*
X104500Y-35776D01*
X119342Y-44598D02*
X119186Y-44754D01*
X119342Y-41638D02*
X119342Y-44598D01*
X118152Y-40448D02*
X119342Y-41638D01*
X115104Y-40448D02*
X118152Y-40448D01*
X113384Y-38728D02*
X115104Y-40448D01*
X113384Y-37328D02*
X113384Y-38728D01*
X111004Y-34948D02*
X113384Y-37328D01*
X111004Y-34678D02*
X111004Y-34948D01*
X111482Y-34200D02*
X111004Y-34678D01*
X112000Y-34200D02*
X111482Y-34200D01*
X119028Y-44596D02*
X118870Y-44754D01*
X119028Y-41664D02*
X119028Y-44596D01*
X118050Y-40686D02*
X119028Y-41664D01*
X115002Y-40686D02*
X118050Y-40686D01*
X113144Y-38828D02*
X115002Y-40686D01*
X113144Y-37428D02*
X113144Y-38828D01*
X111126Y-35410D02*
X113144Y-37428D01*
X109980Y-35410D02*
X111126Y-35410D01*
X109520Y-34950D02*
X109980Y-35410D01*
X109520Y-34376D02*
X109520Y-34950D01*
X109696Y-34200D02*
X109520Y-34376D01*
X110500Y-34200D02*
X109696Y-34200D01*
X112000Y-58700D02*
X112600Y-58700D01*
X112600Y-58700D02*
X113000Y-58300D01*
X113000Y-58300D02*
X113000Y-55775D01*
X113000Y-55775D02*
X113440Y-55335D01*
X113440Y-55335D02*
X113440Y-54665D01*
X113440Y-54665D02*
X114515Y-53590D01*
X118710Y-49640D02*
X118870Y-49480D01*
X118710Y-51610D02*
X118710Y-49640D01*
X118130Y-52190D02*
X118710Y-51610D01*
X116795Y-52190D02*
X118130Y-52190D01*
X115395Y-53590D02*
X116795Y-52190D01*
X114515Y-53590D02*
X115395Y-53590D01*
X110500Y-58700D02*
X111120Y-58700D01*
X111120Y-58700D02*
X111505Y-58315D01*
X111505Y-58315D02*
X111505Y-56930D01*
X111505Y-56930D02*
X113200Y-55235D01*
X113200Y-55235D02*
X113200Y-54565D01*
X113200Y-54565D02*
X114415Y-53350D01*
X118395Y-49640D02*
X118555Y-49480D01*
X118395Y-51585D02*
X118395Y-49640D01*
X118030Y-51950D02*
X118395Y-51585D01*
X116695Y-51950D02*
X118030Y-51950D01*
X115295Y-53350D02*
X116695Y-51950D01*
X114415Y-53350D02*
X115295Y-53350D01*
X115000Y-58700D02*
X115470Y-58700D01*
X115470Y-58700D02*
X116000Y-58170D01*
X116000Y-58170D02*
X116000Y-53670D01*
X116000Y-53670D02*
X117000Y-52670D01*
X117000Y-52670D02*
X118330Y-52670D01*
X118330Y-52670D02*
X119340Y-51660D01*
X119340Y-49640D02*
X119500Y-49480D01*
X119340Y-51660D02*
X119340Y-49640D01*
X113500Y-58700D02*
X114025Y-58700D01*
X114025Y-58700D02*
X114490Y-58235D01*
X114490Y-58235D02*
X114490Y-53955D01*
X114490Y-53955D02*
X114615Y-53830D01*
X114615Y-53830D02*
X115495Y-53830D01*
X115495Y-53830D02*
X116895Y-52430D01*
X119025Y-49640D02*
X119185Y-49480D01*
X119025Y-51635D02*
X119025Y-49640D01*
X118230Y-52430D02*
X119025Y-51635D01*
X116895Y-52430D02*
X118230Y-52430D01*
X107500Y-58700D02*
X108240Y-58700D01*
X108240Y-58700D02*
X108510Y-58430D01*
X108510Y-58430D02*
X108510Y-57170D01*
X108510Y-57170D02*
X108820Y-56860D01*
X108820Y-56860D02*
X110900Y-56860D01*
X110900Y-56860D02*
X112720Y-55040D01*
X114915Y-52870D02*
X115100Y-52870D01*
X117765Y-49640D02*
X117925Y-49480D01*
X117765Y-51355D02*
X117765Y-49640D01*
X117650Y-51470D02*
X117765Y-51355D01*
X116500Y-51470D02*
X117650Y-51470D01*
X115100Y-52870D02*
X116500Y-51470D01*
X114220Y-52870D02*
X114915Y-52870D01*
X112720Y-54370D02*
X114220Y-52870D01*
X112720Y-55040D02*
X112720Y-54370D01*
X109000Y-58700D02*
X109620Y-58700D01*
X109620Y-58700D02*
X110010Y-58310D01*
X110010Y-58310D02*
X110010Y-57490D01*
X110010Y-57490D02*
X110400Y-57100D01*
X110400Y-57100D02*
X110995Y-57100D01*
X110995Y-57100D02*
X112960Y-55135D01*
X118080Y-49640D02*
X118240Y-49480D01*
X118080Y-51555D02*
X118080Y-49640D01*
X117925Y-51710D02*
X118080Y-51555D01*
X116595Y-51710D02*
X117925Y-51710D01*
X115195Y-53110D02*
X116595Y-51710D01*
X114315Y-53110D02*
X115195Y-53110D01*
X112960Y-54465D02*
X114315Y-53110D01*
X112960Y-55135D02*
X112960Y-54465D01*
X120915Y-49640D02*
X121075Y-49480D01*
X120915Y-51135D02*
X120915Y-49640D01*
X123085Y-53305D02*
X120915Y-51135D01*
X123085Y-58325D02*
X123085Y-53305D01*
X122500Y-58700D02*
X122710Y-58700D01*
X122710Y-58700D02*
X123085Y-58325D01*
X121860Y-49640D02*
X122020Y-49480D01*
X121860Y-51065D02*
X121860Y-49640D01*
X123220Y-52425D02*
X121860Y-51065D01*
X123705Y-52425D02*
X123220Y-52425D01*
X125000Y-53720D02*
X123705Y-52425D01*
X125935Y-53720D02*
X125000Y-53720D01*
X126180Y-53965D02*
X125935Y-53720D01*
X127400Y-53965D02*
X126180Y-53965D01*
X127545Y-54110D02*
X127400Y-53965D01*
X127545Y-58355D02*
X127545Y-54110D01*
X127000Y-58700D02*
X127200Y-58700D01*
X127200Y-58700D02*
X127545Y-58355D01*
X121545Y-49640D02*
X121705Y-49480D01*
X121545Y-51090D02*
X121545Y-49640D01*
X123120Y-52665D02*
X121545Y-51090D01*
X123595Y-52665D02*
X123120Y-52665D01*
X124890Y-53960D02*
X123595Y-52665D01*
X125835Y-53960D02*
X124890Y-53960D01*
X126085Y-54210D02*
X125835Y-53960D01*
X126085Y-58415D02*
X126085Y-54210D01*
X125500Y-58700D02*
X125800Y-58700D01*
X125800Y-58700D02*
X126085Y-58415D01*
X121385Y-49480D02*
X121390Y-49480D01*
X121235Y-49630D02*
X121385Y-49480D01*
X121235Y-51115D02*
X121235Y-49630D01*
X123025Y-52905D02*
X121235Y-51115D01*
X123495Y-52905D02*
X123025Y-52905D01*
X124570Y-53980D02*
X123495Y-52905D01*
X124570Y-58295D02*
X124570Y-53980D01*
X124000Y-58700D02*
X124165Y-58700D01*
X124165Y-58700D02*
X124570Y-58295D01*
X118000Y-58700D02*
X118600Y-58700D01*
X118600Y-58700D02*
X118980Y-58320D01*
X118980Y-58320D02*
X118980Y-52700D01*
X118980Y-52700D02*
X119975Y-51705D01*
X119975Y-51705D02*
X119975Y-49630D01*
X119975Y-49630D02*
X120130Y-49475D01*
X116500Y-58700D02*
X117100Y-58700D01*
X117100Y-58700D02*
X117480Y-58320D01*
X117480Y-58320D02*
X117480Y-53100D01*
X117480Y-53100D02*
X117670Y-52910D01*
X117670Y-52910D02*
X118430Y-52910D01*
X118430Y-52910D02*
X119660Y-51680D01*
X119660Y-49640D02*
X119820Y-49480D01*
X119660Y-51680D02*
X119660Y-49640D01*
X120290Y-49635D02*
X120445Y-49480D01*
X120290Y-52190D02*
X120290Y-49635D01*
X120500Y-52400D02*
X120290Y-52190D01*
X120500Y-58310D02*
X120500Y-52400D01*
X120110Y-58700D02*
X120500Y-58310D01*
X119500Y-58700D02*
X120110Y-58700D01*
X120600Y-49640D02*
X120760Y-49480D01*
X120600Y-51990D02*
X120600Y-49640D01*
X121640Y-53030D02*
X120600Y-51990D01*
X121640Y-58400D02*
X121640Y-53030D01*
X121340Y-58700D02*
X121640Y-58400D01*
X121000Y-58700D02*
X121340Y-58700D01*
X125500Y-34200D02*
X124900Y-34200D01*
X124900Y-34200D02*
X124490Y-34610D01*
X124490Y-34610D02*
X124490Y-38512D01*
X124490Y-38512D02*
X122176Y-40826D01*
X122176Y-44598D02*
X122020Y-44754D01*
X122176Y-40826D02*
X122176Y-44598D01*
X124000Y-34200D02*
X123552Y-34200D01*
X123552Y-34200D02*
X123020Y-34732D01*
X123020Y-34732D02*
X123020Y-39110D01*
X123020Y-39110D02*
X121862Y-40268D01*
X121862Y-40268D02*
X121862Y-44598D01*
X121862Y-44598D02*
X121706Y-44754D01*
X128500Y-34200D02*
X127846Y-34200D01*
X127846Y-34200D02*
X127490Y-34556D01*
X127490Y-34556D02*
X127490Y-38708D01*
X127490Y-38708D02*
X126920Y-39278D01*
X122806Y-44598D02*
X122650Y-44754D01*
X122806Y-40872D02*
X122806Y-44598D01*
X123498Y-40180D02*
X122806Y-40872D01*
X124194Y-40180D02*
X123498Y-40180D01*
X125096Y-39278D02*
X124194Y-40180D01*
X126920Y-39278D02*
X125096Y-39278D01*
X127000Y-34200D02*
X126372Y-34200D01*
X126372Y-34200D02*
X126004Y-34568D01*
X126004Y-34568D02*
X126004Y-38728D01*
X126004Y-38728D02*
X125694Y-39038D01*
X122492Y-44598D02*
X122336Y-44754D01*
X122492Y-40846D02*
X122492Y-44598D01*
X123398Y-39940D02*
X122492Y-40846D01*
X124094Y-39940D02*
X123398Y-39940D01*
X124996Y-39038D02*
X124094Y-39940D01*
X125694Y-39038D02*
X124996Y-39038D01*
X119500Y-34200D02*
X118998Y-34200D01*
X118998Y-34200D02*
X118574Y-34624D01*
X118574Y-34624D02*
X118574Y-39174D01*
X118574Y-39174D02*
X120916Y-41516D01*
X120916Y-44598D02*
X120760Y-44754D01*
X120916Y-41516D02*
X120916Y-44598D01*
X122500Y-34200D02*
X121816Y-34200D01*
X121816Y-34200D02*
X121500Y-34516D01*
X121500Y-34516D02*
X121500Y-40206D01*
X121500Y-40206D02*
X121546Y-40252D01*
X121546Y-44598D02*
X121390Y-44754D01*
X121546Y-40252D02*
X121546Y-44598D01*
X121000Y-34200D02*
X120498Y-34200D01*
X120498Y-34200D02*
X120116Y-34582D01*
X120116Y-34582D02*
X120116Y-39316D01*
X120116Y-39316D02*
X121232Y-40432D01*
X121232Y-44598D02*
X121076Y-44754D01*
X121232Y-40432D02*
X121232Y-44598D01*
X136000Y-34200D02*
X135356Y-34200D01*
X135356Y-34200D02*
X135000Y-34556D01*
X135000Y-34556D02*
X135000Y-35180D01*
X135000Y-35180D02*
X134620Y-35560D01*
X124382Y-44598D02*
X124224Y-44756D01*
X124382Y-41688D02*
X124382Y-44598D01*
X125592Y-40478D02*
X124382Y-41688D01*
X127416Y-40478D02*
X125592Y-40478D01*
X129050Y-38844D02*
X127416Y-40478D01*
X129050Y-36722D02*
X129050Y-38844D01*
X129846Y-35926D02*
X129050Y-36722D01*
X132052Y-35926D02*
X129846Y-35926D01*
X132418Y-35560D02*
X132052Y-35926D01*
X134620Y-35560D02*
X132418Y-35560D01*
X134500Y-34200D02*
X133906Y-34200D01*
X133514Y-35020D02*
X133212Y-35322D01*
X133514Y-34592D02*
X133514Y-35020D01*
X133906Y-34200D02*
X133514Y-34592D01*
X132318Y-35322D02*
X131954Y-35686D01*
X133212Y-35322D02*
X132318Y-35322D01*
X129746Y-35686D02*
X128810Y-36622D01*
X131954Y-35686D02*
X129746Y-35686D01*
X124066Y-41422D02*
X124066Y-41304D01*
X124066Y-41304D02*
X124230Y-41140D01*
X124592Y-41140D02*
X124230Y-41140D01*
X125494Y-40238D02*
X124592Y-41140D01*
X127318Y-40238D02*
X125494Y-40238D01*
X128810Y-38746D02*
X127318Y-40238D01*
X128810Y-36622D02*
X128810Y-38746D01*
X124066Y-44596D02*
X123908Y-44754D01*
X124066Y-41422D02*
X124066Y-44596D01*
X114825Y-52630D02*
X115000Y-52630D01*
X115000Y-52630D02*
X116400Y-51230D01*
X106780Y-58700D02*
X106970Y-58510D01*
X106970Y-58510D02*
X106970Y-56850D01*
X106970Y-56850D02*
X107200Y-56620D01*
X107200Y-56620D02*
X110800Y-56620D01*
X110800Y-56620D02*
X112480Y-54940D01*
X112480Y-54940D02*
X112480Y-54270D01*
X112480Y-54270D02*
X114120Y-52630D01*
X114120Y-52630D02*
X114825Y-52630D01*
X106780Y-58700D02*
X106000Y-58700D01*
X116400Y-51230D02*
X117300Y-51230D01*
X117300Y-51230D02*
X117450Y-51080D01*
X117450Y-49640D02*
X117610Y-49480D01*
X117450Y-51080D02*
X117450Y-49640D01*
X104500Y-58700D02*
X105310Y-58700D01*
X105310Y-58700D02*
X105500Y-58510D01*
X105500Y-58510D02*
X105500Y-56770D01*
X117135Y-49640D02*
X117295Y-49480D01*
X117135Y-50500D02*
X117135Y-49640D01*
X117055Y-50580D02*
X117135Y-50500D01*
X116710Y-50580D02*
X117055Y-50580D01*
X114900Y-52390D02*
X116710Y-50580D01*
X114020Y-52390D02*
X114900Y-52390D01*
X112240Y-54170D02*
X114020Y-52390D01*
X112240Y-54835D02*
X112240Y-54170D01*
X110695Y-56380D02*
X112240Y-54835D01*
X105890Y-56380D02*
X110695Y-56380D01*
X105500Y-56770D02*
X105890Y-56380D01*
X137500Y-34200D02*
X136856Y-34200D01*
X136856Y-34200D02*
X136500Y-34556D01*
X136500Y-34556D02*
X136500Y-35068D01*
X136500Y-35068D02*
X135768Y-35800D01*
X135768Y-35800D02*
X132518Y-35800D01*
X132518Y-35800D02*
X132156Y-36162D01*
X124692Y-44604D02*
X124542Y-44754D01*
X124692Y-41720D02*
X124692Y-44604D01*
X125694Y-40718D02*
X124692Y-41720D01*
X127514Y-40718D02*
X125694Y-40718D01*
X129290Y-38942D02*
X127514Y-40718D01*
X129290Y-36822D02*
X129290Y-38942D01*
X129950Y-36162D02*
X129290Y-36822D01*
X132156Y-36162D02*
X129950Y-36162D01*
X130000Y-34200D02*
X129454Y-34200D01*
X129454Y-34200D02*
X129064Y-34590D01*
X129064Y-34590D02*
X129064Y-35352D01*
X129064Y-35352D02*
X128090Y-36326D01*
X123122Y-44600D02*
X122966Y-44756D01*
X123122Y-40896D02*
X123122Y-44600D01*
X123598Y-40420D02*
X123122Y-40896D01*
X124292Y-40420D02*
X123598Y-40420D01*
X125194Y-39518D02*
X124292Y-40420D01*
X127020Y-39518D02*
X125194Y-39518D01*
X128090Y-38448D02*
X127020Y-39518D01*
X128090Y-36326D02*
X128090Y-38448D01*
X133000Y-34200D02*
X132416Y-34200D01*
X132416Y-34200D02*
X132056Y-34560D01*
X132056Y-34560D02*
X132056Y-35244D01*
X132056Y-35244D02*
X131854Y-35446D01*
X123750Y-44598D02*
X123594Y-44754D01*
X123750Y-40946D02*
X123750Y-44598D01*
X123796Y-40900D02*
X123750Y-40946D01*
X124492Y-40900D02*
X123796Y-40900D01*
X125394Y-39998D02*
X124492Y-40900D01*
X127218Y-39998D02*
X125394Y-39998D01*
X128570Y-38646D02*
X127218Y-39998D01*
X128570Y-36524D02*
X128570Y-38646D01*
X129648Y-35446D02*
X128570Y-36524D01*
X131854Y-35446D02*
X129648Y-35446D01*
X131500Y-34200D02*
X130906Y-34200D01*
X130906Y-34200D02*
X130526Y-34580D01*
X130526Y-34580D02*
X130526Y-34968D01*
X130526Y-34968D02*
X130288Y-35206D01*
X130288Y-35206D02*
X129546Y-35206D01*
X129546Y-35206D02*
X128330Y-36422D01*
X123436Y-44598D02*
X123280Y-44754D01*
X123436Y-40922D02*
X123436Y-44598D01*
X123698Y-40660D02*
X123436Y-40922D01*
X124392Y-40660D02*
X123698Y-40660D01*
X125294Y-39758D02*
X124392Y-40660D01*
X127118Y-39758D02*
X125294Y-39758D01*
X128330Y-38546D02*
X127118Y-39758D01*
X128330Y-36422D02*
X128330Y-38546D01*
X131300Y-68800D02*
X131300Y-69140D01*
X130880Y-83240D02*
X130890Y-83250D01*
X130880Y-69560D02*
X130880Y-83240D01*
X131300Y-69140D02*
X130880Y-69560D01*
X132500Y-68800D02*
X132500Y-69250D01*
X132080Y-82940D02*
X132400Y-83260D01*
X132080Y-69670D02*
X132080Y-82940D01*
X132500Y-69250D02*
X132080Y-69670D01*
M02*
