G04 (created by PCBNEW (2012-oct-18)-testing) date Mon 18 Feb 2013 10:37:03 UTC*
%MOIN*%
G04 Gerber Fmt 3.4, Leading zero omitted, Abs format*
%FSLAX34Y34*%
G01*
G70*
G90*
G04 APERTURE LIST*
%ADD10C,0.006*%
%ADD11R,0.06X0.06*%
%ADD12C,0.16*%
%ADD13C,0.0145*%
%ADD14C,0.008*%
G04 APERTURE END LIST*
G54D10*
G54D11*
X109500Y-45200D03*
X109500Y-37700D03*
X109500Y-39200D03*
X109500Y-42200D03*
X109500Y-43700D03*
X109500Y-46700D03*
X107500Y-37700D03*
X107500Y-39200D03*
X107500Y-42200D03*
X107500Y-43700D03*
X107500Y-45200D03*
X107500Y-46700D03*
X101500Y-49700D03*
X101500Y-37700D03*
X101500Y-39200D03*
X101500Y-42200D03*
X101500Y-43700D03*
X101500Y-45200D03*
X101500Y-46700D03*
X137500Y-66700D03*
X137500Y-64700D03*
X137500Y-62700D03*
X137500Y-60700D03*
X137500Y-58700D03*
X136000Y-66700D03*
X136000Y-64700D03*
X136000Y-62700D03*
X136000Y-60700D03*
X105500Y-37700D03*
X105500Y-39200D03*
X105500Y-42200D03*
X105500Y-43700D03*
X105500Y-45200D03*
X105500Y-46700D03*
X103500Y-37700D03*
X103500Y-39200D03*
X103500Y-42200D03*
X103500Y-43700D03*
X103500Y-45200D03*
X103500Y-46700D03*
X136000Y-58700D03*
X115000Y-34200D03*
X122500Y-30200D03*
X121000Y-34200D03*
X121000Y-32200D03*
X121000Y-30200D03*
X119500Y-34200D03*
X119500Y-32200D03*
X119500Y-30200D03*
X118000Y-34200D03*
X118000Y-32200D03*
X118000Y-30200D03*
X116500Y-34200D03*
X116500Y-32200D03*
X116500Y-30200D03*
X122500Y-32200D03*
X115000Y-32200D03*
X115000Y-30200D03*
X113500Y-34200D03*
X113500Y-32200D03*
X113500Y-30200D03*
X112000Y-34200D03*
X112000Y-32200D03*
X112000Y-30200D03*
X110500Y-34200D03*
X110500Y-32200D03*
X110500Y-30200D03*
X109000Y-34200D03*
X109000Y-32200D03*
X128500Y-34200D03*
X136000Y-30200D03*
X134500Y-34200D03*
X134500Y-32200D03*
X134500Y-30200D03*
X133000Y-34200D03*
X133000Y-32200D03*
X133000Y-30200D03*
X131500Y-34200D03*
X131500Y-32200D03*
X131500Y-30200D03*
X130000Y-34200D03*
X130000Y-32200D03*
X130000Y-30200D03*
X109000Y-30200D03*
X128500Y-32200D03*
X128500Y-30200D03*
X127000Y-34200D03*
X127000Y-32200D03*
X127000Y-30200D03*
X125500Y-34200D03*
X125500Y-32200D03*
X125500Y-30200D03*
X124000Y-34200D03*
X124000Y-32200D03*
X124000Y-30200D03*
X122500Y-34200D03*
X125500Y-26200D03*
X110500Y-28200D03*
X109000Y-28200D03*
X107500Y-28200D03*
X106000Y-28200D03*
X104500Y-28200D03*
X137500Y-26200D03*
X136000Y-26200D03*
X134500Y-26200D03*
X133000Y-26200D03*
X131500Y-26200D03*
X130000Y-26200D03*
X127000Y-26200D03*
X128500Y-26200D03*
X112000Y-28200D03*
X124000Y-26200D03*
X122500Y-26200D03*
X121000Y-26200D03*
X119500Y-26200D03*
X116500Y-26200D03*
X118000Y-26200D03*
X115000Y-26200D03*
X113500Y-26200D03*
X112000Y-26200D03*
X110500Y-26200D03*
X109000Y-26200D03*
X106000Y-26200D03*
X107500Y-26200D03*
X131500Y-28200D03*
X107500Y-34200D03*
X107500Y-32200D03*
X107500Y-30200D03*
X106000Y-34200D03*
X106000Y-32200D03*
X106000Y-30200D03*
X104500Y-34200D03*
X104500Y-32200D03*
X104500Y-30200D03*
X137500Y-28200D03*
X136000Y-28200D03*
X134500Y-28200D03*
X133000Y-28200D03*
X136000Y-32200D03*
X130000Y-28200D03*
X128500Y-28200D03*
X127000Y-28200D03*
X125500Y-28200D03*
X124000Y-28200D03*
X122500Y-28200D03*
X121000Y-28200D03*
X119500Y-28200D03*
X118000Y-28200D03*
X116500Y-28200D03*
X115000Y-28200D03*
X113500Y-28200D03*
X122500Y-66700D03*
X127000Y-62700D03*
X127000Y-60700D03*
X127000Y-58700D03*
X125500Y-66700D03*
X125500Y-64700D03*
X125500Y-62700D03*
X125500Y-60700D03*
X125500Y-58700D03*
X124000Y-66700D03*
X124000Y-64700D03*
X124000Y-62700D03*
X124000Y-60700D03*
X124000Y-58700D03*
X127000Y-64700D03*
X122500Y-64700D03*
X122500Y-62700D03*
X122500Y-60700D03*
X122500Y-58700D03*
X121000Y-66700D03*
X121000Y-64700D03*
X121000Y-62700D03*
X121000Y-60700D03*
X121000Y-58700D03*
X119500Y-66700D03*
X119500Y-64700D03*
X119500Y-62700D03*
X119500Y-60700D03*
X131500Y-60700D03*
X134500Y-66700D03*
X134500Y-64700D03*
X134500Y-62700D03*
X134500Y-60700D03*
X134500Y-58700D03*
X133000Y-66700D03*
X133000Y-64700D03*
X133000Y-62700D03*
X133000Y-60700D03*
X133000Y-58700D03*
X131500Y-66700D03*
X131500Y-64700D03*
X131500Y-62700D03*
X119500Y-58700D03*
X131500Y-58700D03*
X130000Y-66700D03*
X130000Y-64700D03*
X130000Y-62700D03*
X130000Y-60700D03*
X130000Y-58700D03*
X128500Y-66700D03*
X128500Y-64700D03*
X128500Y-62700D03*
X128500Y-60700D03*
X128500Y-58700D03*
X127000Y-66700D03*
X106000Y-66700D03*
X110500Y-62700D03*
X110500Y-60700D03*
X110500Y-58700D03*
X109000Y-66700D03*
X109000Y-64700D03*
X109000Y-62700D03*
X109000Y-60700D03*
X109000Y-58700D03*
X107500Y-66700D03*
X107500Y-64700D03*
X107500Y-62700D03*
X107500Y-60700D03*
X107500Y-58700D03*
X110500Y-64700D03*
X106000Y-64700D03*
X106000Y-62700D03*
X106000Y-60700D03*
X106000Y-58700D03*
X104500Y-66700D03*
X104500Y-64700D03*
X104500Y-62700D03*
X104500Y-60700D03*
X104500Y-58700D03*
X137500Y-34200D03*
X137500Y-32200D03*
X137500Y-30200D03*
X136000Y-34200D03*
X115000Y-60700D03*
X118000Y-66700D03*
X118000Y-64700D03*
X118000Y-62700D03*
X118000Y-60700D03*
X118000Y-58700D03*
X116500Y-66700D03*
X116500Y-64700D03*
X116500Y-62700D03*
X116500Y-60700D03*
X116500Y-58700D03*
X115000Y-66700D03*
X115000Y-64700D03*
X115000Y-62700D03*
X104500Y-26200D03*
X115000Y-58700D03*
X113500Y-66700D03*
X113500Y-64700D03*
X113500Y-62700D03*
X113500Y-60700D03*
X113500Y-58700D03*
X112000Y-66700D03*
X112000Y-64700D03*
X112000Y-62700D03*
X112000Y-60700D03*
X112000Y-58700D03*
X110500Y-66700D03*
X134500Y-51200D03*
X132500Y-45200D03*
X132500Y-43700D03*
X132500Y-42200D03*
X132500Y-40700D03*
X132500Y-39200D03*
X132500Y-37700D03*
X134500Y-55700D03*
X136500Y-54200D03*
X134500Y-52700D03*
X132500Y-46700D03*
X134500Y-49700D03*
X134500Y-48200D03*
X134500Y-46700D03*
X134500Y-45200D03*
X134500Y-43700D03*
X134500Y-42200D03*
X134500Y-40700D03*
X134500Y-39200D03*
X134500Y-37700D03*
X127000Y-38200D03*
X125500Y-38200D03*
X125500Y-36200D03*
X127000Y-56700D03*
X127000Y-54700D03*
X130500Y-49700D03*
X130500Y-48200D03*
X130500Y-46700D03*
X130500Y-45200D03*
X130500Y-43700D03*
X136500Y-55700D03*
X127000Y-36200D03*
X132500Y-54200D03*
X132500Y-55700D03*
X134500Y-54200D03*
X132500Y-52700D03*
X132500Y-51200D03*
X132500Y-49700D03*
X132500Y-48200D03*
X140500Y-51200D03*
X138500Y-45200D03*
X138500Y-43700D03*
X138500Y-42200D03*
X138500Y-40700D03*
X138500Y-39200D03*
X138500Y-37700D03*
X140500Y-55700D03*
X101500Y-54200D03*
X140500Y-52700D03*
X138500Y-46700D03*
X140500Y-49700D03*
X140500Y-48200D03*
X140500Y-46700D03*
X140500Y-45200D03*
X140500Y-43700D03*
X140500Y-42200D03*
X140500Y-40700D03*
X140500Y-39200D03*
X140500Y-37700D03*
X136500Y-40700D03*
X138500Y-54200D03*
X136500Y-52700D03*
X136500Y-51200D03*
X136500Y-49700D03*
X136500Y-48200D03*
X136500Y-46700D03*
X136500Y-45200D03*
X136500Y-43700D03*
X136500Y-42200D03*
X128500Y-43700D03*
X136500Y-39200D03*
X136500Y-37700D03*
X138500Y-55700D03*
X140500Y-54200D03*
X138500Y-52700D03*
X138500Y-51200D03*
X138500Y-49700D03*
X138500Y-48200D03*
X109500Y-51200D03*
X107500Y-55700D03*
X109500Y-54200D03*
X107500Y-52700D03*
X107500Y-51200D03*
X107500Y-49700D03*
X107500Y-48200D03*
X107500Y-40700D03*
X109500Y-55700D03*
X109500Y-52700D03*
X105500Y-40700D03*
X109500Y-49700D03*
X109500Y-48200D03*
X109500Y-40700D03*
X115000Y-56700D03*
X115000Y-54700D03*
X111500Y-49700D03*
X111500Y-48200D03*
X111500Y-46700D03*
X111500Y-45200D03*
X103500Y-49700D03*
X103500Y-54200D03*
X101500Y-52700D03*
X101500Y-51200D03*
X101500Y-48200D03*
X101500Y-40700D03*
X103500Y-55700D03*
X105500Y-54200D03*
X103500Y-52700D03*
X103500Y-51200D03*
X111500Y-43700D03*
X103500Y-48200D03*
X103500Y-40700D03*
X105500Y-55700D03*
X107500Y-54200D03*
X105500Y-52700D03*
X105500Y-51200D03*
X105500Y-49700D03*
X105500Y-48200D03*
X124000Y-54700D03*
X121000Y-56700D03*
X121000Y-54700D03*
X121000Y-38200D03*
X121000Y-36200D03*
X122500Y-56700D03*
X122500Y-54700D03*
X122500Y-38200D03*
X122500Y-36200D03*
X124000Y-56700D03*
X119500Y-36200D03*
X124000Y-38200D03*
X124000Y-36200D03*
X125500Y-56700D03*
X125500Y-54700D03*
X128500Y-49700D03*
X128500Y-48200D03*
X128500Y-46700D03*
X128500Y-45200D03*
X116500Y-38200D03*
X115000Y-38200D03*
X115000Y-36200D03*
X116500Y-56700D03*
X116500Y-54700D03*
X113500Y-49700D03*
X113500Y-48200D03*
X113500Y-46700D03*
X113500Y-45200D03*
X113500Y-43700D03*
X101500Y-55700D03*
X116500Y-36200D03*
X118000Y-56700D03*
X118000Y-54700D03*
X118000Y-38200D03*
X118000Y-36200D03*
X119500Y-56700D03*
X119500Y-54700D03*
X119500Y-38200D03*
G54D12*
X101000Y-26200D03*
X141000Y-26200D03*
X101000Y-67200D03*
X141000Y-67200D03*
G54D11*
X125300Y-82300D03*
X124100Y-79300D03*
X124100Y-77800D03*
X124100Y-82300D03*
X124100Y-80800D03*
X125300Y-70300D03*
X125300Y-68800D03*
X125300Y-73300D03*
X125300Y-71800D03*
X125300Y-76300D03*
X125300Y-74800D03*
X125300Y-79300D03*
X125300Y-77800D03*
X124100Y-74800D03*
X125300Y-80800D03*
X126500Y-70300D03*
X126500Y-68800D03*
X126500Y-73300D03*
X126500Y-71800D03*
X126500Y-76300D03*
X126500Y-74800D03*
X126500Y-79300D03*
X126500Y-77800D03*
X126500Y-82300D03*
X126500Y-80800D03*
X122900Y-71800D03*
X121700Y-68800D03*
X121700Y-73300D03*
X121700Y-71800D03*
X121700Y-76300D03*
X121700Y-74800D03*
X121700Y-79300D03*
X121700Y-77800D03*
X121700Y-82300D03*
X121700Y-80800D03*
X122900Y-70300D03*
X122900Y-68800D03*
X122900Y-73300D03*
X127700Y-70300D03*
X122900Y-76300D03*
X122900Y-74800D03*
X122900Y-79300D03*
X122900Y-77800D03*
X122900Y-82300D03*
X122900Y-80800D03*
X124100Y-70300D03*
X124100Y-68800D03*
X124100Y-73300D03*
X124100Y-71800D03*
X124100Y-76300D03*
X131300Y-82300D03*
X130100Y-79300D03*
X130100Y-77800D03*
X130100Y-82300D03*
X130100Y-80800D03*
X131300Y-70300D03*
X131300Y-68800D03*
X131300Y-73300D03*
X131300Y-71800D03*
X131300Y-76300D03*
X131300Y-74800D03*
X131300Y-79300D03*
X131300Y-77800D03*
X130100Y-74800D03*
X131300Y-80800D03*
X132500Y-70300D03*
X132500Y-68800D03*
X132500Y-73300D03*
X132500Y-71800D03*
X132500Y-76300D03*
X132500Y-74800D03*
X132500Y-79300D03*
X132500Y-77800D03*
X132500Y-82300D03*
X132500Y-80800D03*
X128900Y-71800D03*
X127700Y-68800D03*
X127700Y-73300D03*
X127700Y-71800D03*
X127700Y-76300D03*
X127700Y-74800D03*
X127700Y-79300D03*
X127700Y-77800D03*
X127700Y-82300D03*
X127700Y-80800D03*
X128900Y-70300D03*
X128900Y-68800D03*
X128900Y-73300D03*
X121700Y-70300D03*
X128900Y-76300D03*
X128900Y-74800D03*
X128900Y-79300D03*
X128900Y-77800D03*
X128900Y-82300D03*
X128900Y-80800D03*
X130100Y-70300D03*
X130100Y-68800D03*
X130100Y-73300D03*
X130100Y-71800D03*
X130100Y-76300D03*
X113300Y-82300D03*
X112100Y-79300D03*
X112100Y-77800D03*
X112100Y-82300D03*
X112100Y-80800D03*
X113300Y-70300D03*
X113300Y-68800D03*
X113300Y-73300D03*
X113300Y-71800D03*
X113300Y-76300D03*
X113300Y-74800D03*
X113300Y-79300D03*
X113300Y-77800D03*
X112100Y-74800D03*
X113300Y-80800D03*
X114500Y-70300D03*
X114500Y-68800D03*
X114500Y-73300D03*
X114500Y-71800D03*
X114500Y-76300D03*
X114500Y-74800D03*
X114500Y-79300D03*
X114500Y-77800D03*
X114500Y-82300D03*
X114500Y-80800D03*
X110900Y-71800D03*
X109700Y-68800D03*
X109700Y-73300D03*
X109700Y-71800D03*
X109700Y-76300D03*
X109700Y-74800D03*
X109700Y-79300D03*
X109700Y-77800D03*
X109700Y-82300D03*
X109700Y-80800D03*
X110900Y-70300D03*
X110900Y-68800D03*
X110900Y-73300D03*
X115700Y-70300D03*
X110900Y-76300D03*
X110900Y-74800D03*
X110900Y-79300D03*
X110900Y-77800D03*
X110900Y-82300D03*
X110900Y-80800D03*
X112100Y-70300D03*
X112100Y-68800D03*
X112100Y-73300D03*
X112100Y-71800D03*
X112100Y-76300D03*
X119300Y-82300D03*
X118100Y-79300D03*
X118100Y-77800D03*
X118100Y-82300D03*
X118100Y-80800D03*
X119300Y-70300D03*
X119300Y-68800D03*
X119300Y-73300D03*
X119300Y-71800D03*
X119300Y-76300D03*
X119300Y-74800D03*
X119300Y-79300D03*
X119300Y-77800D03*
X118100Y-74800D03*
X119300Y-80800D03*
X120500Y-70300D03*
X120500Y-68800D03*
X120500Y-73300D03*
X120500Y-71800D03*
X120500Y-76300D03*
X120500Y-74800D03*
X120500Y-79300D03*
X120500Y-77800D03*
X120500Y-82300D03*
X120500Y-80800D03*
X116900Y-71800D03*
X115700Y-68800D03*
X115700Y-73300D03*
X115700Y-71800D03*
X115700Y-76300D03*
X115700Y-74800D03*
X115700Y-79300D03*
X115700Y-77800D03*
X115700Y-82300D03*
X115700Y-80800D03*
X116900Y-70300D03*
X116900Y-68800D03*
X116900Y-73300D03*
X109700Y-70300D03*
X116900Y-76300D03*
X116900Y-74800D03*
X116900Y-79300D03*
X116900Y-77800D03*
X116900Y-82300D03*
X116900Y-80800D03*
X118100Y-70300D03*
X118100Y-68800D03*
X118100Y-73300D03*
X118100Y-71800D03*
X118100Y-76300D03*
G54D13*
X117925Y-48845D03*
X117925Y-49160D03*
X118240Y-49165D03*
X118555Y-48850D03*
X118240Y-48850D03*
X123280Y-49162D03*
X123596Y-49164D03*
X123910Y-49164D03*
X118555Y-47590D03*
X118555Y-47905D03*
X118240Y-47905D03*
X117925Y-47905D03*
X118240Y-47590D03*
X117925Y-47590D03*
X118240Y-48220D03*
X117925Y-48530D03*
X118240Y-48530D03*
X118555Y-48530D03*
X118555Y-48220D03*
X117925Y-48220D03*
X123280Y-47590D03*
X123596Y-47588D03*
X123910Y-47588D03*
X123910Y-46960D03*
X123596Y-46960D03*
X123280Y-46958D03*
X123910Y-47904D03*
X123280Y-47274D03*
X123596Y-47274D03*
X123910Y-47272D03*
X123910Y-48532D03*
X123596Y-48532D03*
X123280Y-48532D03*
X123282Y-48848D03*
X123596Y-48848D03*
X123910Y-48848D03*
X123596Y-48218D03*
X123596Y-47904D03*
X123280Y-47906D03*
X123280Y-48218D03*
X123910Y-48218D03*
X123280Y-49480D03*
X123595Y-49790D03*
X123595Y-50105D03*
X123280Y-49790D03*
X123280Y-50105D03*
X124225Y-49790D03*
X123910Y-49480D03*
X123910Y-49790D03*
X123910Y-50105D03*
X124225Y-50105D03*
X123595Y-49480D03*
X122335Y-49480D03*
X122340Y-49790D03*
X122335Y-50105D03*
X122020Y-50105D03*
X122965Y-49480D03*
X122965Y-50105D03*
X122965Y-49790D03*
X122650Y-49480D03*
X122650Y-49790D03*
X122650Y-50105D03*
X118240Y-46645D03*
X117925Y-46645D03*
X118555Y-46645D03*
X118555Y-46330D03*
X118240Y-46330D03*
X117925Y-46330D03*
X118555Y-47275D03*
X118240Y-47275D03*
X117925Y-47275D03*
X118555Y-46960D03*
X118240Y-46960D03*
X117925Y-46960D03*
X118240Y-45385D03*
X117925Y-45700D03*
X118556Y-45385D03*
X117925Y-45385D03*
X124220Y-49475D03*
X117925Y-46015D03*
X118555Y-46015D03*
X118240Y-46015D03*
X118555Y-45700D03*
X118240Y-45700D03*
X119500Y-47905D03*
X122336Y-46958D03*
X122020Y-46644D03*
X122334Y-46644D03*
X119815Y-47905D03*
X119815Y-47590D03*
X119500Y-47590D03*
X119815Y-47275D03*
X119500Y-47275D03*
X118242Y-44754D03*
X122338Y-47904D03*
X122022Y-47904D03*
X122336Y-47590D03*
X122022Y-47588D03*
X122022Y-47274D03*
X122338Y-47274D03*
X122022Y-46960D03*
X120760Y-48220D03*
X121390Y-48220D03*
X121390Y-48535D03*
X121075Y-48535D03*
X121075Y-48215D03*
X121705Y-48535D03*
X120760Y-48535D03*
X120445Y-48220D03*
X120445Y-48530D03*
X119815Y-46960D03*
X119500Y-46960D03*
X119815Y-46645D03*
X119500Y-46645D03*
X122020Y-48220D03*
X122020Y-48535D03*
X121705Y-48215D03*
X124210Y-83820D03*
X122500Y-83220D03*
X121340Y-83250D03*
X120670Y-83930D03*
X119490Y-83850D03*
X129720Y-83290D03*
X128460Y-83260D03*
X127320Y-83280D03*
X126090Y-83250D03*
X124910Y-83300D03*
X111130Y-83970D03*
X109950Y-83490D03*
X108600Y-83800D03*
X117980Y-83410D03*
X116530Y-83300D03*
X120135Y-48220D03*
X115460Y-83450D03*
X114250Y-83570D03*
X112320Y-82970D03*
X123280Y-45384D03*
X123594Y-45384D03*
X123908Y-45384D03*
X123908Y-45700D03*
X123594Y-45700D03*
X123596Y-46644D03*
X123910Y-46330D03*
X123280Y-46646D03*
X123910Y-46644D03*
X123280Y-45700D03*
X123278Y-46014D03*
X123594Y-46014D03*
X123908Y-46014D03*
X123278Y-46330D03*
X123594Y-46328D03*
X122018Y-46016D03*
X122020Y-45700D03*
X121702Y-46014D03*
X121704Y-45700D03*
X121388Y-46014D03*
X121390Y-45700D03*
X121074Y-46014D03*
X121074Y-45700D03*
X120760Y-46014D03*
X119500Y-48215D03*
X120130Y-48535D03*
X119815Y-48215D03*
X119815Y-48535D03*
X119500Y-48535D03*
X122334Y-46016D03*
X122336Y-45698D03*
X120130Y-46016D03*
X120760Y-45700D03*
X120444Y-46014D03*
X120444Y-45700D03*
X120130Y-45700D03*
X119816Y-46016D03*
X119816Y-45700D03*
X121705Y-47903D03*
X120130Y-47903D03*
X118555Y-49165D03*
X121390Y-46644D03*
X121706Y-47588D03*
X121390Y-47590D03*
X121076Y-47588D03*
X120760Y-47588D03*
X120446Y-47588D03*
X121706Y-47274D03*
X121390Y-47274D03*
X121076Y-47274D03*
X120762Y-47274D03*
X120448Y-47274D03*
X120132Y-47274D03*
X121706Y-46960D03*
X121390Y-46960D03*
X121078Y-46958D03*
X120762Y-46960D03*
X120132Y-46958D03*
X120446Y-46958D03*
X121076Y-46644D03*
X120760Y-46644D03*
X118555Y-44125D03*
X118555Y-44440D03*
X118556Y-44754D03*
X118870Y-44125D03*
X117925Y-44125D03*
X117925Y-44440D03*
X117926Y-44754D03*
X118240Y-44125D03*
X118240Y-44440D03*
X119816Y-44754D03*
X119816Y-44440D03*
X119816Y-44126D03*
X119500Y-44754D03*
X119500Y-44440D03*
X119500Y-44124D03*
X120130Y-44754D03*
X120444Y-44754D03*
X120446Y-44440D03*
X120446Y-44124D03*
X120130Y-44440D03*
X120130Y-44126D03*
X117610Y-44125D03*
X117610Y-44440D03*
X117612Y-44754D03*
X119186Y-44124D03*
X119186Y-44754D03*
X119186Y-44438D03*
X118870Y-44754D03*
X118870Y-44440D03*
X118870Y-50105D03*
X119185Y-50105D03*
X118870Y-49790D03*
X118870Y-49480D03*
X118555Y-49480D03*
X119500Y-49790D03*
X119500Y-50105D03*
X118555Y-49790D03*
X119500Y-49480D03*
X119185Y-49480D03*
X119185Y-49790D03*
X117925Y-49790D03*
X117925Y-50105D03*
X117610Y-50105D03*
X117925Y-49480D03*
X117295Y-49790D03*
X118555Y-50105D03*
X118240Y-50105D03*
X118240Y-49790D03*
X118240Y-49480D03*
X121390Y-49790D03*
X121390Y-50105D03*
X121075Y-50105D03*
X121075Y-49790D03*
X121075Y-49480D03*
X121705Y-50105D03*
X122020Y-49790D03*
X122020Y-49480D03*
X121705Y-49790D03*
X121705Y-49480D03*
X121390Y-49480D03*
X120130Y-49475D03*
X120130Y-49790D03*
X120130Y-50105D03*
X119820Y-49480D03*
X119815Y-49790D03*
X119820Y-50105D03*
X120445Y-49480D03*
X120760Y-50105D03*
X120760Y-49795D03*
X120760Y-49480D03*
X117610Y-49795D03*
X120445Y-49790D03*
X120445Y-50105D03*
X122020Y-44440D03*
X122020Y-44124D03*
X122020Y-44754D03*
X121706Y-44754D03*
X121704Y-44440D03*
X121706Y-44124D03*
X122650Y-44754D03*
X122650Y-44124D03*
X122650Y-44440D03*
X122336Y-44754D03*
X122336Y-44440D03*
X122336Y-44124D03*
X120760Y-44440D03*
X121076Y-44440D03*
X121076Y-44124D03*
X120760Y-44754D03*
X120760Y-44124D03*
X121390Y-44126D03*
X121390Y-44440D03*
X121390Y-44754D03*
X121076Y-44754D03*
X124224Y-44124D03*
X124224Y-44440D03*
X124224Y-44756D03*
X123908Y-44754D03*
X123910Y-44440D03*
X117610Y-49480D03*
X117295Y-49480D03*
X117295Y-50105D03*
X124542Y-44754D03*
X124538Y-44440D03*
X124538Y-44126D03*
X122966Y-44756D03*
X123280Y-44440D03*
X123280Y-44126D03*
X122964Y-44440D03*
X122964Y-44126D03*
X123910Y-44124D03*
X123594Y-44124D03*
X123594Y-44440D03*
X123594Y-44754D03*
X123280Y-44754D03*
X130890Y-83250D03*
X132400Y-83260D03*
G54D14*
X117025Y-48845D02*
X117925Y-48845D01*
X116454Y-49415D02*
X117025Y-48845D01*
X116454Y-49986D02*
X116454Y-49415D01*
X114651Y-51789D02*
X116454Y-49986D01*
X113771Y-51789D02*
X114651Y-51789D01*
X112366Y-53194D02*
X113771Y-51789D01*
X106020Y-53194D02*
X112366Y-53194D01*
X105500Y-53715D02*
X106020Y-53194D01*
X105500Y-54200D02*
X105500Y-53715D01*
X117050Y-49160D02*
X117925Y-49160D01*
X116694Y-49515D02*
X117050Y-49160D01*
X116694Y-50085D02*
X116694Y-49515D01*
X114750Y-52029D02*
X116694Y-50085D01*
X113870Y-52029D02*
X114750Y-52029D01*
X111205Y-54694D02*
X113870Y-52029D01*
X105965Y-54694D02*
X111205Y-54694D01*
X105500Y-55160D02*
X105965Y-54694D01*
X105500Y-55700D02*
X105500Y-55160D01*
X118080Y-49325D02*
X118240Y-49165D01*
X117055Y-49325D02*
X118080Y-49325D01*
X116814Y-49565D02*
X117055Y-49325D01*
X116814Y-50135D02*
X116814Y-49565D01*
X114800Y-52149D02*
X116814Y-50135D01*
X113920Y-52149D02*
X114800Y-52149D01*
X111255Y-54815D02*
X113920Y-52149D01*
X107845Y-54815D02*
X111255Y-54815D01*
X107500Y-55160D02*
X107845Y-54815D01*
X107500Y-55700D02*
X107500Y-55160D01*
X118085Y-49005D02*
X118240Y-48850D01*
X117035Y-49005D02*
X118085Y-49005D01*
X116574Y-49465D02*
X117035Y-49005D01*
X116574Y-50035D02*
X116574Y-49465D01*
X114700Y-51909D02*
X116574Y-50035D01*
X113820Y-51909D02*
X114700Y-51909D01*
X112415Y-53315D02*
X113820Y-51909D01*
X107925Y-53315D02*
X112415Y-53315D01*
X107500Y-53740D02*
X107925Y-53315D01*
X107500Y-54200D02*
X107500Y-53740D01*
X123754Y-49322D02*
X123596Y-49164D01*
X124710Y-49322D02*
X123754Y-49322D01*
X124873Y-49485D02*
X124710Y-49322D01*
X124873Y-50181D02*
X124873Y-49485D01*
X125908Y-51216D02*
X124873Y-50181D01*
X126675Y-51216D02*
X125908Y-51216D01*
X127309Y-51850D02*
X126675Y-51216D01*
X128515Y-51850D02*
X127309Y-51850D01*
X131453Y-54788D02*
X128515Y-51850D01*
X134110Y-54788D02*
X131453Y-54788D01*
X134500Y-55178D02*
X134110Y-54788D01*
X134500Y-55700D02*
X134500Y-55178D01*
X124930Y-49164D02*
X123910Y-49164D01*
X124993Y-49227D02*
X124930Y-49164D01*
X124993Y-50132D02*
X124993Y-49227D01*
X125957Y-51096D02*
X124993Y-50132D01*
X126725Y-51096D02*
X125957Y-51096D01*
X127359Y-51730D02*
X126725Y-51096D01*
X128565Y-51730D02*
X127359Y-51730D01*
X131503Y-54668D02*
X128565Y-51730D01*
X136094Y-54668D02*
X131503Y-54668D01*
X136500Y-55074D02*
X136094Y-54668D01*
X136500Y-55700D02*
X136500Y-55074D01*
X118080Y-48065D02*
X118240Y-47905D01*
X116957Y-48065D02*
X118080Y-48065D01*
X116207Y-48815D02*
X116957Y-48065D01*
X107965Y-48815D02*
X116207Y-48815D01*
X107500Y-49280D02*
X107965Y-48815D01*
X107500Y-49700D02*
X107500Y-49280D01*
X116947Y-47905D02*
X117925Y-47905D01*
X116157Y-48694D02*
X116947Y-47905D01*
X105935Y-48694D02*
X116157Y-48694D01*
X105500Y-49130D02*
X105935Y-48694D01*
X105500Y-49700D02*
X105500Y-49130D01*
X118080Y-47750D02*
X118240Y-47590D01*
X114970Y-47750D02*
X118080Y-47750D01*
X114545Y-47325D02*
X114970Y-47750D01*
X107860Y-47325D02*
X114545Y-47325D01*
X107500Y-47685D02*
X107860Y-47325D01*
X107500Y-48200D02*
X107500Y-47685D01*
X114979Y-47590D02*
X117925Y-47590D01*
X114594Y-47204D02*
X114979Y-47590D01*
X105895Y-47204D02*
X114594Y-47204D01*
X105500Y-47600D02*
X105895Y-47204D01*
X105500Y-48200D02*
X105500Y-47600D01*
X118085Y-48375D02*
X118240Y-48220D01*
X116986Y-48375D02*
X118085Y-48375D01*
X116094Y-49266D02*
X116986Y-48375D01*
X116094Y-49837D02*
X116094Y-49266D01*
X115617Y-50315D02*
X116094Y-49837D01*
X107845Y-50315D02*
X115617Y-50315D01*
X107500Y-50660D02*
X107845Y-50315D01*
X107500Y-51200D02*
X107500Y-50660D01*
X117001Y-48530D02*
X117925Y-48530D01*
X116214Y-49316D02*
X117001Y-48530D01*
X116214Y-49886D02*
X116214Y-49316D01*
X114551Y-51549D02*
X116214Y-49886D01*
X113671Y-51549D02*
X114551Y-51549D01*
X113526Y-51694D02*
X113671Y-51549D01*
X105955Y-51694D02*
X113526Y-51694D01*
X105500Y-52150D02*
X105955Y-51694D01*
X105500Y-52700D02*
X105500Y-52150D01*
X118080Y-48690D02*
X118240Y-48530D01*
X117011Y-48690D02*
X118080Y-48690D01*
X116334Y-49366D02*
X117011Y-48690D01*
X116334Y-49936D02*
X116334Y-49366D01*
X114601Y-51669D02*
X116334Y-49936D01*
X113721Y-51669D02*
X114601Y-51669D01*
X113576Y-51815D02*
X113721Y-51669D01*
X107915Y-51815D02*
X113576Y-51815D01*
X107500Y-52230D02*
X107915Y-51815D01*
X107500Y-52700D02*
X107500Y-52230D01*
X116972Y-48220D02*
X117925Y-48220D01*
X115974Y-49217D02*
X116972Y-48220D01*
X115974Y-49787D02*
X115974Y-49217D01*
X115567Y-50194D02*
X115974Y-49787D01*
X106570Y-50194D02*
X115567Y-50194D01*
X105500Y-51200D02*
X105565Y-51200D01*
X105565Y-51200D02*
X106570Y-50194D01*
X123752Y-47744D02*
X123596Y-47588D01*
X125899Y-47744D02*
X123752Y-47744D01*
X126309Y-47334D02*
X125899Y-47744D01*
X134212Y-47334D02*
X126309Y-47334D01*
X134500Y-47622D02*
X134212Y-47334D01*
X134500Y-48200D02*
X134500Y-47622D01*
X125885Y-47588D02*
X123910Y-47588D01*
X126259Y-47214D02*
X125885Y-47588D01*
X136152Y-47214D02*
X126259Y-47214D01*
X136500Y-47562D02*
X136152Y-47214D01*
X136500Y-48200D02*
X136500Y-47562D01*
X136500Y-45200D02*
X136500Y-44698D01*
X136500Y-44698D02*
X136020Y-44218D01*
X136020Y-44218D02*
X128248Y-44218D01*
X128248Y-44218D02*
X127296Y-45169D01*
X127296Y-45169D02*
X127296Y-45499D01*
X127296Y-45499D02*
X125835Y-46960D01*
X125835Y-46960D02*
X123910Y-46960D01*
X134500Y-45200D02*
X134500Y-44748D01*
X134500Y-44748D02*
X134092Y-44340D01*
X134092Y-44340D02*
X128295Y-44340D01*
X128295Y-44340D02*
X127416Y-45219D01*
X127416Y-45219D02*
X127416Y-45548D01*
X127416Y-45548D02*
X125848Y-47116D01*
X125848Y-47116D02*
X123752Y-47116D01*
X123752Y-47116D02*
X123596Y-46960D01*
X125028Y-47904D02*
X123910Y-47904D01*
X125838Y-48714D02*
X125028Y-47904D01*
X136048Y-48714D02*
X125838Y-48714D01*
X136500Y-49166D02*
X136048Y-48714D01*
X136500Y-49700D02*
X136500Y-49166D01*
X134500Y-46700D02*
X134500Y-46072D01*
X123748Y-47426D02*
X123596Y-47274D01*
X125878Y-47426D02*
X123748Y-47426D01*
X127474Y-45830D02*
X125878Y-47426D01*
X134258Y-45830D02*
X127474Y-45830D01*
X134500Y-46072D02*
X134258Y-45830D01*
X136500Y-46700D02*
X136500Y-46254D01*
X125862Y-47272D02*
X123910Y-47272D01*
X127424Y-45710D02*
X125862Y-47272D01*
X135956Y-45710D02*
X127424Y-45710D01*
X136500Y-46254D02*
X135956Y-45710D01*
X124977Y-48532D02*
X123910Y-48532D01*
X125473Y-49028D02*
X124977Y-48532D01*
X125473Y-49933D02*
X125473Y-49028D01*
X126156Y-50616D02*
X125473Y-49933D01*
X126924Y-50616D02*
X126156Y-50616D01*
X127558Y-51250D02*
X126924Y-50616D01*
X128764Y-51250D02*
X127558Y-51250D01*
X129214Y-51700D02*
X128764Y-51250D01*
X136196Y-51700D02*
X129214Y-51700D01*
X136500Y-52004D02*
X136196Y-51700D01*
X136500Y-52700D02*
X136500Y-52004D01*
X123752Y-48688D02*
X123596Y-48532D01*
X124963Y-48688D02*
X123752Y-48688D01*
X125353Y-49078D02*
X124963Y-48688D01*
X125353Y-49983D02*
X125353Y-49078D01*
X126106Y-50736D02*
X125353Y-49983D01*
X126874Y-50736D02*
X126106Y-50736D01*
X127508Y-51370D02*
X126874Y-50736D01*
X128714Y-51370D02*
X127508Y-51370D01*
X129164Y-51820D02*
X128714Y-51370D01*
X134176Y-51820D02*
X129164Y-51820D01*
X134500Y-52144D02*
X134176Y-51820D01*
X134500Y-52700D02*
X134500Y-52144D01*
X123752Y-49004D02*
X123596Y-48848D01*
X124940Y-49004D02*
X123752Y-49004D01*
X125113Y-49177D02*
X124940Y-49004D01*
X125113Y-50082D02*
X125113Y-49177D01*
X126007Y-50976D02*
X125113Y-50082D01*
X126774Y-50976D02*
X126007Y-50976D01*
X127408Y-51610D02*
X126774Y-50976D01*
X128614Y-51610D02*
X127408Y-51610D01*
X130320Y-53316D02*
X128614Y-51610D01*
X134154Y-53316D02*
X130320Y-53316D01*
X134500Y-53662D02*
X134154Y-53316D01*
X134500Y-54200D02*
X134500Y-53662D01*
X124953Y-48848D02*
X123910Y-48848D01*
X125233Y-49128D02*
X124953Y-48848D01*
X125233Y-50032D02*
X125233Y-49128D01*
X126057Y-50856D02*
X125233Y-50032D01*
X126824Y-50856D02*
X126057Y-50856D01*
X127458Y-51490D02*
X126824Y-50856D01*
X128664Y-51490D02*
X127458Y-51490D01*
X130370Y-53196D02*
X128664Y-51490D01*
X136166Y-53196D02*
X130370Y-53196D01*
X136500Y-53530D02*
X136166Y-53196D01*
X136500Y-54200D02*
X136500Y-53530D01*
X123752Y-48374D02*
X123596Y-48218D01*
X124988Y-48374D02*
X123752Y-48374D01*
X125593Y-48979D02*
X124988Y-48374D01*
X125593Y-49883D02*
X125593Y-48979D01*
X126060Y-50350D02*
X125593Y-49883D01*
X134122Y-50350D02*
X126060Y-50350D01*
X134500Y-50728D02*
X134122Y-50350D01*
X134500Y-51200D02*
X134500Y-50728D01*
X123752Y-48060D02*
X123596Y-47904D01*
X125014Y-48060D02*
X123752Y-48060D01*
X125788Y-48834D02*
X125014Y-48060D01*
X134008Y-48834D02*
X125788Y-48834D01*
X134500Y-49326D02*
X134008Y-48834D01*
X134500Y-49700D02*
X134500Y-49326D01*
X125002Y-48218D02*
X123910Y-48218D01*
X125714Y-48929D02*
X125002Y-48218D01*
X125714Y-49834D02*
X125714Y-48929D01*
X126110Y-50230D02*
X125714Y-49834D01*
X136088Y-50230D02*
X126110Y-50230D01*
X136500Y-50642D02*
X136088Y-50230D01*
X136500Y-51200D02*
X136500Y-50642D01*
X123595Y-49795D02*
X123595Y-49790D01*
X123435Y-49955D02*
X123595Y-49795D01*
X123435Y-51109D02*
X123435Y-49955D01*
X123670Y-51344D02*
X123435Y-51109D01*
X124140Y-51344D02*
X123670Y-51344D01*
X125435Y-52639D02*
X124140Y-51344D01*
X126381Y-52639D02*
X125435Y-52639D01*
X126626Y-52884D02*
X126381Y-52639D01*
X127847Y-52884D02*
X126626Y-52884D01*
X129380Y-54417D02*
X127847Y-52884D01*
X129380Y-56937D02*
X129380Y-54417D01*
X129897Y-57454D02*
X129380Y-56937D01*
X134614Y-57454D02*
X129897Y-57454D01*
X134950Y-57790D02*
X134614Y-57454D01*
X134950Y-60425D02*
X134950Y-57790D01*
X134500Y-60700D02*
X134675Y-60700D01*
X134675Y-60700D02*
X134950Y-60425D01*
X134500Y-62700D02*
X134710Y-62700D01*
X134710Y-62700D02*
X135070Y-62339D01*
X135070Y-62339D02*
X135070Y-57740D01*
X135070Y-57740D02*
X134664Y-57334D01*
X123595Y-51099D02*
X123595Y-50105D01*
X123720Y-51224D02*
X123595Y-51099D01*
X124190Y-51224D02*
X123720Y-51224D01*
X125485Y-52519D02*
X124190Y-51224D01*
X126431Y-52519D02*
X125485Y-52519D01*
X126676Y-52764D02*
X126431Y-52519D01*
X127896Y-52764D02*
X126676Y-52764D01*
X129500Y-54368D02*
X127896Y-52764D01*
X129500Y-56887D02*
X129500Y-54368D01*
X129947Y-57334D02*
X129500Y-56887D01*
X134664Y-57334D02*
X129947Y-57334D01*
X123120Y-49950D02*
X123280Y-49790D01*
X123120Y-51134D02*
X123120Y-49950D01*
X123570Y-51584D02*
X123120Y-51134D01*
X124041Y-51584D02*
X123570Y-51584D01*
X125336Y-52879D02*
X124041Y-51584D01*
X126282Y-52879D02*
X125336Y-52879D01*
X126527Y-53124D02*
X126282Y-52879D01*
X127747Y-53124D02*
X126527Y-53124D01*
X129140Y-54517D02*
X127747Y-53124D01*
X129140Y-57036D02*
X129140Y-54517D01*
X129798Y-57694D02*
X129140Y-57036D01*
X133014Y-57694D02*
X129798Y-57694D01*
X133415Y-58095D02*
X133014Y-57694D01*
X133415Y-60360D02*
X133415Y-58095D01*
X133000Y-60700D02*
X133075Y-60700D01*
X133075Y-60700D02*
X133415Y-60360D01*
X133000Y-62700D02*
X133135Y-62700D01*
X133135Y-62700D02*
X133535Y-62299D01*
X133535Y-62299D02*
X133535Y-58045D01*
X133535Y-58045D02*
X133064Y-57574D01*
X123280Y-51124D02*
X123280Y-50105D01*
X123620Y-51464D02*
X123280Y-51124D01*
X124091Y-51464D02*
X123620Y-51464D01*
X125386Y-52759D02*
X124091Y-51464D01*
X126331Y-52759D02*
X125386Y-52759D01*
X126576Y-53004D02*
X126331Y-52759D01*
X127797Y-53004D02*
X126576Y-53004D01*
X129260Y-54467D02*
X127797Y-53004D01*
X129260Y-56987D02*
X129260Y-54467D01*
X129847Y-57574D02*
X129260Y-56987D01*
X133064Y-57574D02*
X129847Y-57574D01*
X124065Y-49950D02*
X124225Y-49790D01*
X124065Y-50769D02*
X124065Y-49950D01*
X124160Y-50864D02*
X124065Y-50769D01*
X124339Y-50864D02*
X124160Y-50864D01*
X125634Y-52159D02*
X124339Y-50864D01*
X126580Y-52159D02*
X125634Y-52159D01*
X126825Y-52404D02*
X126580Y-52159D01*
X128045Y-52404D02*
X126825Y-52404D01*
X129860Y-54219D02*
X128045Y-52404D01*
X129860Y-56738D02*
X129860Y-54219D01*
X130096Y-56974D02*
X129860Y-56738D01*
X137414Y-56974D02*
X130096Y-56974D01*
X137915Y-57475D02*
X137414Y-56974D01*
X137915Y-60425D02*
X137915Y-57475D01*
X137500Y-60700D02*
X137640Y-60700D01*
X137640Y-60700D02*
X137915Y-60425D01*
X123750Y-49950D02*
X123910Y-49790D01*
X123750Y-51085D02*
X123750Y-49950D01*
X123769Y-51104D02*
X123750Y-51085D01*
X124240Y-51104D02*
X123769Y-51104D01*
X125535Y-52399D02*
X124240Y-51104D01*
X126480Y-52399D02*
X125535Y-52399D01*
X126725Y-52644D02*
X126480Y-52399D01*
X127946Y-52644D02*
X126725Y-52644D01*
X129620Y-54318D02*
X127946Y-52644D01*
X129620Y-56837D02*
X129620Y-54318D01*
X129997Y-57214D02*
X129620Y-56837D01*
X135889Y-57214D02*
X129997Y-57214D01*
X136425Y-57750D02*
X135889Y-57214D01*
X136425Y-60315D02*
X136425Y-57750D01*
X136000Y-60700D02*
X136040Y-60700D01*
X136040Y-60700D02*
X136425Y-60315D01*
X136000Y-62700D02*
X136215Y-62700D01*
X136215Y-62700D02*
X136545Y-62369D01*
X136545Y-62369D02*
X136545Y-57700D01*
X136545Y-57700D02*
X135939Y-57094D01*
X123910Y-50909D02*
X123910Y-50105D01*
X123984Y-50984D02*
X123910Y-50909D01*
X124290Y-50984D02*
X123984Y-50984D01*
X125585Y-52279D02*
X124290Y-50984D01*
X126530Y-52279D02*
X125585Y-52279D01*
X126775Y-52524D02*
X126530Y-52279D01*
X127996Y-52524D02*
X126775Y-52524D01*
X129740Y-54268D02*
X127996Y-52524D01*
X129740Y-56788D02*
X129740Y-54268D01*
X130046Y-57094D02*
X129740Y-56788D01*
X135939Y-57094D02*
X130046Y-57094D01*
X137500Y-62700D02*
X137580Y-62700D01*
X137580Y-62700D02*
X138035Y-62244D01*
X138035Y-62244D02*
X138035Y-57425D01*
X138035Y-57425D02*
X137464Y-56854D01*
X137464Y-56854D02*
X130146Y-56854D01*
X130146Y-56854D02*
X129980Y-56688D01*
X129980Y-56688D02*
X129980Y-54169D01*
X124225Y-50580D02*
X124225Y-50105D01*
X125684Y-52039D02*
X124225Y-50580D01*
X126630Y-52039D02*
X125684Y-52039D01*
X126875Y-52284D02*
X126630Y-52039D01*
X128095Y-52284D02*
X126875Y-52284D01*
X129980Y-54169D02*
X128095Y-52284D01*
X122175Y-49955D02*
X122340Y-49790D01*
X122175Y-51207D02*
X122175Y-49955D01*
X123272Y-52304D02*
X122175Y-51207D01*
X123743Y-52304D02*
X123272Y-52304D01*
X125038Y-53599D02*
X123743Y-52304D01*
X125983Y-53599D02*
X125038Y-53599D01*
X126228Y-53844D02*
X125983Y-53599D01*
X127449Y-53844D02*
X126228Y-53844D01*
X128420Y-54815D02*
X127449Y-53844D01*
X128420Y-57335D02*
X128420Y-54815D01*
X128920Y-57835D02*
X128420Y-57335D01*
X128920Y-60325D02*
X128920Y-57835D01*
X128500Y-60700D02*
X128545Y-60700D01*
X128545Y-60700D02*
X128920Y-60325D01*
X128500Y-62700D02*
X128710Y-62700D01*
X128710Y-62700D02*
X129040Y-62369D01*
X129040Y-62369D02*
X129040Y-57785D01*
X129040Y-57785D02*
X128540Y-57285D01*
X122335Y-51197D02*
X122335Y-50105D01*
X123322Y-52184D02*
X122335Y-51197D01*
X123792Y-52184D02*
X123322Y-52184D01*
X125087Y-53479D02*
X123792Y-52184D01*
X126033Y-53479D02*
X125087Y-53479D01*
X126278Y-53724D02*
X126033Y-53479D01*
X127499Y-53724D02*
X126278Y-53724D01*
X128540Y-54765D02*
X127499Y-53724D01*
X128540Y-57285D02*
X128540Y-54765D01*
X127000Y-62700D02*
X127140Y-62700D01*
X127140Y-62700D02*
X127545Y-62294D01*
X127545Y-62294D02*
X127545Y-54110D01*
X127545Y-54110D02*
X127399Y-53964D01*
X122020Y-51222D02*
X122020Y-50105D01*
X123222Y-52424D02*
X122020Y-51222D01*
X123693Y-52424D02*
X123222Y-52424D01*
X124988Y-53719D02*
X123693Y-52424D01*
X125934Y-53719D02*
X124988Y-53719D01*
X126179Y-53964D02*
X125934Y-53719D01*
X127399Y-53964D02*
X126179Y-53964D01*
X131500Y-62700D02*
X131700Y-62700D01*
X131700Y-62700D02*
X132085Y-62314D01*
X132085Y-62314D02*
X132085Y-58120D01*
X132085Y-58120D02*
X131779Y-57814D01*
X131779Y-57814D02*
X129748Y-57814D01*
X122965Y-51148D02*
X122965Y-50105D01*
X123521Y-51704D02*
X122965Y-51148D01*
X123991Y-51704D02*
X123521Y-51704D01*
X125286Y-52999D02*
X123991Y-51704D01*
X126232Y-52999D02*
X125286Y-52999D01*
X126477Y-53244D02*
X126232Y-52999D01*
X127697Y-53244D02*
X126477Y-53244D01*
X129020Y-54567D02*
X127697Y-53244D01*
X129020Y-57086D02*
X129020Y-54567D01*
X129748Y-57814D02*
X129020Y-57086D01*
X122805Y-49950D02*
X122965Y-49790D01*
X122805Y-51158D02*
X122805Y-49950D01*
X123471Y-51824D02*
X122805Y-51158D01*
X123942Y-51824D02*
X123471Y-51824D01*
X125237Y-53119D02*
X123942Y-51824D01*
X126182Y-53119D02*
X125237Y-53119D01*
X126427Y-53364D02*
X126182Y-53119D01*
X127648Y-53364D02*
X126427Y-53364D01*
X128900Y-54616D02*
X127648Y-53364D01*
X128900Y-57136D02*
X128900Y-54616D01*
X129698Y-57934D02*
X128900Y-57136D01*
X131729Y-57934D02*
X129698Y-57934D01*
X131965Y-58170D02*
X131729Y-57934D01*
X131965Y-60395D02*
X131965Y-58170D01*
X131500Y-60700D02*
X131660Y-60700D01*
X131660Y-60700D02*
X131965Y-60395D01*
X122490Y-49950D02*
X122650Y-49790D01*
X122490Y-51182D02*
X122490Y-49950D01*
X123372Y-52064D02*
X122490Y-51182D01*
X123842Y-52064D02*
X123372Y-52064D01*
X125137Y-53359D02*
X123842Y-52064D01*
X126083Y-53359D02*
X125137Y-53359D01*
X126328Y-53604D02*
X126083Y-53359D01*
X127548Y-53604D02*
X126328Y-53604D01*
X128660Y-54716D02*
X127548Y-53604D01*
X128660Y-57235D02*
X128660Y-54716D01*
X129599Y-58175D02*
X128660Y-57235D01*
X130260Y-58175D02*
X129599Y-58175D01*
X130405Y-58320D02*
X130260Y-58175D01*
X130405Y-60315D02*
X130405Y-58320D01*
X130000Y-60700D02*
X130020Y-60700D01*
X130020Y-60700D02*
X130405Y-60315D01*
X130000Y-62700D02*
X130130Y-62700D01*
X130130Y-62700D02*
X130525Y-62304D01*
X130525Y-62304D02*
X130525Y-58270D01*
X130525Y-58270D02*
X130309Y-58054D01*
X122650Y-51173D02*
X122650Y-50105D01*
X123421Y-51944D02*
X122650Y-51173D01*
X123892Y-51944D02*
X123421Y-51944D01*
X125187Y-53239D02*
X123892Y-51944D01*
X126132Y-53239D02*
X125187Y-53239D01*
X126377Y-53484D02*
X126132Y-53239D01*
X127598Y-53484D02*
X126377Y-53484D01*
X128780Y-54666D02*
X127598Y-53484D01*
X128780Y-57185D02*
X128780Y-54666D01*
X129649Y-58054D02*
X128780Y-57185D01*
X130309Y-58054D02*
X129649Y-58054D01*
X107500Y-43700D02*
X107500Y-43140D01*
X107500Y-43140D02*
X107825Y-42815D01*
X107825Y-42815D02*
X113515Y-42815D01*
X113515Y-42815D02*
X114155Y-43455D01*
X114155Y-43455D02*
X114155Y-43845D01*
X114155Y-43845D02*
X114420Y-44110D01*
X114420Y-44110D02*
X114420Y-45011D01*
X114420Y-45011D02*
X116213Y-46805D01*
X116213Y-46805D02*
X118080Y-46805D01*
X118080Y-46805D02*
X118240Y-46645D01*
X105500Y-43700D02*
X105500Y-43075D01*
X105500Y-43075D02*
X105880Y-42694D01*
X105880Y-42694D02*
X113564Y-42694D01*
X113564Y-42694D02*
X114275Y-43405D01*
X114275Y-43405D02*
X114275Y-43795D01*
X114275Y-43795D02*
X114540Y-44060D01*
X114540Y-44060D02*
X114540Y-44961D01*
X114540Y-44961D02*
X116223Y-46645D01*
X116223Y-46645D02*
X117925Y-46645D01*
X107500Y-42200D02*
X107500Y-41700D01*
X107500Y-41700D02*
X107880Y-41320D01*
X107880Y-41320D02*
X112640Y-41320D01*
X112640Y-41320D02*
X114660Y-43340D01*
X114660Y-43340D02*
X114660Y-44911D01*
X114660Y-44911D02*
X116238Y-46490D01*
X116238Y-46490D02*
X118080Y-46490D01*
X118080Y-46490D02*
X118240Y-46330D01*
X105500Y-42200D02*
X105500Y-41610D01*
X105500Y-41610D02*
X105910Y-41199D01*
X105910Y-41199D02*
X112689Y-41199D01*
X112689Y-41199D02*
X114780Y-43290D01*
X114780Y-43290D02*
X114780Y-44862D01*
X114780Y-44862D02*
X116247Y-46330D01*
X116247Y-46330D02*
X117925Y-46330D01*
X107500Y-46700D02*
X107500Y-46245D01*
X118080Y-47435D02*
X118240Y-47275D01*
X116165Y-47435D02*
X118080Y-47435D01*
X114550Y-45820D02*
X116165Y-47435D01*
X107925Y-45820D02*
X114550Y-45820D01*
X107500Y-46245D02*
X107925Y-45820D01*
X105500Y-46700D02*
X105500Y-46110D01*
X116174Y-47275D02*
X117925Y-47275D01*
X114599Y-45699D02*
X116174Y-47275D01*
X105910Y-45699D02*
X114599Y-45699D01*
X105500Y-46110D02*
X105910Y-45699D01*
X107500Y-45200D02*
X107500Y-44705D01*
X107500Y-44705D02*
X107890Y-44315D01*
X107890Y-44315D02*
X113845Y-44315D01*
X113845Y-44315D02*
X114180Y-44650D01*
X114180Y-44650D02*
X114180Y-45110D01*
X114180Y-45110D02*
X116189Y-47120D01*
X116189Y-47120D02*
X118080Y-47120D01*
X118080Y-47120D02*
X118240Y-46960D01*
X105500Y-45200D02*
X105500Y-44620D01*
X105500Y-44620D02*
X105925Y-44194D01*
X105925Y-44194D02*
X113894Y-44194D01*
X113894Y-44194D02*
X114300Y-44600D01*
X114300Y-44600D02*
X114300Y-45060D01*
X114300Y-45060D02*
X116199Y-46960D01*
X116199Y-46960D02*
X117925Y-46960D01*
X107500Y-37700D02*
X107500Y-37420D01*
X107500Y-37420D02*
X107875Y-37045D01*
X107875Y-37045D02*
X110010Y-37045D01*
X110010Y-37045D02*
X110115Y-37150D01*
X110115Y-37150D02*
X110115Y-37776D01*
X110115Y-37776D02*
X115380Y-43041D01*
X115380Y-43041D02*
X115380Y-44613D01*
X115380Y-44613D02*
X116311Y-45545D01*
X116311Y-45545D02*
X118080Y-45545D01*
X118080Y-45545D02*
X118240Y-45385D01*
X105500Y-39200D02*
X105500Y-38705D01*
X105500Y-38705D02*
X105995Y-38209D01*
X105995Y-38209D02*
X110378Y-38209D01*
X110378Y-38209D02*
X115260Y-43091D01*
X115260Y-43091D02*
X115260Y-44663D01*
X115260Y-44663D02*
X116296Y-45700D01*
X116296Y-45700D02*
X117925Y-45700D01*
X105500Y-37700D02*
X105560Y-37700D01*
X105560Y-37700D02*
X106335Y-36924D01*
X106335Y-36924D02*
X110059Y-36924D01*
X110059Y-36924D02*
X110235Y-37100D01*
X110235Y-37100D02*
X110235Y-37727D01*
X110235Y-37727D02*
X115500Y-42992D01*
X115500Y-42992D02*
X115500Y-44563D01*
X115500Y-44563D02*
X116321Y-45385D01*
X116321Y-45385D02*
X117925Y-45385D01*
X105500Y-40700D02*
X105500Y-40130D01*
X105500Y-40130D02*
X105920Y-39709D01*
X105920Y-39709D02*
X111539Y-39709D01*
X111539Y-39709D02*
X115020Y-43190D01*
X115020Y-43190D02*
X115020Y-44762D01*
X115020Y-44762D02*
X116272Y-46015D01*
X116272Y-46015D02*
X117925Y-46015D01*
X107500Y-40700D02*
X107500Y-40160D01*
X107500Y-40160D02*
X107830Y-39830D01*
X107830Y-39830D02*
X111489Y-39830D01*
X111489Y-39830D02*
X114900Y-43240D01*
X114900Y-43240D02*
X114900Y-44812D01*
X114900Y-44812D02*
X116257Y-46170D01*
X116257Y-46170D02*
X118085Y-46170D01*
X118085Y-46170D02*
X118240Y-46015D01*
X107500Y-39200D02*
X107500Y-38835D01*
X107500Y-38835D02*
X108005Y-38330D01*
X108005Y-38330D02*
X110328Y-38330D01*
X110328Y-38330D02*
X115140Y-43141D01*
X115140Y-43141D02*
X115140Y-44712D01*
X115140Y-44712D02*
X116287Y-45860D01*
X116287Y-45860D02*
X118080Y-45860D01*
X118080Y-45860D02*
X118240Y-45700D01*
X134500Y-37700D02*
X134500Y-37138D01*
X132027Y-36866D02*
X131528Y-37365D01*
X134228Y-36866D02*
X132027Y-36866D01*
X134500Y-37138D02*
X134228Y-36866D01*
X131528Y-38421D02*
X130960Y-38989D01*
X131528Y-37365D02*
X131528Y-38421D01*
X130960Y-41595D02*
X130671Y-41884D01*
X130960Y-38989D02*
X130960Y-41595D01*
X127577Y-41884D02*
X126216Y-43245D01*
X130671Y-41884D02*
X127577Y-41884D01*
X126216Y-44910D02*
X126216Y-45051D01*
X126216Y-43245D02*
X126216Y-44910D01*
X126216Y-45051D02*
X125727Y-45540D01*
X125727Y-45540D02*
X123750Y-45540D01*
X123750Y-45540D02*
X123594Y-45384D01*
X136500Y-37700D02*
X136500Y-36954D01*
X136500Y-36954D02*
X136292Y-36746D01*
X136292Y-36746D02*
X131978Y-36746D01*
X131978Y-36746D02*
X131408Y-37316D01*
X131408Y-37316D02*
X131408Y-38372D01*
X131408Y-38372D02*
X130840Y-38940D01*
X130840Y-38940D02*
X130840Y-41546D01*
X130840Y-41546D02*
X130622Y-41764D01*
X130622Y-41764D02*
X127528Y-41764D01*
X127528Y-41764D02*
X126096Y-43196D01*
X126096Y-43196D02*
X126096Y-45002D01*
X126096Y-45002D02*
X125797Y-45301D01*
X123908Y-45384D02*
X125714Y-45384D01*
X125714Y-45384D02*
X125797Y-45301D01*
X136500Y-39200D02*
X136500Y-38696D01*
X136500Y-38696D02*
X136034Y-38230D01*
X136034Y-38230D02*
X131889Y-38230D01*
X131889Y-38230D02*
X131080Y-39039D01*
X131080Y-39039D02*
X131080Y-41645D01*
X131080Y-41645D02*
X130721Y-42004D01*
X130721Y-42004D02*
X127627Y-42004D01*
X127627Y-42004D02*
X126336Y-43295D01*
X126336Y-43295D02*
X126336Y-45101D01*
X126336Y-45101D02*
X125737Y-45700D01*
X125737Y-45700D02*
X123908Y-45700D01*
X134500Y-39200D02*
X134500Y-38702D01*
X134500Y-38702D02*
X134148Y-38350D01*
X134148Y-38350D02*
X131939Y-38350D01*
X131939Y-38350D02*
X131200Y-39089D01*
X131200Y-39089D02*
X131200Y-41695D01*
X131200Y-41695D02*
X130771Y-42124D01*
X130771Y-42124D02*
X127677Y-42124D01*
X127677Y-42124D02*
X126456Y-43345D01*
X126456Y-43345D02*
X126456Y-45151D01*
X126456Y-45151D02*
X125751Y-45856D01*
X125751Y-45856D02*
X123750Y-45856D01*
X123750Y-45856D02*
X123594Y-45700D01*
X134500Y-43700D02*
X134500Y-43206D01*
X134500Y-43206D02*
X134138Y-42844D01*
X134138Y-42844D02*
X127975Y-42844D01*
X127975Y-42844D02*
X127176Y-43643D01*
X127176Y-43643D02*
X127176Y-45449D01*
X127176Y-45449D02*
X125825Y-46800D01*
X125825Y-46800D02*
X123750Y-46800D01*
X123750Y-46800D02*
X123596Y-46646D01*
X123596Y-46646D02*
X123596Y-46644D01*
X136500Y-42200D02*
X136500Y-41418D01*
X136500Y-41418D02*
X136316Y-41234D01*
X136316Y-41234D02*
X131854Y-41234D01*
X131854Y-41234D02*
X131560Y-41527D01*
X131560Y-41527D02*
X131560Y-41844D01*
X131560Y-41844D02*
X130920Y-42484D01*
X130920Y-42484D02*
X127826Y-42484D01*
X127826Y-42484D02*
X126816Y-43494D01*
X126816Y-43494D02*
X126816Y-45300D01*
X126816Y-45300D02*
X125786Y-46330D01*
X125786Y-46330D02*
X123910Y-46330D01*
X136500Y-43700D02*
X136500Y-43120D01*
X136500Y-43120D02*
X136104Y-42724D01*
X136104Y-42724D02*
X127925Y-42724D01*
X127925Y-42724D02*
X127056Y-43593D01*
X127056Y-43593D02*
X127056Y-45399D01*
X127056Y-45399D02*
X125811Y-46644D01*
X125811Y-46644D02*
X123910Y-46644D01*
X134500Y-40700D02*
X134500Y-40054D01*
X134500Y-40054D02*
X134276Y-39830D01*
X134276Y-39830D02*
X132011Y-39830D01*
X132011Y-39830D02*
X131440Y-40401D01*
X131440Y-40401D02*
X131440Y-41794D01*
X131440Y-41794D02*
X130870Y-42364D01*
X130870Y-42364D02*
X127776Y-42364D01*
X127776Y-42364D02*
X126696Y-43444D01*
X126696Y-43444D02*
X126696Y-45250D01*
X126696Y-45250D02*
X125774Y-46172D01*
X125774Y-46172D02*
X123752Y-46172D01*
X123752Y-46172D02*
X123594Y-46014D01*
X136500Y-40700D02*
X136500Y-40066D01*
X136500Y-40066D02*
X136144Y-39710D01*
X136144Y-39710D02*
X131962Y-39710D01*
X131962Y-39710D02*
X131320Y-40351D01*
X131320Y-40351D02*
X131320Y-41744D01*
X131320Y-41744D02*
X130820Y-42244D01*
X130820Y-42244D02*
X127726Y-42244D01*
X127726Y-42244D02*
X126576Y-43394D01*
X126576Y-43394D02*
X126576Y-45200D01*
X126576Y-45200D02*
X125762Y-46014D01*
X125762Y-46014D02*
X123908Y-46014D01*
X134500Y-42200D02*
X134500Y-41638D01*
X134500Y-41638D02*
X134216Y-41354D01*
X134216Y-41354D02*
X131903Y-41354D01*
X131903Y-41354D02*
X131680Y-41577D01*
X131680Y-41577D02*
X131680Y-41893D01*
X131680Y-41893D02*
X130969Y-42604D01*
X130969Y-42604D02*
X127875Y-42604D01*
X127875Y-42604D02*
X126936Y-43543D01*
X126936Y-43543D02*
X126936Y-45349D01*
X126936Y-45349D02*
X125799Y-46486D01*
X125799Y-46486D02*
X123752Y-46486D01*
X123752Y-46486D02*
X123594Y-46328D01*
X109000Y-30200D02*
X108490Y-30200D01*
X118555Y-41861D02*
X118555Y-44125D01*
X117618Y-40924D02*
X118555Y-41861D01*
X114903Y-40924D02*
X117618Y-40924D01*
X112905Y-38926D02*
X114903Y-40924D01*
X112905Y-37526D02*
X112905Y-38926D01*
X111028Y-35649D02*
X112905Y-37526D01*
X109878Y-35649D02*
X111028Y-35649D01*
X109368Y-35139D02*
X109878Y-35649D01*
X108368Y-35139D02*
X109368Y-35139D01*
X107985Y-34756D02*
X108368Y-35139D01*
X107985Y-30705D02*
X107985Y-34756D01*
X108490Y-30200D02*
X107985Y-30705D01*
X118710Y-44285D02*
X118555Y-44440D01*
X118710Y-41847D02*
X118710Y-44285D01*
X117667Y-40804D02*
X118710Y-41847D01*
X114952Y-40804D02*
X117667Y-40804D01*
X113025Y-38877D02*
X114952Y-40804D01*
X113025Y-37477D02*
X113025Y-38877D01*
X111077Y-35529D02*
X113025Y-37477D01*
X109928Y-35529D02*
X111077Y-35529D01*
X109418Y-35019D02*
X109928Y-35529D01*
X108418Y-35019D02*
X109418Y-35019D01*
X108105Y-34706D02*
X108418Y-35019D01*
X108105Y-32550D02*
X108105Y-34706D01*
X109000Y-32200D02*
X108455Y-32200D01*
X108455Y-32200D02*
X108105Y-32550D01*
X110500Y-30200D02*
X110065Y-30200D01*
X118870Y-41837D02*
X118870Y-44125D01*
X117717Y-40684D02*
X118870Y-41837D01*
X115002Y-40684D02*
X117717Y-40684D01*
X113145Y-38827D02*
X115002Y-40684D01*
X113145Y-37427D02*
X113145Y-38827D01*
X111127Y-35409D02*
X113145Y-37427D01*
X109978Y-35409D02*
X111127Y-35409D01*
X109520Y-34951D02*
X109978Y-35409D01*
X109520Y-30745D02*
X109520Y-34951D01*
X110065Y-30200D02*
X109520Y-30745D01*
X105420Y-30200D02*
X106000Y-30200D01*
X105055Y-30565D02*
X105420Y-30200D01*
X105055Y-34995D02*
X105055Y-30565D01*
X105485Y-35425D02*
X105055Y-34995D01*
X107975Y-35425D02*
X105485Y-35425D01*
X108170Y-35620D02*
X107975Y-35425D01*
X109170Y-35620D02*
X108170Y-35620D01*
X109679Y-36129D02*
X109170Y-35620D01*
X110829Y-36129D02*
X109679Y-36129D01*
X112425Y-37725D02*
X110829Y-36129D01*
X112425Y-39125D02*
X112425Y-37725D01*
X114704Y-41404D02*
X112425Y-39125D01*
X117419Y-41404D02*
X114704Y-41404D01*
X117920Y-41905D02*
X117419Y-41404D01*
X117920Y-44120D02*
X117920Y-41905D01*
X117925Y-44125D02*
X117920Y-44120D01*
X118080Y-44285D02*
X117925Y-44440D01*
X118080Y-41895D02*
X118080Y-44285D01*
X117469Y-41284D02*
X118080Y-41895D01*
X114754Y-41284D02*
X117469Y-41284D01*
X112545Y-39075D02*
X114754Y-41284D01*
X112545Y-37675D02*
X112545Y-39075D01*
X110879Y-36009D02*
X112545Y-37675D01*
X109729Y-36009D02*
X110879Y-36009D01*
X109219Y-35499D02*
X109729Y-36009D01*
X108219Y-35499D02*
X109219Y-35499D01*
X108024Y-35304D02*
X108219Y-35499D01*
X105534Y-35304D02*
X108024Y-35304D01*
X105175Y-34945D02*
X105534Y-35304D01*
X105175Y-32424D02*
X105175Y-34945D01*
X106000Y-32200D02*
X105400Y-32200D01*
X105400Y-32200D02*
X105175Y-32424D01*
X118240Y-42806D02*
X118240Y-41886D01*
X118240Y-41886D02*
X118200Y-41846D01*
X106845Y-30200D02*
X107500Y-30200D01*
X118200Y-41846D02*
X117518Y-41164D01*
X117518Y-41164D02*
X114803Y-41164D01*
X114803Y-41164D02*
X112665Y-39026D01*
X112665Y-39026D02*
X112665Y-37626D01*
X112665Y-37626D02*
X110928Y-35889D01*
X110928Y-35889D02*
X109779Y-35889D01*
X109779Y-35889D02*
X109269Y-35379D01*
X109269Y-35379D02*
X108269Y-35379D01*
X108269Y-35379D02*
X108074Y-35184D01*
X108074Y-35184D02*
X106869Y-35184D01*
X106869Y-35184D02*
X106525Y-34840D01*
X106525Y-34840D02*
X106525Y-30520D01*
X106525Y-30520D02*
X106845Y-30200D01*
X118240Y-44125D02*
X118240Y-42806D01*
X118400Y-44280D02*
X118240Y-44440D01*
X118400Y-41876D02*
X118400Y-44280D01*
X117568Y-41044D02*
X118400Y-41876D01*
X114853Y-41044D02*
X117568Y-41044D01*
X112785Y-38976D02*
X114853Y-41044D01*
X112785Y-37576D02*
X112785Y-38976D01*
X110978Y-35769D02*
X112785Y-37576D01*
X109829Y-35769D02*
X110978Y-35769D01*
X109319Y-35259D02*
X109829Y-35769D01*
X108319Y-35259D02*
X109319Y-35259D01*
X108124Y-35064D02*
X108319Y-35259D01*
X106919Y-35064D02*
X108124Y-35064D01*
X106645Y-34790D02*
X106919Y-35064D01*
X106645Y-32549D02*
X106645Y-34790D01*
X107500Y-32200D02*
X106995Y-32200D01*
X106995Y-32200D02*
X106645Y-32549D01*
X119970Y-44286D02*
X119816Y-44440D01*
X119970Y-41749D02*
X119970Y-44286D01*
X118065Y-39844D02*
X119970Y-41749D01*
X115350Y-39844D02*
X118065Y-39844D01*
X114186Y-38680D02*
X115350Y-39844D01*
X114186Y-32458D02*
X114186Y-38680D01*
X115000Y-32200D02*
X114444Y-32200D01*
X114444Y-32200D02*
X114186Y-32458D01*
X115000Y-30200D02*
X114338Y-30200D01*
X119816Y-41765D02*
X119816Y-44126D01*
X118015Y-39964D02*
X119816Y-41765D01*
X115300Y-39964D02*
X118015Y-39964D01*
X114066Y-38730D02*
X115300Y-39964D01*
X114066Y-30472D02*
X114066Y-38730D01*
X114338Y-30200D02*
X114066Y-30472D01*
X119654Y-44286D02*
X119500Y-44440D01*
X119654Y-41772D02*
X119654Y-44286D01*
X117966Y-40084D02*
X119654Y-41772D01*
X115251Y-40084D02*
X117966Y-40084D01*
X113745Y-38578D02*
X115251Y-40084D01*
X113745Y-37178D02*
X113745Y-38578D01*
X112658Y-36091D02*
X113745Y-37178D01*
X112658Y-32448D02*
X112658Y-36091D01*
X113500Y-32200D02*
X112906Y-32200D01*
X112906Y-32200D02*
X112658Y-32448D01*
X113500Y-30200D02*
X113012Y-30200D01*
X119500Y-41788D02*
X119500Y-44124D01*
X117916Y-40204D02*
X119500Y-41788D01*
X115201Y-40204D02*
X117916Y-40204D01*
X113625Y-38628D02*
X115201Y-40204D01*
X113625Y-37228D02*
X113625Y-38628D01*
X112538Y-36141D02*
X113625Y-37228D01*
X112538Y-30674D02*
X112538Y-36141D01*
X113012Y-30200D02*
X112538Y-30674D01*
X120602Y-44284D02*
X120446Y-44440D01*
X120602Y-41702D02*
X120602Y-44284D01*
X118264Y-39364D02*
X120602Y-41702D01*
X117572Y-39364D02*
X118264Y-39364D01*
X117118Y-38910D02*
X117572Y-39364D01*
X117118Y-32494D02*
X117118Y-38910D01*
X118000Y-32200D02*
X117412Y-32200D01*
X117412Y-32200D02*
X117118Y-32494D01*
X118000Y-30200D02*
X117562Y-30200D01*
X120446Y-41716D02*
X120446Y-44124D01*
X118214Y-39484D02*
X120446Y-41716D01*
X117522Y-39484D02*
X118214Y-39484D01*
X116998Y-38960D02*
X117522Y-39484D01*
X116998Y-30764D02*
X116998Y-38960D01*
X117562Y-30200D02*
X116998Y-30764D01*
X120284Y-44286D02*
X120130Y-44440D01*
X120284Y-41723D02*
X120284Y-44286D01*
X118165Y-39604D02*
X120284Y-41723D01*
X116000Y-39604D02*
X118165Y-39604D01*
X115684Y-39288D02*
X116000Y-39604D01*
X115684Y-32568D02*
X115684Y-39288D01*
X116500Y-32200D02*
X116052Y-32200D01*
X116052Y-32200D02*
X115684Y-32568D01*
X116500Y-30200D02*
X115836Y-30200D01*
X120130Y-41739D02*
X120130Y-44126D01*
X118115Y-39724D02*
X120130Y-41739D01*
X115950Y-39724D02*
X118115Y-39724D01*
X115564Y-39338D02*
X115950Y-39724D01*
X115564Y-30472D02*
X115564Y-39338D01*
X115836Y-30200D02*
X115564Y-30472D01*
X103900Y-30200D02*
X104500Y-30200D01*
X103545Y-30555D02*
X103900Y-30200D01*
X103545Y-34820D02*
X103545Y-30555D01*
X105095Y-36370D02*
X103545Y-34820D01*
X110730Y-36370D02*
X105095Y-36370D01*
X112185Y-37825D02*
X110730Y-36370D01*
X112185Y-39225D02*
X112185Y-37825D01*
X114605Y-41645D02*
X112185Y-39225D01*
X117320Y-41645D02*
X114605Y-41645D01*
X117610Y-41935D02*
X117320Y-41645D01*
X117610Y-44125D02*
X117610Y-41935D01*
X117610Y-44440D02*
X117765Y-44285D01*
X117765Y-44285D02*
X117765Y-41920D01*
X104000Y-32200D02*
X104500Y-32200D01*
X103665Y-32534D02*
X104000Y-32200D01*
X103665Y-34770D02*
X103665Y-32534D01*
X105144Y-36249D02*
X103665Y-34770D01*
X110779Y-36249D02*
X105144Y-36249D01*
X112305Y-37775D02*
X110779Y-36249D01*
X112305Y-39175D02*
X112305Y-37775D01*
X114654Y-41524D02*
X112305Y-39175D01*
X117369Y-41524D02*
X114654Y-41524D01*
X117765Y-41920D02*
X117369Y-41524D01*
X112000Y-30200D02*
X111520Y-30200D01*
X119186Y-41813D02*
X119186Y-44124D01*
X117817Y-40444D02*
X119186Y-41813D01*
X115102Y-40444D02*
X117817Y-40444D01*
X113385Y-38727D02*
X115102Y-40444D01*
X113385Y-37327D02*
X113385Y-38727D01*
X111004Y-34946D02*
X113385Y-37327D01*
X111004Y-30716D02*
X111004Y-34946D01*
X111520Y-30200D02*
X111004Y-30716D01*
X119342Y-44282D02*
X119186Y-44438D01*
X119342Y-41800D02*
X119342Y-44282D01*
X117866Y-40324D02*
X119342Y-41800D01*
X115151Y-40324D02*
X117866Y-40324D01*
X113505Y-38678D02*
X115151Y-40324D01*
X113505Y-37278D02*
X113505Y-38678D01*
X111124Y-34897D02*
X113505Y-37278D01*
X111124Y-32464D02*
X111124Y-34897D01*
X112000Y-32200D02*
X111388Y-32200D01*
X111388Y-32200D02*
X111124Y-32464D01*
X119026Y-44284D02*
X118870Y-44440D01*
X119026Y-41823D02*
X119026Y-44284D01*
X117767Y-40564D02*
X119026Y-41823D01*
X115052Y-40564D02*
X117767Y-40564D01*
X113265Y-38777D02*
X115052Y-40564D01*
X113265Y-37377D02*
X113265Y-38777D01*
X111177Y-35289D02*
X113265Y-37377D01*
X110027Y-35289D02*
X111177Y-35289D01*
X109640Y-34902D02*
X110027Y-35289D01*
X109640Y-32542D02*
X109640Y-34902D01*
X110500Y-32200D02*
X109982Y-32200D01*
X109982Y-32200D02*
X109640Y-32542D01*
X118870Y-51082D02*
X118870Y-50105D01*
X117762Y-52190D02*
X118870Y-51082D01*
X116796Y-52190D02*
X117762Y-52190D01*
X115396Y-53590D02*
X116796Y-52190D01*
X114516Y-53590D02*
X115396Y-53590D01*
X113440Y-54666D02*
X114516Y-53590D01*
X113440Y-55336D02*
X113440Y-54666D01*
X113000Y-55776D02*
X113440Y-55336D01*
X113000Y-62309D02*
X113000Y-55776D01*
X112610Y-62700D02*
X113000Y-62309D01*
X112000Y-62700D02*
X112610Y-62700D01*
X119185Y-51106D02*
X119185Y-50105D01*
X117861Y-52430D02*
X119185Y-51106D01*
X116896Y-52430D02*
X117861Y-52430D01*
X115496Y-53830D02*
X116896Y-52430D01*
X114616Y-53830D02*
X115496Y-53830D01*
X114490Y-53956D02*
X114616Y-53830D01*
X114490Y-62374D02*
X114490Y-53956D01*
X114165Y-62700D02*
X114490Y-62374D01*
X113500Y-62700D02*
X114165Y-62700D01*
X112000Y-60700D02*
X112605Y-60700D01*
X112605Y-60700D02*
X112880Y-60425D01*
X112880Y-60425D02*
X112880Y-55727D01*
X112880Y-55727D02*
X113320Y-55287D01*
X118715Y-49945D02*
X118870Y-49790D01*
X118715Y-51067D02*
X118715Y-49945D01*
X117712Y-52070D02*
X118715Y-51067D01*
X116747Y-52070D02*
X117712Y-52070D01*
X115347Y-53470D02*
X116747Y-52070D01*
X114467Y-53470D02*
X115347Y-53470D01*
X113320Y-54617D02*
X114467Y-53470D01*
X113320Y-55287D02*
X113320Y-54617D01*
X115000Y-60700D02*
X115625Y-60700D01*
X115625Y-60700D02*
X115875Y-60450D01*
X115875Y-60450D02*
X115875Y-53620D01*
X115875Y-53620D02*
X116945Y-52550D01*
X119345Y-49945D02*
X119500Y-49790D01*
X119345Y-51116D02*
X119345Y-49945D01*
X117911Y-52550D02*
X119345Y-51116D01*
X116945Y-52550D02*
X117911Y-52550D01*
X119500Y-51131D02*
X119500Y-50105D01*
X117961Y-52670D02*
X119500Y-51131D01*
X116995Y-52670D02*
X117961Y-52670D01*
X115995Y-53670D02*
X116995Y-52670D01*
X115995Y-62349D02*
X115995Y-53670D01*
X115645Y-62700D02*
X115995Y-62349D01*
X115000Y-62700D02*
X115645Y-62700D01*
X110500Y-60700D02*
X111080Y-60700D01*
X118395Y-49950D02*
X118555Y-49790D01*
X118395Y-51048D02*
X118395Y-49950D01*
X117613Y-51830D02*
X118395Y-51048D01*
X116647Y-51830D02*
X117613Y-51830D01*
X115247Y-53230D02*
X116647Y-51830D01*
X114367Y-53230D02*
X115247Y-53230D01*
X113080Y-54517D02*
X114367Y-53230D01*
X113080Y-55187D02*
X113080Y-54517D01*
X111380Y-56887D02*
X113080Y-55187D01*
X111380Y-60400D02*
X111380Y-56887D01*
X111080Y-60700D02*
X111380Y-60400D01*
X113500Y-60700D02*
X114080Y-60700D01*
X114080Y-60700D02*
X114370Y-60410D01*
X114370Y-60410D02*
X114370Y-53906D01*
X114370Y-53906D02*
X114566Y-53710D01*
X119025Y-49950D02*
X119185Y-49790D01*
X119025Y-51097D02*
X119025Y-49950D01*
X117812Y-52310D02*
X119025Y-51097D01*
X116846Y-52310D02*
X117812Y-52310D01*
X115446Y-53710D02*
X116846Y-52310D01*
X114566Y-53710D02*
X115446Y-53710D01*
X107500Y-60700D02*
X108080Y-60700D01*
X117765Y-49950D02*
X117925Y-49790D01*
X117765Y-50999D02*
X117765Y-49950D01*
X117414Y-51350D02*
X117765Y-50999D01*
X116448Y-51350D02*
X117414Y-51350D01*
X115048Y-52750D02*
X116448Y-51350D01*
X114168Y-52750D02*
X115048Y-52750D01*
X112600Y-54318D02*
X114168Y-52750D01*
X112600Y-54988D02*
X112600Y-54318D01*
X110848Y-56740D02*
X112600Y-54988D01*
X108589Y-56740D02*
X110848Y-56740D01*
X108390Y-56940D02*
X108589Y-56740D01*
X108390Y-60390D02*
X108390Y-56940D01*
X108080Y-60700D02*
X108390Y-60390D01*
X117925Y-51009D02*
X117925Y-50105D01*
X117464Y-51470D02*
X117925Y-51009D01*
X116498Y-51470D02*
X117464Y-51470D01*
X115098Y-52870D02*
X116498Y-51470D01*
X114218Y-52870D02*
X115098Y-52870D01*
X112720Y-54368D02*
X114218Y-52870D01*
X112720Y-55038D02*
X112720Y-54368D01*
X110898Y-56860D02*
X112720Y-55038D01*
X108819Y-56860D02*
X110898Y-56860D01*
X108510Y-57169D02*
X108819Y-56860D01*
X108510Y-62334D02*
X108510Y-57169D01*
X108145Y-62700D02*
X108510Y-62334D01*
X107500Y-62700D02*
X108145Y-62700D01*
X117610Y-50984D02*
X117610Y-50105D01*
X117364Y-51230D02*
X117610Y-50984D01*
X116399Y-51230D02*
X117364Y-51230D01*
X114999Y-52630D02*
X116399Y-51230D01*
X114119Y-52630D02*
X114999Y-52630D01*
X112480Y-54269D02*
X114119Y-52630D01*
X112480Y-54939D02*
X112480Y-54269D01*
X110799Y-56620D02*
X112480Y-54939D01*
X107199Y-56620D02*
X110799Y-56620D01*
X106970Y-56849D02*
X107199Y-56620D01*
X106970Y-62324D02*
X106970Y-56849D01*
X106595Y-62700D02*
X106970Y-62324D01*
X106000Y-62700D02*
X106595Y-62700D01*
X104500Y-60700D02*
X105025Y-60700D01*
X117100Y-49790D02*
X117295Y-49790D01*
X116935Y-49955D02*
X117100Y-49790D01*
X116935Y-50370D02*
X116935Y-49955D01*
X116845Y-50460D02*
X116935Y-50370D01*
X116660Y-50460D02*
X116845Y-50460D01*
X114850Y-52270D02*
X116660Y-50460D01*
X113970Y-52270D02*
X114850Y-52270D01*
X112120Y-54120D02*
X113970Y-52270D01*
X112120Y-54790D02*
X112120Y-54120D01*
X110650Y-56260D02*
X112120Y-54790D01*
X105840Y-56260D02*
X110650Y-56260D01*
X105380Y-56720D02*
X105840Y-56260D01*
X105380Y-60345D02*
X105380Y-56720D01*
X105025Y-60700D02*
X105380Y-60345D01*
X118555Y-51057D02*
X118555Y-50105D01*
X117662Y-51950D02*
X118555Y-51057D01*
X116697Y-51950D02*
X117662Y-51950D01*
X115297Y-53350D02*
X116697Y-51950D01*
X114417Y-53350D02*
X115297Y-53350D01*
X113200Y-54567D02*
X114417Y-53350D01*
X113200Y-55237D02*
X113200Y-54567D01*
X111500Y-56937D02*
X113200Y-55237D01*
X111500Y-62449D02*
X111500Y-56937D01*
X111250Y-62700D02*
X111500Y-62449D01*
X110500Y-62700D02*
X111250Y-62700D01*
X118240Y-51033D02*
X118240Y-50105D01*
X117563Y-51710D02*
X118240Y-51033D01*
X116597Y-51710D02*
X117563Y-51710D01*
X115197Y-53110D02*
X116597Y-51710D01*
X114317Y-53110D02*
X115197Y-53110D01*
X112960Y-54467D02*
X114317Y-53110D01*
X112960Y-55137D02*
X112960Y-54467D01*
X110997Y-57100D02*
X112960Y-55137D01*
X110399Y-57100D02*
X110997Y-57100D01*
X110015Y-57485D02*
X110399Y-57100D01*
X110015Y-62325D02*
X110015Y-57485D01*
X109640Y-62700D02*
X110015Y-62325D01*
X109000Y-62700D02*
X109640Y-62700D01*
X109000Y-60700D02*
X109600Y-60700D01*
X118080Y-49950D02*
X118240Y-49790D01*
X118080Y-51023D02*
X118080Y-49950D01*
X117513Y-51590D02*
X118080Y-51023D01*
X116548Y-51590D02*
X117513Y-51590D01*
X115148Y-52990D02*
X116548Y-51590D01*
X114268Y-52990D02*
X115148Y-52990D01*
X112840Y-54418D02*
X114268Y-52990D01*
X112840Y-55088D02*
X112840Y-54418D01*
X110948Y-56980D02*
X112840Y-55088D01*
X110219Y-56980D02*
X110948Y-56980D01*
X109890Y-57310D02*
X110219Y-56980D01*
X109890Y-60410D02*
X109890Y-57310D01*
X109600Y-60700D02*
X109890Y-60410D01*
X124000Y-60700D02*
X124090Y-60700D01*
X121230Y-49950D02*
X121390Y-49790D01*
X121230Y-51280D02*
X121230Y-49950D01*
X122974Y-53025D02*
X121230Y-51280D01*
X123445Y-53025D02*
X122974Y-53025D01*
X124450Y-54030D02*
X123445Y-53025D01*
X124450Y-60340D02*
X124450Y-54030D01*
X124090Y-60700D02*
X124450Y-60340D01*
X124000Y-62700D02*
X124120Y-62700D01*
X124120Y-62700D02*
X124570Y-62249D01*
X124570Y-62249D02*
X124570Y-53980D01*
X124570Y-53980D02*
X123494Y-52904D01*
X123494Y-52904D02*
X123024Y-52904D01*
X123024Y-52904D02*
X121390Y-51270D01*
X121390Y-51270D02*
X121390Y-50105D01*
X122500Y-62700D02*
X122575Y-62700D01*
X122575Y-62700D02*
X123085Y-62189D01*
X123085Y-62189D02*
X123085Y-53305D01*
X123085Y-53305D02*
X121075Y-51295D01*
X121075Y-51295D02*
X121075Y-50105D01*
X120915Y-49950D02*
X121075Y-49790D01*
X120915Y-51305D02*
X120915Y-49950D01*
X122965Y-53355D02*
X120915Y-51305D01*
X122965Y-60305D02*
X122965Y-53355D01*
X122500Y-60700D02*
X122570Y-60700D01*
X122570Y-60700D02*
X122965Y-60305D01*
X125500Y-62700D02*
X125660Y-62700D01*
X125660Y-62700D02*
X126085Y-62274D01*
X126085Y-62274D02*
X126085Y-54210D01*
X126085Y-54210D02*
X125834Y-53959D01*
X121705Y-51246D02*
X121705Y-50105D01*
X123123Y-52664D02*
X121705Y-51246D01*
X123594Y-52664D02*
X123123Y-52664D01*
X124889Y-53959D02*
X123594Y-52664D01*
X125834Y-53959D02*
X124889Y-53959D01*
X121860Y-49950D02*
X122020Y-49790D01*
X121860Y-51231D02*
X121860Y-49950D01*
X123173Y-52544D02*
X121860Y-51231D01*
X123643Y-52544D02*
X123173Y-52544D01*
X124938Y-53839D02*
X123643Y-52544D01*
X125884Y-53839D02*
X124938Y-53839D01*
X126129Y-54085D02*
X125884Y-53839D01*
X127350Y-54085D02*
X126129Y-54085D01*
X127425Y-54160D02*
X127350Y-54085D01*
X127425Y-60285D02*
X127425Y-54160D01*
X127000Y-60700D02*
X127010Y-60700D01*
X127010Y-60700D02*
X127425Y-60285D01*
X121705Y-49795D02*
X121705Y-49790D01*
X121545Y-49955D02*
X121705Y-49795D01*
X121545Y-51256D02*
X121545Y-49955D01*
X123073Y-52784D02*
X121545Y-51256D01*
X123544Y-52784D02*
X123073Y-52784D01*
X124839Y-54080D02*
X123544Y-52784D01*
X125785Y-54080D02*
X124839Y-54080D01*
X125965Y-54260D02*
X125785Y-54080D01*
X125965Y-60305D02*
X125965Y-54260D01*
X125500Y-60700D02*
X125570Y-60700D01*
X125570Y-60700D02*
X125965Y-60305D01*
X118000Y-60700D02*
X118565Y-60700D01*
X118565Y-60700D02*
X118860Y-60405D01*
X118860Y-60405D02*
X118860Y-52280D01*
X118860Y-52280D02*
X119975Y-51165D01*
X119975Y-49945D02*
X120130Y-49790D01*
X119975Y-51165D02*
X119975Y-49945D01*
X120130Y-51180D02*
X120130Y-50105D01*
X118980Y-52330D02*
X120130Y-51180D01*
X118980Y-62304D02*
X118980Y-52330D01*
X118585Y-62700D02*
X118980Y-62304D01*
X118000Y-62700D02*
X118585Y-62700D01*
X116500Y-60700D02*
X117085Y-60700D01*
X117085Y-60700D02*
X117365Y-60420D01*
X117365Y-60420D02*
X117365Y-52885D01*
X117365Y-52885D02*
X117459Y-52790D01*
X119655Y-49950D02*
X119815Y-49790D01*
X119655Y-51145D02*
X119655Y-49950D01*
X118010Y-52790D02*
X119655Y-51145D01*
X117459Y-52790D02*
X118010Y-52790D01*
X119820Y-51150D02*
X119820Y-50105D01*
X118060Y-52910D02*
X119820Y-51150D01*
X117605Y-52910D02*
X118060Y-52910D01*
X117485Y-53030D02*
X117605Y-52910D01*
X117485Y-62399D02*
X117485Y-53030D01*
X117185Y-62700D02*
X117485Y-62399D01*
X116500Y-62700D02*
X117185Y-62700D01*
X121000Y-62700D02*
X121295Y-62700D01*
X121295Y-62700D02*
X121640Y-62354D01*
X121640Y-62354D02*
X121640Y-53030D01*
X121640Y-53030D02*
X120760Y-52150D01*
X120760Y-52150D02*
X120760Y-50105D01*
X120600Y-51020D02*
X120600Y-52160D01*
X120600Y-52160D02*
X121520Y-53080D01*
X120600Y-49955D02*
X120760Y-49795D01*
X120600Y-51020D02*
X120600Y-49955D01*
X121520Y-53080D02*
X121520Y-53320D01*
X121000Y-60700D02*
X121145Y-60700D01*
X121520Y-60325D02*
X121520Y-53320D01*
X121145Y-60700D02*
X121520Y-60325D01*
X106000Y-60700D02*
X106430Y-60700D01*
X117450Y-49955D02*
X117610Y-49795D01*
X117450Y-50975D02*
X117450Y-49955D01*
X117315Y-51110D02*
X117450Y-50975D01*
X116349Y-51110D02*
X117315Y-51110D01*
X114949Y-52510D02*
X116349Y-51110D01*
X114069Y-52510D02*
X114949Y-52510D01*
X112360Y-54219D02*
X114069Y-52510D01*
X112360Y-54889D02*
X112360Y-54219D01*
X110749Y-56500D02*
X112360Y-54889D01*
X107149Y-56500D02*
X110749Y-56500D01*
X106850Y-56800D02*
X107149Y-56500D01*
X106850Y-60280D02*
X106850Y-56800D01*
X106430Y-60700D02*
X106850Y-60280D01*
X120285Y-51065D02*
X120285Y-52185D01*
X120285Y-49950D02*
X120445Y-49790D01*
X120285Y-51065D02*
X120285Y-49950D01*
X120285Y-52185D02*
X120380Y-52280D01*
X120380Y-60300D02*
X120380Y-52280D01*
X119980Y-60700D02*
X120380Y-60300D01*
X119500Y-60700D02*
X119980Y-60700D01*
X120445Y-52175D02*
X120500Y-52230D01*
X119500Y-62700D02*
X120110Y-62700D01*
X120500Y-62309D02*
X120500Y-52230D01*
X120110Y-62700D02*
X120500Y-62309D01*
X120445Y-51045D02*
X120445Y-52175D01*
X120445Y-51045D02*
X120445Y-50105D01*
X125500Y-32200D02*
X124964Y-32200D01*
X124964Y-32200D02*
X124610Y-32554D01*
X122174Y-44286D02*
X122020Y-44440D01*
X122174Y-40993D02*
X122174Y-44286D01*
X124610Y-38557D02*
X122174Y-40993D01*
X124610Y-32554D02*
X124610Y-38557D01*
X122020Y-41236D02*
X122020Y-40978D01*
X124490Y-38508D02*
X124490Y-38408D01*
X122020Y-40978D02*
X124490Y-38508D01*
X125500Y-30200D02*
X124896Y-30200D01*
X124490Y-30606D02*
X124490Y-38408D01*
X124896Y-30200D02*
X124490Y-30606D01*
X122020Y-41236D02*
X122020Y-44124D01*
X124000Y-32200D02*
X123580Y-32200D01*
X123580Y-32200D02*
X123140Y-32640D01*
X123140Y-32640D02*
X123140Y-39159D01*
X123140Y-39159D02*
X121862Y-40437D01*
X121862Y-44282D02*
X121704Y-44440D01*
X121862Y-40437D02*
X121862Y-44282D01*
X124000Y-30200D02*
X123440Y-30200D01*
X121706Y-40424D02*
X121706Y-44124D01*
X123020Y-39110D02*
X121706Y-40424D01*
X123020Y-30620D02*
X123020Y-39110D01*
X123440Y-30200D02*
X123020Y-30620D01*
X127490Y-38524D02*
X127490Y-38704D01*
X124398Y-39278D02*
X123444Y-40232D01*
X126915Y-39278D02*
X124398Y-39278D01*
X127490Y-38704D02*
X126915Y-39278D01*
X128500Y-30200D02*
X127800Y-30200D01*
X122650Y-41026D02*
X122650Y-44124D01*
X123444Y-40232D02*
X122650Y-41026D01*
X127490Y-30510D02*
X127490Y-38524D01*
X127800Y-30200D02*
X127490Y-30510D01*
X127610Y-38578D02*
X127610Y-38753D01*
X127610Y-38753D02*
X126965Y-39398D01*
X128500Y-32200D02*
X127868Y-32200D01*
X127610Y-32458D02*
X127610Y-38578D01*
X127868Y-32200D02*
X127610Y-32458D01*
X124448Y-39398D02*
X123500Y-40346D01*
X126965Y-39398D02*
X124448Y-39398D01*
X122806Y-44284D02*
X122650Y-44440D01*
X122806Y-41040D02*
X122806Y-44284D01*
X123500Y-40346D02*
X122806Y-41040D01*
X126126Y-38570D02*
X126126Y-38775D01*
X126126Y-38775D02*
X125743Y-39158D01*
X127000Y-32200D02*
X126436Y-32200D01*
X126126Y-32510D02*
X126126Y-38570D01*
X126436Y-32200D02*
X126126Y-32510D01*
X124349Y-39158D02*
X123412Y-40094D01*
X125743Y-39158D02*
X124349Y-39158D01*
X122490Y-44286D02*
X122336Y-44440D01*
X122490Y-41017D02*
X122490Y-44286D01*
X123412Y-40094D02*
X122490Y-41017D01*
X124764Y-39038D02*
X124299Y-39038D01*
X124299Y-39038D02*
X124055Y-39281D01*
X126006Y-38540D02*
X126006Y-38726D01*
X124055Y-39281D02*
X123345Y-39991D01*
X125694Y-39038D02*
X124764Y-39038D01*
X126006Y-38726D02*
X125694Y-39038D01*
X127000Y-30200D02*
X126352Y-30200D01*
X122336Y-41001D02*
X122336Y-44124D01*
X123345Y-39991D02*
X122336Y-41001D01*
X126006Y-30546D02*
X126006Y-38540D01*
X126352Y-30200D02*
X126006Y-30546D01*
X119500Y-32200D02*
X119099Y-32200D01*
X119099Y-32200D02*
X118693Y-32606D01*
X120914Y-44286D02*
X120760Y-44440D01*
X120914Y-41675D02*
X120914Y-44286D01*
X118693Y-39454D02*
X120914Y-41675D01*
X118693Y-32606D02*
X118693Y-39454D01*
X121000Y-32200D02*
X120506Y-32200D01*
X120506Y-32200D02*
X120238Y-32468D01*
X121232Y-44284D02*
X121076Y-44440D01*
X121232Y-41653D02*
X121232Y-44284D01*
X120238Y-40659D02*
X121232Y-41653D01*
X120238Y-32468D02*
X120238Y-40659D01*
X121000Y-30200D02*
X120646Y-30200D01*
X121076Y-41667D02*
X121076Y-44124D01*
X120118Y-40709D02*
X121076Y-41667D01*
X120118Y-30728D02*
X120118Y-40709D01*
X120646Y-30200D02*
X120118Y-30728D01*
X119500Y-30200D02*
X119052Y-30200D01*
X120760Y-41690D02*
X120760Y-44124D01*
X118573Y-39504D02*
X120760Y-41690D01*
X118573Y-30678D02*
X118573Y-39504D01*
X119052Y-30200D02*
X118573Y-30678D01*
X122500Y-30200D02*
X122078Y-30200D01*
X121390Y-39810D02*
X121390Y-44126D01*
X121500Y-39700D02*
X121390Y-39810D01*
X121500Y-30778D02*
X121500Y-39700D01*
X122078Y-30200D02*
X121500Y-30778D01*
X122500Y-32200D02*
X122030Y-32200D01*
X122030Y-32200D02*
X121620Y-32610D01*
X121546Y-44284D02*
X121390Y-44440D01*
X121546Y-39823D02*
X121546Y-44284D01*
X121620Y-39749D02*
X121546Y-39823D01*
X121620Y-32610D02*
X121620Y-39749D01*
X129048Y-38662D02*
X129048Y-38846D01*
X124224Y-41149D02*
X124224Y-41684D01*
X124895Y-40478D02*
X124224Y-41149D01*
X127416Y-40478D02*
X124895Y-40478D01*
X129048Y-38846D02*
X127416Y-40478D01*
X136000Y-30200D02*
X135384Y-30200D01*
X124224Y-41684D02*
X124224Y-44124D01*
X129048Y-36723D02*
X129048Y-38662D01*
X129845Y-35926D02*
X129048Y-36723D01*
X132054Y-35926D02*
X129845Y-35926D01*
X132420Y-35560D02*
X132054Y-35926D01*
X134617Y-35560D02*
X132420Y-35560D01*
X135000Y-35178D02*
X134617Y-35560D01*
X135000Y-30584D02*
X135000Y-35178D01*
X135384Y-30200D02*
X135000Y-30584D01*
X136000Y-32200D02*
X135482Y-32200D01*
X135120Y-35227D02*
X134667Y-35680D01*
X135120Y-32562D02*
X135120Y-35227D01*
X135482Y-32200D02*
X135120Y-32562D01*
X129168Y-38774D02*
X129168Y-38895D01*
X124380Y-41163D02*
X124380Y-41966D01*
X124945Y-40598D02*
X124380Y-41163D01*
X127465Y-40598D02*
X124945Y-40598D01*
X129168Y-38895D02*
X127465Y-40598D01*
X124380Y-44284D02*
X124224Y-44440D01*
X124380Y-41966D02*
X124380Y-44284D01*
X129168Y-36773D02*
X129168Y-38774D01*
X129895Y-36046D02*
X129168Y-36773D01*
X132104Y-36046D02*
X129895Y-36046D01*
X132470Y-35680D02*
X132104Y-36046D01*
X134667Y-35680D02*
X132470Y-35680D01*
X134500Y-32200D02*
X134030Y-32200D01*
X133636Y-35067D02*
X133263Y-35440D01*
X133636Y-32594D02*
X133636Y-35067D01*
X134030Y-32200D02*
X133636Y-32594D01*
X128928Y-38600D02*
X128928Y-38796D01*
X124064Y-41140D02*
X124064Y-41584D01*
X124846Y-40358D02*
X124064Y-41140D01*
X127366Y-40358D02*
X124846Y-40358D01*
X128928Y-38796D02*
X127366Y-40358D01*
X124064Y-44286D02*
X123910Y-44440D01*
X124064Y-41584D02*
X124064Y-44286D01*
X128928Y-36673D02*
X128928Y-38600D01*
X129795Y-35806D02*
X128928Y-36673D01*
X132005Y-35806D02*
X129795Y-35806D01*
X132371Y-35440D02*
X132005Y-35806D01*
X133263Y-35440D02*
X132371Y-35440D01*
X117295Y-50105D02*
X117275Y-50125D01*
X117275Y-50125D02*
X117275Y-50470D01*
X117275Y-50470D02*
X117164Y-50580D01*
X117164Y-50580D02*
X116709Y-50580D01*
X105090Y-62700D02*
X104500Y-62700D01*
X105500Y-62290D02*
X105090Y-62700D01*
X105500Y-56769D02*
X105500Y-62290D01*
X105889Y-56380D02*
X105500Y-56769D01*
X110699Y-56380D02*
X105889Y-56380D01*
X112240Y-54839D02*
X110699Y-56380D01*
X112240Y-54169D02*
X112240Y-54839D01*
X114019Y-52390D02*
X112240Y-54169D01*
X114899Y-52390D02*
X114019Y-52390D01*
X116709Y-50580D02*
X114899Y-52390D01*
X137500Y-32200D02*
X136786Y-32200D01*
X136622Y-35117D02*
X135819Y-35920D01*
X136622Y-32364D02*
X136622Y-35117D01*
X136786Y-32200D02*
X136622Y-32364D01*
X132569Y-35920D02*
X132203Y-36286D01*
X135819Y-35920D02*
X132569Y-35920D01*
X129408Y-36872D02*
X129408Y-38790D01*
X129994Y-36286D02*
X129408Y-36872D01*
X132203Y-36286D02*
X129994Y-36286D01*
X129408Y-38790D02*
X129408Y-38995D01*
X124692Y-41238D02*
X124692Y-42026D01*
X125091Y-40838D02*
X124692Y-41238D01*
X127565Y-40838D02*
X125091Y-40838D01*
X129408Y-38995D02*
X127565Y-40838D01*
X124692Y-44286D02*
X124538Y-44440D01*
X124692Y-42026D02*
X124692Y-44286D01*
X129288Y-38772D02*
X129288Y-38945D01*
X124538Y-41175D02*
X124538Y-41908D01*
X124995Y-40718D02*
X124538Y-41175D01*
X127515Y-40718D02*
X124995Y-40718D01*
X129288Y-38945D02*
X127515Y-40718D01*
X137500Y-30200D02*
X136784Y-30200D01*
X124538Y-41908D02*
X124538Y-44126D01*
X129288Y-36823D02*
X129288Y-38772D01*
X129945Y-36166D02*
X129288Y-36823D01*
X132154Y-36166D02*
X129945Y-36166D01*
X132520Y-35800D02*
X132154Y-36166D01*
X135769Y-35800D02*
X132520Y-35800D01*
X136500Y-35070D02*
X135769Y-35800D01*
X136500Y-30484D02*
X136500Y-35070D01*
X136784Y-30200D02*
X136500Y-30484D01*
X131500Y-32200D02*
X130994Y-32200D01*
X130646Y-35017D02*
X130337Y-35326D01*
X130646Y-32548D02*
X130646Y-35017D01*
X130994Y-32200D02*
X130646Y-32548D01*
X128448Y-36475D02*
X128448Y-38408D01*
X129597Y-35326D02*
X128448Y-36475D01*
X130337Y-35326D02*
X129597Y-35326D01*
X128448Y-38408D02*
X128448Y-38597D01*
X128448Y-38597D02*
X127167Y-39878D01*
X124647Y-39878D02*
X123686Y-40838D01*
X127167Y-39878D02*
X124647Y-39878D01*
X123436Y-44284D02*
X123280Y-44440D01*
X123436Y-41089D02*
X123436Y-44284D01*
X123686Y-40838D02*
X123436Y-41089D01*
X128328Y-38270D02*
X128328Y-38547D01*
X124597Y-39758D02*
X123648Y-40706D01*
X127117Y-39758D02*
X124597Y-39758D01*
X128328Y-38547D02*
X127117Y-39758D01*
X131500Y-30200D02*
X130918Y-30200D01*
X123280Y-41075D02*
X123280Y-44126D01*
X123648Y-40706D02*
X123280Y-41075D01*
X128328Y-36425D02*
X128328Y-38270D01*
X129547Y-35206D02*
X128328Y-36425D01*
X130288Y-35206D02*
X129547Y-35206D01*
X130526Y-34968D02*
X130288Y-35206D01*
X130526Y-30592D02*
X130526Y-34968D01*
X130918Y-30200D02*
X130526Y-30592D01*
X130000Y-32200D02*
X129604Y-32200D01*
X128208Y-36375D02*
X128208Y-38210D01*
X129184Y-35399D02*
X128208Y-36375D01*
X129184Y-32619D02*
X129184Y-35399D01*
X129604Y-32200D02*
X129184Y-32619D01*
X128208Y-38210D02*
X128208Y-38495D01*
X124547Y-39638D02*
X123567Y-40617D01*
X127065Y-39638D02*
X124547Y-39638D01*
X128208Y-38495D02*
X127065Y-39638D01*
X123118Y-44286D02*
X122964Y-44440D01*
X123118Y-41067D02*
X123118Y-44286D01*
X123567Y-40617D02*
X123118Y-41067D01*
X128088Y-38222D02*
X128088Y-38445D01*
X124498Y-39518D02*
X123546Y-40470D01*
X127015Y-39518D02*
X124498Y-39518D01*
X128088Y-38445D02*
X127015Y-39518D01*
X130000Y-30200D02*
X129526Y-30200D01*
X122964Y-41052D02*
X122964Y-44126D01*
X123546Y-40470D02*
X122964Y-41052D01*
X128088Y-36326D02*
X128088Y-38222D01*
X129064Y-35350D02*
X128088Y-36326D01*
X129064Y-30662D02*
X129064Y-35350D01*
X129526Y-30200D02*
X129064Y-30662D01*
X128808Y-38552D02*
X128808Y-38746D01*
X123910Y-41124D02*
X123910Y-41370D01*
X124796Y-40238D02*
X123910Y-41124D01*
X127316Y-40238D02*
X124796Y-40238D01*
X128808Y-38746D02*
X127316Y-40238D01*
X134500Y-30200D02*
X133856Y-30200D01*
X123910Y-41370D02*
X123910Y-44124D01*
X128808Y-36624D02*
X128808Y-38552D01*
X129746Y-35686D02*
X128808Y-36624D01*
X131955Y-35686D02*
X129746Y-35686D01*
X132321Y-35320D02*
X131955Y-35686D01*
X133214Y-35320D02*
X132321Y-35320D01*
X133516Y-35018D02*
X133214Y-35320D01*
X133516Y-30540D02*
X133516Y-35018D01*
X133856Y-30200D02*
X133516Y-30540D01*
X128568Y-38456D02*
X128568Y-38647D01*
X124697Y-39998D02*
X123759Y-40935D01*
X127217Y-39998D02*
X124697Y-39998D01*
X128568Y-38647D02*
X127217Y-39998D01*
X133000Y-30200D02*
X132432Y-30200D01*
X123594Y-41101D02*
X123594Y-44124D01*
X123759Y-40935D02*
X123594Y-41101D01*
X128568Y-36524D02*
X128568Y-38456D01*
X129646Y-35446D02*
X128568Y-36524D01*
X131855Y-35446D02*
X129646Y-35446D01*
X132054Y-35248D02*
X131855Y-35446D01*
X132054Y-30578D02*
X132054Y-35248D01*
X132432Y-30200D02*
X132054Y-30578D01*
X132548Y-32200D02*
X132174Y-32573D01*
X132174Y-32573D02*
X132174Y-35297D01*
X132174Y-35297D02*
X131905Y-35566D01*
X131905Y-35566D02*
X129696Y-35566D01*
X129696Y-35566D02*
X128688Y-36574D01*
X128688Y-36574D02*
X128688Y-38538D01*
X132548Y-32200D02*
X133000Y-32200D01*
X128688Y-38697D02*
X127267Y-40118D01*
X127267Y-40118D02*
X124746Y-40118D01*
X128688Y-38538D02*
X128688Y-38697D01*
X123750Y-41114D02*
X124746Y-40118D01*
X123750Y-44284D02*
X123750Y-41114D01*
X123750Y-44284D02*
X123594Y-44440D01*
M02*
