G04 (created by PCBNEW (2012-oct-18)-testing) date Mon 18 Feb 2013 10:37:03 UTC*
%MOIN*%
G04 Gerber Fmt 3.4, Leading zero omitted, Abs format*
%FSLAX34Y34*%
G01*
G70*
G90*
G04 APERTURE LIST*
%ADD10C,0.006*%
%ADD11R,0.06X0.06*%
%ADD12C,0.16*%
%ADD13C,0.0145*%
%ADD14C,0.008*%
G04 APERTURE END LIST*
G54D10*
G54D11*
X109500Y-45200D03*
X109500Y-37700D03*
X109500Y-39200D03*
X109500Y-42200D03*
X109500Y-43700D03*
X109500Y-46700D03*
X107500Y-37700D03*
X107500Y-39200D03*
X107500Y-42200D03*
X107500Y-43700D03*
X107500Y-45200D03*
X107500Y-46700D03*
X101500Y-49700D03*
X101500Y-37700D03*
X101500Y-39200D03*
X101500Y-42200D03*
X101500Y-43700D03*
X101500Y-45200D03*
X101500Y-46700D03*
X137500Y-66700D03*
X137500Y-64700D03*
X137500Y-62700D03*
X137500Y-60700D03*
X137500Y-58700D03*
X136000Y-66700D03*
X136000Y-64700D03*
X136000Y-62700D03*
X136000Y-60700D03*
X105500Y-37700D03*
X105500Y-39200D03*
X105500Y-42200D03*
X105500Y-43700D03*
X105500Y-45200D03*
X105500Y-46700D03*
X103500Y-37700D03*
X103500Y-39200D03*
X103500Y-42200D03*
X103500Y-43700D03*
X103500Y-45200D03*
X103500Y-46700D03*
X136000Y-58700D03*
X115000Y-34200D03*
X122500Y-30200D03*
X121000Y-34200D03*
X121000Y-32200D03*
X121000Y-30200D03*
X119500Y-34200D03*
X119500Y-32200D03*
X119500Y-30200D03*
X118000Y-34200D03*
X118000Y-32200D03*
X118000Y-30200D03*
X116500Y-34200D03*
X116500Y-32200D03*
X116500Y-30200D03*
X122500Y-32200D03*
X115000Y-32200D03*
X115000Y-30200D03*
X113500Y-34200D03*
X113500Y-32200D03*
X113500Y-30200D03*
X112000Y-34200D03*
X112000Y-32200D03*
X112000Y-30200D03*
X110500Y-34200D03*
X110500Y-32200D03*
X110500Y-30200D03*
X109000Y-34200D03*
X109000Y-32200D03*
X128500Y-34200D03*
X136000Y-30200D03*
X134500Y-34200D03*
X134500Y-32200D03*
X134500Y-30200D03*
X133000Y-34200D03*
X133000Y-32200D03*
X133000Y-30200D03*
X131500Y-34200D03*
X131500Y-32200D03*
X131500Y-30200D03*
X130000Y-34200D03*
X130000Y-32200D03*
X130000Y-30200D03*
X109000Y-30200D03*
X128500Y-32200D03*
X128500Y-30200D03*
X127000Y-34200D03*
X127000Y-32200D03*
X127000Y-30200D03*
X125500Y-34200D03*
X125500Y-32200D03*
X125500Y-30200D03*
X124000Y-34200D03*
X124000Y-32200D03*
X124000Y-30200D03*
X122500Y-34200D03*
X125500Y-26200D03*
X110500Y-28200D03*
X109000Y-28200D03*
X107500Y-28200D03*
X106000Y-28200D03*
X104500Y-28200D03*
X137500Y-26200D03*
X136000Y-26200D03*
X134500Y-26200D03*
X133000Y-26200D03*
X131500Y-26200D03*
X130000Y-26200D03*
X127000Y-26200D03*
X128500Y-26200D03*
X112000Y-28200D03*
X124000Y-26200D03*
X122500Y-26200D03*
X121000Y-26200D03*
X119500Y-26200D03*
X116500Y-26200D03*
X118000Y-26200D03*
X115000Y-26200D03*
X113500Y-26200D03*
X112000Y-26200D03*
X110500Y-26200D03*
X109000Y-26200D03*
X106000Y-26200D03*
X107500Y-26200D03*
X131500Y-28200D03*
X107500Y-34200D03*
X107500Y-32200D03*
X107500Y-30200D03*
X106000Y-34200D03*
X106000Y-32200D03*
X106000Y-30200D03*
X104500Y-34200D03*
X104500Y-32200D03*
X104500Y-30200D03*
X137500Y-28200D03*
X136000Y-28200D03*
X134500Y-28200D03*
X133000Y-28200D03*
X136000Y-32200D03*
X130000Y-28200D03*
X128500Y-28200D03*
X127000Y-28200D03*
X125500Y-28200D03*
X124000Y-28200D03*
X122500Y-28200D03*
X121000Y-28200D03*
X119500Y-28200D03*
X118000Y-28200D03*
X116500Y-28200D03*
X115000Y-28200D03*
X113500Y-28200D03*
X122500Y-66700D03*
X127000Y-62700D03*
X127000Y-60700D03*
X127000Y-58700D03*
X125500Y-66700D03*
X125500Y-64700D03*
X125500Y-62700D03*
X125500Y-60700D03*
X125500Y-58700D03*
X124000Y-66700D03*
X124000Y-64700D03*
X124000Y-62700D03*
X124000Y-60700D03*
X124000Y-58700D03*
X127000Y-64700D03*
X122500Y-64700D03*
X122500Y-62700D03*
X122500Y-60700D03*
X122500Y-58700D03*
X121000Y-66700D03*
X121000Y-64700D03*
X121000Y-62700D03*
X121000Y-60700D03*
X121000Y-58700D03*
X119500Y-66700D03*
X119500Y-64700D03*
X119500Y-62700D03*
X119500Y-60700D03*
X131500Y-60700D03*
X134500Y-66700D03*
X134500Y-64700D03*
X134500Y-62700D03*
X134500Y-60700D03*
X134500Y-58700D03*
X133000Y-66700D03*
X133000Y-64700D03*
X133000Y-62700D03*
X133000Y-60700D03*
X133000Y-58700D03*
X131500Y-66700D03*
X131500Y-64700D03*
X131500Y-62700D03*
X119500Y-58700D03*
X131500Y-58700D03*
X130000Y-66700D03*
X130000Y-64700D03*
X130000Y-62700D03*
X130000Y-60700D03*
X130000Y-58700D03*
X128500Y-66700D03*
X128500Y-64700D03*
X128500Y-62700D03*
X128500Y-60700D03*
X128500Y-58700D03*
X127000Y-66700D03*
X106000Y-66700D03*
X110500Y-62700D03*
X110500Y-60700D03*
X110500Y-58700D03*
X109000Y-66700D03*
X109000Y-64700D03*
X109000Y-62700D03*
X109000Y-60700D03*
X109000Y-58700D03*
X107500Y-66700D03*
X107500Y-64700D03*
X107500Y-62700D03*
X107500Y-60700D03*
X107500Y-58700D03*
X110500Y-64700D03*
X106000Y-64700D03*
X106000Y-62700D03*
X106000Y-60700D03*
X106000Y-58700D03*
X104500Y-66700D03*
X104500Y-64700D03*
X104500Y-62700D03*
X104500Y-60700D03*
X104500Y-58700D03*
X137500Y-34200D03*
X137500Y-32200D03*
X137500Y-30200D03*
X136000Y-34200D03*
X115000Y-60700D03*
X118000Y-66700D03*
X118000Y-64700D03*
X118000Y-62700D03*
X118000Y-60700D03*
X118000Y-58700D03*
X116500Y-66700D03*
X116500Y-64700D03*
X116500Y-62700D03*
X116500Y-60700D03*
X116500Y-58700D03*
X115000Y-66700D03*
X115000Y-64700D03*
X115000Y-62700D03*
X104500Y-26200D03*
X115000Y-58700D03*
X113500Y-66700D03*
X113500Y-64700D03*
X113500Y-62700D03*
X113500Y-60700D03*
X113500Y-58700D03*
X112000Y-66700D03*
X112000Y-64700D03*
X112000Y-62700D03*
X112000Y-60700D03*
X112000Y-58700D03*
X110500Y-66700D03*
X134500Y-51200D03*
X132500Y-45200D03*
X132500Y-43700D03*
X132500Y-42200D03*
X132500Y-40700D03*
X132500Y-39200D03*
X132500Y-37700D03*
X134500Y-55700D03*
X136500Y-54200D03*
X134500Y-52700D03*
X132500Y-46700D03*
X134500Y-49700D03*
X134500Y-48200D03*
X134500Y-46700D03*
X134500Y-45200D03*
X134500Y-43700D03*
X134500Y-42200D03*
X134500Y-40700D03*
X134500Y-39200D03*
X134500Y-37700D03*
X127000Y-38200D03*
X125500Y-38200D03*
X125500Y-36200D03*
X127000Y-56700D03*
X127000Y-54700D03*
X130500Y-49700D03*
X130500Y-48200D03*
X130500Y-46700D03*
X130500Y-45200D03*
X130500Y-43700D03*
X136500Y-55700D03*
X127000Y-36200D03*
X132500Y-54200D03*
X132500Y-55700D03*
X134500Y-54200D03*
X132500Y-52700D03*
X132500Y-51200D03*
X132500Y-49700D03*
X132500Y-48200D03*
X140500Y-51200D03*
X138500Y-45200D03*
X138500Y-43700D03*
X138500Y-42200D03*
X138500Y-40700D03*
X138500Y-39200D03*
X138500Y-37700D03*
X140500Y-55700D03*
X101500Y-54200D03*
X140500Y-52700D03*
X138500Y-46700D03*
X140500Y-49700D03*
X140500Y-48200D03*
X140500Y-46700D03*
X140500Y-45200D03*
X140500Y-43700D03*
X140500Y-42200D03*
X140500Y-40700D03*
X140500Y-39200D03*
X140500Y-37700D03*
X136500Y-40700D03*
X138500Y-54200D03*
X136500Y-52700D03*
X136500Y-51200D03*
X136500Y-49700D03*
X136500Y-48200D03*
X136500Y-46700D03*
X136500Y-45200D03*
X136500Y-43700D03*
X136500Y-42200D03*
X128500Y-43700D03*
X136500Y-39200D03*
X136500Y-37700D03*
X138500Y-55700D03*
X140500Y-54200D03*
X138500Y-52700D03*
X138500Y-51200D03*
X138500Y-49700D03*
X138500Y-48200D03*
X109500Y-51200D03*
X107500Y-55700D03*
X109500Y-54200D03*
X107500Y-52700D03*
X107500Y-51200D03*
X107500Y-49700D03*
X107500Y-48200D03*
X107500Y-40700D03*
X109500Y-55700D03*
X109500Y-52700D03*
X105500Y-40700D03*
X109500Y-49700D03*
X109500Y-48200D03*
X109500Y-40700D03*
X115000Y-56700D03*
X115000Y-54700D03*
X111500Y-49700D03*
X111500Y-48200D03*
X111500Y-46700D03*
X111500Y-45200D03*
X103500Y-49700D03*
X103500Y-54200D03*
X101500Y-52700D03*
X101500Y-51200D03*
X101500Y-48200D03*
X101500Y-40700D03*
X103500Y-55700D03*
X105500Y-54200D03*
X103500Y-52700D03*
X103500Y-51200D03*
X111500Y-43700D03*
X103500Y-48200D03*
X103500Y-40700D03*
X105500Y-55700D03*
X107500Y-54200D03*
X105500Y-52700D03*
X105500Y-51200D03*
X105500Y-49700D03*
X105500Y-48200D03*
X124000Y-54700D03*
X121000Y-56700D03*
X121000Y-54700D03*
X121000Y-38200D03*
X121000Y-36200D03*
X122500Y-56700D03*
X122500Y-54700D03*
X122500Y-38200D03*
X122500Y-36200D03*
X124000Y-56700D03*
X119500Y-36200D03*
X124000Y-38200D03*
X124000Y-36200D03*
X125500Y-56700D03*
X125500Y-54700D03*
X128500Y-49700D03*
X128500Y-48200D03*
X128500Y-46700D03*
X128500Y-45200D03*
X116500Y-38200D03*
X115000Y-38200D03*
X115000Y-36200D03*
X116500Y-56700D03*
X116500Y-54700D03*
X113500Y-49700D03*
X113500Y-48200D03*
X113500Y-46700D03*
X113500Y-45200D03*
X113500Y-43700D03*
X101500Y-55700D03*
X116500Y-36200D03*
X118000Y-56700D03*
X118000Y-54700D03*
X118000Y-38200D03*
X118000Y-36200D03*
X119500Y-56700D03*
X119500Y-54700D03*
X119500Y-38200D03*
G54D12*
X101000Y-26200D03*
X141000Y-26200D03*
X101000Y-67200D03*
X141000Y-67200D03*
G54D11*
X125300Y-82300D03*
X124100Y-79300D03*
X124100Y-77800D03*
X124100Y-82300D03*
X124100Y-80800D03*
X125300Y-70300D03*
X125300Y-68800D03*
X125300Y-73300D03*
X125300Y-71800D03*
X125300Y-76300D03*
X125300Y-74800D03*
X125300Y-79300D03*
X125300Y-77800D03*
X124100Y-74800D03*
X125300Y-80800D03*
X126500Y-70300D03*
X126500Y-68800D03*
X126500Y-73300D03*
X126500Y-71800D03*
X126500Y-76300D03*
X126500Y-74800D03*
X126500Y-79300D03*
X126500Y-77800D03*
X126500Y-82300D03*
X126500Y-80800D03*
X122900Y-71800D03*
X121700Y-68800D03*
X121700Y-73300D03*
X121700Y-71800D03*
X121700Y-76300D03*
X121700Y-74800D03*
X121700Y-79300D03*
X121700Y-77800D03*
X121700Y-82300D03*
X121700Y-80800D03*
X122900Y-70300D03*
X122900Y-68800D03*
X122900Y-73300D03*
X127700Y-70300D03*
X122900Y-76300D03*
X122900Y-74800D03*
X122900Y-79300D03*
X122900Y-77800D03*
X122900Y-82300D03*
X122900Y-80800D03*
X124100Y-70300D03*
X124100Y-68800D03*
X124100Y-73300D03*
X124100Y-71800D03*
X124100Y-76300D03*
X131300Y-82300D03*
X130100Y-79300D03*
X130100Y-77800D03*
X130100Y-82300D03*
X130100Y-80800D03*
X131300Y-70300D03*
X131300Y-68800D03*
X131300Y-73300D03*
X131300Y-71800D03*
X131300Y-76300D03*
X131300Y-74800D03*
X131300Y-79300D03*
X131300Y-77800D03*
X130100Y-74800D03*
X131300Y-80800D03*
X132500Y-70300D03*
X132500Y-68800D03*
X132500Y-73300D03*
X132500Y-71800D03*
X132500Y-76300D03*
X132500Y-74800D03*
X132500Y-79300D03*
X132500Y-77800D03*
X132500Y-82300D03*
X132500Y-80800D03*
X128900Y-71800D03*
X127700Y-68800D03*
X127700Y-73300D03*
X127700Y-71800D03*
X127700Y-76300D03*
X127700Y-74800D03*
X127700Y-79300D03*
X127700Y-77800D03*
X127700Y-82300D03*
X127700Y-80800D03*
X128900Y-70300D03*
X128900Y-68800D03*
X128900Y-73300D03*
X121700Y-70300D03*
X128900Y-76300D03*
X128900Y-74800D03*
X128900Y-79300D03*
X128900Y-77800D03*
X128900Y-82300D03*
X128900Y-80800D03*
X130100Y-70300D03*
X130100Y-68800D03*
X130100Y-73300D03*
X130100Y-71800D03*
X130100Y-76300D03*
X113300Y-82300D03*
X112100Y-79300D03*
X112100Y-77800D03*
X112100Y-82300D03*
X112100Y-80800D03*
X113300Y-70300D03*
X113300Y-68800D03*
X113300Y-73300D03*
X113300Y-71800D03*
X113300Y-76300D03*
X113300Y-74800D03*
X113300Y-79300D03*
X113300Y-77800D03*
X112100Y-74800D03*
X113300Y-80800D03*
X114500Y-70300D03*
X114500Y-68800D03*
X114500Y-73300D03*
X114500Y-71800D03*
X114500Y-76300D03*
X114500Y-74800D03*
X114500Y-79300D03*
X114500Y-77800D03*
X114500Y-82300D03*
X114500Y-80800D03*
X110900Y-71800D03*
X109700Y-68800D03*
X109700Y-73300D03*
X109700Y-71800D03*
X109700Y-76300D03*
X109700Y-74800D03*
X109700Y-79300D03*
X109700Y-77800D03*
X109700Y-82300D03*
X109700Y-80800D03*
X110900Y-70300D03*
X110900Y-68800D03*
X110900Y-73300D03*
X115700Y-70300D03*
X110900Y-76300D03*
X110900Y-74800D03*
X110900Y-79300D03*
X110900Y-77800D03*
X110900Y-82300D03*
X110900Y-80800D03*
X112100Y-70300D03*
X112100Y-68800D03*
X112100Y-73300D03*
X112100Y-71800D03*
X112100Y-76300D03*
X119300Y-82300D03*
X118100Y-79300D03*
X118100Y-77800D03*
X118100Y-82300D03*
X118100Y-80800D03*
X119300Y-70300D03*
X119300Y-68800D03*
X119300Y-73300D03*
X119300Y-71800D03*
X119300Y-76300D03*
X119300Y-74800D03*
X119300Y-79300D03*
X119300Y-77800D03*
X118100Y-74800D03*
X119300Y-80800D03*
X120500Y-70300D03*
X120500Y-68800D03*
X120500Y-73300D03*
X120500Y-71800D03*
X120500Y-76300D03*
X120500Y-74800D03*
X120500Y-79300D03*
X120500Y-77800D03*
X120500Y-82300D03*
X120500Y-80800D03*
X116900Y-71800D03*
X115700Y-68800D03*
X115700Y-73300D03*
X115700Y-71800D03*
X115700Y-76300D03*
X115700Y-74800D03*
X115700Y-79300D03*
X115700Y-77800D03*
X115700Y-82300D03*
X115700Y-80800D03*
X116900Y-70300D03*
X116900Y-68800D03*
X116900Y-73300D03*
X109700Y-70300D03*
X116900Y-76300D03*
X116900Y-74800D03*
X116900Y-79300D03*
X116900Y-77800D03*
X116900Y-82300D03*
X116900Y-80800D03*
X118100Y-70300D03*
X118100Y-68800D03*
X118100Y-73300D03*
X118100Y-71800D03*
X118100Y-76300D03*
G54D13*
X117925Y-48845D03*
X117925Y-49160D03*
X118240Y-49165D03*
X118555Y-48850D03*
X118240Y-48850D03*
X123280Y-49162D03*
X123596Y-49164D03*
X123910Y-49164D03*
X118555Y-47590D03*
X118555Y-47905D03*
X118240Y-47905D03*
X117925Y-47905D03*
X118240Y-47590D03*
X117925Y-47590D03*
X118240Y-48220D03*
X117925Y-48530D03*
X118240Y-48530D03*
X118555Y-48530D03*
X118555Y-48220D03*
X117925Y-48220D03*
X123280Y-47590D03*
X123596Y-47588D03*
X123910Y-47588D03*
X123910Y-46960D03*
X123596Y-46960D03*
X123280Y-46958D03*
X123910Y-47904D03*
X123280Y-47274D03*
X123596Y-47274D03*
X123910Y-47272D03*
X123910Y-48532D03*
X123596Y-48532D03*
X123280Y-48532D03*
X123282Y-48848D03*
X123596Y-48848D03*
X123910Y-48848D03*
X123596Y-48218D03*
X123596Y-47904D03*
X123280Y-47906D03*
X123280Y-48218D03*
X123910Y-48218D03*
X123280Y-49480D03*
X123595Y-49790D03*
X123595Y-50105D03*
X123280Y-49790D03*
X123280Y-50105D03*
X124225Y-49790D03*
X123910Y-49480D03*
X123910Y-49790D03*
X123910Y-50105D03*
X124225Y-50105D03*
X123595Y-49480D03*
X122335Y-49480D03*
X122340Y-49790D03*
X122335Y-50105D03*
X122020Y-50105D03*
X122965Y-49480D03*
X122965Y-50105D03*
X122965Y-49790D03*
X122650Y-49480D03*
X122650Y-49790D03*
X122650Y-50105D03*
X118240Y-46645D03*
X117925Y-46645D03*
X118555Y-46645D03*
X118555Y-46330D03*
X118240Y-46330D03*
X117925Y-46330D03*
X118555Y-47275D03*
X118240Y-47275D03*
X117925Y-47275D03*
X118555Y-46960D03*
X118240Y-46960D03*
X117925Y-46960D03*
X118240Y-45385D03*
X117925Y-45700D03*
X118556Y-45385D03*
X117925Y-45385D03*
X124220Y-49475D03*
X117925Y-46015D03*
X118555Y-46015D03*
X118240Y-46015D03*
X118555Y-45700D03*
X118240Y-45700D03*
X119500Y-47905D03*
X122336Y-46958D03*
X122020Y-46644D03*
X122334Y-46644D03*
X119815Y-47905D03*
X119815Y-47590D03*
X119500Y-47590D03*
X119815Y-47275D03*
X119500Y-47275D03*
X118242Y-44754D03*
X122338Y-47904D03*
X122022Y-47904D03*
X122336Y-47590D03*
X122022Y-47588D03*
X122022Y-47274D03*
X122338Y-47274D03*
X122022Y-46960D03*
X120760Y-48220D03*
X121390Y-48220D03*
X121390Y-48535D03*
X121075Y-48535D03*
X121075Y-48215D03*
X121705Y-48535D03*
X120760Y-48535D03*
X120445Y-48220D03*
X120445Y-48530D03*
X119815Y-46960D03*
X119500Y-46960D03*
X119815Y-46645D03*
X119500Y-46645D03*
X122020Y-48220D03*
X122020Y-48535D03*
X121705Y-48215D03*
X124210Y-83820D03*
X122500Y-83220D03*
X121340Y-83250D03*
X120670Y-83930D03*
X119490Y-83850D03*
X129720Y-83290D03*
X128460Y-83260D03*
X127320Y-83280D03*
X126090Y-83250D03*
X124910Y-83300D03*
X111130Y-83970D03*
X109950Y-83490D03*
X108600Y-83800D03*
X117980Y-83410D03*
X116530Y-83300D03*
X120135Y-48220D03*
X115460Y-83450D03*
X114250Y-83570D03*
X112320Y-82970D03*
X123280Y-45384D03*
X123594Y-45384D03*
X123908Y-45384D03*
X123908Y-45700D03*
X123594Y-45700D03*
X123596Y-46644D03*
X123910Y-46330D03*
X123280Y-46646D03*
X123910Y-46644D03*
X123280Y-45700D03*
X123278Y-46014D03*
X123594Y-46014D03*
X123908Y-46014D03*
X123278Y-46330D03*
X123594Y-46328D03*
X122018Y-46016D03*
X122020Y-45700D03*
X121702Y-46014D03*
X121704Y-45700D03*
X121388Y-46014D03*
X121390Y-45700D03*
X121074Y-46014D03*
X121074Y-45700D03*
X120760Y-46014D03*
X119500Y-48215D03*
X120130Y-48535D03*
X119815Y-48215D03*
X119815Y-48535D03*
X119500Y-48535D03*
X122334Y-46016D03*
X122336Y-45698D03*
X120130Y-46016D03*
X120760Y-45700D03*
X120444Y-46014D03*
X120444Y-45700D03*
X120130Y-45700D03*
X119816Y-46016D03*
X119816Y-45700D03*
X121705Y-47903D03*
X120130Y-47903D03*
X118555Y-49165D03*
X121390Y-46644D03*
X121706Y-47588D03*
X121390Y-47590D03*
X121076Y-47588D03*
X120760Y-47588D03*
X120446Y-47588D03*
X121706Y-47274D03*
X121390Y-47274D03*
X121076Y-47274D03*
X120762Y-47274D03*
X120448Y-47274D03*
X120132Y-47274D03*
X121706Y-46960D03*
X121390Y-46960D03*
X121078Y-46958D03*
X120762Y-46960D03*
X120132Y-46958D03*
X120446Y-46958D03*
X121076Y-46644D03*
X120760Y-46644D03*
X118555Y-44125D03*
X118555Y-44440D03*
X118556Y-44754D03*
X118870Y-44125D03*
X117925Y-44125D03*
X117925Y-44440D03*
X117926Y-44754D03*
X118240Y-44125D03*
X118240Y-44440D03*
X119816Y-44754D03*
X119816Y-44440D03*
X119816Y-44126D03*
X119500Y-44754D03*
X119500Y-44440D03*
X119500Y-44124D03*
X120130Y-44754D03*
X120444Y-44754D03*
X120446Y-44440D03*
X120446Y-44124D03*
X120130Y-44440D03*
X120130Y-44126D03*
X117610Y-44125D03*
X117610Y-44440D03*
X117612Y-44754D03*
X119186Y-44124D03*
X119186Y-44754D03*
X119186Y-44438D03*
X118870Y-44754D03*
X118870Y-44440D03*
X118870Y-50105D03*
X119185Y-50105D03*
X118870Y-49790D03*
X118870Y-49480D03*
X118555Y-49480D03*
X119500Y-49790D03*
X119500Y-50105D03*
X118555Y-49790D03*
X119500Y-49480D03*
X119185Y-49480D03*
X119185Y-49790D03*
X117925Y-49790D03*
X117925Y-50105D03*
X117610Y-50105D03*
X117925Y-49480D03*
X117295Y-49790D03*
X118555Y-50105D03*
X118240Y-50105D03*
X118240Y-49790D03*
X118240Y-49480D03*
X121390Y-49790D03*
X121390Y-50105D03*
X121075Y-50105D03*
X121075Y-49790D03*
X121075Y-49480D03*
X121705Y-50105D03*
X122020Y-49790D03*
X122020Y-49480D03*
X121705Y-49790D03*
X121705Y-49480D03*
X121390Y-49480D03*
X120130Y-49475D03*
X120130Y-49790D03*
X120130Y-50105D03*
X119820Y-49480D03*
X119815Y-49790D03*
X119820Y-50105D03*
X120445Y-49480D03*
X120760Y-50105D03*
X120760Y-49795D03*
X120760Y-49480D03*
X117610Y-49795D03*
X120445Y-49790D03*
X120445Y-50105D03*
X122020Y-44440D03*
X122020Y-44124D03*
X122020Y-44754D03*
X121706Y-44754D03*
X121704Y-44440D03*
X121706Y-44124D03*
X122650Y-44754D03*
X122650Y-44124D03*
X122650Y-44440D03*
X122336Y-44754D03*
X122336Y-44440D03*
X122336Y-44124D03*
X120760Y-44440D03*
X121076Y-44440D03*
X121076Y-44124D03*
X120760Y-44754D03*
X120760Y-44124D03*
X121390Y-44126D03*
X121390Y-44440D03*
X121390Y-44754D03*
X121076Y-44754D03*
X124224Y-44124D03*
X124224Y-44440D03*
X124224Y-44756D03*
X123908Y-44754D03*
X123910Y-44440D03*
X117610Y-49480D03*
X117295Y-49480D03*
X117295Y-50105D03*
X124542Y-44754D03*
X124538Y-44440D03*
X124538Y-44126D03*
X122966Y-44756D03*
X123280Y-44440D03*
X123280Y-44126D03*
X122964Y-44440D03*
X122964Y-44126D03*
X123910Y-44124D03*
X123594Y-44124D03*
X123594Y-44440D03*
X123594Y-44754D03*
X123280Y-44754D03*
X130890Y-83250D03*
X132400Y-83260D03*
G54D14*
X119340Y-48065D02*
X119500Y-47905D01*
X116630Y-48065D02*
X119340Y-48065D01*
X116000Y-48695D02*
X116630Y-48065D01*
X111855Y-48695D02*
X116000Y-48695D01*
X111500Y-49050D02*
X111855Y-48695D01*
X111500Y-49700D02*
X111500Y-49050D01*
X122494Y-47116D02*
X122336Y-46958D01*
X125510Y-47116D02*
X122494Y-47116D01*
X128406Y-44220D02*
X125510Y-47116D01*
X130138Y-44220D02*
X128406Y-44220D01*
X130500Y-44582D02*
X130138Y-44220D01*
X130500Y-45200D02*
X130500Y-44582D01*
X122492Y-46802D02*
X122334Y-46644D01*
X125486Y-46802D02*
X122492Y-46802D01*
X127056Y-45232D02*
X125486Y-46802D01*
X127056Y-43594D02*
X127056Y-45232D01*
X127926Y-42724D02*
X127056Y-43594D01*
X130104Y-42724D02*
X127926Y-42724D01*
X130500Y-43120D02*
X130104Y-42724D01*
X130500Y-43700D02*
X130500Y-43120D01*
X119340Y-47750D02*
X119500Y-47590D01*
X115140Y-47750D02*
X119340Y-47750D01*
X114595Y-47205D02*
X115140Y-47750D01*
X111835Y-47205D02*
X114595Y-47205D01*
X111500Y-47540D02*
X111835Y-47205D01*
X111500Y-48200D02*
X111500Y-47540D01*
X111500Y-46700D02*
X111500Y-46095D01*
X119345Y-47430D02*
X119500Y-47275D01*
X116330Y-47430D02*
X119345Y-47430D01*
X114600Y-45700D02*
X116330Y-47430D01*
X111895Y-45700D02*
X114600Y-45700D01*
X111500Y-46095D02*
X111895Y-45700D01*
X130500Y-49700D02*
X130500Y-49028D01*
X130500Y-49028D02*
X130186Y-48714D01*
X130186Y-48714D02*
X125838Y-48714D01*
X125838Y-48714D02*
X125186Y-48062D01*
X125186Y-48062D02*
X122496Y-48062D01*
X122496Y-48062D02*
X122338Y-47904D01*
X130500Y-48200D02*
X130500Y-47528D01*
X130500Y-47528D02*
X130188Y-47216D01*
X130188Y-47216D02*
X126090Y-47216D01*
X126090Y-47216D02*
X125558Y-47748D01*
X125558Y-47748D02*
X122494Y-47748D01*
X122494Y-47748D02*
X122336Y-47590D01*
X130500Y-46700D02*
X130500Y-46114D01*
X122496Y-47432D02*
X122338Y-47274D01*
X125534Y-47432D02*
X122496Y-47432D01*
X127256Y-45710D02*
X125534Y-47432D01*
X130096Y-45710D02*
X127256Y-45710D01*
X130500Y-46114D02*
X130096Y-45710D01*
X121230Y-48695D02*
X121390Y-48535D01*
X121230Y-51110D02*
X121230Y-48695D01*
X123020Y-52900D02*
X121230Y-51110D01*
X123490Y-52900D02*
X123020Y-52900D01*
X124570Y-53980D02*
X123490Y-52900D01*
X124570Y-56335D02*
X124570Y-53980D01*
X124000Y-56700D02*
X124205Y-56700D01*
X124205Y-56700D02*
X124570Y-56335D01*
X120920Y-48690D02*
X121075Y-48535D01*
X120920Y-51140D02*
X120920Y-48690D01*
X123085Y-53305D02*
X120920Y-51140D01*
X123085Y-56325D02*
X123085Y-53305D01*
X122500Y-56700D02*
X122710Y-56700D01*
X122710Y-56700D02*
X123085Y-56325D01*
X121545Y-48695D02*
X121705Y-48535D01*
X121545Y-51090D02*
X121545Y-48695D01*
X123120Y-52665D02*
X121545Y-51090D01*
X123595Y-52665D02*
X123120Y-52665D01*
X124890Y-53960D02*
X123595Y-52665D01*
X125835Y-53960D02*
X124890Y-53960D01*
X126085Y-54210D02*
X125835Y-53960D01*
X126085Y-56305D02*
X126085Y-54210D01*
X125500Y-56700D02*
X125690Y-56700D01*
X125690Y-56700D02*
X126085Y-56305D01*
X120605Y-48690D02*
X120760Y-48535D01*
X120605Y-51165D02*
X120605Y-48690D01*
X121640Y-52200D02*
X120605Y-51165D01*
X121640Y-56280D02*
X121640Y-52200D01*
X121000Y-56700D02*
X121220Y-56700D01*
X121220Y-56700D02*
X121640Y-56280D01*
X120285Y-48690D02*
X120445Y-48530D01*
X120285Y-51670D02*
X120285Y-48690D01*
X120500Y-51885D02*
X120285Y-51670D01*
X120500Y-56285D02*
X120500Y-51885D01*
X120085Y-56700D02*
X120500Y-56285D01*
X119500Y-56700D02*
X120085Y-56700D01*
X111500Y-45200D02*
X111500Y-44565D01*
X111500Y-44565D02*
X111870Y-44195D01*
X111870Y-44195D02*
X113895Y-44195D01*
X113895Y-44195D02*
X114300Y-44600D01*
X114300Y-44600D02*
X114300Y-45060D01*
X114300Y-45060D02*
X116360Y-47120D01*
X116360Y-47120D02*
X119340Y-47120D01*
X119340Y-47120D02*
X119500Y-46960D01*
X111500Y-43700D02*
X111500Y-43075D01*
X111500Y-43075D02*
X111880Y-42695D01*
X111880Y-42695D02*
X113565Y-42695D01*
X113565Y-42695D02*
X114275Y-43405D01*
X114275Y-43405D02*
X114275Y-43795D01*
X114275Y-43795D02*
X114540Y-44060D01*
X114540Y-44060D02*
X114540Y-44965D01*
X114540Y-44965D02*
X116380Y-46805D01*
X116380Y-46805D02*
X119340Y-46805D01*
X119340Y-46805D02*
X119500Y-46645D01*
X121860Y-48695D02*
X122020Y-48535D01*
X121860Y-51060D02*
X121860Y-48695D01*
X123225Y-52425D02*
X121860Y-51060D01*
X123705Y-52425D02*
X123225Y-52425D01*
X125000Y-53720D02*
X123705Y-52425D01*
X125935Y-53720D02*
X125000Y-53720D01*
X126180Y-53965D02*
X125935Y-53720D01*
X127400Y-53965D02*
X126180Y-53965D01*
X127545Y-54110D02*
X127400Y-53965D01*
X127545Y-56470D02*
X127545Y-54110D01*
X127315Y-56700D02*
X127545Y-56470D01*
X127000Y-56700D02*
X127315Y-56700D01*
X125500Y-36200D02*
X124918Y-36200D01*
X124918Y-36200D02*
X124490Y-36628D01*
X124490Y-36628D02*
X124490Y-39204D01*
X124490Y-39204D02*
X123994Y-39700D01*
X123994Y-39700D02*
X123300Y-39700D01*
X123300Y-39700D02*
X122176Y-40824D01*
X122176Y-40824D02*
X122176Y-45544D01*
X122176Y-45544D02*
X122020Y-45700D01*
X124000Y-36200D02*
X123462Y-36200D01*
X123462Y-36200D02*
X123020Y-36642D01*
X123020Y-36642D02*
X123020Y-39114D01*
X123020Y-39114D02*
X121862Y-40272D01*
X121862Y-40272D02*
X121862Y-45542D01*
X121862Y-45542D02*
X121704Y-45700D01*
X122500Y-36200D02*
X121898Y-36200D01*
X121898Y-36200D02*
X121622Y-36476D01*
X121622Y-36476D02*
X121622Y-40600D01*
X121622Y-40600D02*
X121548Y-40674D01*
X121548Y-40674D02*
X121548Y-45542D01*
X121548Y-45542D02*
X121390Y-45700D01*
X121000Y-36200D02*
X120480Y-36200D01*
X120480Y-36200D02*
X120114Y-36566D01*
X120114Y-36566D02*
X120114Y-39314D01*
X120114Y-39314D02*
X121232Y-40432D01*
X121232Y-40432D02*
X121232Y-45542D01*
X121232Y-45542D02*
X121074Y-45700D01*
X119975Y-48690D02*
X120130Y-48535D01*
X119975Y-51705D02*
X119975Y-48690D01*
X118980Y-52700D02*
X119975Y-51705D01*
X118980Y-56280D02*
X118980Y-52700D01*
X118560Y-56700D02*
X118980Y-56280D01*
X118000Y-56700D02*
X118560Y-56700D01*
X119660Y-48690D02*
X119815Y-48535D01*
X119660Y-51680D02*
X119660Y-48690D01*
X118430Y-52910D02*
X119660Y-51680D01*
X117670Y-52910D02*
X118430Y-52910D01*
X117480Y-53100D02*
X117670Y-52910D01*
X117480Y-56265D02*
X117480Y-53100D01*
X117045Y-56700D02*
X117480Y-56265D01*
X116500Y-56700D02*
X117045Y-56700D01*
X119345Y-48690D02*
X119500Y-48535D01*
X119345Y-51655D02*
X119345Y-48690D01*
X118330Y-52670D02*
X119345Y-51655D01*
X116995Y-52670D02*
X118330Y-52670D01*
X116000Y-53665D02*
X116995Y-52670D01*
X116000Y-56310D02*
X116000Y-53665D01*
X115610Y-56700D02*
X116000Y-56310D01*
X115000Y-56700D02*
X115610Y-56700D01*
X127000Y-36200D02*
X126590Y-36200D01*
X126590Y-36200D02*
X126004Y-36786D01*
X126004Y-36786D02*
X126004Y-38728D01*
X126004Y-38728D02*
X125694Y-39038D01*
X125694Y-39038D02*
X124996Y-39038D01*
X124996Y-39038D02*
X124094Y-39940D01*
X124094Y-39940D02*
X123400Y-39940D01*
X122492Y-45542D02*
X122336Y-45698D01*
X122492Y-40848D02*
X122492Y-45542D01*
X123400Y-39940D02*
X122492Y-40848D01*
X119500Y-36200D02*
X119014Y-36200D01*
X119014Y-36200D02*
X118574Y-36640D01*
X118574Y-36640D02*
X118574Y-39172D01*
X118574Y-39172D02*
X118950Y-39548D01*
X118950Y-39548D02*
X120008Y-39548D01*
X120008Y-39548D02*
X120918Y-40458D01*
X120918Y-40458D02*
X120918Y-45542D01*
X120918Y-45542D02*
X120760Y-45700D01*
X118000Y-36200D02*
X117364Y-36200D01*
X117364Y-36200D02*
X117000Y-36564D01*
X117000Y-36564D02*
X117000Y-38964D01*
X117000Y-38964D02*
X117522Y-39486D01*
X117522Y-39486D02*
X118548Y-39486D01*
X118548Y-39486D02*
X118852Y-39790D01*
X118852Y-39790D02*
X119910Y-39790D01*
X120602Y-45542D02*
X120444Y-45700D01*
X120602Y-40482D02*
X120602Y-45542D01*
X119910Y-39790D02*
X120602Y-40482D01*
X116500Y-36200D02*
X115970Y-36200D01*
X115970Y-36200D02*
X115566Y-36604D01*
X115566Y-36604D02*
X115566Y-39336D01*
X115566Y-39336D02*
X115956Y-39726D01*
X115956Y-39726D02*
X118450Y-39726D01*
X118450Y-39726D02*
X118754Y-40030D01*
X118754Y-40030D02*
X119812Y-40030D01*
X120288Y-45542D02*
X120130Y-45700D01*
X120288Y-40506D02*
X120288Y-45542D01*
X119812Y-40030D02*
X120288Y-40506D01*
X115000Y-36200D02*
X114310Y-36200D01*
X114310Y-36200D02*
X114066Y-36444D01*
X114066Y-36444D02*
X114066Y-38726D01*
X114066Y-38726D02*
X115304Y-39964D01*
X115304Y-39964D02*
X118344Y-39964D01*
X118344Y-39964D02*
X118650Y-40270D01*
X118650Y-40270D02*
X119428Y-40270D01*
X119972Y-45544D02*
X119816Y-45700D01*
X119972Y-40814D02*
X119972Y-45544D01*
X119428Y-40270D02*
X119972Y-40814D01*
M02*
