G04 (created by PCBNEW (2012-oct-18)-testing) date Mon 18 Feb 2013 10:37:03 UTC*
%MOIN*%
G04 Gerber Fmt 3.4, Leading zero omitted, Abs format*
%FSLAX34Y34*%
G01*
G70*
G90*
G04 APERTURE LIST*
%ADD10C,0.006*%
%ADD11C,0.0059*%
%ADD12C,0.00590551*%
%ADD13C,0.0149*%
G04 APERTURE END LIST*
G54D10*
G54D11*
X107800Y-69600D02*
X107800Y-77290D01*
X134460Y-69600D02*
X134460Y-77290D01*
G54D12*
X135200Y-68700D02*
X141500Y-68700D01*
X135260Y-68700D02*
G75*
G03X134460Y-69500I0J-800D01*
G74*
G01*
X134460Y-69500D02*
X134460Y-69600D01*
X106900Y-68700D02*
X100500Y-68700D01*
X107800Y-69600D02*
G75*
G03X106900Y-68700I-900J0D01*
G74*
G01*
G54D13*
X134440Y-77279D02*
G75*
G03X133659Y-78079I9J-790D01*
G74*
G01*
X133650Y-78070D02*
G75*
G03X134450Y-78870I800J0D01*
G74*
G01*
X134450Y-78870D02*
X134450Y-85960D01*
X108620Y-78080D02*
G75*
G03X107830Y-77290I-790J0D01*
G74*
G01*
X107830Y-78870D02*
G75*
G03X108620Y-78080I0J790D01*
G74*
G01*
X113859Y-84300D02*
G75*
G03X113670Y-84510I10J-199D01*
G74*
G01*
X114419Y-84510D02*
G75*
G03X114230Y-84300I-199J10D01*
G74*
G01*
X113670Y-85960D02*
X107830Y-85960D01*
X113855Y-84300D02*
X114225Y-84300D01*
X114420Y-85960D02*
X134450Y-85960D01*
X113670Y-85960D02*
X113670Y-84515D01*
X114420Y-85960D02*
X114420Y-84510D01*
X134440Y-77280D02*
X134430Y-77280D01*
X107830Y-85960D02*
X107830Y-78870D01*
G54D12*
X99500Y-67700D02*
G75*
G03X100500Y-68700I1000J0D01*
G74*
G01*
X100500Y-24700D02*
G75*
G03X99500Y-25700I0J-1000D01*
G74*
G01*
X142500Y-25700D02*
G75*
G03X141500Y-24700I-1000J0D01*
G74*
G01*
X141500Y-68700D02*
G75*
G03X142500Y-67700I0J1000D01*
G74*
G01*
X142500Y-25700D02*
X142500Y-67700D01*
X100500Y-24700D02*
X141500Y-24700D01*
X99500Y-25700D02*
X99500Y-67700D01*
M02*
