G04 (created by PCBNEW (2012-oct-18)-testing) date Mon 18 Feb 2013 10:37:03 UTC*
%MOIN*%
G04 Gerber Fmt 3.4, Leading zero omitted, Abs format*
%FSLAX34Y34*%
G01*
G70*
G90*
G04 APERTURE LIST*
%ADD10C,0.006*%
%ADD11R,0.0177X0.1003*%
%ADD12R,0.06X0.06*%
%ADD13C,0.16*%
%ADD14C,0.0138*%
G04 APERTURE END LIST*
G54D10*
G54D11*
X108678Y-85367D03*
X108800Y-85367D03*
X108913Y-85367D03*
X109035Y-85367D03*
X109149Y-85367D03*
X109271Y-85367D03*
X109386Y-85367D03*
X109508Y-85367D03*
X109622Y-85367D03*
X109744Y-85367D03*
X109858Y-85367D03*
X109980Y-85367D03*
X110094Y-85367D03*
X110216Y-85367D03*
X110330Y-85367D03*
X110452Y-85367D03*
X110567Y-85367D03*
X110689Y-85367D03*
X110803Y-85367D03*
X110925Y-85367D03*
X111039Y-85367D03*
X111161Y-85367D03*
X111275Y-85367D03*
X111397Y-85367D03*
X111512Y-85367D03*
X111634Y-85367D03*
X111748Y-85367D03*
X111870Y-85367D03*
X111984Y-85367D03*
X112106Y-85367D03*
X112220Y-85367D03*
X112342Y-85367D03*
X112456Y-85367D03*
X112578Y-85367D03*
X112693Y-85367D03*
X112815Y-85367D03*
X112929Y-85367D03*
X113051Y-85367D03*
X113165Y-85367D03*
X113287Y-85367D03*
X114823Y-85367D03*
X114941Y-85367D03*
X115055Y-85367D03*
X115177Y-85367D03*
X115291Y-85367D03*
X115413Y-85367D03*
X115527Y-85367D03*
X115649Y-85367D03*
X115763Y-85367D03*
X115886Y-85367D03*
X116000Y-85367D03*
X116122Y-85367D03*
X116236Y-85367D03*
X116358Y-85367D03*
X116472Y-85367D03*
X116594Y-85367D03*
X116708Y-85367D03*
X116830Y-85367D03*
X116945Y-85367D03*
X117067Y-85367D03*
X117181Y-85367D03*
X117303Y-85367D03*
X117417Y-85367D03*
X117539Y-85367D03*
X117653Y-85367D03*
X117775Y-85367D03*
X117889Y-85367D03*
X118012Y-85367D03*
X118126Y-85367D03*
X118248Y-85367D03*
X118362Y-85367D03*
X118484Y-85367D03*
X118598Y-85367D03*
X118720Y-85367D03*
X118834Y-85367D03*
X118956Y-85367D03*
X119071Y-85367D03*
X119193Y-85367D03*
X119307Y-85367D03*
X119429Y-85367D03*
X119543Y-85367D03*
X119665Y-85367D03*
X119779Y-85367D03*
X119901Y-85367D03*
X120015Y-85367D03*
X120137Y-85367D03*
X120252Y-85367D03*
X120374Y-85367D03*
X120488Y-85367D03*
X120610Y-85367D03*
X120724Y-85367D03*
X120846Y-85367D03*
X120960Y-85367D03*
X121082Y-85367D03*
X121196Y-85367D03*
X121318Y-85367D03*
X121432Y-85367D03*
X121554Y-85367D03*
X121668Y-85367D03*
X121790Y-85367D03*
X121904Y-85367D03*
X122026Y-85367D03*
X122140Y-85367D03*
X122262Y-85367D03*
X122377Y-85367D03*
X122499Y-85367D03*
X122613Y-85367D03*
X122735Y-85367D03*
X122849Y-85367D03*
X122971Y-85367D03*
X123085Y-85367D03*
X123207Y-85367D03*
X123322Y-85367D03*
X123444Y-85367D03*
X123558Y-85367D03*
X123680Y-85367D03*
X123794Y-85367D03*
X123916Y-85367D03*
X124030Y-85367D03*
X124152Y-85367D03*
X124266Y-85367D03*
X124388Y-85367D03*
X124503Y-85367D03*
X124625Y-85367D03*
X124739Y-85367D03*
X124861Y-85367D03*
X124975Y-85367D03*
X125097Y-85367D03*
X125211Y-85367D03*
X125333Y-85367D03*
X125448Y-85367D03*
X125570Y-85367D03*
X125684Y-85367D03*
X125806Y-85367D03*
X125920Y-85367D03*
X126042Y-85367D03*
X126156Y-85367D03*
X126278Y-85367D03*
X126392Y-85367D03*
X126514Y-85367D03*
X126629Y-85367D03*
X126751Y-85367D03*
X126865Y-85367D03*
X126987Y-85367D03*
X127101Y-85367D03*
X127223Y-85367D03*
X127337Y-85367D03*
X127459Y-85367D03*
X127574Y-85367D03*
X127696Y-85367D03*
X127810Y-85367D03*
X127932Y-85367D03*
X128046Y-85367D03*
X128168Y-85367D03*
X128282Y-85367D03*
X128404Y-85367D03*
X128518Y-85367D03*
X128640Y-85367D03*
X128755Y-85367D03*
X128877Y-85367D03*
X128991Y-85367D03*
X129113Y-85367D03*
X129227Y-85367D03*
X129349Y-85367D03*
X129463Y-85367D03*
X129585Y-85367D03*
X129699Y-85367D03*
X129822Y-85367D03*
X129936Y-85367D03*
X130058Y-85367D03*
X130172Y-85367D03*
X130294Y-85367D03*
X130408Y-85367D03*
X130530Y-85367D03*
X130644Y-85367D03*
X130766Y-85367D03*
X130881Y-85367D03*
X131003Y-85367D03*
X131117Y-85367D03*
X131239Y-85367D03*
X131353Y-85367D03*
X131475Y-85367D03*
X131589Y-85367D03*
X131711Y-85367D03*
X131825Y-85367D03*
X131948Y-85367D03*
X132062Y-85367D03*
X132184Y-85367D03*
X132298Y-85367D03*
X132420Y-85367D03*
X132534Y-85367D03*
X132656Y-85367D03*
X132770Y-85367D03*
X132892Y-85367D03*
X133007Y-85367D03*
X133129Y-85367D03*
X133243Y-85367D03*
X133365Y-85367D03*
X133479Y-85367D03*
X133601Y-85367D03*
G54D12*
X109500Y-45200D03*
X109500Y-37700D03*
X109500Y-39200D03*
X109500Y-42200D03*
X109500Y-43700D03*
X109500Y-46700D03*
X107500Y-37700D03*
X107500Y-39200D03*
X107500Y-42200D03*
X107500Y-43700D03*
X107500Y-45200D03*
X107500Y-46700D03*
X101500Y-49700D03*
X101500Y-37700D03*
X101500Y-39200D03*
X101500Y-42200D03*
X101500Y-43700D03*
X101500Y-45200D03*
X101500Y-46700D03*
X137500Y-66700D03*
X137500Y-64700D03*
X137500Y-62700D03*
X137500Y-60700D03*
X137500Y-58700D03*
X136000Y-66700D03*
X136000Y-64700D03*
X136000Y-62700D03*
X136000Y-60700D03*
X105500Y-37700D03*
X105500Y-39200D03*
X105500Y-42200D03*
X105500Y-43700D03*
X105500Y-45200D03*
X105500Y-46700D03*
X103500Y-37700D03*
X103500Y-39200D03*
X103500Y-42200D03*
X103500Y-43700D03*
X103500Y-45200D03*
X103500Y-46700D03*
X136000Y-58700D03*
X115000Y-34200D03*
X122500Y-30200D03*
X121000Y-34200D03*
X121000Y-32200D03*
X121000Y-30200D03*
X119500Y-34200D03*
X119500Y-32200D03*
X119500Y-30200D03*
X118000Y-34200D03*
X118000Y-32200D03*
X118000Y-30200D03*
X116500Y-34200D03*
X116500Y-32200D03*
X116500Y-30200D03*
X122500Y-32200D03*
X115000Y-32200D03*
X115000Y-30200D03*
X113500Y-34200D03*
X113500Y-32200D03*
X113500Y-30200D03*
X112000Y-34200D03*
X112000Y-32200D03*
X112000Y-30200D03*
X110500Y-34200D03*
X110500Y-32200D03*
X110500Y-30200D03*
X109000Y-34200D03*
X109000Y-32200D03*
X128500Y-34200D03*
X136000Y-30200D03*
X134500Y-34200D03*
X134500Y-32200D03*
X134500Y-30200D03*
X133000Y-34200D03*
X133000Y-32200D03*
X133000Y-30200D03*
X131500Y-34200D03*
X131500Y-32200D03*
X131500Y-30200D03*
X130000Y-34200D03*
X130000Y-32200D03*
X130000Y-30200D03*
X109000Y-30200D03*
X128500Y-32200D03*
X128500Y-30200D03*
X127000Y-34200D03*
X127000Y-32200D03*
X127000Y-30200D03*
X125500Y-34200D03*
X125500Y-32200D03*
X125500Y-30200D03*
X124000Y-34200D03*
X124000Y-32200D03*
X124000Y-30200D03*
X122500Y-34200D03*
X125500Y-26200D03*
X110500Y-28200D03*
X109000Y-28200D03*
X107500Y-28200D03*
X106000Y-28200D03*
X104500Y-28200D03*
X137500Y-26200D03*
X136000Y-26200D03*
X134500Y-26200D03*
X133000Y-26200D03*
X131500Y-26200D03*
X130000Y-26200D03*
X127000Y-26200D03*
X128500Y-26200D03*
X112000Y-28200D03*
X124000Y-26200D03*
X122500Y-26200D03*
X121000Y-26200D03*
X119500Y-26200D03*
X116500Y-26200D03*
X118000Y-26200D03*
X115000Y-26200D03*
X113500Y-26200D03*
X112000Y-26200D03*
X110500Y-26200D03*
X109000Y-26200D03*
X106000Y-26200D03*
X107500Y-26200D03*
X131500Y-28200D03*
X107500Y-34200D03*
X107500Y-32200D03*
X107500Y-30200D03*
X106000Y-34200D03*
X106000Y-32200D03*
X106000Y-30200D03*
X104500Y-34200D03*
X104500Y-32200D03*
X104500Y-30200D03*
X137500Y-28200D03*
X136000Y-28200D03*
X134500Y-28200D03*
X133000Y-28200D03*
X136000Y-32200D03*
X130000Y-28200D03*
X128500Y-28200D03*
X127000Y-28200D03*
X125500Y-28200D03*
X124000Y-28200D03*
X122500Y-28200D03*
X121000Y-28200D03*
X119500Y-28200D03*
X118000Y-28200D03*
X116500Y-28200D03*
X115000Y-28200D03*
X113500Y-28200D03*
X122500Y-66700D03*
X127000Y-62700D03*
X127000Y-60700D03*
X127000Y-58700D03*
X125500Y-66700D03*
X125500Y-64700D03*
X125500Y-62700D03*
X125500Y-60700D03*
X125500Y-58700D03*
X124000Y-66700D03*
X124000Y-64700D03*
X124000Y-62700D03*
X124000Y-60700D03*
X124000Y-58700D03*
X127000Y-64700D03*
X122500Y-64700D03*
X122500Y-62700D03*
X122500Y-60700D03*
X122500Y-58700D03*
X121000Y-66700D03*
X121000Y-64700D03*
X121000Y-62700D03*
X121000Y-60700D03*
X121000Y-58700D03*
X119500Y-66700D03*
X119500Y-64700D03*
X119500Y-62700D03*
X119500Y-60700D03*
X131500Y-60700D03*
X134500Y-66700D03*
X134500Y-64700D03*
X134500Y-62700D03*
X134500Y-60700D03*
X134500Y-58700D03*
X133000Y-66700D03*
X133000Y-64700D03*
X133000Y-62700D03*
X133000Y-60700D03*
X133000Y-58700D03*
X131500Y-66700D03*
X131500Y-64700D03*
X131500Y-62700D03*
X119500Y-58700D03*
X131500Y-58700D03*
X130000Y-66700D03*
X130000Y-64700D03*
X130000Y-62700D03*
X130000Y-60700D03*
X130000Y-58700D03*
X128500Y-66700D03*
X128500Y-64700D03*
X128500Y-62700D03*
X128500Y-60700D03*
X128500Y-58700D03*
X127000Y-66700D03*
X106000Y-66700D03*
X110500Y-62700D03*
X110500Y-60700D03*
X110500Y-58700D03*
X109000Y-66700D03*
X109000Y-64700D03*
X109000Y-62700D03*
X109000Y-60700D03*
X109000Y-58700D03*
X107500Y-66700D03*
X107500Y-64700D03*
X107500Y-62700D03*
X107500Y-60700D03*
X107500Y-58700D03*
X110500Y-64700D03*
X106000Y-64700D03*
X106000Y-62700D03*
X106000Y-60700D03*
X106000Y-58700D03*
X104500Y-66700D03*
X104500Y-64700D03*
X104500Y-62700D03*
X104500Y-60700D03*
X104500Y-58700D03*
X137500Y-34200D03*
X137500Y-32200D03*
X137500Y-30200D03*
X136000Y-34200D03*
X115000Y-60700D03*
X118000Y-66700D03*
X118000Y-64700D03*
X118000Y-62700D03*
X118000Y-60700D03*
X118000Y-58700D03*
X116500Y-66700D03*
X116500Y-64700D03*
X116500Y-62700D03*
X116500Y-60700D03*
X116500Y-58700D03*
X115000Y-66700D03*
X115000Y-64700D03*
X115000Y-62700D03*
X104500Y-26200D03*
X115000Y-58700D03*
X113500Y-66700D03*
X113500Y-64700D03*
X113500Y-62700D03*
X113500Y-60700D03*
X113500Y-58700D03*
X112000Y-66700D03*
X112000Y-64700D03*
X112000Y-62700D03*
X112000Y-60700D03*
X112000Y-58700D03*
X110500Y-66700D03*
X134500Y-51200D03*
X132500Y-45200D03*
X132500Y-43700D03*
X132500Y-42200D03*
X132500Y-40700D03*
X132500Y-39200D03*
X132500Y-37700D03*
X134500Y-55700D03*
X136500Y-54200D03*
X134500Y-52700D03*
X132500Y-46700D03*
X134500Y-49700D03*
X134500Y-48200D03*
X134500Y-46700D03*
X134500Y-45200D03*
X134500Y-43700D03*
X134500Y-42200D03*
X134500Y-40700D03*
X134500Y-39200D03*
X134500Y-37700D03*
X127000Y-38200D03*
X125500Y-38200D03*
X125500Y-36200D03*
X127000Y-56700D03*
X127000Y-54700D03*
X130500Y-49700D03*
X130500Y-48200D03*
X130500Y-46700D03*
X130500Y-45200D03*
X130500Y-43700D03*
X136500Y-55700D03*
X127000Y-36200D03*
X132500Y-54200D03*
X132500Y-55700D03*
X134500Y-54200D03*
X132500Y-52700D03*
X132500Y-51200D03*
X132500Y-49700D03*
X132500Y-48200D03*
X140500Y-51200D03*
X138500Y-45200D03*
X138500Y-43700D03*
X138500Y-42200D03*
X138500Y-40700D03*
X138500Y-39200D03*
X138500Y-37700D03*
X140500Y-55700D03*
X101500Y-54200D03*
X140500Y-52700D03*
X138500Y-46700D03*
X140500Y-49700D03*
X140500Y-48200D03*
X140500Y-46700D03*
X140500Y-45200D03*
X140500Y-43700D03*
X140500Y-42200D03*
X140500Y-40700D03*
X140500Y-39200D03*
X140500Y-37700D03*
X136500Y-40700D03*
X138500Y-54200D03*
X136500Y-52700D03*
X136500Y-51200D03*
X136500Y-49700D03*
X136500Y-48200D03*
X136500Y-46700D03*
X136500Y-45200D03*
X136500Y-43700D03*
X136500Y-42200D03*
X128500Y-43700D03*
X136500Y-39200D03*
X136500Y-37700D03*
X138500Y-55700D03*
X140500Y-54200D03*
X138500Y-52700D03*
X138500Y-51200D03*
X138500Y-49700D03*
X138500Y-48200D03*
X109500Y-51200D03*
X107500Y-55700D03*
X109500Y-54200D03*
X107500Y-52700D03*
X107500Y-51200D03*
X107500Y-49700D03*
X107500Y-48200D03*
X107500Y-40700D03*
X109500Y-55700D03*
X109500Y-52700D03*
X105500Y-40700D03*
X109500Y-49700D03*
X109500Y-48200D03*
X109500Y-40700D03*
X115000Y-56700D03*
X115000Y-54700D03*
X111500Y-49700D03*
X111500Y-48200D03*
X111500Y-46700D03*
X111500Y-45200D03*
X103500Y-49700D03*
X103500Y-54200D03*
X101500Y-52700D03*
X101500Y-51200D03*
X101500Y-48200D03*
X101500Y-40700D03*
X103500Y-55700D03*
X105500Y-54200D03*
X103500Y-52700D03*
X103500Y-51200D03*
X111500Y-43700D03*
X103500Y-48200D03*
X103500Y-40700D03*
X105500Y-55700D03*
X107500Y-54200D03*
X105500Y-52700D03*
X105500Y-51200D03*
X105500Y-49700D03*
X105500Y-48200D03*
X124000Y-54700D03*
X121000Y-56700D03*
X121000Y-54700D03*
X121000Y-38200D03*
X121000Y-36200D03*
X122500Y-56700D03*
X122500Y-54700D03*
X122500Y-38200D03*
X122500Y-36200D03*
X124000Y-56700D03*
X119500Y-36200D03*
X124000Y-38200D03*
X124000Y-36200D03*
X125500Y-56700D03*
X125500Y-54700D03*
X128500Y-49700D03*
X128500Y-48200D03*
X128500Y-46700D03*
X128500Y-45200D03*
X116500Y-38200D03*
X115000Y-38200D03*
X115000Y-36200D03*
X116500Y-56700D03*
X116500Y-54700D03*
X113500Y-49700D03*
X113500Y-48200D03*
X113500Y-46700D03*
X113500Y-45200D03*
X113500Y-43700D03*
X101500Y-55700D03*
X116500Y-36200D03*
X118000Y-56700D03*
X118000Y-54700D03*
X118000Y-38200D03*
X118000Y-36200D03*
X119500Y-56700D03*
X119500Y-54700D03*
X119500Y-38200D03*
G54D13*
X101000Y-26200D03*
X141000Y-26200D03*
X101000Y-67200D03*
X141000Y-67200D03*
G54D12*
X125300Y-82300D03*
X124100Y-79300D03*
X124100Y-77800D03*
X124100Y-82300D03*
X124100Y-80800D03*
X125300Y-70300D03*
X125300Y-68800D03*
X125300Y-73300D03*
X125300Y-71800D03*
X125300Y-76300D03*
X125300Y-74800D03*
X125300Y-79300D03*
X125300Y-77800D03*
X124100Y-74800D03*
X125300Y-80800D03*
X126500Y-70300D03*
X126500Y-68800D03*
X126500Y-73300D03*
X126500Y-71800D03*
X126500Y-76300D03*
X126500Y-74800D03*
X126500Y-79300D03*
X126500Y-77800D03*
X126500Y-82300D03*
X126500Y-80800D03*
X122900Y-71800D03*
X121700Y-68800D03*
X121700Y-73300D03*
X121700Y-71800D03*
X121700Y-76300D03*
X121700Y-74800D03*
X121700Y-79300D03*
X121700Y-77800D03*
X121700Y-82300D03*
X121700Y-80800D03*
X122900Y-70300D03*
X122900Y-68800D03*
X122900Y-73300D03*
X127700Y-70300D03*
X122900Y-76300D03*
X122900Y-74800D03*
X122900Y-79300D03*
X122900Y-77800D03*
X122900Y-82300D03*
X122900Y-80800D03*
X124100Y-70300D03*
X124100Y-68800D03*
X124100Y-73300D03*
X124100Y-71800D03*
X124100Y-76300D03*
X131300Y-82300D03*
X130100Y-79300D03*
X130100Y-77800D03*
X130100Y-82300D03*
X130100Y-80800D03*
X131300Y-70300D03*
X131300Y-68800D03*
X131300Y-73300D03*
X131300Y-71800D03*
X131300Y-76300D03*
X131300Y-74800D03*
X131300Y-79300D03*
X131300Y-77800D03*
X130100Y-74800D03*
X131300Y-80800D03*
X132500Y-70300D03*
X132500Y-68800D03*
X132500Y-73300D03*
X132500Y-71800D03*
X132500Y-76300D03*
X132500Y-74800D03*
X132500Y-79300D03*
X132500Y-77800D03*
X132500Y-82300D03*
X132500Y-80800D03*
X128900Y-71800D03*
X127700Y-68800D03*
X127700Y-73300D03*
X127700Y-71800D03*
X127700Y-76300D03*
X127700Y-74800D03*
X127700Y-79300D03*
X127700Y-77800D03*
X127700Y-82300D03*
X127700Y-80800D03*
X128900Y-70300D03*
X128900Y-68800D03*
X128900Y-73300D03*
X121700Y-70300D03*
X128900Y-76300D03*
X128900Y-74800D03*
X128900Y-79300D03*
X128900Y-77800D03*
X128900Y-82300D03*
X128900Y-80800D03*
X130100Y-70300D03*
X130100Y-68800D03*
X130100Y-73300D03*
X130100Y-71800D03*
X130100Y-76300D03*
X113300Y-82300D03*
X112100Y-79300D03*
X112100Y-77800D03*
X112100Y-82300D03*
X112100Y-80800D03*
X113300Y-70300D03*
X113300Y-68800D03*
X113300Y-73300D03*
X113300Y-71800D03*
X113300Y-76300D03*
X113300Y-74800D03*
X113300Y-79300D03*
X113300Y-77800D03*
X112100Y-74800D03*
X113300Y-80800D03*
X114500Y-70300D03*
X114500Y-68800D03*
X114500Y-73300D03*
X114500Y-71800D03*
X114500Y-76300D03*
X114500Y-74800D03*
X114500Y-79300D03*
X114500Y-77800D03*
X114500Y-82300D03*
X114500Y-80800D03*
X110900Y-71800D03*
X109700Y-68800D03*
X109700Y-73300D03*
X109700Y-71800D03*
X109700Y-76300D03*
X109700Y-74800D03*
X109700Y-79300D03*
X109700Y-77800D03*
X109700Y-82300D03*
X109700Y-80800D03*
X110900Y-70300D03*
X110900Y-68800D03*
X110900Y-73300D03*
X115700Y-70300D03*
X110900Y-76300D03*
X110900Y-74800D03*
X110900Y-79300D03*
X110900Y-77800D03*
X110900Y-82300D03*
X110900Y-80800D03*
X112100Y-70300D03*
X112100Y-68800D03*
X112100Y-73300D03*
X112100Y-71800D03*
X112100Y-76300D03*
X119300Y-82300D03*
X118100Y-79300D03*
X118100Y-77800D03*
X118100Y-82300D03*
X118100Y-80800D03*
X119300Y-70300D03*
X119300Y-68800D03*
X119300Y-73300D03*
X119300Y-71800D03*
X119300Y-76300D03*
X119300Y-74800D03*
X119300Y-79300D03*
X119300Y-77800D03*
X118100Y-74800D03*
X119300Y-80800D03*
X120500Y-70300D03*
X120500Y-68800D03*
X120500Y-73300D03*
X120500Y-71800D03*
X120500Y-76300D03*
X120500Y-74800D03*
X120500Y-79300D03*
X120500Y-77800D03*
X120500Y-82300D03*
X120500Y-80800D03*
X116900Y-71800D03*
X115700Y-68800D03*
X115700Y-73300D03*
X115700Y-71800D03*
X115700Y-76300D03*
X115700Y-74800D03*
X115700Y-79300D03*
X115700Y-77800D03*
X115700Y-82300D03*
X115700Y-80800D03*
X116900Y-70300D03*
X116900Y-68800D03*
X116900Y-73300D03*
X109700Y-70300D03*
X116900Y-76300D03*
X116900Y-74800D03*
X116900Y-79300D03*
X116900Y-77800D03*
X116900Y-82300D03*
X116900Y-80800D03*
X118100Y-70300D03*
X118100Y-68800D03*
X118100Y-73300D03*
X118100Y-71800D03*
X118100Y-76300D03*
G54D14*
X119973Y-48376D03*
X119973Y-48061D03*
X119658Y-48376D03*
X119658Y-48061D03*
X121547Y-44912D03*
X120289Y-44912D03*
X119974Y-44912D03*
X119659Y-44912D03*
X119344Y-44912D03*
X119029Y-44912D03*
X118714Y-44912D03*
X118399Y-44912D03*
X118085Y-44912D03*
X117769Y-44912D03*
X117454Y-44912D03*
X120604Y-44912D03*
X120919Y-44912D03*
X121234Y-44912D03*
X122809Y-44912D03*
X122494Y-44912D03*
X122179Y-44912D03*
X121864Y-44912D03*
X123122Y-44912D03*
X124381Y-44912D03*
X123438Y-44912D03*
X123753Y-44912D03*
X124068Y-44912D03*
X124068Y-44598D03*
X123753Y-44598D03*
X123438Y-44598D03*
X124068Y-44284D03*
X123753Y-44284D03*
X123438Y-44284D03*
X124068Y-43969D03*
X123753Y-43969D03*
X123438Y-43969D03*
X124068Y-43653D03*
X123753Y-43653D03*
X123438Y-43653D03*
X124381Y-43653D03*
X124381Y-43968D03*
X124381Y-44283D03*
X124381Y-44598D03*
X123122Y-44598D03*
X123122Y-44283D03*
X123122Y-43968D03*
X123122Y-43653D03*
X121864Y-43653D03*
X122179Y-43653D03*
X122494Y-43653D03*
X122809Y-43653D03*
X122809Y-44598D03*
X122494Y-44598D03*
X122179Y-44598D03*
X122809Y-44284D03*
X122494Y-44284D03*
X122179Y-44284D03*
X122809Y-43969D03*
X122494Y-43969D03*
X122179Y-43969D03*
X121864Y-43969D03*
X121864Y-44284D03*
X121864Y-44598D03*
X121234Y-44598D03*
X120919Y-44598D03*
X120604Y-44598D03*
X121234Y-44284D03*
X120919Y-44284D03*
X120604Y-44284D03*
X121234Y-43969D03*
X120919Y-43969D03*
X120604Y-43969D03*
X121234Y-43653D03*
X120919Y-43653D03*
X120604Y-43653D03*
X117454Y-43653D03*
X117769Y-43653D03*
X118085Y-43653D03*
X118399Y-43653D03*
X118714Y-43653D03*
X119029Y-43653D03*
X119344Y-43653D03*
X119659Y-43653D03*
X119974Y-43653D03*
X120289Y-43653D03*
X117453Y-43969D03*
X117768Y-43969D03*
X118083Y-43969D03*
X118398Y-43969D03*
X118713Y-43969D03*
X119029Y-43969D03*
X119344Y-43969D03*
X119659Y-43969D03*
X119974Y-43969D03*
X120289Y-43969D03*
X117453Y-44284D03*
X117453Y-44598D03*
X117768Y-44284D03*
X118083Y-44284D03*
X118398Y-44284D03*
X118713Y-44284D03*
X119029Y-44284D03*
X119344Y-44284D03*
X119659Y-44284D03*
X119974Y-44284D03*
X120289Y-44284D03*
X117768Y-44598D03*
X118083Y-44598D03*
X118398Y-44598D03*
X118713Y-44598D03*
X119029Y-44598D03*
X119344Y-44598D03*
X119659Y-44598D03*
X119974Y-44598D03*
X120289Y-44598D03*
X121547Y-43653D03*
X121547Y-43968D03*
X121547Y-44283D03*
X121547Y-44598D03*
X121547Y-46172D03*
X121547Y-45857D03*
X119974Y-46172D03*
X119659Y-46172D03*
X118713Y-46172D03*
X118398Y-46172D03*
X118083Y-46172D03*
X117768Y-46172D03*
X119974Y-45858D03*
X119659Y-45858D03*
X118713Y-45858D03*
X118398Y-45858D03*
X118083Y-45858D03*
X117768Y-45858D03*
X117453Y-46172D03*
X117453Y-45858D03*
X118713Y-45543D03*
X118398Y-45543D03*
X118083Y-45543D03*
X117768Y-45543D03*
X117453Y-45543D03*
X118714Y-45227D03*
X118399Y-45227D03*
X118085Y-45227D03*
X117769Y-45227D03*
X117454Y-45227D03*
X121234Y-46172D03*
X120919Y-46172D03*
X120604Y-46172D03*
X121234Y-45858D03*
X120919Y-45858D03*
X120604Y-45858D03*
X120289Y-45858D03*
X120289Y-46172D03*
X122179Y-46172D03*
X122179Y-45858D03*
X121864Y-45858D03*
X121864Y-46172D03*
X123122Y-45227D03*
X123122Y-45542D03*
X123122Y-45857D03*
X123122Y-46172D03*
X124381Y-46172D03*
X124381Y-45857D03*
X124381Y-45542D03*
X124381Y-45227D03*
X123438Y-45227D03*
X123753Y-45227D03*
X124068Y-45227D03*
X124068Y-46172D03*
X123753Y-46172D03*
X123438Y-46172D03*
X124068Y-45858D03*
X123753Y-45858D03*
X123438Y-45858D03*
X124068Y-45543D03*
X123753Y-45543D03*
X123438Y-45543D03*
X124066Y-49322D03*
X123751Y-49322D03*
X123436Y-49322D03*
X123436Y-49006D03*
X124066Y-49006D03*
X123751Y-49006D03*
X124066Y-48690D03*
X123751Y-48690D03*
X123436Y-48690D03*
X124066Y-48376D03*
X123751Y-48376D03*
X123436Y-48376D03*
X124066Y-48061D03*
X123751Y-48061D03*
X123436Y-48061D03*
X124067Y-47747D03*
X123752Y-47747D03*
X123437Y-47747D03*
X124068Y-47431D03*
X123753Y-47431D03*
X123438Y-47431D03*
X124068Y-47117D03*
X123753Y-47117D03*
X123438Y-47117D03*
X124068Y-46802D03*
X123753Y-46802D03*
X123438Y-46802D03*
X124068Y-46486D03*
X123753Y-46486D03*
X123438Y-46486D03*
X123437Y-50266D03*
X123752Y-50266D03*
X124067Y-50266D03*
X123437Y-49951D03*
X123752Y-49951D03*
X124067Y-49951D03*
X123437Y-49636D03*
X123752Y-49636D03*
X124067Y-49636D03*
X124381Y-46486D03*
X124381Y-46801D03*
X124381Y-47116D03*
X124381Y-47431D03*
X124381Y-47746D03*
X124381Y-48061D03*
X124381Y-48376D03*
X124381Y-48690D03*
X124381Y-49005D03*
X124381Y-49320D03*
X124381Y-49635D03*
X124381Y-49950D03*
X124381Y-50265D03*
X124381Y-50580D03*
X123436Y-50580D03*
X123751Y-50580D03*
X124066Y-50580D03*
X123122Y-50580D03*
X123122Y-50265D03*
X123122Y-49950D03*
X123122Y-49635D03*
X123122Y-49320D03*
X123122Y-49005D03*
X123122Y-48690D03*
X123122Y-48376D03*
X123122Y-48061D03*
X123122Y-47746D03*
X123122Y-47431D03*
X123122Y-47116D03*
X123122Y-46801D03*
X123122Y-46486D03*
X121864Y-46486D03*
X122179Y-46486D03*
X122807Y-49322D03*
X122492Y-49322D03*
X122177Y-49322D03*
X122177Y-48376D03*
X122177Y-48061D03*
X122178Y-47747D03*
X122179Y-47431D03*
X122179Y-47117D03*
X122179Y-46802D03*
X121864Y-46802D03*
X121864Y-47117D03*
X121864Y-47431D03*
X121863Y-47747D03*
X121862Y-48061D03*
X121862Y-48376D03*
X121862Y-49322D03*
X121863Y-50266D03*
X122178Y-50266D03*
X122493Y-50266D03*
X122808Y-50266D03*
X121863Y-49951D03*
X122178Y-49951D03*
X122493Y-49951D03*
X122808Y-49951D03*
X121863Y-49636D03*
X122178Y-49636D03*
X122493Y-49636D03*
X122808Y-49636D03*
X121862Y-50580D03*
X122177Y-50580D03*
X122492Y-50580D03*
X122807Y-50580D03*
X117454Y-50267D03*
X117454Y-49951D03*
X117454Y-49635D03*
X121232Y-49322D03*
X120917Y-49322D03*
X120602Y-49322D03*
X121232Y-48376D03*
X120917Y-48376D03*
X120602Y-48376D03*
X121232Y-48061D03*
X120917Y-48061D03*
X120602Y-48061D03*
X121233Y-47747D03*
X120918Y-47747D03*
X120603Y-47747D03*
X121234Y-47431D03*
X120919Y-47431D03*
X120604Y-47431D03*
X121234Y-47117D03*
X120919Y-47117D03*
X120604Y-47117D03*
X121234Y-46802D03*
X120919Y-46802D03*
X120604Y-46802D03*
X121234Y-46486D03*
X120919Y-46486D03*
X120604Y-46486D03*
X117454Y-46486D03*
X117769Y-46486D03*
X118085Y-46486D03*
X118399Y-46486D03*
X118714Y-46486D03*
X119659Y-46486D03*
X119974Y-46486D03*
X120289Y-46486D03*
X117453Y-46802D03*
X117768Y-46802D03*
X118083Y-46802D03*
X118398Y-46802D03*
X118713Y-46802D03*
X119659Y-46802D03*
X119974Y-46802D03*
X120289Y-46802D03*
X117453Y-47117D03*
X117453Y-47431D03*
X117454Y-47747D03*
X117454Y-48061D03*
X117454Y-48376D03*
X117454Y-48690D03*
X117454Y-49006D03*
X117454Y-49322D03*
X117768Y-47117D03*
X118083Y-47117D03*
X118398Y-47117D03*
X118713Y-47117D03*
X119659Y-47117D03*
X119974Y-47117D03*
X120289Y-47117D03*
X117768Y-47431D03*
X118083Y-47431D03*
X118398Y-47431D03*
X118713Y-47431D03*
X119659Y-47431D03*
X119974Y-47431D03*
X120289Y-47431D03*
X117769Y-47747D03*
X118084Y-47747D03*
X118399Y-47747D03*
X120288Y-47747D03*
X117769Y-48061D03*
X118084Y-48061D03*
X118398Y-48061D03*
X120287Y-48061D03*
X117769Y-48376D03*
X118084Y-48376D03*
X118398Y-48376D03*
X120287Y-48376D03*
X117769Y-48690D03*
X118084Y-48690D03*
X118398Y-48690D03*
X117769Y-49006D03*
X118084Y-49006D03*
X118398Y-49006D03*
X117769Y-49322D03*
X118084Y-49322D03*
X118398Y-49322D03*
X118713Y-49322D03*
X119028Y-49322D03*
X119343Y-49322D03*
X119657Y-49322D03*
X119972Y-49322D03*
X120287Y-49322D03*
X117768Y-50266D03*
X118083Y-50266D03*
X118398Y-50266D03*
X118713Y-50266D03*
X119028Y-50266D03*
X119343Y-50266D03*
X119658Y-50266D03*
X119973Y-50266D03*
X120288Y-50266D03*
X120603Y-50266D03*
X120918Y-50266D03*
X121233Y-50266D03*
X117768Y-49951D03*
X118083Y-49951D03*
X118398Y-49951D03*
X118713Y-49951D03*
X119028Y-49951D03*
X119343Y-49951D03*
X119658Y-49951D03*
X119973Y-49951D03*
X120288Y-49951D03*
X120603Y-49951D03*
X120918Y-49951D03*
X121233Y-49951D03*
X117768Y-49636D03*
X118083Y-49636D03*
X118398Y-49636D03*
X118713Y-49636D03*
X119028Y-49636D03*
X119343Y-49636D03*
X119658Y-49636D03*
X119973Y-49636D03*
X120288Y-49636D03*
X120603Y-49636D03*
X120918Y-49636D03*
X121233Y-49636D03*
X121547Y-46486D03*
X121547Y-46801D03*
X121547Y-47116D03*
X121547Y-47431D03*
X121547Y-47746D03*
X121547Y-48061D03*
X121547Y-48376D03*
X121547Y-49320D03*
X121547Y-49635D03*
X121547Y-49950D03*
X121547Y-50265D03*
X121547Y-50580D03*
X117453Y-50580D03*
X117768Y-50580D03*
X118083Y-50580D03*
X118398Y-50580D03*
X118713Y-50580D03*
X119028Y-50580D03*
X119343Y-50580D03*
X119657Y-50580D03*
X119972Y-50580D03*
X120287Y-50580D03*
X120602Y-50580D03*
X120917Y-50580D03*
X121232Y-50580D03*
X118713Y-47746D03*
X119657Y-47746D03*
X119972Y-47746D03*
X118713Y-48061D03*
X118713Y-48376D03*
X118713Y-48690D03*
X118713Y-49005D03*
M02*
