G04 (created by PCBNEW (2012-oct-18)-testing) date Mon 18 Feb 2013 10:37:03 UTC*
%MOIN*%
G04 Gerber Fmt 3.4, Leading zero omitted, Abs format*
%FSLAX34Y34*%
G01*
G70*
G90*
G04 APERTURE LIST*
%ADD10C,0.006*%
%ADD11R,0.0177X0.1003*%
%ADD12R,0.06X0.06*%
%ADD13C,0.16*%
%ADD14C,0.0138*%
%ADD15C,0.0145*%
%ADD16C,0.008*%
G04 APERTURE END LIST*
G54D10*
G54D11*
X108678Y-85367D03*
X108913Y-85367D03*
X109149Y-85367D03*
X109386Y-85367D03*
X109622Y-85367D03*
X109858Y-85367D03*
X110094Y-85367D03*
X110330Y-85367D03*
X110567Y-85367D03*
X110803Y-85367D03*
X111039Y-85367D03*
X111275Y-85367D03*
X111512Y-85367D03*
X111748Y-85367D03*
X111984Y-85367D03*
X112220Y-85367D03*
X112456Y-85367D03*
X112693Y-85367D03*
X112929Y-85367D03*
X113165Y-85367D03*
X114823Y-85367D03*
X115055Y-85367D03*
X115291Y-85367D03*
X115527Y-85367D03*
X115763Y-85367D03*
X116000Y-85367D03*
X116236Y-85367D03*
X116472Y-85367D03*
X116708Y-85367D03*
X116945Y-85367D03*
X117181Y-85367D03*
X117417Y-85367D03*
X117653Y-85367D03*
X117889Y-85367D03*
X118126Y-85367D03*
X118362Y-85367D03*
X118598Y-85367D03*
X118834Y-85367D03*
X119071Y-85367D03*
X119307Y-85367D03*
X119543Y-85367D03*
X119779Y-85367D03*
X120015Y-85367D03*
X120252Y-85367D03*
X120488Y-85367D03*
X120724Y-85367D03*
X120960Y-85367D03*
X121196Y-85367D03*
X121432Y-85367D03*
X121668Y-85367D03*
X121904Y-85367D03*
X122140Y-85367D03*
X122377Y-85367D03*
X122613Y-85367D03*
X122849Y-85367D03*
X123085Y-85367D03*
X123322Y-85367D03*
X123558Y-85367D03*
X123794Y-85367D03*
X124030Y-85367D03*
X124266Y-85367D03*
X124503Y-85367D03*
X124739Y-85367D03*
X124975Y-85367D03*
X125211Y-85367D03*
X125448Y-85367D03*
X125684Y-85367D03*
X125920Y-85367D03*
X126156Y-85367D03*
X126392Y-85367D03*
X126629Y-85367D03*
X126865Y-85367D03*
X127101Y-85367D03*
X127337Y-85367D03*
X127574Y-85367D03*
X127810Y-85367D03*
X128046Y-85367D03*
X128282Y-85367D03*
X128518Y-85367D03*
X128755Y-85367D03*
X128991Y-85367D03*
X129227Y-85367D03*
X129463Y-85367D03*
X129699Y-85367D03*
X129936Y-85367D03*
X130172Y-85367D03*
X130408Y-85367D03*
X130644Y-85367D03*
X130881Y-85367D03*
X131117Y-85367D03*
X131353Y-85367D03*
X131589Y-85367D03*
X131825Y-85367D03*
X132062Y-85367D03*
X132298Y-85367D03*
X132534Y-85367D03*
X132770Y-85367D03*
X133007Y-85367D03*
X133243Y-85367D03*
X133479Y-85367D03*
G54D12*
X109500Y-45200D03*
X109500Y-37700D03*
X109500Y-39200D03*
X109500Y-42200D03*
X109500Y-43700D03*
X109500Y-46700D03*
X107500Y-37700D03*
X107500Y-39200D03*
X107500Y-42200D03*
X107500Y-43700D03*
X107500Y-45200D03*
X107500Y-46700D03*
X101500Y-49700D03*
X101500Y-37700D03*
X101500Y-39200D03*
X101500Y-42200D03*
X101500Y-43700D03*
X101500Y-45200D03*
X101500Y-46700D03*
X137500Y-66700D03*
X137500Y-64700D03*
X137500Y-62700D03*
X137500Y-60700D03*
X137500Y-58700D03*
X136000Y-66700D03*
X136000Y-64700D03*
X136000Y-62700D03*
X136000Y-60700D03*
X105500Y-37700D03*
X105500Y-39200D03*
X105500Y-42200D03*
X105500Y-43700D03*
X105500Y-45200D03*
X105500Y-46700D03*
X103500Y-37700D03*
X103500Y-39200D03*
X103500Y-42200D03*
X103500Y-43700D03*
X103500Y-45200D03*
X103500Y-46700D03*
X136000Y-58700D03*
X115000Y-34200D03*
X122500Y-30200D03*
X121000Y-34200D03*
X121000Y-32200D03*
X121000Y-30200D03*
X119500Y-34200D03*
X119500Y-32200D03*
X119500Y-30200D03*
X118000Y-34200D03*
X118000Y-32200D03*
X118000Y-30200D03*
X116500Y-34200D03*
X116500Y-32200D03*
X116500Y-30200D03*
X122500Y-32200D03*
X115000Y-32200D03*
X115000Y-30200D03*
X113500Y-34200D03*
X113500Y-32200D03*
X113500Y-30200D03*
X112000Y-34200D03*
X112000Y-32200D03*
X112000Y-30200D03*
X110500Y-34200D03*
X110500Y-32200D03*
X110500Y-30200D03*
X109000Y-34200D03*
X109000Y-32200D03*
X128500Y-34200D03*
X136000Y-30200D03*
X134500Y-34200D03*
X134500Y-32200D03*
X134500Y-30200D03*
X133000Y-34200D03*
X133000Y-32200D03*
X133000Y-30200D03*
X131500Y-34200D03*
X131500Y-32200D03*
X131500Y-30200D03*
X130000Y-34200D03*
X130000Y-32200D03*
X130000Y-30200D03*
X109000Y-30200D03*
X128500Y-32200D03*
X128500Y-30200D03*
X127000Y-34200D03*
X127000Y-32200D03*
X127000Y-30200D03*
X125500Y-34200D03*
X125500Y-32200D03*
X125500Y-30200D03*
X124000Y-34200D03*
X124000Y-32200D03*
X124000Y-30200D03*
X122500Y-34200D03*
X125500Y-26200D03*
X110500Y-28200D03*
X109000Y-28200D03*
X107500Y-28200D03*
X106000Y-28200D03*
X104500Y-28200D03*
X137500Y-26200D03*
X136000Y-26200D03*
X134500Y-26200D03*
X133000Y-26200D03*
X131500Y-26200D03*
X130000Y-26200D03*
X127000Y-26200D03*
X128500Y-26200D03*
X112000Y-28200D03*
X124000Y-26200D03*
X122500Y-26200D03*
X121000Y-26200D03*
X119500Y-26200D03*
X116500Y-26200D03*
X118000Y-26200D03*
X115000Y-26200D03*
X113500Y-26200D03*
X112000Y-26200D03*
X110500Y-26200D03*
X109000Y-26200D03*
X106000Y-26200D03*
X107500Y-26200D03*
X131500Y-28200D03*
X107500Y-34200D03*
X107500Y-32200D03*
X107500Y-30200D03*
X106000Y-34200D03*
X106000Y-32200D03*
X106000Y-30200D03*
X104500Y-34200D03*
X104500Y-32200D03*
X104500Y-30200D03*
X137500Y-28200D03*
X136000Y-28200D03*
X134500Y-28200D03*
X133000Y-28200D03*
X136000Y-32200D03*
X130000Y-28200D03*
X128500Y-28200D03*
X127000Y-28200D03*
X125500Y-28200D03*
X124000Y-28200D03*
X122500Y-28200D03*
X121000Y-28200D03*
X119500Y-28200D03*
X118000Y-28200D03*
X116500Y-28200D03*
X115000Y-28200D03*
X113500Y-28200D03*
X122500Y-66700D03*
X127000Y-62700D03*
X127000Y-60700D03*
X127000Y-58700D03*
X125500Y-66700D03*
X125500Y-64700D03*
X125500Y-62700D03*
X125500Y-60700D03*
X125500Y-58700D03*
X124000Y-66700D03*
X124000Y-64700D03*
X124000Y-62700D03*
X124000Y-60700D03*
X124000Y-58700D03*
X127000Y-64700D03*
X122500Y-64700D03*
X122500Y-62700D03*
X122500Y-60700D03*
X122500Y-58700D03*
X121000Y-66700D03*
X121000Y-64700D03*
X121000Y-62700D03*
X121000Y-60700D03*
X121000Y-58700D03*
X119500Y-66700D03*
X119500Y-64700D03*
X119500Y-62700D03*
X119500Y-60700D03*
X131500Y-60700D03*
X134500Y-66700D03*
X134500Y-64700D03*
X134500Y-62700D03*
X134500Y-60700D03*
X134500Y-58700D03*
X133000Y-66700D03*
X133000Y-64700D03*
X133000Y-62700D03*
X133000Y-60700D03*
X133000Y-58700D03*
X131500Y-66700D03*
X131500Y-64700D03*
X131500Y-62700D03*
X119500Y-58700D03*
X131500Y-58700D03*
X130000Y-66700D03*
X130000Y-64700D03*
X130000Y-62700D03*
X130000Y-60700D03*
X130000Y-58700D03*
X128500Y-66700D03*
X128500Y-64700D03*
X128500Y-62700D03*
X128500Y-60700D03*
X128500Y-58700D03*
X127000Y-66700D03*
X106000Y-66700D03*
X110500Y-62700D03*
X110500Y-60700D03*
X110500Y-58700D03*
X109000Y-66700D03*
X109000Y-64700D03*
X109000Y-62700D03*
X109000Y-60700D03*
X109000Y-58700D03*
X107500Y-66700D03*
X107500Y-64700D03*
X107500Y-62700D03*
X107500Y-60700D03*
X107500Y-58700D03*
X110500Y-64700D03*
X106000Y-64700D03*
X106000Y-62700D03*
X106000Y-60700D03*
X106000Y-58700D03*
X104500Y-66700D03*
X104500Y-64700D03*
X104500Y-62700D03*
X104500Y-60700D03*
X104500Y-58700D03*
X137500Y-34200D03*
X137500Y-32200D03*
X137500Y-30200D03*
X136000Y-34200D03*
X115000Y-60700D03*
X118000Y-66700D03*
X118000Y-64700D03*
X118000Y-62700D03*
X118000Y-60700D03*
X118000Y-58700D03*
X116500Y-66700D03*
X116500Y-64700D03*
X116500Y-62700D03*
X116500Y-60700D03*
X116500Y-58700D03*
X115000Y-66700D03*
X115000Y-64700D03*
X115000Y-62700D03*
X104500Y-26200D03*
X115000Y-58700D03*
X113500Y-66700D03*
X113500Y-64700D03*
X113500Y-62700D03*
X113500Y-60700D03*
X113500Y-58700D03*
X112000Y-66700D03*
X112000Y-64700D03*
X112000Y-62700D03*
X112000Y-60700D03*
X112000Y-58700D03*
X110500Y-66700D03*
X134500Y-51200D03*
X132500Y-45200D03*
X132500Y-43700D03*
X132500Y-42200D03*
X132500Y-40700D03*
X132500Y-39200D03*
X132500Y-37700D03*
X134500Y-55700D03*
X136500Y-54200D03*
X134500Y-52700D03*
X132500Y-46700D03*
X134500Y-49700D03*
X134500Y-48200D03*
X134500Y-46700D03*
X134500Y-45200D03*
X134500Y-43700D03*
X134500Y-42200D03*
X134500Y-40700D03*
X134500Y-39200D03*
X134500Y-37700D03*
X127000Y-38200D03*
X125500Y-38200D03*
X125500Y-36200D03*
X127000Y-56700D03*
X127000Y-54700D03*
X130500Y-49700D03*
X130500Y-48200D03*
X130500Y-46700D03*
X130500Y-45200D03*
X130500Y-43700D03*
X136500Y-55700D03*
X127000Y-36200D03*
X132500Y-54200D03*
X132500Y-55700D03*
X134500Y-54200D03*
X132500Y-52700D03*
X132500Y-51200D03*
X132500Y-49700D03*
X132500Y-48200D03*
X140500Y-51200D03*
X138500Y-45200D03*
X138500Y-43700D03*
X138500Y-42200D03*
X138500Y-40700D03*
X138500Y-39200D03*
X138500Y-37700D03*
X140500Y-55700D03*
X101500Y-54200D03*
X140500Y-52700D03*
X138500Y-46700D03*
X140500Y-49700D03*
X140500Y-48200D03*
X140500Y-46700D03*
X140500Y-45200D03*
X140500Y-43700D03*
X140500Y-42200D03*
X140500Y-40700D03*
X140500Y-39200D03*
X140500Y-37700D03*
X136500Y-40700D03*
X138500Y-54200D03*
X136500Y-52700D03*
X136500Y-51200D03*
X136500Y-49700D03*
X136500Y-48200D03*
X136500Y-46700D03*
X136500Y-45200D03*
X136500Y-43700D03*
X136500Y-42200D03*
X128500Y-43700D03*
X136500Y-39200D03*
X136500Y-37700D03*
X138500Y-55700D03*
X140500Y-54200D03*
X138500Y-52700D03*
X138500Y-51200D03*
X138500Y-49700D03*
X138500Y-48200D03*
X109500Y-51200D03*
X107500Y-55700D03*
X109500Y-54200D03*
X107500Y-52700D03*
X107500Y-51200D03*
X107500Y-49700D03*
X107500Y-48200D03*
X107500Y-40700D03*
X109500Y-55700D03*
X109500Y-52700D03*
X105500Y-40700D03*
X109500Y-49700D03*
X109500Y-48200D03*
X109500Y-40700D03*
X115000Y-56700D03*
X115000Y-54700D03*
X111500Y-49700D03*
X111500Y-48200D03*
X111500Y-46700D03*
X111500Y-45200D03*
X103500Y-49700D03*
X103500Y-54200D03*
X101500Y-52700D03*
X101500Y-51200D03*
X101500Y-48200D03*
X101500Y-40700D03*
X103500Y-55700D03*
X105500Y-54200D03*
X103500Y-52700D03*
X103500Y-51200D03*
X111500Y-43700D03*
X103500Y-48200D03*
X103500Y-40700D03*
X105500Y-55700D03*
X107500Y-54200D03*
X105500Y-52700D03*
X105500Y-51200D03*
X105500Y-49700D03*
X105500Y-48200D03*
X124000Y-54700D03*
X121000Y-56700D03*
X121000Y-54700D03*
X121000Y-38200D03*
X121000Y-36200D03*
X122500Y-56700D03*
X122500Y-54700D03*
X122500Y-38200D03*
X122500Y-36200D03*
X124000Y-56700D03*
X119500Y-36200D03*
X124000Y-38200D03*
X124000Y-36200D03*
X125500Y-56700D03*
X125500Y-54700D03*
X128500Y-49700D03*
X128500Y-48200D03*
X128500Y-46700D03*
X128500Y-45200D03*
X116500Y-38200D03*
X115000Y-38200D03*
X115000Y-36200D03*
X116500Y-56700D03*
X116500Y-54700D03*
X113500Y-49700D03*
X113500Y-48200D03*
X113500Y-46700D03*
X113500Y-45200D03*
X113500Y-43700D03*
X101500Y-55700D03*
X116500Y-36200D03*
X118000Y-56700D03*
X118000Y-54700D03*
X118000Y-38200D03*
X118000Y-36200D03*
X119500Y-56700D03*
X119500Y-54700D03*
X119500Y-38200D03*
G54D13*
X101000Y-26200D03*
X141000Y-26200D03*
X101000Y-67200D03*
X141000Y-67200D03*
G54D12*
X125300Y-82300D03*
X124100Y-79300D03*
X124100Y-77800D03*
X124100Y-82300D03*
X124100Y-80800D03*
X125300Y-70300D03*
X125300Y-68800D03*
X125300Y-73300D03*
X125300Y-71800D03*
X125300Y-76300D03*
X125300Y-74800D03*
X125300Y-79300D03*
X125300Y-77800D03*
X124100Y-74800D03*
X125300Y-80800D03*
X126500Y-70300D03*
X126500Y-68800D03*
X126500Y-73300D03*
X126500Y-71800D03*
X126500Y-76300D03*
X126500Y-74800D03*
X126500Y-79300D03*
X126500Y-77800D03*
X126500Y-82300D03*
X126500Y-80800D03*
X122900Y-71800D03*
X121700Y-68800D03*
X121700Y-73300D03*
X121700Y-71800D03*
X121700Y-76300D03*
X121700Y-74800D03*
X121700Y-79300D03*
X121700Y-77800D03*
X121700Y-82300D03*
X121700Y-80800D03*
X122900Y-70300D03*
X122900Y-68800D03*
X122900Y-73300D03*
X127700Y-70300D03*
X122900Y-76300D03*
X122900Y-74800D03*
X122900Y-79300D03*
X122900Y-77800D03*
X122900Y-82300D03*
X122900Y-80800D03*
X124100Y-70300D03*
X124100Y-68800D03*
X124100Y-73300D03*
X124100Y-71800D03*
X124100Y-76300D03*
X131300Y-82300D03*
X130100Y-79300D03*
X130100Y-77800D03*
X130100Y-82300D03*
X130100Y-80800D03*
X131300Y-70300D03*
X131300Y-68800D03*
X131300Y-73300D03*
X131300Y-71800D03*
X131300Y-76300D03*
X131300Y-74800D03*
X131300Y-79300D03*
X131300Y-77800D03*
X130100Y-74800D03*
X131300Y-80800D03*
X132500Y-70300D03*
X132500Y-68800D03*
X132500Y-73300D03*
X132500Y-71800D03*
X132500Y-76300D03*
X132500Y-74800D03*
X132500Y-79300D03*
X132500Y-77800D03*
X132500Y-82300D03*
X132500Y-80800D03*
X128900Y-71800D03*
X127700Y-68800D03*
X127700Y-73300D03*
X127700Y-71800D03*
X127700Y-76300D03*
X127700Y-74800D03*
X127700Y-79300D03*
X127700Y-77800D03*
X127700Y-82300D03*
X127700Y-80800D03*
X128900Y-70300D03*
X128900Y-68800D03*
X128900Y-73300D03*
X121700Y-70300D03*
X128900Y-76300D03*
X128900Y-74800D03*
X128900Y-79300D03*
X128900Y-77800D03*
X128900Y-82300D03*
X128900Y-80800D03*
X130100Y-70300D03*
X130100Y-68800D03*
X130100Y-73300D03*
X130100Y-71800D03*
X130100Y-76300D03*
X113300Y-82300D03*
X112100Y-79300D03*
X112100Y-77800D03*
X112100Y-82300D03*
X112100Y-80800D03*
X113300Y-70300D03*
X113300Y-68800D03*
X113300Y-73300D03*
X113300Y-71800D03*
X113300Y-76300D03*
X113300Y-74800D03*
X113300Y-79300D03*
X113300Y-77800D03*
X112100Y-74800D03*
X113300Y-80800D03*
X114500Y-70300D03*
X114500Y-68800D03*
X114500Y-73300D03*
X114500Y-71800D03*
X114500Y-76300D03*
X114500Y-74800D03*
X114500Y-79300D03*
X114500Y-77800D03*
X114500Y-82300D03*
X114500Y-80800D03*
X110900Y-71800D03*
X109700Y-68800D03*
X109700Y-73300D03*
X109700Y-71800D03*
X109700Y-76300D03*
X109700Y-74800D03*
X109700Y-79300D03*
X109700Y-77800D03*
X109700Y-82300D03*
X109700Y-80800D03*
X110900Y-70300D03*
X110900Y-68800D03*
X110900Y-73300D03*
X115700Y-70300D03*
X110900Y-76300D03*
X110900Y-74800D03*
X110900Y-79300D03*
X110900Y-77800D03*
X110900Y-82300D03*
X110900Y-80800D03*
X112100Y-70300D03*
X112100Y-68800D03*
X112100Y-73300D03*
X112100Y-71800D03*
X112100Y-76300D03*
X119300Y-82300D03*
X118100Y-79300D03*
X118100Y-77800D03*
X118100Y-82300D03*
X118100Y-80800D03*
X119300Y-70300D03*
X119300Y-68800D03*
X119300Y-73300D03*
X119300Y-71800D03*
X119300Y-76300D03*
X119300Y-74800D03*
X119300Y-79300D03*
X119300Y-77800D03*
X118100Y-74800D03*
X119300Y-80800D03*
X120500Y-70300D03*
X120500Y-68800D03*
X120500Y-73300D03*
X120500Y-71800D03*
X120500Y-76300D03*
X120500Y-74800D03*
X120500Y-79300D03*
X120500Y-77800D03*
X120500Y-82300D03*
X120500Y-80800D03*
X116900Y-71800D03*
X115700Y-68800D03*
X115700Y-73300D03*
X115700Y-71800D03*
X115700Y-76300D03*
X115700Y-74800D03*
X115700Y-79300D03*
X115700Y-77800D03*
X115700Y-82300D03*
X115700Y-80800D03*
X116900Y-70300D03*
X116900Y-68800D03*
X116900Y-73300D03*
X109700Y-70300D03*
X116900Y-76300D03*
X116900Y-74800D03*
X116900Y-79300D03*
X116900Y-77800D03*
X116900Y-82300D03*
X116900Y-80800D03*
X118100Y-70300D03*
X118100Y-68800D03*
X118100Y-73300D03*
X118100Y-71800D03*
X118100Y-76300D03*
G54D14*
X119973Y-48376D03*
X119973Y-48061D03*
X119658Y-48376D03*
X119658Y-48061D03*
X121547Y-44912D03*
X120289Y-44912D03*
X119974Y-44912D03*
X119659Y-44912D03*
X119344Y-44912D03*
X119029Y-44912D03*
X118714Y-44912D03*
X118399Y-44912D03*
X118085Y-44912D03*
X117769Y-44912D03*
X117454Y-44912D03*
X120604Y-44912D03*
X120919Y-44912D03*
X121234Y-44912D03*
X122809Y-44912D03*
X122494Y-44912D03*
X122179Y-44912D03*
X121864Y-44912D03*
X123122Y-44912D03*
X124381Y-44912D03*
X123438Y-44912D03*
X123753Y-44912D03*
X124068Y-44912D03*
X124068Y-44598D03*
X123753Y-44598D03*
X123438Y-44598D03*
X124068Y-44284D03*
X123753Y-44284D03*
X123438Y-44284D03*
X124068Y-43969D03*
X123753Y-43969D03*
X123438Y-43969D03*
X124068Y-43653D03*
X123753Y-43653D03*
X123438Y-43653D03*
X124381Y-43653D03*
X124381Y-43968D03*
X124381Y-44283D03*
X124381Y-44598D03*
X123122Y-44598D03*
X123122Y-44283D03*
X123122Y-43968D03*
X123122Y-43653D03*
X121864Y-43653D03*
X122179Y-43653D03*
X122494Y-43653D03*
X122809Y-43653D03*
X122809Y-44598D03*
X122494Y-44598D03*
X122179Y-44598D03*
X122809Y-44284D03*
X122494Y-44284D03*
X122179Y-44284D03*
X122809Y-43969D03*
X122494Y-43969D03*
X122179Y-43969D03*
X121864Y-43969D03*
X121864Y-44284D03*
X121864Y-44598D03*
X121234Y-44598D03*
X120919Y-44598D03*
X120604Y-44598D03*
X121234Y-44284D03*
X120919Y-44284D03*
X120604Y-44284D03*
X121234Y-43969D03*
X120919Y-43969D03*
X120604Y-43969D03*
X121234Y-43653D03*
X120919Y-43653D03*
X120604Y-43653D03*
X117454Y-43653D03*
X117769Y-43653D03*
X118085Y-43653D03*
X118399Y-43653D03*
X118714Y-43653D03*
X119029Y-43653D03*
X119344Y-43653D03*
X119659Y-43653D03*
X119974Y-43653D03*
X120289Y-43653D03*
X117453Y-43969D03*
X117768Y-43969D03*
X118083Y-43969D03*
X118398Y-43969D03*
X118713Y-43969D03*
X119029Y-43969D03*
X119344Y-43969D03*
X119659Y-43969D03*
X119974Y-43969D03*
X120289Y-43969D03*
X117453Y-44284D03*
X117453Y-44598D03*
X117768Y-44284D03*
X118083Y-44284D03*
X118398Y-44284D03*
X118713Y-44284D03*
X119029Y-44284D03*
X119344Y-44284D03*
X119659Y-44284D03*
X119974Y-44284D03*
X120289Y-44284D03*
X117768Y-44598D03*
X118083Y-44598D03*
X118398Y-44598D03*
X118713Y-44598D03*
X119029Y-44598D03*
X119344Y-44598D03*
X119659Y-44598D03*
X119974Y-44598D03*
X120289Y-44598D03*
X121547Y-43653D03*
X121547Y-43968D03*
X121547Y-44283D03*
X121547Y-44598D03*
X121547Y-46172D03*
X121547Y-45857D03*
X119974Y-46172D03*
X119659Y-46172D03*
X118713Y-46172D03*
X118398Y-46172D03*
X118083Y-46172D03*
X117768Y-46172D03*
X119974Y-45858D03*
X119659Y-45858D03*
X118713Y-45858D03*
X118398Y-45858D03*
X118083Y-45858D03*
X117768Y-45858D03*
X117453Y-46172D03*
X117453Y-45858D03*
X118713Y-45543D03*
X118398Y-45543D03*
X118083Y-45543D03*
X117768Y-45543D03*
X117453Y-45543D03*
X118714Y-45227D03*
X118399Y-45227D03*
X118085Y-45227D03*
X117769Y-45227D03*
X117454Y-45227D03*
X121234Y-46172D03*
X120919Y-46172D03*
X120604Y-46172D03*
X121234Y-45858D03*
X120919Y-45858D03*
X120604Y-45858D03*
X120289Y-45858D03*
X120289Y-46172D03*
X122179Y-46172D03*
X122179Y-45858D03*
X121864Y-45858D03*
X121864Y-46172D03*
X123122Y-45227D03*
X123122Y-45542D03*
X123122Y-45857D03*
X123122Y-46172D03*
X124381Y-46172D03*
X124381Y-45857D03*
X124381Y-45542D03*
X124381Y-45227D03*
X123438Y-45227D03*
X123753Y-45227D03*
X124068Y-45227D03*
X124068Y-46172D03*
X123753Y-46172D03*
X123438Y-46172D03*
X124068Y-45858D03*
X123753Y-45858D03*
X123438Y-45858D03*
X124068Y-45543D03*
X123753Y-45543D03*
X123438Y-45543D03*
X124066Y-49322D03*
X123751Y-49322D03*
X123436Y-49322D03*
X123436Y-49006D03*
X124066Y-49006D03*
X123751Y-49006D03*
X124066Y-48690D03*
X123751Y-48690D03*
X123436Y-48690D03*
X124066Y-48376D03*
X123751Y-48376D03*
X123436Y-48376D03*
X124066Y-48061D03*
X123751Y-48061D03*
X123436Y-48061D03*
X124067Y-47747D03*
X123752Y-47747D03*
X123437Y-47747D03*
X124068Y-47431D03*
X123753Y-47431D03*
X123438Y-47431D03*
X124068Y-47117D03*
X123753Y-47117D03*
X123438Y-47117D03*
X124068Y-46802D03*
X123753Y-46802D03*
X123438Y-46802D03*
X124068Y-46486D03*
X123753Y-46486D03*
X123438Y-46486D03*
X123437Y-50266D03*
X123752Y-50266D03*
X124067Y-50266D03*
X123437Y-49951D03*
X123752Y-49951D03*
X124067Y-49951D03*
X123437Y-49636D03*
X123752Y-49636D03*
X124067Y-49636D03*
X124381Y-46486D03*
X124381Y-46801D03*
X124381Y-47116D03*
X124381Y-47431D03*
X124381Y-47746D03*
X124381Y-48061D03*
X124381Y-48376D03*
X124381Y-48690D03*
X124381Y-49005D03*
X124381Y-49320D03*
X124381Y-49635D03*
X124381Y-49950D03*
X124381Y-50265D03*
X124381Y-50580D03*
X123436Y-50580D03*
X123751Y-50580D03*
X124066Y-50580D03*
X123122Y-50580D03*
X123122Y-50265D03*
X123122Y-49950D03*
X123122Y-49635D03*
X123122Y-49320D03*
X123122Y-49005D03*
X123122Y-48690D03*
X123122Y-48376D03*
X123122Y-48061D03*
X123122Y-47746D03*
X123122Y-47431D03*
X123122Y-47116D03*
X123122Y-46801D03*
X123122Y-46486D03*
X121864Y-46486D03*
X122179Y-46486D03*
X122807Y-49322D03*
X122492Y-49322D03*
X122177Y-49322D03*
X122177Y-48376D03*
X122177Y-48061D03*
X122178Y-47747D03*
X122179Y-47431D03*
X122179Y-47117D03*
X122179Y-46802D03*
X121864Y-46802D03*
X121864Y-47117D03*
X121864Y-47431D03*
X121863Y-47747D03*
X121862Y-48061D03*
X121862Y-48376D03*
X121862Y-49322D03*
X121863Y-50266D03*
X122178Y-50266D03*
X122493Y-50266D03*
X122808Y-50266D03*
X121863Y-49951D03*
X122178Y-49951D03*
X122493Y-49951D03*
X122808Y-49951D03*
X121863Y-49636D03*
X122178Y-49636D03*
X122493Y-49636D03*
X122808Y-49636D03*
X121862Y-50580D03*
X122177Y-50580D03*
X122492Y-50580D03*
X122807Y-50580D03*
X117454Y-50267D03*
X117454Y-49951D03*
X117454Y-49635D03*
X121232Y-49322D03*
X120917Y-49322D03*
X120602Y-49322D03*
X121232Y-48376D03*
X120917Y-48376D03*
X120602Y-48376D03*
X121232Y-48061D03*
X120917Y-48061D03*
X120602Y-48061D03*
X121233Y-47747D03*
X120918Y-47747D03*
X120603Y-47747D03*
X121234Y-47431D03*
X120919Y-47431D03*
X120604Y-47431D03*
X121234Y-47117D03*
X120919Y-47117D03*
X120604Y-47117D03*
X121234Y-46802D03*
X120919Y-46802D03*
X120604Y-46802D03*
X121234Y-46486D03*
X120919Y-46486D03*
X120604Y-46486D03*
X117454Y-46486D03*
X117769Y-46486D03*
X118085Y-46486D03*
X118399Y-46486D03*
X118714Y-46486D03*
X119659Y-46486D03*
X119974Y-46486D03*
X120289Y-46486D03*
X117453Y-46802D03*
X117768Y-46802D03*
X118083Y-46802D03*
X118398Y-46802D03*
X118713Y-46802D03*
X119659Y-46802D03*
X119974Y-46802D03*
X120289Y-46802D03*
X117453Y-47117D03*
X117453Y-47431D03*
X117454Y-47747D03*
X117454Y-48061D03*
X117454Y-48376D03*
X117454Y-48690D03*
X117454Y-49006D03*
X117454Y-49322D03*
X117768Y-47117D03*
X118083Y-47117D03*
X118398Y-47117D03*
X118713Y-47117D03*
X119659Y-47117D03*
X119974Y-47117D03*
X120289Y-47117D03*
X117768Y-47431D03*
X118083Y-47431D03*
X118398Y-47431D03*
X118713Y-47431D03*
X119659Y-47431D03*
X119974Y-47431D03*
X120289Y-47431D03*
X117769Y-47747D03*
X118084Y-47747D03*
X118399Y-47747D03*
X120288Y-47747D03*
X117769Y-48061D03*
X118084Y-48061D03*
X118398Y-48061D03*
X120287Y-48061D03*
X117769Y-48376D03*
X118084Y-48376D03*
X118398Y-48376D03*
X120287Y-48376D03*
X117769Y-48690D03*
X118084Y-48690D03*
X118398Y-48690D03*
X117769Y-49006D03*
X118084Y-49006D03*
X118398Y-49006D03*
X117769Y-49322D03*
X118084Y-49322D03*
X118398Y-49322D03*
X118713Y-49322D03*
X119028Y-49322D03*
X119343Y-49322D03*
X119657Y-49322D03*
X119972Y-49322D03*
X120287Y-49322D03*
X117768Y-50266D03*
X118083Y-50266D03*
X118398Y-50266D03*
X118713Y-50266D03*
X119028Y-50266D03*
X119343Y-50266D03*
X119658Y-50266D03*
X119973Y-50266D03*
X120288Y-50266D03*
X120603Y-50266D03*
X120918Y-50266D03*
X121233Y-50266D03*
X117768Y-49951D03*
X118083Y-49951D03*
X118398Y-49951D03*
X118713Y-49951D03*
X119028Y-49951D03*
X119343Y-49951D03*
X119658Y-49951D03*
X119973Y-49951D03*
X120288Y-49951D03*
X120603Y-49951D03*
X120918Y-49951D03*
X121233Y-49951D03*
X117768Y-49636D03*
X118083Y-49636D03*
X118398Y-49636D03*
X118713Y-49636D03*
X119028Y-49636D03*
X119343Y-49636D03*
X119658Y-49636D03*
X119973Y-49636D03*
X120288Y-49636D03*
X120603Y-49636D03*
X120918Y-49636D03*
X121233Y-49636D03*
X121547Y-46486D03*
X121547Y-46801D03*
X121547Y-47116D03*
X121547Y-47431D03*
X121547Y-47746D03*
X121547Y-48061D03*
X121547Y-48376D03*
X121547Y-49320D03*
X121547Y-49635D03*
X121547Y-49950D03*
X121547Y-50265D03*
X121547Y-50580D03*
X117453Y-50580D03*
X117768Y-50580D03*
X118083Y-50580D03*
X118398Y-50580D03*
X118713Y-50580D03*
X119028Y-50580D03*
X119343Y-50580D03*
X119657Y-50580D03*
X119972Y-50580D03*
X120287Y-50580D03*
X120602Y-50580D03*
X120917Y-50580D03*
X121232Y-50580D03*
X118713Y-47746D03*
X119657Y-47746D03*
X119972Y-47746D03*
X118713Y-48061D03*
X118713Y-48376D03*
X118713Y-48690D03*
X118713Y-49005D03*
G54D15*
X117925Y-48845D03*
X117925Y-49160D03*
X118240Y-49165D03*
X118555Y-48850D03*
X118240Y-48850D03*
X123280Y-49162D03*
X123596Y-49164D03*
X123910Y-49164D03*
X118555Y-47590D03*
X118555Y-47905D03*
X118240Y-47905D03*
X117925Y-47905D03*
X118240Y-47590D03*
X117925Y-47590D03*
X118240Y-48220D03*
X117925Y-48530D03*
X118240Y-48530D03*
X118555Y-48530D03*
X118555Y-48220D03*
X117925Y-48220D03*
X123280Y-47590D03*
X123596Y-47588D03*
X123910Y-47588D03*
X123910Y-46960D03*
X123596Y-46960D03*
X123280Y-46958D03*
X123910Y-47904D03*
X123280Y-47274D03*
X123596Y-47274D03*
X123910Y-47272D03*
X123910Y-48532D03*
X123596Y-48532D03*
X123280Y-48532D03*
X123282Y-48848D03*
X123596Y-48848D03*
X123910Y-48848D03*
X123596Y-48218D03*
X123596Y-47904D03*
X123280Y-47906D03*
X123280Y-48218D03*
X123910Y-48218D03*
X123280Y-49480D03*
X123595Y-49790D03*
X123595Y-50105D03*
X123280Y-49790D03*
X123280Y-50105D03*
X124225Y-49790D03*
X123910Y-49480D03*
X123910Y-49790D03*
X123910Y-50105D03*
X124225Y-50105D03*
X123595Y-49480D03*
X122335Y-49480D03*
X122340Y-49790D03*
X122335Y-50105D03*
X122020Y-50105D03*
X122965Y-49480D03*
X122965Y-50105D03*
X122965Y-49790D03*
X122650Y-49480D03*
X122650Y-49790D03*
X122650Y-50105D03*
X118240Y-46645D03*
X117925Y-46645D03*
X118555Y-46645D03*
X118555Y-46330D03*
X118240Y-46330D03*
X117925Y-46330D03*
X118555Y-47275D03*
X118240Y-47275D03*
X117925Y-47275D03*
X118555Y-46960D03*
X118240Y-46960D03*
X117925Y-46960D03*
X118240Y-45385D03*
X117925Y-45700D03*
X118556Y-45385D03*
X117925Y-45385D03*
X124220Y-49475D03*
X117925Y-46015D03*
X118555Y-46015D03*
X118240Y-46015D03*
X118555Y-45700D03*
X118240Y-45700D03*
X119500Y-47905D03*
X122336Y-46958D03*
X122020Y-46644D03*
X122334Y-46644D03*
X119815Y-47905D03*
X119815Y-47590D03*
X119500Y-47590D03*
X119815Y-47275D03*
X119500Y-47275D03*
X118242Y-44754D03*
X122338Y-47904D03*
X122022Y-47904D03*
X122336Y-47590D03*
X122022Y-47588D03*
X122022Y-47274D03*
X122338Y-47274D03*
X122022Y-46960D03*
X120760Y-48220D03*
X121390Y-48220D03*
X121390Y-48535D03*
X121075Y-48535D03*
X121075Y-48215D03*
X121705Y-48535D03*
X120760Y-48535D03*
X120445Y-48220D03*
X120445Y-48530D03*
X119815Y-46960D03*
X119500Y-46960D03*
X119815Y-46645D03*
X119500Y-46645D03*
X122020Y-48220D03*
X122020Y-48535D03*
X121705Y-48215D03*
X124210Y-83820D03*
X122500Y-83220D03*
X121340Y-83250D03*
X120670Y-83930D03*
X119490Y-83850D03*
X129720Y-83290D03*
X128460Y-83260D03*
X127320Y-83280D03*
X126090Y-83250D03*
X124910Y-83300D03*
X111130Y-83970D03*
X109950Y-83490D03*
X108600Y-83800D03*
X117980Y-83410D03*
X116530Y-83300D03*
X120135Y-48220D03*
X115460Y-83450D03*
X114250Y-83570D03*
X112320Y-82970D03*
X123280Y-45384D03*
X123594Y-45384D03*
X123908Y-45384D03*
X123908Y-45700D03*
X123594Y-45700D03*
X123596Y-46644D03*
X123910Y-46330D03*
X123280Y-46646D03*
X123910Y-46644D03*
X123280Y-45700D03*
X123278Y-46014D03*
X123594Y-46014D03*
X123908Y-46014D03*
X123278Y-46330D03*
X123594Y-46328D03*
X122018Y-46016D03*
X122020Y-45700D03*
X121702Y-46014D03*
X121704Y-45700D03*
X121388Y-46014D03*
X121390Y-45700D03*
X121074Y-46014D03*
X121074Y-45700D03*
X120760Y-46014D03*
X119500Y-48215D03*
X120130Y-48535D03*
X119815Y-48215D03*
X119815Y-48535D03*
X119500Y-48535D03*
X122334Y-46016D03*
X122336Y-45698D03*
X120130Y-46016D03*
X120760Y-45700D03*
X120444Y-46014D03*
X120444Y-45700D03*
X120130Y-45700D03*
X119816Y-46016D03*
X119816Y-45700D03*
X121705Y-47903D03*
X120130Y-47903D03*
X118555Y-49165D03*
X121390Y-46644D03*
X121706Y-47588D03*
X121390Y-47590D03*
X121076Y-47588D03*
X120760Y-47588D03*
X120446Y-47588D03*
X121706Y-47274D03*
X121390Y-47274D03*
X121076Y-47274D03*
X120762Y-47274D03*
X120448Y-47274D03*
X120132Y-47274D03*
X121706Y-46960D03*
X121390Y-46960D03*
X121078Y-46958D03*
X120762Y-46960D03*
X120132Y-46958D03*
X120446Y-46958D03*
X121076Y-46644D03*
X120760Y-46644D03*
X118555Y-44125D03*
X118555Y-44440D03*
X118556Y-44754D03*
X118870Y-44125D03*
X117925Y-44125D03*
X117925Y-44440D03*
X117926Y-44754D03*
X118240Y-44125D03*
X118240Y-44440D03*
X119816Y-44754D03*
X119816Y-44440D03*
X119816Y-44126D03*
X119500Y-44754D03*
X119500Y-44440D03*
X119500Y-44124D03*
X120130Y-44754D03*
X120444Y-44754D03*
X120446Y-44440D03*
X120446Y-44124D03*
X120130Y-44440D03*
X120130Y-44126D03*
X117610Y-44125D03*
X117610Y-44440D03*
X117612Y-44754D03*
X119186Y-44124D03*
X119186Y-44754D03*
X119186Y-44438D03*
X118870Y-44754D03*
X118870Y-44440D03*
X118870Y-50105D03*
X119185Y-50105D03*
X118870Y-49790D03*
X118870Y-49480D03*
X118555Y-49480D03*
X119500Y-49790D03*
X119500Y-50105D03*
X118555Y-49790D03*
X119500Y-49480D03*
X119185Y-49480D03*
X119185Y-49790D03*
X117925Y-49790D03*
X117925Y-50105D03*
X117610Y-50105D03*
X117925Y-49480D03*
X117295Y-49790D03*
X118555Y-50105D03*
X118240Y-50105D03*
X118240Y-49790D03*
X118240Y-49480D03*
X121390Y-49790D03*
X121390Y-50105D03*
X121075Y-50105D03*
X121075Y-49790D03*
X121075Y-49480D03*
X121705Y-50105D03*
X122020Y-49790D03*
X122020Y-49480D03*
X121705Y-49790D03*
X121705Y-49480D03*
X121390Y-49480D03*
X120130Y-49475D03*
X120130Y-49790D03*
X120130Y-50105D03*
X119820Y-49480D03*
X119815Y-49790D03*
X119820Y-50105D03*
X120445Y-49480D03*
X120760Y-50105D03*
X120760Y-49795D03*
X120760Y-49480D03*
X117610Y-49795D03*
X120445Y-49790D03*
X120445Y-50105D03*
X122020Y-44440D03*
X122020Y-44124D03*
X122020Y-44754D03*
X121706Y-44754D03*
X121704Y-44440D03*
X121706Y-44124D03*
X122650Y-44754D03*
X122650Y-44124D03*
X122650Y-44440D03*
X122336Y-44754D03*
X122336Y-44440D03*
X122336Y-44124D03*
X120760Y-44440D03*
X121076Y-44440D03*
X121076Y-44124D03*
X120760Y-44754D03*
X120760Y-44124D03*
X121390Y-44126D03*
X121390Y-44440D03*
X121390Y-44754D03*
X121076Y-44754D03*
X124224Y-44124D03*
X124224Y-44440D03*
X124224Y-44756D03*
X123908Y-44754D03*
X123910Y-44440D03*
X117610Y-49480D03*
X117295Y-49480D03*
X117295Y-50105D03*
X124542Y-44754D03*
X124538Y-44440D03*
X124538Y-44126D03*
X122966Y-44756D03*
X123280Y-44440D03*
X123280Y-44126D03*
X122964Y-44440D03*
X122964Y-44126D03*
X123910Y-44124D03*
X123594Y-44124D03*
X123594Y-44440D03*
X123594Y-44754D03*
X123280Y-44754D03*
X130890Y-83250D03*
X132400Y-83260D03*
G54D16*
X118080Y-48690D02*
X118083Y-48690D01*
X117925Y-48845D02*
X118080Y-48690D01*
X118079Y-49006D02*
X118085Y-49006D01*
X117925Y-49160D02*
X118079Y-49006D01*
X118240Y-49165D02*
X118399Y-49006D01*
X118713Y-48692D02*
X118713Y-48690D01*
X118555Y-48850D02*
X118713Y-48692D01*
X118398Y-48692D02*
X118398Y-48690D01*
X118240Y-48850D02*
X118398Y-48692D01*
X117608Y-48850D02*
X117768Y-48690D01*
X117030Y-48850D02*
X117608Y-48850D01*
X116665Y-49215D02*
X117030Y-48850D01*
X116665Y-49945D02*
X116665Y-49215D01*
X114700Y-51909D02*
X116665Y-49945D01*
X113820Y-51909D02*
X114700Y-51909D01*
X112415Y-53315D02*
X113820Y-51909D01*
X103675Y-53315D02*
X112415Y-53315D01*
X103500Y-53490D02*
X103675Y-53315D01*
X103500Y-54200D02*
X103500Y-53490D01*
X117453Y-48690D02*
X117020Y-48690D01*
X117020Y-48690D02*
X116545Y-49165D01*
X116545Y-49165D02*
X116545Y-49895D01*
X116545Y-49895D02*
X114651Y-51789D01*
X114651Y-51789D02*
X113771Y-51789D01*
X113771Y-51789D02*
X112366Y-53194D01*
X112366Y-53194D02*
X101840Y-53194D01*
X101840Y-53194D02*
X101500Y-53535D01*
X101500Y-53535D02*
X101500Y-54200D01*
X116996Y-48375D02*
X117453Y-48375D01*
X116305Y-49066D02*
X116996Y-48375D01*
X116305Y-49796D02*
X116305Y-49066D01*
X114551Y-51549D02*
X116305Y-49796D01*
X113671Y-51549D02*
X114551Y-51549D01*
X113526Y-51694D02*
X113671Y-51549D01*
X101835Y-51694D02*
X113526Y-51694D01*
X101500Y-52030D02*
X101835Y-51694D01*
X101500Y-52700D02*
X101500Y-52030D01*
X117613Y-48530D02*
X117768Y-48375D01*
X117011Y-48530D02*
X117613Y-48530D01*
X116425Y-49115D02*
X117011Y-48530D01*
X116425Y-49846D02*
X116425Y-49115D01*
X114601Y-51669D02*
X116425Y-49846D01*
X113721Y-51669D02*
X114601Y-51669D01*
X113576Y-51815D02*
X113721Y-51669D01*
X103675Y-51815D02*
X113576Y-51815D01*
X103500Y-51990D02*
X103675Y-51815D01*
X103500Y-52700D02*
X103500Y-51990D01*
X124227Y-49165D02*
X124068Y-49006D01*
X124760Y-49165D02*
X124227Y-49165D01*
X124874Y-49279D02*
X124760Y-49165D01*
X124874Y-50179D02*
X124874Y-49279D01*
X125910Y-51215D02*
X124874Y-50179D01*
X126675Y-51215D02*
X125910Y-51215D01*
X127310Y-51850D02*
X126675Y-51215D01*
X128515Y-51850D02*
X127310Y-51850D01*
X131455Y-54790D02*
X128515Y-51850D01*
X138320Y-54790D02*
X131455Y-54790D01*
X138500Y-54970D02*
X138320Y-54790D01*
X138500Y-55700D02*
X138500Y-54970D01*
X124381Y-48691D02*
X124795Y-48691D01*
X124795Y-48691D02*
X125235Y-49130D01*
X125235Y-49130D02*
X125235Y-50030D01*
X125235Y-50030D02*
X126059Y-50854D01*
X126059Y-50854D02*
X126824Y-50854D01*
X126824Y-50854D02*
X127459Y-51489D01*
X127459Y-51489D02*
X128664Y-51489D01*
X128664Y-51489D02*
X130369Y-53194D01*
X130369Y-53194D02*
X140194Y-53194D01*
X140194Y-53194D02*
X140500Y-53500D01*
X140500Y-53500D02*
X140500Y-54200D01*
X123124Y-49006D02*
X123122Y-49006D01*
X123280Y-49162D02*
X123124Y-49006D01*
X123596Y-49164D02*
X123438Y-49006D01*
X123753Y-49007D02*
X123753Y-49006D01*
X123910Y-49164D02*
X123753Y-49007D01*
X124771Y-49006D02*
X124381Y-49006D01*
X124995Y-49230D02*
X124771Y-49006D01*
X124995Y-50130D02*
X124995Y-49230D01*
X125960Y-51095D02*
X124995Y-50130D01*
X126725Y-51095D02*
X125960Y-51095D01*
X127360Y-51730D02*
X126725Y-51095D01*
X128565Y-51730D02*
X127360Y-51730D01*
X131505Y-54670D02*
X128565Y-51730D01*
X140420Y-54670D02*
X131505Y-54670D01*
X140500Y-54750D02*
X140420Y-54670D01*
X140500Y-55700D02*
X140500Y-54750D01*
X116245Y-50535D02*
X116785Y-49995D01*
X116785Y-49265D02*
X116920Y-49130D01*
X116785Y-49995D02*
X116785Y-49265D01*
X117044Y-49006D02*
X116920Y-49130D01*
X117454Y-49006D02*
X117044Y-49006D01*
X111205Y-54695D02*
X110295Y-54695D01*
X113870Y-52029D02*
X111205Y-54695D01*
X114750Y-52029D02*
X113870Y-52029D01*
X116245Y-50535D02*
X114750Y-52029D01*
X110295Y-54695D02*
X110355Y-54695D01*
X101500Y-55700D02*
X101500Y-54975D01*
X101780Y-54695D02*
X110295Y-54695D01*
X101500Y-54975D02*
X101780Y-54695D01*
X114375Y-52149D02*
X114800Y-52149D01*
X114800Y-52149D02*
X116930Y-50020D01*
X116930Y-49290D02*
X116962Y-49257D01*
X116930Y-50020D02*
X116930Y-49290D01*
X117610Y-49165D02*
X117769Y-49006D01*
X117055Y-49165D02*
X117610Y-49165D01*
X116962Y-49257D02*
X117055Y-49165D01*
X114800Y-52149D02*
X115670Y-51280D01*
X115670Y-51280D02*
X115700Y-51250D01*
X103500Y-55700D02*
X103500Y-54980D01*
X113920Y-52149D02*
X114375Y-52149D01*
X111255Y-54815D02*
X113920Y-52149D01*
X103665Y-54815D02*
X111255Y-54815D01*
X103500Y-54980D02*
X103665Y-54815D01*
X118713Y-47432D02*
X118713Y-47431D01*
X118555Y-47590D02*
X118713Y-47432D01*
X118713Y-47747D02*
X118714Y-47747D01*
X118555Y-47905D02*
X118713Y-47747D01*
X118398Y-47747D02*
X118399Y-47747D01*
X118240Y-47905D02*
X118398Y-47747D01*
X118083Y-47747D02*
X118085Y-47747D01*
X117925Y-47905D02*
X118083Y-47747D01*
X117616Y-47900D02*
X117769Y-47747D01*
X116962Y-47900D02*
X117616Y-47900D01*
X116047Y-48815D02*
X116962Y-47900D01*
X103690Y-48815D02*
X116047Y-48815D01*
X103500Y-49005D02*
X103690Y-48815D01*
X103500Y-49700D02*
X103500Y-49005D01*
X117454Y-47747D02*
X116945Y-47747D01*
X116945Y-47747D02*
X115997Y-48694D01*
X115997Y-48694D02*
X101850Y-48694D01*
X101850Y-48694D02*
X101500Y-49045D01*
X101500Y-49045D02*
X101500Y-49700D01*
X118398Y-47432D02*
X118398Y-47431D01*
X118240Y-47590D02*
X118398Y-47432D01*
X118083Y-47432D02*
X118083Y-47431D01*
X117925Y-47590D02*
X118083Y-47432D01*
X117040Y-47590D02*
X114810Y-47590D01*
X114810Y-47590D02*
X114732Y-47512D01*
X117609Y-47590D02*
X117768Y-47431D01*
X117040Y-47590D02*
X117609Y-47590D01*
X103500Y-48200D02*
X103500Y-47655D01*
X114545Y-47325D02*
X114732Y-47512D01*
X103830Y-47325D02*
X114545Y-47325D01*
X103500Y-47655D02*
X103830Y-47325D01*
X118398Y-48062D02*
X118398Y-48061D01*
X118240Y-48220D02*
X118398Y-48062D01*
X118080Y-48375D02*
X118083Y-48375D01*
X117925Y-48530D02*
X118080Y-48375D01*
X118395Y-48375D02*
X118398Y-48375D01*
X118240Y-48530D02*
X118395Y-48375D01*
X118710Y-48375D02*
X118713Y-48375D01*
X118555Y-48530D02*
X118710Y-48375D01*
X118713Y-48062D02*
X118713Y-48061D01*
X118555Y-48220D02*
X118713Y-48062D01*
X118083Y-48062D02*
X118083Y-48061D01*
X117925Y-48220D02*
X118083Y-48062D01*
X117609Y-48220D02*
X117768Y-48061D01*
X116981Y-48220D02*
X117609Y-48220D01*
X116185Y-49016D02*
X116981Y-48220D01*
X116185Y-49746D02*
X116185Y-49016D01*
X115617Y-50315D02*
X116185Y-49746D01*
X103565Y-50315D02*
X115617Y-50315D01*
X103500Y-50380D02*
X103565Y-50315D01*
X103500Y-51200D02*
X103500Y-50380D01*
X117453Y-48061D02*
X116971Y-48061D01*
X116971Y-48061D02*
X116065Y-48966D01*
X116065Y-48966D02*
X116065Y-49697D01*
X116065Y-49697D02*
X115567Y-50194D01*
X115567Y-50194D02*
X101790Y-50194D01*
X101790Y-50194D02*
X101500Y-50485D01*
X101500Y-50485D02*
X101500Y-51200D01*
X124800Y-47590D02*
X125885Y-47590D01*
X125885Y-47590D02*
X125967Y-47507D01*
X124227Y-47590D02*
X124068Y-47431D01*
X124800Y-47590D02*
X124227Y-47590D01*
X138500Y-48200D02*
X138500Y-47640D01*
X126140Y-47335D02*
X125967Y-47507D01*
X138195Y-47335D02*
X126140Y-47335D01*
X138500Y-47640D02*
X138195Y-47335D01*
X140500Y-46700D02*
X140500Y-46190D01*
X125848Y-47117D02*
X124381Y-47117D01*
X127255Y-45709D02*
X125848Y-47117D01*
X140019Y-45709D02*
X127255Y-45709D01*
X140500Y-46190D02*
X140019Y-45709D01*
X123280Y-47590D02*
X123122Y-47432D01*
X123439Y-47431D02*
X123438Y-47431D01*
X123596Y-47588D02*
X123439Y-47431D01*
X123910Y-47588D02*
X123753Y-47431D01*
X125873Y-47432D02*
X124381Y-47432D01*
X126090Y-47214D02*
X125873Y-47432D01*
X140174Y-47214D02*
X126090Y-47214D01*
X140500Y-47540D02*
X140174Y-47214D01*
X140500Y-48200D02*
X140500Y-47540D01*
X124381Y-47747D02*
X124869Y-47747D01*
X124869Y-47747D02*
X125837Y-48714D01*
X125837Y-48714D02*
X140224Y-48714D01*
X140224Y-48714D02*
X140500Y-48990D01*
X140500Y-48990D02*
X140500Y-49700D01*
X124226Y-47905D02*
X124068Y-47747D01*
X124857Y-47905D02*
X124226Y-47905D01*
X125787Y-48835D02*
X124857Y-47905D01*
X138205Y-48835D02*
X125787Y-48835D01*
X138500Y-49130D02*
X138205Y-48835D01*
X138500Y-49700D02*
X138500Y-49130D01*
X140500Y-45200D02*
X140500Y-44600D01*
X140500Y-44600D02*
X140119Y-44219D01*
X140119Y-44219D02*
X128406Y-44219D01*
X128406Y-44219D02*
X125824Y-46802D01*
X125824Y-46802D02*
X124381Y-46802D01*
X138500Y-45200D02*
X138500Y-44725D01*
X138500Y-44725D02*
X138115Y-44340D01*
X138115Y-44340D02*
X128456Y-44340D01*
X128456Y-44340D02*
X125836Y-46960D01*
X125836Y-46960D02*
X124226Y-46960D01*
X124226Y-46960D02*
X124068Y-46802D01*
X123753Y-46803D02*
X123753Y-46802D01*
X123910Y-46960D02*
X123753Y-46803D01*
X123596Y-46960D02*
X123438Y-46802D01*
X123124Y-46802D02*
X123122Y-46802D01*
X123280Y-46958D02*
X123124Y-46802D01*
X123910Y-47904D02*
X123753Y-47747D01*
X123123Y-47117D02*
X123122Y-47117D01*
X123280Y-47274D02*
X123123Y-47117D01*
X123596Y-47274D02*
X123438Y-47116D01*
X123754Y-47116D02*
X123753Y-47116D01*
X123910Y-47272D02*
X123754Y-47116D01*
X138500Y-46700D02*
X138500Y-45965D01*
X124227Y-47275D02*
X124068Y-47116D01*
X125860Y-47275D02*
X124227Y-47275D01*
X127305Y-45830D02*
X125860Y-47275D01*
X138365Y-45830D02*
X127305Y-45830D01*
X138500Y-45965D02*
X138365Y-45830D01*
X124381Y-48376D02*
X124819Y-48376D01*
X124819Y-48376D02*
X125475Y-49031D01*
X125475Y-49031D02*
X125475Y-49931D01*
X125475Y-49931D02*
X126158Y-50614D01*
X126158Y-50614D02*
X126923Y-50614D01*
X126923Y-50614D02*
X127558Y-51249D01*
X127558Y-51249D02*
X128763Y-51249D01*
X129213Y-51699D02*
X139355Y-51699D01*
X128763Y-51249D02*
X129213Y-51699D01*
X139355Y-51699D02*
X140184Y-51699D01*
X140184Y-51699D02*
X140500Y-52015D01*
X140500Y-52015D02*
X140500Y-52700D01*
X124228Y-48535D02*
X124068Y-48375D01*
X124809Y-48535D02*
X124228Y-48535D01*
X125355Y-49080D02*
X124809Y-48535D01*
X125355Y-49980D02*
X125355Y-49080D01*
X126109Y-50734D02*
X125355Y-49980D01*
X126874Y-50734D02*
X126109Y-50734D01*
X127509Y-51369D02*
X126874Y-50734D01*
X128714Y-51369D02*
X127509Y-51369D01*
X129164Y-51820D02*
X128714Y-51369D01*
X138165Y-51820D02*
X129164Y-51820D01*
X138500Y-52155D02*
X138165Y-51820D01*
X138500Y-52700D02*
X138500Y-52155D01*
X123910Y-48532D02*
X123753Y-48375D01*
X123439Y-48375D02*
X123438Y-48375D01*
X123596Y-48532D02*
X123439Y-48375D01*
X123124Y-48376D02*
X123122Y-48376D01*
X123280Y-48532D02*
X123124Y-48376D01*
X123125Y-48691D02*
X123122Y-48691D01*
X123282Y-48848D02*
X123125Y-48691D01*
X123596Y-48848D02*
X123438Y-48690D01*
X123753Y-48691D02*
X123753Y-48690D01*
X123910Y-48848D02*
X123753Y-48691D01*
X124068Y-48690D02*
X124228Y-48850D01*
X124784Y-48850D02*
X124228Y-48850D01*
X125115Y-49180D02*
X124784Y-48850D01*
X125115Y-50080D02*
X125115Y-49180D01*
X126009Y-50974D02*
X125115Y-50080D01*
X126774Y-50974D02*
X126009Y-50974D01*
X127409Y-51609D02*
X126774Y-50974D01*
X128614Y-51609D02*
X127409Y-51609D01*
X130319Y-53315D02*
X128614Y-51609D01*
X138265Y-53315D02*
X130319Y-53315D01*
X138500Y-53550D02*
X138265Y-53315D01*
X138500Y-53550D02*
X138500Y-54200D01*
X123439Y-48061D02*
X123438Y-48061D01*
X123596Y-48218D02*
X123439Y-48061D01*
X123439Y-47747D02*
X123438Y-47747D01*
X123596Y-47904D02*
X123439Y-47747D01*
X123122Y-47748D02*
X123122Y-47747D01*
X123280Y-47906D02*
X123122Y-47748D01*
X123123Y-48061D02*
X123122Y-48061D01*
X123280Y-48218D02*
X123123Y-48061D01*
X117070Y-47431D02*
X114820Y-47431D01*
X114820Y-47431D02*
X114727Y-47337D01*
X114594Y-47204D02*
X114727Y-47337D01*
X102005Y-47204D02*
X114594Y-47204D01*
X117070Y-47431D02*
X117453Y-47431D01*
X101500Y-47710D02*
X102005Y-47204D01*
X101500Y-48200D02*
X101500Y-47710D01*
X123910Y-48218D02*
X123753Y-48061D01*
X124227Y-48220D02*
X124068Y-48061D01*
X124833Y-48220D02*
X124227Y-48220D01*
X125595Y-48981D02*
X124833Y-48220D01*
X125595Y-49881D02*
X125595Y-48981D01*
X126063Y-50350D02*
X125595Y-49881D01*
X138200Y-50350D02*
X126063Y-50350D01*
X138500Y-50650D02*
X138200Y-50350D01*
X138500Y-51200D02*
X138500Y-50650D01*
X124381Y-48061D02*
X124844Y-48061D01*
X124844Y-48061D02*
X125715Y-48931D01*
X125715Y-48931D02*
X125715Y-49831D01*
X125715Y-49831D02*
X126113Y-50229D01*
X126113Y-50229D02*
X140204Y-50229D01*
X140204Y-50229D02*
X140500Y-50525D01*
X140500Y-50525D02*
X140500Y-51200D01*
X123438Y-49322D02*
X123438Y-49321D01*
X123280Y-49480D02*
X123438Y-49322D01*
X123750Y-49635D02*
X123753Y-49635D01*
X123595Y-49790D02*
X123750Y-49635D01*
X123751Y-49949D02*
X123753Y-49949D01*
X123595Y-50105D02*
X123751Y-49949D01*
X134500Y-64700D02*
X134730Y-64700D01*
X134730Y-64700D02*
X134950Y-64480D01*
X134950Y-64480D02*
X134950Y-57785D01*
X134950Y-57785D02*
X134619Y-57454D01*
X134619Y-57454D02*
X129897Y-57454D01*
X129897Y-57454D02*
X129385Y-56942D01*
X123595Y-50422D02*
X123753Y-50264D01*
X123595Y-51270D02*
X123595Y-50422D01*
X123667Y-51343D02*
X123595Y-51270D01*
X124150Y-51343D02*
X123667Y-51343D01*
X125447Y-52639D02*
X124150Y-51343D01*
X126381Y-52639D02*
X125447Y-52639D01*
X126626Y-52884D02*
X126381Y-52639D01*
X127847Y-52884D02*
X126626Y-52884D01*
X129385Y-54422D02*
X127847Y-52884D01*
X129385Y-56942D02*
X129385Y-54422D01*
X134800Y-66700D02*
X134500Y-66700D01*
X135070Y-66429D02*
X134800Y-66700D01*
X135070Y-57735D02*
X135070Y-66429D01*
X134669Y-57334D02*
X135070Y-57735D01*
X129947Y-57334D02*
X134669Y-57334D01*
X129505Y-56892D02*
X129947Y-57334D01*
X129505Y-54373D02*
X129505Y-56892D01*
X127896Y-52764D02*
X129505Y-54373D01*
X126676Y-52764D02*
X127896Y-52764D01*
X126431Y-52519D02*
X126676Y-52764D01*
X125497Y-52519D02*
X126431Y-52519D01*
X124200Y-51223D02*
X125497Y-52519D01*
X123795Y-51223D02*
X124200Y-51223D01*
X123753Y-51181D02*
X123795Y-51223D01*
X123753Y-50580D02*
X123753Y-51181D01*
X123435Y-49635D02*
X123438Y-49635D01*
X123280Y-49790D02*
X123435Y-49635D01*
X123436Y-49949D02*
X123438Y-49949D01*
X123280Y-50105D02*
X123436Y-49949D01*
X133000Y-64700D02*
X133165Y-64700D01*
X133165Y-64700D02*
X133415Y-64450D01*
X133415Y-64450D02*
X133415Y-58095D01*
X133415Y-58095D02*
X133014Y-57694D01*
X133014Y-57694D02*
X129798Y-57694D01*
X129798Y-57694D02*
X129145Y-57041D01*
X123280Y-50422D02*
X123438Y-50264D01*
X123280Y-51294D02*
X123280Y-50422D01*
X123568Y-51583D02*
X123280Y-51294D01*
X124051Y-51583D02*
X123568Y-51583D01*
X125347Y-52879D02*
X124051Y-51583D01*
X126282Y-52879D02*
X125347Y-52879D01*
X126527Y-53124D02*
X126282Y-52879D01*
X127747Y-53124D02*
X126527Y-53124D01*
X129145Y-54522D02*
X127747Y-53124D01*
X129145Y-57041D02*
X129145Y-54522D01*
X133535Y-66164D02*
X133000Y-66700D01*
X133535Y-58045D02*
X133535Y-66164D01*
X133064Y-57574D02*
X133535Y-58045D01*
X129847Y-57574D02*
X133064Y-57574D01*
X129265Y-56992D02*
X129847Y-57574D01*
X129265Y-54472D02*
X129265Y-56992D01*
X127797Y-53004D02*
X129265Y-54472D01*
X126576Y-53004D02*
X127797Y-53004D01*
X126331Y-52759D02*
X126576Y-53004D01*
X125397Y-52759D02*
X126331Y-52759D01*
X124100Y-51463D02*
X125397Y-52759D01*
X123618Y-51463D02*
X124100Y-51463D01*
X123438Y-51282D02*
X123618Y-51463D01*
X123438Y-50580D02*
X123438Y-51282D01*
X137915Y-64285D02*
X137500Y-64700D01*
X137915Y-57475D02*
X137915Y-64285D01*
X137414Y-56974D02*
X137915Y-57475D01*
X130096Y-56974D02*
X137414Y-56974D01*
X129865Y-56743D02*
X130096Y-56974D01*
X129865Y-54220D02*
X129865Y-56743D01*
X128049Y-52404D02*
X129865Y-54220D01*
X126825Y-52404D02*
X128049Y-52404D01*
X126580Y-52159D02*
X126825Y-52404D01*
X125646Y-52159D02*
X126580Y-52159D01*
X124225Y-50738D02*
X125646Y-52159D01*
X124225Y-50420D02*
X124225Y-50738D01*
X124381Y-50265D02*
X124380Y-50265D01*
X124380Y-50265D02*
X124225Y-50420D01*
X124380Y-49635D02*
X124381Y-49635D01*
X124225Y-49790D02*
X124380Y-49635D01*
X124068Y-49322D02*
X124068Y-49321D01*
X123910Y-49480D02*
X124068Y-49322D01*
X124065Y-49635D02*
X124068Y-49635D01*
X123910Y-49790D02*
X124065Y-49635D01*
X124066Y-49949D02*
X124068Y-49949D01*
X123910Y-50105D02*
X124066Y-49949D01*
X124380Y-49950D02*
X124381Y-49950D01*
X124225Y-50105D02*
X124380Y-49950D01*
X136425Y-64275D02*
X136000Y-64700D01*
X136425Y-57750D02*
X136425Y-64275D01*
X135889Y-57214D02*
X136425Y-57750D01*
X129997Y-57214D02*
X135889Y-57214D01*
X129625Y-56842D02*
X129997Y-57214D01*
X129625Y-54323D02*
X129625Y-56842D01*
X127946Y-52644D02*
X129625Y-54323D01*
X126725Y-52644D02*
X127946Y-52644D01*
X126480Y-52399D02*
X126725Y-52644D01*
X125546Y-52399D02*
X126480Y-52399D01*
X124249Y-51103D02*
X125546Y-52399D01*
X123940Y-51103D02*
X124249Y-51103D01*
X123910Y-51073D02*
X123940Y-51103D01*
X123910Y-50425D02*
X123910Y-51073D01*
X124068Y-50264D02*
X124068Y-50267D01*
X124068Y-50267D02*
X123910Y-50425D01*
X137500Y-66700D02*
X137680Y-66700D01*
X137680Y-66700D02*
X138035Y-66344D01*
X138035Y-66344D02*
X138035Y-57425D01*
X138035Y-57425D02*
X137464Y-56854D01*
X137464Y-56854D02*
X130146Y-56854D01*
X130146Y-56854D02*
X129985Y-56693D01*
X129985Y-56693D02*
X129985Y-54170D01*
X129985Y-54170D02*
X128099Y-52284D01*
X128099Y-52284D02*
X126875Y-52284D01*
X126875Y-52284D02*
X126630Y-52039D01*
X126630Y-52039D02*
X125695Y-52039D01*
X124381Y-50580D02*
X124715Y-50580D01*
X124780Y-50645D02*
X124780Y-51124D01*
X124715Y-50580D02*
X124780Y-50645D01*
X125695Y-52039D02*
X124780Y-51124D01*
X136000Y-66700D02*
X136320Y-66700D01*
X136320Y-66700D02*
X136545Y-66474D01*
X136545Y-66474D02*
X136545Y-57700D01*
X136545Y-57700D02*
X135939Y-57094D01*
X135939Y-57094D02*
X130046Y-57094D01*
X130046Y-57094D02*
X129745Y-56793D01*
X129745Y-56793D02*
X129745Y-54273D01*
X129745Y-54273D02*
X127996Y-52524D01*
X127996Y-52524D02*
X126775Y-52524D01*
X126775Y-52524D02*
X126530Y-52279D01*
X124068Y-50933D02*
X124068Y-50580D01*
X124118Y-50983D02*
X124068Y-50933D01*
X124299Y-50983D02*
X124118Y-50983D01*
X125596Y-52279D02*
X124299Y-50983D01*
X126530Y-52279D02*
X125596Y-52279D01*
X123753Y-49322D02*
X123753Y-49321D01*
X123595Y-49480D02*
X123753Y-49322D01*
X128419Y-54815D02*
X128419Y-57334D01*
X128419Y-57334D02*
X128920Y-57835D01*
X128920Y-64280D02*
X128500Y-64700D01*
X128920Y-57835D02*
X128920Y-64280D01*
X127449Y-53844D02*
X128419Y-54815D01*
X126228Y-53844D02*
X127449Y-53844D01*
X125983Y-53599D02*
X126228Y-53844D01*
X125049Y-53599D02*
X125983Y-53599D01*
X123752Y-52303D02*
X125049Y-53599D01*
X123270Y-52303D02*
X123752Y-52303D01*
X122494Y-50264D02*
X122494Y-50266D01*
X122335Y-51367D02*
X123270Y-52303D01*
X122335Y-50425D02*
X122335Y-51367D01*
X122494Y-50266D02*
X122335Y-50425D01*
X130405Y-64295D02*
X130000Y-64700D01*
X130405Y-58320D02*
X130405Y-64295D01*
X130260Y-58175D02*
X130405Y-58320D01*
X129599Y-58175D02*
X130260Y-58175D01*
X128665Y-57240D02*
X129599Y-58175D01*
X128665Y-54721D02*
X128665Y-57240D01*
X127548Y-53604D02*
X128665Y-54721D01*
X126328Y-53604D02*
X127548Y-53604D01*
X126083Y-53359D02*
X126328Y-53604D01*
X125149Y-53359D02*
X126083Y-53359D01*
X123852Y-52063D02*
X125149Y-53359D01*
X123369Y-52063D02*
X123852Y-52063D01*
X122650Y-51343D02*
X123369Y-52063D01*
X122650Y-50425D02*
X122650Y-51343D01*
X122809Y-50264D02*
X122809Y-50266D01*
X122809Y-50266D02*
X122650Y-50425D01*
X130525Y-66174D02*
X130000Y-66700D01*
X130525Y-58270D02*
X130525Y-66174D01*
X130309Y-58054D02*
X130525Y-58270D01*
X129649Y-58054D02*
X130309Y-58054D01*
X128785Y-57190D02*
X129649Y-58054D01*
X128785Y-54671D02*
X128785Y-57190D01*
X127598Y-53484D02*
X128785Y-54671D01*
X126377Y-53484D02*
X127598Y-53484D01*
X126132Y-53239D02*
X126377Y-53484D01*
X125198Y-53239D02*
X126132Y-53239D01*
X123901Y-51943D02*
X125198Y-53239D01*
X123419Y-51943D02*
X123901Y-51943D01*
X122809Y-51332D02*
X123419Y-51943D01*
X122809Y-50580D02*
X122809Y-51332D01*
X122335Y-49480D02*
X122494Y-49321D01*
X122494Y-49636D02*
X122494Y-49635D01*
X122340Y-49790D02*
X122494Y-49636D01*
X122491Y-49949D02*
X122494Y-49949D01*
X122335Y-50105D02*
X122491Y-49949D01*
X129040Y-57930D02*
X129040Y-57785D01*
X129040Y-57785D02*
X128539Y-57285D01*
X128500Y-66700D02*
X128810Y-66700D01*
X129040Y-66469D02*
X129040Y-57930D01*
X128810Y-66700D02*
X129040Y-66469D01*
X128539Y-57285D02*
X128539Y-54765D01*
X128539Y-54765D02*
X128540Y-54765D01*
X128540Y-54765D02*
X128540Y-54770D01*
X128540Y-54770D02*
X128540Y-54765D01*
X122494Y-51357D02*
X122494Y-50580D01*
X123319Y-52183D02*
X122494Y-51357D01*
X123802Y-52183D02*
X123319Y-52183D01*
X125099Y-53479D02*
X123802Y-52183D01*
X126033Y-53479D02*
X125099Y-53479D01*
X126278Y-53724D02*
X126033Y-53479D01*
X127499Y-53724D02*
X126278Y-53724D01*
X128540Y-54765D02*
X127499Y-53724D01*
X127000Y-66700D02*
X127190Y-66700D01*
X127190Y-66700D02*
X127545Y-66344D01*
X127545Y-66344D02*
X127545Y-54110D01*
X127545Y-54110D02*
X127399Y-53964D01*
X127399Y-53964D02*
X126179Y-53964D01*
X126179Y-53964D02*
X125934Y-53719D01*
X125934Y-53719D02*
X124999Y-53719D01*
X124999Y-53719D02*
X123703Y-52423D01*
X123703Y-52423D02*
X123220Y-52423D01*
X123220Y-52423D02*
X122179Y-51381D01*
X122179Y-51381D02*
X122179Y-50580D01*
X127010Y-64700D02*
X127000Y-64700D01*
X127425Y-64285D02*
X127010Y-64700D01*
X127425Y-54160D02*
X127425Y-64285D01*
X127350Y-54085D02*
X127425Y-54160D01*
X126129Y-54085D02*
X127350Y-54085D01*
X125884Y-53839D02*
X126129Y-54085D01*
X124944Y-53839D02*
X125884Y-53839D01*
X123648Y-52543D02*
X124944Y-53839D01*
X123170Y-52543D02*
X123648Y-52543D01*
X122020Y-51392D02*
X123170Y-52543D01*
X122020Y-50420D02*
X122020Y-51392D01*
X122179Y-50264D02*
X122176Y-50264D01*
X122176Y-50264D02*
X122020Y-50420D01*
X122176Y-49949D02*
X122179Y-49949D01*
X122020Y-50105D02*
X122176Y-49949D01*
X123122Y-49323D02*
X123122Y-49321D01*
X122965Y-49480D02*
X123122Y-49323D01*
X131500Y-66700D02*
X131685Y-66700D01*
X131685Y-66700D02*
X132085Y-66299D01*
X132085Y-66299D02*
X132085Y-58120D01*
X132085Y-58120D02*
X131779Y-57814D01*
X131779Y-57814D02*
X129748Y-57814D01*
X129748Y-57814D02*
X129025Y-57091D01*
X129025Y-57091D02*
X129025Y-54572D01*
X129025Y-54572D02*
X127697Y-53244D01*
X127697Y-53244D02*
X126477Y-53244D01*
X126477Y-53244D02*
X126232Y-52999D01*
X126232Y-52999D02*
X125298Y-52999D01*
X125298Y-52999D02*
X124001Y-51703D01*
X124001Y-51703D02*
X123518Y-51703D01*
X123122Y-51306D02*
X123122Y-50580D01*
X123518Y-51703D02*
X123122Y-51306D01*
X131965Y-64235D02*
X131500Y-64700D01*
X131965Y-58170D02*
X131965Y-64235D01*
X131729Y-57934D02*
X131965Y-58170D01*
X129698Y-57934D02*
X131729Y-57934D01*
X128905Y-57141D02*
X129698Y-57934D01*
X128905Y-54621D02*
X128905Y-57141D01*
X127648Y-53364D02*
X128905Y-54621D01*
X126427Y-53364D02*
X127648Y-53364D01*
X126182Y-53119D02*
X126427Y-53364D01*
X125248Y-53119D02*
X126182Y-53119D01*
X123951Y-51823D02*
X125248Y-53119D01*
X123468Y-51823D02*
X123951Y-51823D01*
X122965Y-51319D02*
X123468Y-51823D01*
X122965Y-50420D02*
X122965Y-51319D01*
X123122Y-50265D02*
X123120Y-50265D01*
X123120Y-50265D02*
X122965Y-50420D01*
X123120Y-49950D02*
X123122Y-49950D01*
X122965Y-50105D02*
X123120Y-49950D01*
X123120Y-49635D02*
X123122Y-49635D01*
X122965Y-49790D02*
X123120Y-49635D01*
X122650Y-49480D02*
X122809Y-49321D01*
X122805Y-49635D02*
X122809Y-49635D01*
X122650Y-49790D02*
X122805Y-49635D01*
X122806Y-49949D02*
X122809Y-49949D01*
X122650Y-50105D02*
X122806Y-49949D01*
X118240Y-46645D02*
X118399Y-46486D01*
X114180Y-44650D02*
X113845Y-44315D01*
X114180Y-45110D02*
X114180Y-44650D01*
X103500Y-44520D02*
X103500Y-45200D01*
X103705Y-44315D02*
X103500Y-44520D01*
X113845Y-44315D02*
X103705Y-44315D01*
X116029Y-46960D02*
X114180Y-45110D01*
X117030Y-46960D02*
X116029Y-46960D01*
X117768Y-46802D02*
X117610Y-46960D01*
X117610Y-46960D02*
X117030Y-46960D01*
X113894Y-44194D02*
X113530Y-44194D01*
X101500Y-45200D02*
X101500Y-44665D01*
X101970Y-44194D02*
X113530Y-44194D01*
X101500Y-44665D02*
X101970Y-44194D01*
X114300Y-44600D02*
X113894Y-44194D01*
X114300Y-45060D02*
X114300Y-44600D01*
X116041Y-46802D02*
X114300Y-45060D01*
X117040Y-46802D02*
X116041Y-46802D01*
X117040Y-46802D02*
X117453Y-46802D01*
X101500Y-43700D02*
X101500Y-43140D01*
X101500Y-43140D02*
X101945Y-42694D01*
X101945Y-42694D02*
X113564Y-42694D01*
X113564Y-42694D02*
X114275Y-43405D01*
X114275Y-43405D02*
X114275Y-43792D01*
X114275Y-43792D02*
X114540Y-44057D01*
X114540Y-44961D02*
X114540Y-44057D01*
X116064Y-46486D02*
X114540Y-44961D01*
X117080Y-46486D02*
X116064Y-46486D01*
X117080Y-46486D02*
X117454Y-46486D01*
X114355Y-44045D02*
X114355Y-44042D01*
X114420Y-44110D02*
X114355Y-44045D01*
X114420Y-45011D02*
X114420Y-44110D01*
X103500Y-43115D02*
X103500Y-43700D01*
X103800Y-42815D02*
X103500Y-43115D01*
X113515Y-42815D02*
X103800Y-42815D01*
X114155Y-43455D02*
X113515Y-42815D01*
X114155Y-43842D02*
X114155Y-43455D01*
X114355Y-44042D02*
X114155Y-43842D01*
X116053Y-46645D02*
X114420Y-45011D01*
X117040Y-46645D02*
X116053Y-46645D01*
X117769Y-46486D02*
X117610Y-46645D01*
X117610Y-46645D02*
X117040Y-46645D01*
X117925Y-46645D02*
X118084Y-46486D01*
X118555Y-46645D02*
X118713Y-46487D01*
X118555Y-46330D02*
X118713Y-46172D01*
X118240Y-46330D02*
X118398Y-46172D01*
X118083Y-46172D02*
X118084Y-46172D01*
X117925Y-46330D02*
X118083Y-46172D01*
X118713Y-47117D02*
X118713Y-47116D01*
X118555Y-47275D02*
X118713Y-47117D01*
X118398Y-47117D02*
X118398Y-47116D01*
X118240Y-47275D02*
X118398Y-47117D01*
X118083Y-47117D02*
X118083Y-47116D01*
X117925Y-47275D02*
X118083Y-47117D01*
X117020Y-47275D02*
X116005Y-47275D01*
X116005Y-47275D02*
X114550Y-45820D01*
X117768Y-47116D02*
X117768Y-47117D01*
X103500Y-46130D02*
X103500Y-46700D01*
X103810Y-45820D02*
X103500Y-46130D01*
X114550Y-45820D02*
X103810Y-45820D01*
X117610Y-47275D02*
X117020Y-47275D01*
X117768Y-47117D02*
X117610Y-47275D01*
X116985Y-47116D02*
X116015Y-47116D01*
X114599Y-45699D02*
X114480Y-45699D01*
X116015Y-47116D02*
X114599Y-45699D01*
X101500Y-46700D02*
X101500Y-46250D01*
X102050Y-45699D02*
X114480Y-45699D01*
X101500Y-46250D02*
X102050Y-45699D01*
X116985Y-47116D02*
X117453Y-47116D01*
X118555Y-46960D02*
X118713Y-46802D01*
X118240Y-46960D02*
X118398Y-46802D01*
X117925Y-46960D02*
X118083Y-46802D01*
X118240Y-45385D02*
X118398Y-45227D01*
X118082Y-45543D02*
X118084Y-45543D01*
X117925Y-45700D02*
X118082Y-45543D01*
X110129Y-38330D02*
X110178Y-38330D01*
X110660Y-41461D02*
X111258Y-42059D01*
X110660Y-38812D02*
X110660Y-41461D01*
X110178Y-38330D02*
X110660Y-38812D01*
X104370Y-38330D02*
X103500Y-39200D01*
X110129Y-38330D02*
X104370Y-38330D01*
X114058Y-42059D02*
X114119Y-42120D01*
X111258Y-42059D02*
X114058Y-42059D01*
X115140Y-43141D02*
X114119Y-42120D01*
X115140Y-44712D02*
X115140Y-43141D01*
X117769Y-45543D02*
X117769Y-45546D01*
X116127Y-45700D02*
X115140Y-44712D01*
X117615Y-45700D02*
X116127Y-45700D01*
X117769Y-45546D02*
X117615Y-45700D01*
X109900Y-38209D02*
X110227Y-38209D01*
X110227Y-38209D02*
X110780Y-38762D01*
X101500Y-39200D02*
X101500Y-38790D01*
X102080Y-38209D02*
X109900Y-38209D01*
X101500Y-38790D02*
X102080Y-38209D01*
X110780Y-38762D02*
X110780Y-41404D01*
X110780Y-41404D02*
X111315Y-41939D01*
X111315Y-41939D02*
X114108Y-41939D01*
X114108Y-41939D02*
X114178Y-42010D01*
X116139Y-45543D02*
X117454Y-45543D01*
X115260Y-44663D02*
X116139Y-45543D01*
X115260Y-43091D02*
X115260Y-44663D01*
X114178Y-42010D02*
X115260Y-43091D01*
X118556Y-45385D02*
X118714Y-45227D01*
X118083Y-45227D02*
X118084Y-45227D01*
X117925Y-45385D02*
X118083Y-45227D01*
X110115Y-37564D02*
X110115Y-37776D01*
X110115Y-37776D02*
X110900Y-38561D01*
X114158Y-41819D02*
X114254Y-41916D01*
X111365Y-41819D02*
X114158Y-41819D01*
X110900Y-41354D02*
X111365Y-41819D01*
X110900Y-38561D02*
X110900Y-41354D01*
X104155Y-37045D02*
X103500Y-37700D01*
X110010Y-37045D02*
X104155Y-37045D01*
X110115Y-37150D02*
X110010Y-37045D01*
X110115Y-37564D02*
X110115Y-37150D01*
X117769Y-45227D02*
X117768Y-45227D01*
X115380Y-43041D02*
X114254Y-41916D01*
X115380Y-44613D02*
X115380Y-43041D01*
X116151Y-45385D02*
X115380Y-44613D01*
X117610Y-45385D02*
X116151Y-45385D01*
X117768Y-45227D02*
X117610Y-45385D01*
X110235Y-37558D02*
X110235Y-37727D01*
X101500Y-37700D02*
X101500Y-37280D01*
X110235Y-37100D02*
X110235Y-37558D01*
X110059Y-36924D02*
X110235Y-37100D01*
X101855Y-36924D02*
X110059Y-36924D01*
X101500Y-37280D02*
X101855Y-36924D01*
X110235Y-37727D02*
X111020Y-38512D01*
X111020Y-38512D02*
X111020Y-41304D01*
X111020Y-41304D02*
X111415Y-41699D01*
X111415Y-41699D02*
X114207Y-41699D01*
X114207Y-41699D02*
X114315Y-41808D01*
X116163Y-45227D02*
X117454Y-45227D01*
X115500Y-44563D02*
X116163Y-45227D01*
X115500Y-42992D02*
X115500Y-44563D01*
X114315Y-41808D02*
X115500Y-42992D01*
X124374Y-49321D02*
X124381Y-49321D01*
X124220Y-49475D02*
X124374Y-49321D01*
X118083Y-45857D02*
X118084Y-45857D01*
X117925Y-46015D02*
X118083Y-45857D01*
X109820Y-41320D02*
X109840Y-41320D01*
X111060Y-42540D02*
X113860Y-42540D01*
X109840Y-41320D02*
X111060Y-42540D01*
X114660Y-43340D02*
X113860Y-42540D01*
X114660Y-44911D02*
X114660Y-43340D01*
X103500Y-41680D02*
X103500Y-42200D01*
X103860Y-41320D02*
X103500Y-41680D01*
X109820Y-41320D02*
X103860Y-41320D01*
X117769Y-46172D02*
X117768Y-46172D01*
X116078Y-46330D02*
X114660Y-44911D01*
X117610Y-46330D02*
X116078Y-46330D01*
X117768Y-46172D02*
X117610Y-46330D01*
X109610Y-41199D02*
X109889Y-41199D01*
X109889Y-41199D02*
X111109Y-42419D01*
X101500Y-42200D02*
X101500Y-41750D01*
X102050Y-41199D02*
X109610Y-41199D01*
X101500Y-41750D02*
X102050Y-41199D01*
X113909Y-42419D02*
X114004Y-42515D01*
X111109Y-42419D02*
X113909Y-42419D01*
X114004Y-42515D02*
X114780Y-43290D01*
X116089Y-46172D02*
X117454Y-46172D01*
X114780Y-44862D02*
X116089Y-46172D01*
X114780Y-43290D02*
X114780Y-44862D01*
X118555Y-46015D02*
X118713Y-45857D01*
X118240Y-46015D02*
X118398Y-45857D01*
X109720Y-39830D02*
X109930Y-39830D01*
X110420Y-41560D02*
X111159Y-42299D01*
X110420Y-40320D02*
X110420Y-41560D01*
X109930Y-39830D02*
X110420Y-40320D01*
X103500Y-40105D02*
X103500Y-40700D01*
X103775Y-39830D02*
X103500Y-40105D01*
X109720Y-39830D02*
X103775Y-39830D01*
X113959Y-42299D02*
X114037Y-42377D01*
X111159Y-42299D02*
X113959Y-42299D01*
X114900Y-43240D02*
X114037Y-42377D01*
X114900Y-44812D02*
X114900Y-43240D01*
X117769Y-45857D02*
X117768Y-45857D01*
X116102Y-46015D02*
X114900Y-44812D01*
X117610Y-46015D02*
X116102Y-46015D01*
X117768Y-45857D02*
X117610Y-46015D01*
X109775Y-39709D02*
X109979Y-39709D01*
X109979Y-39709D02*
X110540Y-40270D01*
X101500Y-40700D02*
X101500Y-40175D01*
X101965Y-39709D02*
X109775Y-39709D01*
X101500Y-40175D02*
X101965Y-39709D01*
X110540Y-40270D02*
X110540Y-41510D01*
X110540Y-41510D02*
X111209Y-42179D01*
X111209Y-42179D02*
X114009Y-42179D01*
X114009Y-42179D02*
X114092Y-42262D01*
X116114Y-45857D02*
X117454Y-45857D01*
X115020Y-44762D02*
X116114Y-45857D01*
X115020Y-43190D02*
X115020Y-44762D01*
X114092Y-42262D02*
X115020Y-43190D01*
X118712Y-45543D02*
X118713Y-45543D01*
X118555Y-45700D02*
X118712Y-45543D01*
X118397Y-45543D02*
X118398Y-45543D01*
X118240Y-45700D02*
X118397Y-45543D01*
X119658Y-47747D02*
X119659Y-47747D01*
X119500Y-47905D02*
X119658Y-47747D01*
X122180Y-46802D02*
X122179Y-46802D01*
X122336Y-46958D02*
X122180Y-46802D01*
X121863Y-46487D02*
X121863Y-46486D01*
X122020Y-46644D02*
X121863Y-46487D01*
X122178Y-46488D02*
X122178Y-46486D01*
X122334Y-46644D02*
X122178Y-46488D01*
X119815Y-47905D02*
X119973Y-47747D01*
X119973Y-47747D02*
X119974Y-47747D01*
X119815Y-47590D02*
X119974Y-47431D01*
X119500Y-47590D02*
X119659Y-47431D01*
X119815Y-47275D02*
X119974Y-47116D01*
X119500Y-47275D02*
X119659Y-47116D01*
X118085Y-44911D02*
X118084Y-44911D01*
X118242Y-44754D02*
X118085Y-44911D01*
X122181Y-47747D02*
X122179Y-47747D01*
X122338Y-47904D02*
X122181Y-47747D01*
X121865Y-47747D02*
X121864Y-47747D01*
X122022Y-47904D02*
X121865Y-47747D01*
X122179Y-47433D02*
X122179Y-47431D01*
X122336Y-47590D02*
X122179Y-47433D01*
X121865Y-47431D02*
X121864Y-47431D01*
X122022Y-47588D02*
X121865Y-47431D01*
X122022Y-47274D02*
X121864Y-47116D01*
X122180Y-47116D02*
X122179Y-47116D01*
X122338Y-47274D02*
X122180Y-47116D01*
X122022Y-46960D02*
X121864Y-46802D01*
X120760Y-48220D02*
X120919Y-48061D01*
X121547Y-48063D02*
X121547Y-48061D01*
X121390Y-48220D02*
X121547Y-48063D01*
X121547Y-48378D02*
X121547Y-48376D01*
X121390Y-48535D02*
X121547Y-48378D01*
X121234Y-48376D02*
X121234Y-48375D01*
X121075Y-48535D02*
X121234Y-48376D01*
X121229Y-48061D02*
X121234Y-48061D01*
X121075Y-48215D02*
X121229Y-48061D01*
X121864Y-48376D02*
X121864Y-48375D01*
X121705Y-48535D02*
X121864Y-48376D01*
X120919Y-48376D02*
X120919Y-48375D01*
X120760Y-48535D02*
X120919Y-48376D01*
X120445Y-48220D02*
X120604Y-48061D01*
X120600Y-48375D02*
X120604Y-48375D01*
X120445Y-48530D02*
X120600Y-48375D01*
X119973Y-46802D02*
X119974Y-46802D01*
X119815Y-46960D02*
X119973Y-46802D01*
X119658Y-46802D02*
X119659Y-46802D01*
X119500Y-46960D02*
X119658Y-46802D01*
X119974Y-46486D02*
X120289Y-46486D01*
X119972Y-46488D02*
X119972Y-46487D01*
X119815Y-46645D02*
X119972Y-46488D01*
X119657Y-46488D02*
X119657Y-46487D01*
X119500Y-46645D02*
X119657Y-46488D01*
X122020Y-48220D02*
X122179Y-48061D01*
X122179Y-48376D02*
X122179Y-48375D01*
X122020Y-48535D02*
X122179Y-48376D01*
X121859Y-48061D02*
X121864Y-48061D01*
X121705Y-48215D02*
X121859Y-48061D01*
X121700Y-71800D02*
X121700Y-72120D01*
X122140Y-83649D02*
X122140Y-85367D01*
X121570Y-83080D02*
X122140Y-83649D01*
X121210Y-83080D02*
X121570Y-83080D01*
X120919Y-82789D02*
X121210Y-83080D01*
X120919Y-72900D02*
X120919Y-82789D01*
X121700Y-72120D02*
X120919Y-72900D01*
X124100Y-77800D02*
X124100Y-78130D01*
X124975Y-83834D02*
X124975Y-85367D01*
X123980Y-82840D02*
X124975Y-83834D01*
X123720Y-82840D02*
X123980Y-82840D01*
X123559Y-82679D02*
X123720Y-82840D01*
X123559Y-78670D02*
X123559Y-82679D01*
X124100Y-78130D02*
X123559Y-78670D01*
X124100Y-74800D02*
X124100Y-75230D01*
X124739Y-83768D02*
X124739Y-85367D01*
X123930Y-82960D02*
X124739Y-83768D01*
X123670Y-82960D02*
X123930Y-82960D01*
X123439Y-82729D02*
X123670Y-82960D01*
X123439Y-75890D02*
X123439Y-82729D01*
X124100Y-75230D02*
X123439Y-75890D01*
X124100Y-71800D02*
X124100Y-72300D01*
X124503Y-83702D02*
X124503Y-85367D01*
X123880Y-83080D02*
X124503Y-83702D01*
X123620Y-83080D02*
X123880Y-83080D01*
X123319Y-82779D02*
X123620Y-83080D01*
X123319Y-73080D02*
X123319Y-82779D01*
X124100Y-72300D02*
X123319Y-73080D01*
X124266Y-83876D02*
X124266Y-85367D01*
X124210Y-83820D02*
X124266Y-83876D01*
X122900Y-80800D02*
X122900Y-81020D01*
X124030Y-83830D02*
X124030Y-85367D01*
X122900Y-82700D02*
X124030Y-83830D01*
X122540Y-82700D02*
X122900Y-82700D01*
X122480Y-82640D02*
X122540Y-82700D01*
X122480Y-81440D02*
X122480Y-82640D01*
X122900Y-81020D02*
X122480Y-81440D01*
X122900Y-77800D02*
X122900Y-78280D01*
X123794Y-83763D02*
X123794Y-85367D01*
X122850Y-82820D02*
X123794Y-83763D01*
X122490Y-82820D02*
X122850Y-82820D01*
X122359Y-82689D02*
X122490Y-82820D01*
X122359Y-78820D02*
X122359Y-82689D01*
X122900Y-78280D02*
X122359Y-78820D01*
X122900Y-74800D02*
X122900Y-74990D01*
X123558Y-83697D02*
X123558Y-85367D01*
X122800Y-82940D02*
X123558Y-83697D01*
X122440Y-82940D02*
X122800Y-82940D01*
X122239Y-82739D02*
X122440Y-82940D01*
X122239Y-75650D02*
X122239Y-82739D01*
X122900Y-74990D02*
X122239Y-75650D01*
X122900Y-71800D02*
X122900Y-71970D01*
X123322Y-83631D02*
X123322Y-85367D01*
X122750Y-83060D02*
X123322Y-83631D01*
X122390Y-83060D02*
X122750Y-83060D01*
X122119Y-82789D02*
X122390Y-83060D01*
X122119Y-72750D02*
X122119Y-82789D01*
X122900Y-71970D02*
X122119Y-72750D01*
X123085Y-83805D02*
X123085Y-85367D01*
X122500Y-83220D02*
X123085Y-83805D01*
X121700Y-80800D02*
X121700Y-80810D01*
X122849Y-83849D02*
X122849Y-85367D01*
X121720Y-82720D02*
X122849Y-83849D01*
X121360Y-82720D02*
X121720Y-82720D01*
X121280Y-82640D02*
X121360Y-82720D01*
X121280Y-81230D02*
X121280Y-82640D01*
X121700Y-80810D02*
X121280Y-81230D01*
X121700Y-77800D02*
X121700Y-78190D01*
X122613Y-83782D02*
X122613Y-85367D01*
X121670Y-82840D02*
X122613Y-83782D01*
X121310Y-82840D02*
X121670Y-82840D01*
X121159Y-82689D02*
X121310Y-82840D01*
X121159Y-78730D02*
X121159Y-82689D01*
X121700Y-78190D02*
X121159Y-78730D01*
X121700Y-74800D02*
X121700Y-74990D01*
X122377Y-83716D02*
X122377Y-85367D01*
X121620Y-82960D02*
X122377Y-83716D01*
X121260Y-82960D02*
X121620Y-82960D01*
X121039Y-82739D02*
X121260Y-82960D01*
X121039Y-75650D02*
X121039Y-82739D01*
X121700Y-74990D02*
X121039Y-75650D01*
X124100Y-80800D02*
X124100Y-80860D01*
X125211Y-83901D02*
X125211Y-85367D01*
X124030Y-82720D02*
X125211Y-83901D01*
X123770Y-82720D02*
X124030Y-82720D01*
X123680Y-82630D02*
X123770Y-82720D01*
X123680Y-81280D02*
X123680Y-82630D01*
X124100Y-80860D02*
X123680Y-81280D01*
X121904Y-83814D02*
X121904Y-85367D01*
X121340Y-83250D02*
X121904Y-83814D01*
X120500Y-80800D02*
X120500Y-81110D01*
X121668Y-84008D02*
X121668Y-85367D01*
X120440Y-82780D02*
X121668Y-84008D01*
X120230Y-82780D02*
X120440Y-82780D01*
X120080Y-82630D02*
X120230Y-82780D01*
X120080Y-81530D02*
X120080Y-82630D01*
X120500Y-81110D02*
X120080Y-81530D01*
X120500Y-77800D02*
X120500Y-78210D01*
X121432Y-83941D02*
X121432Y-85367D01*
X120390Y-82900D02*
X121432Y-83941D01*
X120180Y-82900D02*
X120390Y-82900D01*
X119959Y-82679D02*
X120180Y-82900D01*
X119959Y-78750D02*
X119959Y-82679D01*
X120500Y-78210D02*
X119959Y-78750D01*
X120500Y-74800D02*
X120500Y-75080D01*
X121196Y-83875D02*
X121196Y-85367D01*
X120340Y-83020D02*
X121196Y-83875D01*
X120130Y-83020D02*
X120340Y-83020D01*
X119839Y-82729D02*
X120130Y-83020D01*
X119839Y-75740D02*
X119839Y-82729D01*
X120500Y-75080D02*
X119839Y-75740D01*
X120500Y-71800D02*
X120500Y-72150D01*
X120960Y-83809D02*
X120960Y-85367D01*
X120290Y-83140D02*
X120960Y-83809D01*
X120080Y-83140D02*
X120290Y-83140D01*
X119719Y-82779D02*
X120080Y-83140D01*
X119719Y-72930D02*
X119719Y-82779D01*
X120500Y-72150D02*
X119719Y-72930D01*
X120724Y-83984D02*
X120724Y-85367D01*
X120670Y-83930D02*
X120724Y-83984D01*
X119300Y-80800D02*
X119300Y-81160D01*
X120488Y-83918D02*
X120488Y-85367D01*
X119370Y-82800D02*
X120488Y-83918D01*
X118980Y-82800D02*
X119370Y-82800D01*
X118880Y-82700D02*
X118980Y-82800D01*
X118880Y-81580D02*
X118880Y-82700D01*
X119300Y-81160D02*
X118880Y-81580D01*
X119300Y-77800D02*
X119300Y-78060D01*
X120252Y-83851D02*
X120252Y-85367D01*
X119320Y-82920D02*
X120252Y-83851D01*
X118930Y-82920D02*
X119320Y-82920D01*
X118759Y-82749D02*
X118930Y-82920D01*
X118759Y-78600D02*
X118759Y-82749D01*
X119300Y-78060D02*
X118759Y-78600D01*
X119300Y-74800D02*
X119300Y-75230D01*
X120015Y-83784D02*
X120015Y-85367D01*
X119270Y-83040D02*
X120015Y-83784D01*
X118880Y-83040D02*
X119270Y-83040D01*
X118639Y-82799D02*
X118880Y-83040D01*
X118639Y-75890D02*
X118639Y-82799D01*
X119300Y-75230D02*
X118639Y-75890D01*
X119300Y-71800D02*
X119300Y-72060D01*
X119779Y-83718D02*
X119779Y-85367D01*
X119220Y-83160D02*
X119779Y-83718D01*
X118830Y-83160D02*
X119220Y-83160D01*
X118519Y-82849D02*
X118830Y-83160D01*
X118519Y-72840D02*
X118519Y-82849D01*
X119300Y-72060D02*
X118519Y-72840D01*
X119543Y-83903D02*
X119543Y-85367D01*
X119490Y-83850D02*
X119543Y-83903D01*
X127700Y-71800D02*
X127700Y-72240D01*
X128046Y-83655D02*
X128046Y-85367D01*
X127480Y-83090D02*
X128046Y-83655D01*
X127180Y-83090D02*
X127480Y-83090D01*
X126919Y-82829D02*
X127180Y-83090D01*
X126919Y-73020D02*
X126919Y-82829D01*
X127700Y-72240D02*
X126919Y-73020D01*
X130100Y-77800D02*
X130100Y-78230D01*
X130881Y-83680D02*
X130881Y-85367D01*
X130040Y-82840D02*
X130881Y-83680D01*
X129670Y-82840D02*
X130040Y-82840D01*
X129559Y-82729D02*
X129670Y-82840D01*
X129559Y-78770D02*
X129559Y-82729D01*
X130100Y-78230D02*
X129559Y-78770D01*
X130100Y-74800D02*
X130100Y-75240D01*
X130644Y-83613D02*
X130644Y-85367D01*
X129990Y-82960D02*
X130644Y-83613D01*
X129620Y-82960D02*
X129990Y-82960D01*
X129439Y-82779D02*
X129620Y-82960D01*
X129439Y-75900D02*
X129439Y-82779D01*
X130100Y-75240D02*
X129439Y-75900D01*
X130100Y-71800D02*
X130100Y-72140D01*
X130408Y-83547D02*
X130408Y-85367D01*
X129940Y-83080D02*
X130408Y-83547D01*
X129570Y-83080D02*
X129940Y-83080D01*
X129319Y-82829D02*
X129570Y-83080D01*
X129319Y-72920D02*
X129319Y-82829D01*
X130100Y-72140D02*
X129319Y-72920D01*
X130172Y-83742D02*
X130172Y-85367D01*
X129720Y-83290D02*
X130172Y-83742D01*
X128900Y-80800D02*
X128900Y-81050D01*
X129936Y-83826D02*
X129936Y-85367D01*
X128830Y-82720D02*
X129936Y-83826D01*
X128520Y-82720D02*
X128830Y-82720D01*
X128480Y-82680D02*
X128520Y-82720D01*
X128480Y-81470D02*
X128480Y-82680D01*
X128900Y-81050D02*
X128480Y-81470D01*
X128900Y-77800D02*
X128900Y-78290D01*
X129699Y-83758D02*
X129699Y-85367D01*
X128780Y-82840D02*
X129699Y-83758D01*
X128470Y-82840D02*
X128780Y-82840D01*
X128359Y-82729D02*
X128470Y-82840D01*
X128359Y-78830D02*
X128359Y-82729D01*
X128900Y-78290D02*
X128359Y-78830D01*
X128900Y-74800D02*
X128900Y-75390D01*
X129463Y-83692D02*
X129463Y-85367D01*
X128730Y-82960D02*
X129463Y-83692D01*
X128420Y-82960D02*
X128730Y-82960D01*
X128239Y-82779D02*
X128420Y-82960D01*
X128239Y-76050D02*
X128239Y-82779D01*
X128900Y-75390D02*
X128239Y-76050D01*
X128900Y-71800D02*
X128900Y-72370D01*
X129227Y-83626D02*
X129227Y-85367D01*
X128680Y-83080D02*
X129227Y-83626D01*
X128370Y-83080D02*
X128680Y-83080D01*
X128119Y-82829D02*
X128370Y-83080D01*
X128119Y-73150D02*
X128119Y-82829D01*
X128900Y-72370D02*
X128119Y-73150D01*
X128991Y-83791D02*
X128991Y-85367D01*
X128460Y-83260D02*
X128991Y-83791D01*
X127700Y-80800D02*
X127700Y-81140D01*
X128755Y-83795D02*
X128755Y-85367D01*
X127690Y-82730D02*
X128755Y-83795D01*
X127330Y-82730D02*
X127690Y-82730D01*
X127280Y-82680D02*
X127330Y-82730D01*
X127280Y-81560D02*
X127280Y-82680D01*
X127700Y-81140D02*
X127280Y-81560D01*
X127700Y-77800D02*
X127700Y-78310D01*
X128518Y-83727D02*
X128518Y-85367D01*
X127640Y-82850D02*
X128518Y-83727D01*
X127280Y-82850D02*
X127640Y-82850D01*
X127159Y-82729D02*
X127280Y-82850D01*
X127159Y-78850D02*
X127159Y-82729D01*
X127700Y-78310D02*
X127159Y-78850D01*
X127700Y-74800D02*
X127700Y-75170D01*
X128282Y-83722D02*
X128282Y-85367D01*
X127530Y-82970D02*
X128282Y-83722D01*
X127230Y-82970D02*
X127530Y-82970D01*
X127039Y-82779D02*
X127230Y-82970D01*
X127039Y-75830D02*
X127039Y-82779D01*
X127700Y-75170D02*
X127039Y-75830D01*
X118100Y-80800D02*
X118100Y-81330D01*
X119307Y-83807D02*
X119307Y-85367D01*
X118380Y-82880D02*
X119307Y-83807D01*
X117810Y-82880D02*
X118380Y-82880D01*
X117680Y-82750D02*
X117810Y-82880D01*
X117680Y-81750D02*
X117680Y-82750D01*
X118100Y-81330D02*
X117680Y-81750D01*
X127810Y-83770D02*
X127810Y-85367D01*
X127320Y-83280D02*
X127810Y-83770D01*
X126500Y-80800D02*
X126500Y-81210D01*
X127574Y-83824D02*
X127574Y-85367D01*
X126470Y-82720D02*
X127574Y-83824D01*
X126130Y-82720D02*
X126470Y-82720D01*
X126080Y-82670D02*
X126130Y-82720D01*
X126080Y-81630D02*
X126080Y-82670D01*
X126500Y-81210D02*
X126080Y-81630D01*
X126500Y-77800D02*
X126500Y-78260D01*
X127337Y-83756D02*
X127337Y-85367D01*
X126420Y-82840D02*
X127337Y-83756D01*
X126080Y-82840D02*
X126420Y-82840D01*
X125959Y-82719D02*
X126080Y-82840D01*
X125959Y-78800D02*
X125959Y-82719D01*
X126500Y-78260D02*
X125959Y-78800D01*
X126500Y-74800D02*
X126500Y-75300D01*
X127101Y-83690D02*
X127101Y-85367D01*
X126370Y-82960D02*
X127101Y-83690D01*
X126030Y-82960D02*
X126370Y-82960D01*
X125839Y-82769D02*
X126030Y-82960D01*
X125839Y-75960D02*
X125839Y-82769D01*
X126500Y-75300D02*
X125839Y-75960D01*
X126500Y-71800D02*
X126500Y-72450D01*
X126865Y-83624D02*
X126865Y-85367D01*
X126320Y-83080D02*
X126865Y-83624D01*
X125980Y-83080D02*
X126320Y-83080D01*
X125719Y-82819D02*
X125980Y-83080D01*
X125719Y-73230D02*
X125719Y-82819D01*
X126500Y-72450D02*
X125719Y-73230D01*
X126629Y-83789D02*
X126629Y-85367D01*
X126090Y-83250D02*
X126629Y-83789D01*
X125300Y-80800D02*
X125300Y-81200D01*
X126392Y-83862D02*
X126392Y-85367D01*
X125290Y-82760D02*
X126392Y-83862D01*
X125010Y-82760D02*
X125290Y-82760D01*
X124880Y-82630D02*
X125010Y-82760D01*
X124880Y-81620D02*
X124880Y-82630D01*
X125300Y-81200D02*
X124880Y-81620D01*
X125300Y-77800D02*
X125300Y-78310D01*
X126156Y-83795D02*
X126156Y-85367D01*
X125240Y-82880D02*
X126156Y-83795D01*
X124960Y-82880D02*
X125240Y-82880D01*
X124759Y-82679D02*
X124960Y-82880D01*
X124759Y-78850D02*
X124759Y-82679D01*
X125300Y-78310D02*
X124759Y-78850D01*
X125300Y-74800D02*
X125300Y-75320D01*
X125920Y-83729D02*
X125920Y-85367D01*
X125190Y-83000D02*
X125920Y-83729D01*
X124910Y-83000D02*
X125190Y-83000D01*
X124639Y-82729D02*
X124910Y-83000D01*
X124639Y-75980D02*
X124639Y-82729D01*
X125300Y-75320D02*
X124639Y-75980D01*
X125300Y-71800D02*
X125300Y-72310D01*
X125684Y-83663D02*
X125684Y-85367D01*
X125140Y-83120D02*
X125684Y-83663D01*
X124860Y-83120D02*
X125140Y-83120D01*
X124519Y-82779D02*
X124860Y-83120D01*
X124519Y-73090D02*
X124519Y-82779D01*
X125300Y-72310D02*
X124519Y-73090D01*
X125448Y-83838D02*
X125448Y-85367D01*
X124910Y-83300D02*
X125448Y-83838D01*
X108919Y-78750D02*
X108919Y-78640D01*
X109159Y-72790D02*
X109270Y-72680D01*
X109159Y-78400D02*
X109159Y-72790D01*
X108919Y-78640D02*
X109159Y-78400D01*
X109700Y-71800D02*
X109700Y-72250D01*
X109700Y-72250D02*
X109270Y-72680D01*
X108913Y-84127D02*
X108913Y-85367D01*
X108919Y-84120D02*
X108913Y-84127D01*
X108919Y-78750D02*
X108919Y-84120D01*
X112100Y-77800D02*
X112100Y-78270D01*
X111748Y-83667D02*
X111748Y-85367D01*
X111559Y-83479D02*
X111748Y-83667D01*
X111559Y-78810D02*
X111559Y-83479D01*
X112100Y-78270D02*
X111559Y-78810D01*
X112100Y-74800D02*
X112100Y-75260D01*
X111512Y-83601D02*
X111512Y-85367D01*
X111439Y-83529D02*
X111512Y-83601D01*
X111439Y-75920D02*
X111439Y-83529D01*
X112100Y-75260D02*
X111439Y-75920D01*
X112100Y-71800D02*
X112100Y-71970D01*
X111275Y-84355D02*
X111275Y-85367D01*
X111319Y-84310D02*
X111275Y-84355D01*
X111319Y-72750D02*
X111319Y-84310D01*
X112100Y-71970D02*
X111319Y-72750D01*
X111039Y-84061D02*
X111039Y-85367D01*
X111130Y-83970D02*
X111039Y-84061D01*
X110900Y-80800D02*
X110900Y-81280D01*
X110803Y-83763D02*
X110803Y-85367D01*
X110480Y-83440D02*
X110803Y-83763D01*
X110480Y-81700D02*
X110480Y-83440D01*
X110900Y-81280D02*
X110480Y-81700D01*
X110900Y-77800D02*
X110900Y-78360D01*
X110567Y-83696D02*
X110567Y-85367D01*
X110359Y-83489D02*
X110567Y-83696D01*
X110359Y-78900D02*
X110359Y-83489D01*
X110900Y-78360D02*
X110359Y-78900D01*
X110900Y-74800D02*
X110900Y-74950D01*
X110330Y-83670D02*
X110330Y-85367D01*
X110239Y-83579D02*
X110330Y-83670D01*
X110239Y-75610D02*
X110239Y-83579D01*
X110900Y-74950D02*
X110239Y-75610D01*
X110900Y-71800D02*
X110900Y-72140D01*
X110094Y-83946D02*
X110094Y-85367D01*
X110119Y-83920D02*
X110094Y-83946D01*
X110119Y-72920D02*
X110119Y-83920D01*
X110900Y-72140D02*
X110119Y-72920D01*
X109858Y-83582D02*
X109858Y-85367D01*
X109950Y-83490D02*
X109858Y-83582D01*
X109700Y-80800D02*
X109700Y-81460D01*
X109622Y-84032D02*
X109622Y-85367D01*
X109280Y-83690D02*
X109622Y-84032D01*
X109280Y-81880D02*
X109280Y-83690D01*
X109700Y-81460D02*
X109280Y-81880D01*
X109386Y-85367D02*
X109386Y-83965D01*
X109700Y-78350D02*
X109700Y-77800D01*
X109159Y-78890D02*
X109700Y-78350D01*
X109159Y-83739D02*
X109159Y-78890D01*
X109386Y-83965D02*
X109159Y-83739D01*
X109039Y-78770D02*
X109039Y-78690D01*
X109280Y-75580D02*
X109390Y-75470D01*
X109280Y-78450D02*
X109280Y-75580D01*
X109039Y-78690D02*
X109280Y-78450D01*
X109700Y-74800D02*
X109700Y-75160D01*
X109700Y-75160D02*
X109390Y-75470D01*
X109149Y-83929D02*
X109149Y-85367D01*
X109039Y-83819D02*
X109149Y-83929D01*
X109039Y-78770D02*
X109039Y-83819D01*
X112100Y-80800D02*
X112100Y-81370D01*
X111984Y-83734D02*
X111984Y-85367D01*
X111680Y-83430D02*
X111984Y-83734D01*
X111680Y-81790D02*
X111680Y-83430D01*
X112100Y-81370D02*
X111680Y-81790D01*
X108678Y-83878D02*
X108678Y-85367D01*
X108600Y-83800D02*
X108678Y-83878D01*
X115700Y-71800D02*
X115700Y-72250D01*
X116236Y-83825D02*
X116236Y-85367D01*
X115700Y-83290D02*
X116236Y-83825D01*
X115400Y-83290D02*
X115700Y-83290D01*
X114919Y-82809D02*
X115400Y-83290D01*
X114919Y-73030D02*
X114919Y-82809D01*
X115700Y-72250D02*
X114919Y-73030D01*
X118100Y-77800D02*
X118100Y-78340D01*
X119071Y-83740D02*
X119071Y-85367D01*
X118330Y-83000D02*
X119071Y-83740D01*
X117760Y-83000D02*
X118330Y-83000D01*
X117559Y-82799D02*
X117760Y-83000D01*
X117559Y-78880D02*
X117559Y-82799D01*
X118100Y-78340D02*
X117559Y-78880D01*
X118100Y-74800D02*
X118100Y-75340D01*
X118834Y-83673D02*
X118834Y-85367D01*
X118280Y-83120D02*
X118834Y-83673D01*
X117710Y-83120D02*
X118280Y-83120D01*
X117439Y-82849D02*
X117710Y-83120D01*
X117439Y-76000D02*
X117439Y-82849D01*
X118100Y-75340D02*
X117439Y-76000D01*
X118100Y-71800D02*
X118100Y-72370D01*
X118598Y-83607D02*
X118598Y-85367D01*
X118230Y-83240D02*
X118598Y-83607D01*
X117660Y-83240D02*
X118230Y-83240D01*
X117319Y-82899D02*
X117660Y-83240D01*
X117319Y-73150D02*
X117319Y-82899D01*
X118100Y-72370D02*
X117319Y-73150D01*
X118362Y-83792D02*
X118362Y-85367D01*
X117980Y-83410D02*
X118362Y-83792D01*
X116900Y-80800D02*
X116900Y-81320D01*
X118126Y-83976D02*
X118126Y-85367D01*
X116930Y-82780D02*
X118126Y-83976D01*
X116580Y-82780D02*
X116930Y-82780D01*
X116480Y-82680D02*
X116580Y-82780D01*
X116480Y-81740D02*
X116480Y-82680D01*
X116900Y-81320D02*
X116480Y-81740D01*
X116900Y-77800D02*
X116900Y-78390D01*
X117889Y-83908D02*
X117889Y-85367D01*
X116880Y-82900D02*
X117889Y-83908D01*
X116530Y-82900D02*
X116880Y-82900D01*
X116359Y-82729D02*
X116530Y-82900D01*
X116359Y-78930D02*
X116359Y-82729D01*
X116900Y-78390D02*
X116359Y-78930D01*
X116900Y-74800D02*
X116900Y-75210D01*
X117653Y-83842D02*
X117653Y-85367D01*
X116830Y-83020D02*
X117653Y-83842D01*
X116480Y-83020D02*
X116830Y-83020D01*
X116239Y-82779D02*
X116480Y-83020D01*
X116239Y-75870D02*
X116239Y-82779D01*
X116900Y-75210D02*
X116239Y-75870D01*
X116900Y-71800D02*
X116900Y-72140D01*
X117417Y-83776D02*
X117417Y-85367D01*
X116780Y-83140D02*
X117417Y-83776D01*
X116430Y-83140D02*
X116780Y-83140D01*
X116119Y-82829D02*
X116430Y-83140D01*
X116119Y-72920D02*
X116119Y-82829D01*
X116900Y-72140D02*
X116119Y-72920D01*
X117181Y-84110D02*
X117181Y-83951D01*
X117181Y-83951D02*
X117050Y-83820D01*
X116530Y-83300D02*
X117050Y-83820D01*
X117050Y-83820D02*
X117181Y-83951D01*
X117181Y-84110D02*
X117181Y-85367D01*
X115700Y-80800D02*
X115700Y-81250D01*
X116945Y-84025D02*
X116945Y-85367D01*
X115850Y-82930D02*
X116945Y-84025D01*
X115550Y-82930D02*
X115850Y-82930D01*
X115280Y-82660D02*
X115550Y-82930D01*
X115280Y-81670D02*
X115280Y-82660D01*
X115700Y-81250D02*
X115280Y-81670D01*
X115700Y-77800D02*
X115700Y-78210D01*
X116708Y-83957D02*
X116708Y-85367D01*
X115800Y-83050D02*
X116708Y-83957D01*
X115500Y-83050D02*
X115800Y-83050D01*
X115159Y-82709D02*
X115500Y-83050D01*
X115159Y-78750D02*
X115159Y-82709D01*
X115700Y-78210D02*
X115159Y-78750D01*
X115700Y-74800D02*
X115700Y-75410D01*
X116472Y-83891D02*
X116472Y-85367D01*
X115750Y-83170D02*
X116472Y-83891D01*
X115450Y-83170D02*
X115750Y-83170D01*
X115039Y-82759D02*
X115450Y-83170D01*
X115039Y-76070D02*
X115039Y-82759D01*
X115700Y-75410D02*
X115039Y-76070D01*
X120289Y-48066D02*
X120289Y-48061D01*
X120135Y-48220D02*
X120289Y-48066D01*
X116000Y-83990D02*
X116000Y-85367D01*
X115460Y-83450D02*
X116000Y-83990D01*
X114500Y-80800D02*
X114500Y-81040D01*
X115763Y-84163D02*
X115763Y-85367D01*
X114630Y-83030D02*
X115763Y-84163D01*
X114330Y-83030D02*
X114630Y-83030D01*
X114080Y-82780D02*
X114330Y-83030D01*
X114080Y-81460D02*
X114080Y-82780D01*
X114500Y-81040D02*
X114080Y-81460D01*
X114500Y-77800D02*
X114500Y-78370D01*
X115527Y-84096D02*
X115527Y-85367D01*
X114585Y-83154D02*
X115527Y-84096D01*
X114285Y-83154D02*
X114585Y-83154D01*
X113959Y-82829D02*
X114285Y-83154D01*
X113959Y-78910D02*
X113959Y-82829D01*
X114500Y-78370D02*
X113959Y-78910D01*
X114500Y-74800D02*
X114500Y-75210D01*
X115291Y-84030D02*
X115291Y-85367D01*
X114535Y-83274D02*
X115291Y-84030D01*
X114235Y-83274D02*
X114535Y-83274D01*
X113839Y-82879D02*
X114235Y-83274D01*
X113839Y-75870D02*
X113839Y-82879D01*
X114500Y-75210D02*
X113839Y-75870D01*
X114500Y-71800D02*
X114500Y-72160D01*
X115055Y-83964D02*
X115055Y-85367D01*
X114490Y-83400D02*
X115055Y-83964D01*
X114190Y-83400D02*
X114490Y-83400D01*
X113719Y-82929D02*
X114190Y-83400D01*
X113719Y-72940D02*
X113719Y-82929D01*
X114500Y-72160D02*
X113719Y-72940D01*
X114823Y-84143D02*
X114823Y-85367D01*
X114250Y-83570D02*
X114823Y-84143D01*
X113300Y-80800D02*
X113300Y-81110D01*
X113165Y-83905D02*
X113165Y-85367D01*
X112880Y-83620D02*
X113165Y-83905D01*
X112880Y-81530D02*
X112880Y-83620D01*
X113300Y-81110D02*
X112880Y-81530D01*
X113300Y-77800D02*
X113300Y-78060D01*
X112929Y-83838D02*
X112929Y-85367D01*
X112759Y-83669D02*
X112929Y-83838D01*
X112759Y-78600D02*
X112759Y-83669D01*
X113300Y-78060D02*
X112759Y-78600D01*
X113300Y-74800D02*
X113300Y-75000D01*
X112693Y-83803D02*
X112693Y-85367D01*
X112639Y-83749D02*
X112693Y-83803D01*
X112639Y-75660D02*
X112639Y-83749D01*
X113300Y-75000D02*
X112639Y-75660D01*
X113300Y-71800D02*
X113300Y-72000D01*
X112456Y-84404D02*
X112456Y-85367D01*
X112519Y-84340D02*
X112456Y-84404D01*
X112519Y-72780D02*
X112519Y-84340D01*
X113300Y-72000D02*
X112519Y-72780D01*
X112220Y-83070D02*
X112220Y-85367D01*
X112320Y-82970D02*
X112220Y-83070D01*
X123124Y-45228D02*
X123122Y-45228D01*
X123280Y-45384D02*
X123124Y-45228D01*
X123594Y-45384D02*
X123437Y-45227D01*
X123437Y-45227D02*
X123436Y-45227D01*
X123751Y-45227D02*
X123908Y-45384D01*
X138500Y-37700D02*
X138500Y-36880D01*
X138500Y-36880D02*
X138486Y-36866D01*
X138486Y-36866D02*
X132028Y-36866D01*
X132028Y-36866D02*
X131528Y-37365D01*
X131528Y-37365D02*
X131528Y-38422D01*
X131528Y-38422D02*
X130959Y-38990D01*
X130959Y-38990D02*
X130959Y-41595D01*
X130959Y-41595D02*
X130670Y-41884D01*
X130670Y-41884D02*
X127577Y-41884D01*
X127577Y-41884D02*
X126215Y-43246D01*
X126215Y-43246D02*
X126215Y-44883D01*
X126215Y-44883D02*
X125715Y-45384D01*
X125715Y-45384D02*
X124223Y-45384D01*
X124223Y-45384D02*
X124066Y-45227D01*
X140500Y-37080D02*
X140500Y-37700D01*
X140165Y-36745D02*
X140500Y-37080D01*
X131978Y-36745D02*
X140165Y-36745D01*
X131408Y-37316D02*
X131978Y-36745D01*
X131408Y-38372D02*
X131408Y-37316D01*
X130839Y-38940D02*
X131408Y-38372D01*
X130839Y-41545D02*
X130839Y-38940D01*
X130620Y-41764D02*
X130839Y-41545D01*
X127527Y-41764D02*
X130620Y-41764D01*
X126095Y-43196D02*
X127527Y-41764D01*
X126095Y-44833D02*
X126095Y-43196D01*
X125701Y-45228D02*
X126095Y-44833D01*
X124381Y-45228D02*
X125701Y-45228D01*
X132366Y-38229D02*
X131890Y-38229D01*
X131890Y-38229D02*
X131079Y-39040D01*
X140500Y-38430D02*
X140500Y-39200D01*
X140299Y-38229D02*
X140500Y-38430D01*
X132366Y-38229D02*
X140299Y-38229D01*
X131079Y-39040D02*
X131079Y-41645D01*
X131079Y-41645D02*
X130720Y-42004D01*
X127627Y-42004D02*
X127530Y-42102D01*
X130720Y-42004D02*
X127627Y-42004D01*
X124381Y-45543D02*
X125725Y-45543D01*
X126335Y-43296D02*
X127530Y-42102D01*
X126335Y-44932D02*
X126335Y-43296D01*
X125725Y-45543D02*
X126335Y-44932D01*
X132110Y-38350D02*
X131940Y-38350D01*
X131940Y-38350D02*
X131199Y-39090D01*
X138500Y-39200D02*
X138500Y-38545D01*
X138305Y-38350D02*
X132110Y-38350D01*
X138500Y-38545D02*
X138305Y-38350D01*
X131199Y-39090D02*
X131199Y-41694D01*
X131199Y-41694D02*
X130770Y-42124D01*
X130770Y-42124D02*
X127676Y-42124D01*
X127676Y-42124D02*
X127577Y-42223D01*
X124223Y-45700D02*
X124066Y-45543D01*
X125738Y-45700D02*
X124223Y-45700D01*
X126455Y-44982D02*
X125738Y-45700D01*
X126455Y-43345D02*
X126455Y-44982D01*
X127577Y-42223D02*
X126455Y-43345D01*
X123908Y-45700D02*
X123751Y-45543D01*
X123437Y-45543D02*
X123436Y-45543D01*
X123594Y-45700D02*
X123437Y-45543D01*
X123438Y-46486D02*
X123437Y-46486D01*
X123596Y-46644D02*
X123438Y-46486D01*
X123752Y-46172D02*
X123751Y-46172D01*
X123910Y-46330D02*
X123752Y-46172D01*
X132176Y-41355D02*
X131901Y-41355D01*
X131901Y-41355D02*
X131680Y-41576D01*
X138500Y-42200D02*
X138500Y-41500D01*
X138355Y-41355D02*
X132176Y-41355D01*
X138500Y-41500D02*
X138355Y-41355D01*
X131680Y-41576D02*
X131680Y-42280D01*
X131680Y-42280D02*
X131356Y-42604D01*
X131356Y-42604D02*
X127875Y-42604D01*
X127875Y-42604D02*
X127782Y-42698D01*
X124224Y-46330D02*
X124066Y-46172D01*
X125787Y-46330D02*
X124224Y-46330D01*
X126935Y-45181D02*
X125787Y-46330D01*
X126935Y-43544D02*
X126935Y-45181D01*
X127782Y-42698D02*
X126935Y-43544D01*
X132050Y-41234D02*
X131851Y-41234D01*
X131851Y-41234D02*
X131559Y-41526D01*
X140500Y-41615D02*
X140500Y-42200D01*
X140119Y-41234D02*
X140500Y-41615D01*
X132050Y-41234D02*
X140119Y-41234D01*
X131559Y-41526D02*
X131559Y-42231D01*
X131559Y-42231D02*
X131306Y-42484D01*
X127825Y-42484D02*
X127726Y-42584D01*
X131306Y-42484D02*
X127825Y-42484D01*
X124381Y-46172D02*
X125775Y-46172D01*
X126815Y-43495D02*
X127726Y-42584D01*
X126815Y-45131D02*
X126815Y-43495D01*
X125775Y-46172D02*
X126815Y-45131D01*
X123122Y-46488D02*
X123122Y-46487D01*
X123280Y-46646D02*
X123122Y-46488D01*
X123910Y-46644D02*
X123752Y-46486D01*
X138500Y-43700D02*
X138500Y-43125D01*
X138500Y-43125D02*
X138220Y-42845D01*
X138220Y-42845D02*
X127975Y-42845D01*
X127975Y-42845D02*
X127175Y-43644D01*
X127175Y-43644D02*
X127175Y-45280D01*
X127175Y-45280D02*
X125811Y-46645D01*
X125811Y-46645D02*
X124226Y-46645D01*
X124226Y-46645D02*
X124067Y-46486D01*
X140500Y-42985D02*
X140500Y-43700D01*
X140239Y-42724D02*
X140500Y-42985D01*
X127925Y-42724D02*
X140239Y-42724D01*
X127055Y-43594D02*
X127925Y-42724D01*
X127055Y-45231D02*
X127055Y-43594D01*
X125800Y-46487D02*
X127055Y-45231D01*
X124381Y-46487D02*
X125800Y-46487D01*
X132232Y-39830D02*
X132012Y-39830D01*
X132012Y-39830D02*
X131439Y-40402D01*
X138500Y-40700D02*
X138500Y-39985D01*
X138345Y-39830D02*
X132232Y-39830D01*
X138500Y-39985D02*
X138345Y-39830D01*
X131439Y-40402D02*
X131439Y-42181D01*
X131439Y-42181D02*
X131256Y-42364D01*
X131256Y-42364D02*
X127776Y-42364D01*
X127776Y-42364D02*
X127706Y-42434D01*
X124224Y-46015D02*
X124066Y-45857D01*
X125762Y-46015D02*
X124224Y-46015D01*
X126695Y-45082D02*
X125762Y-46015D01*
X126695Y-43445D02*
X126695Y-45082D01*
X127706Y-42434D02*
X126695Y-43445D01*
X123123Y-45543D02*
X123122Y-45543D01*
X123280Y-45700D02*
X123123Y-45543D01*
X123122Y-45858D02*
X123122Y-45857D01*
X123278Y-46014D02*
X123122Y-45858D01*
X123437Y-45857D02*
X123436Y-45857D01*
X123594Y-46014D02*
X123437Y-45857D01*
X123908Y-46014D02*
X123751Y-45857D01*
X132152Y-39709D02*
X131962Y-39709D01*
X131962Y-39709D02*
X131319Y-40352D01*
X140500Y-40075D02*
X140500Y-40700D01*
X140134Y-39709D02*
X140500Y-40075D01*
X132152Y-39709D02*
X140134Y-39709D01*
X131319Y-40352D02*
X131319Y-42131D01*
X131319Y-42131D02*
X131206Y-42244D01*
X127726Y-42244D02*
X127626Y-42344D01*
X131206Y-42244D02*
X127726Y-42244D01*
X124381Y-45857D02*
X125751Y-45857D01*
X126575Y-43395D02*
X127626Y-42344D01*
X126575Y-45032D02*
X126575Y-43395D01*
X125751Y-45857D02*
X126575Y-45032D01*
X123122Y-46174D02*
X123122Y-46172D01*
X123278Y-46330D02*
X123122Y-46174D01*
X123438Y-46172D02*
X123436Y-46172D01*
X123594Y-46328D02*
X123438Y-46172D01*
X122018Y-46016D02*
X121862Y-46172D01*
X121863Y-45857D02*
X121862Y-45857D01*
X122020Y-45700D02*
X121863Y-45857D01*
X121547Y-46169D02*
X121547Y-46172D01*
X121702Y-46014D02*
X121547Y-46169D01*
X121704Y-45700D02*
X121547Y-45857D01*
X121232Y-46170D02*
X121232Y-46172D01*
X121388Y-46014D02*
X121232Y-46170D01*
X121233Y-45857D02*
X121232Y-45857D01*
X121390Y-45700D02*
X121233Y-45857D01*
X120917Y-46171D02*
X120917Y-46172D01*
X121074Y-46014D02*
X120917Y-46171D01*
X121074Y-45700D02*
X120917Y-45857D01*
X120760Y-46014D02*
X120602Y-46172D01*
X119654Y-48061D02*
X119659Y-48061D01*
X119500Y-48215D02*
X119654Y-48061D01*
X120289Y-48376D02*
X120289Y-48375D01*
X120130Y-48535D02*
X120289Y-48376D01*
X119969Y-48061D02*
X119974Y-48061D01*
X119815Y-48215D02*
X119969Y-48061D01*
X119974Y-48376D02*
X119974Y-48375D01*
X119815Y-48535D02*
X119974Y-48376D01*
X119659Y-48376D02*
X119659Y-48375D01*
X119500Y-48535D02*
X119659Y-48376D01*
X122178Y-46172D02*
X122177Y-46172D01*
X122334Y-46016D02*
X122178Y-46172D01*
X122336Y-45698D02*
X122177Y-45857D01*
X119974Y-46172D02*
X119973Y-46172D01*
X120130Y-46016D02*
X119974Y-46172D01*
X120603Y-45857D02*
X120602Y-45857D01*
X120760Y-45700D02*
X120603Y-45857D01*
X120287Y-46171D02*
X120287Y-46172D01*
X120444Y-46014D02*
X120287Y-46171D01*
X120444Y-45700D02*
X120287Y-45857D01*
X120130Y-45700D02*
X119973Y-45857D01*
X119660Y-46172D02*
X119658Y-46172D01*
X119816Y-46016D02*
X119660Y-46172D01*
X119659Y-45857D02*
X119658Y-45857D01*
X119816Y-45700D02*
X119659Y-45857D01*
X120288Y-47747D02*
X120286Y-47747D01*
X121548Y-47746D02*
X121547Y-47746D01*
X121705Y-47903D02*
X121548Y-47746D01*
X120286Y-47747D02*
X120130Y-47903D01*
X120446Y-46644D02*
X120446Y-46643D01*
X120446Y-46643D02*
X120603Y-46486D01*
X120603Y-47747D02*
X120288Y-47747D01*
X118555Y-49165D02*
X118714Y-49006D01*
X121547Y-47432D02*
X121550Y-47432D01*
X121706Y-47588D02*
X121547Y-47747D01*
X121550Y-47432D02*
X121706Y-47588D01*
X121390Y-47590D02*
X121547Y-47747D01*
X121547Y-47432D02*
X121547Y-47433D01*
X121234Y-47434D02*
X121390Y-47590D01*
X121234Y-47431D02*
X121234Y-47434D01*
X121390Y-47590D02*
X121234Y-47746D01*
X121234Y-47746D02*
X121234Y-47747D01*
X121547Y-47433D02*
X121390Y-47590D01*
X121076Y-47588D02*
X121076Y-47589D01*
X121076Y-47589D02*
X121234Y-47747D01*
X121234Y-47431D02*
X121233Y-47431D01*
X121076Y-47588D02*
X120919Y-47745D01*
X120919Y-47745D02*
X120919Y-47747D01*
X120919Y-47431D02*
X121076Y-47588D01*
X121233Y-47431D02*
X121076Y-47588D01*
X120760Y-47588D02*
X120919Y-47747D01*
X120760Y-47588D02*
X120762Y-47588D01*
X120762Y-47588D02*
X120919Y-47431D01*
X120604Y-47431D02*
X120604Y-47432D01*
X120604Y-47744D02*
X120604Y-47747D01*
X120760Y-47588D02*
X120604Y-47744D01*
X120604Y-47432D02*
X120760Y-47588D01*
X120604Y-47431D02*
X120603Y-47431D01*
X120604Y-47746D02*
X120604Y-47747D01*
X120446Y-47588D02*
X120604Y-47746D01*
X120289Y-47431D02*
X120446Y-47588D01*
X120603Y-47431D02*
X120446Y-47588D01*
X121547Y-47117D02*
X121549Y-47117D01*
X121549Y-47117D02*
X121706Y-47274D01*
X121548Y-47432D02*
X121547Y-47432D01*
X121706Y-47274D02*
X121548Y-47432D01*
X121390Y-47274D02*
X121390Y-47275D01*
X121390Y-47275D02*
X121547Y-47432D01*
X121547Y-47117D02*
X121390Y-47274D01*
X121234Y-47118D02*
X121390Y-47274D01*
X121234Y-47116D02*
X121234Y-47118D01*
X121390Y-47274D02*
X121234Y-47430D01*
X121234Y-47430D02*
X121234Y-47431D01*
X121076Y-47274D02*
X121077Y-47274D01*
X121077Y-47274D02*
X121234Y-47431D01*
X121076Y-47274D02*
X120919Y-47431D01*
X121076Y-47274D02*
X121234Y-47116D01*
X120919Y-47116D02*
X120919Y-47117D01*
X120919Y-47117D02*
X121076Y-47274D01*
X120762Y-47274D02*
X120919Y-47431D01*
X120762Y-47274D02*
X120605Y-47431D01*
X120605Y-47431D02*
X120604Y-47431D01*
X120604Y-47116D02*
X120762Y-47274D01*
X120919Y-47117D02*
X120762Y-47274D01*
X120289Y-47431D02*
X120291Y-47431D01*
X120448Y-47274D02*
X120604Y-47430D01*
X120604Y-47430D02*
X120604Y-47431D01*
X120604Y-47118D02*
X120448Y-47274D01*
X120604Y-47116D02*
X120604Y-47118D01*
X120289Y-47116D02*
X120290Y-47116D01*
X120290Y-47116D02*
X120448Y-47274D01*
X120291Y-47431D02*
X120448Y-47274D01*
X120289Y-47116D02*
X120289Y-47117D01*
X120132Y-47274D02*
X120289Y-47431D01*
X120289Y-47117D02*
X120132Y-47274D01*
X121547Y-46802D02*
X121548Y-46802D01*
X121548Y-46802D02*
X121706Y-46960D01*
X121706Y-46960D02*
X121549Y-47117D01*
X121547Y-47117D02*
X121390Y-46960D01*
X121390Y-46960D02*
X121234Y-47116D01*
X121547Y-46802D02*
X121547Y-46803D01*
X121234Y-46804D02*
X121390Y-46960D01*
X121234Y-46802D02*
X121234Y-46804D01*
X121547Y-46803D02*
X121390Y-46960D01*
X121078Y-46958D02*
X121234Y-46802D01*
X121078Y-46958D02*
X121078Y-46960D01*
X121078Y-46960D02*
X121234Y-47116D01*
X120919Y-46802D02*
X120922Y-46802D01*
X120920Y-47116D02*
X120919Y-47116D01*
X121078Y-46958D02*
X120920Y-47116D01*
X120922Y-46802D02*
X121078Y-46958D01*
X120762Y-46960D02*
X120762Y-46959D01*
X120763Y-46960D02*
X120919Y-47116D01*
X120762Y-46960D02*
X120763Y-46960D01*
X120762Y-46959D02*
X120919Y-46802D01*
X120604Y-46802D02*
X120762Y-46960D01*
X120606Y-47116D02*
X120604Y-47116D01*
X120762Y-46960D02*
X120606Y-47116D01*
X120289Y-46802D02*
X120288Y-46802D01*
X120288Y-46802D02*
X120132Y-46958D01*
X120132Y-46958D02*
X120289Y-47115D01*
X120289Y-47115D02*
X120289Y-47116D01*
X120604Y-47116D02*
X120446Y-46958D01*
X120289Y-46802D02*
X120290Y-46802D01*
X120290Y-46802D02*
X120446Y-46958D01*
X120604Y-46802D02*
X120602Y-46802D01*
X120446Y-46958D02*
X120289Y-47115D01*
X120289Y-47115D02*
X120289Y-47116D01*
X120602Y-46802D02*
X120446Y-46958D01*
X121390Y-46644D02*
X121390Y-46645D01*
X121390Y-46644D02*
X121234Y-46800D01*
X121234Y-46800D02*
X121234Y-46802D01*
X121390Y-46645D02*
X121547Y-46802D01*
X121233Y-46487D02*
X121390Y-46644D01*
X121233Y-46486D02*
X121233Y-46487D01*
X121390Y-46644D02*
X121547Y-46487D01*
X121234Y-46802D02*
X121076Y-46644D01*
X121076Y-46644D02*
X120919Y-46801D01*
X120919Y-46801D02*
X120919Y-46802D01*
X120918Y-46486D02*
X121076Y-46644D01*
X121076Y-46643D02*
X121233Y-46486D01*
X121076Y-46644D02*
X121076Y-46643D01*
X120919Y-46802D02*
X120918Y-46802D01*
X120918Y-46802D02*
X120760Y-46644D01*
X120604Y-46800D02*
X120604Y-46802D01*
X120760Y-46644D02*
X120604Y-46800D01*
X120603Y-46487D02*
X120760Y-46644D01*
X120603Y-46486D02*
X120603Y-46487D01*
X120760Y-46644D02*
X120918Y-46486D01*
X120604Y-46802D02*
X120446Y-46644D01*
X120289Y-46801D02*
X120289Y-46802D01*
X120446Y-46644D02*
X120289Y-46801D01*
X121547Y-46487D02*
X121549Y-46487D01*
X121706Y-46644D02*
X121548Y-46802D01*
X121549Y-46487D02*
X121706Y-46644D01*
X118713Y-43967D02*
X118870Y-43810D01*
X109851Y-28200D02*
X110500Y-28200D01*
X109639Y-28412D02*
X109851Y-28200D01*
X109639Y-34899D02*
X109639Y-28412D01*
X110030Y-35290D02*
X109639Y-34899D01*
X111175Y-35290D02*
X110030Y-35290D01*
X111475Y-35590D02*
X111175Y-35290D01*
X112204Y-35590D02*
X111475Y-35590D01*
X113264Y-36650D02*
X112204Y-35590D01*
X113264Y-38778D02*
X113264Y-36650D01*
X115052Y-40566D02*
X113264Y-38778D01*
X118099Y-40566D02*
X115052Y-40566D01*
X118403Y-40870D02*
X118099Y-40566D01*
X118752Y-40870D02*
X118403Y-40870D01*
X118870Y-40988D02*
X118752Y-40870D01*
X118870Y-43810D02*
X118870Y-40988D01*
X118398Y-43967D02*
X118556Y-43809D01*
X108441Y-28200D02*
X109000Y-28200D01*
X108104Y-28537D02*
X108441Y-28200D01*
X108104Y-34704D02*
X108104Y-28537D01*
X108420Y-35020D02*
X108104Y-34704D01*
X109420Y-35020D02*
X108420Y-35020D01*
X109930Y-35530D02*
X109420Y-35020D01*
X111076Y-35530D02*
X109930Y-35530D01*
X111376Y-35830D02*
X111076Y-35530D01*
X112104Y-35830D02*
X111376Y-35830D01*
X113024Y-36750D02*
X112104Y-35830D01*
X113024Y-38877D02*
X113024Y-36750D01*
X114953Y-40806D02*
X113024Y-38877D01*
X118000Y-40806D02*
X114953Y-40806D01*
X118556Y-41361D02*
X118000Y-40806D01*
X118556Y-43809D02*
X118556Y-41361D01*
X118555Y-44125D02*
X118398Y-44282D01*
X118555Y-44440D02*
X118398Y-44597D01*
X118399Y-44911D02*
X118398Y-44911D01*
X118556Y-44754D02*
X118399Y-44911D01*
X118713Y-43653D02*
X118713Y-41349D01*
X109835Y-26200D02*
X110500Y-26200D01*
X109518Y-26516D02*
X109835Y-26200D01*
X109518Y-34948D02*
X109518Y-26516D01*
X109980Y-35410D02*
X109518Y-34948D01*
X111125Y-35410D02*
X109980Y-35410D01*
X111425Y-35710D02*
X111125Y-35410D01*
X112154Y-35710D02*
X111425Y-35710D01*
X113144Y-36700D02*
X112154Y-35710D01*
X113144Y-38827D02*
X113144Y-36700D01*
X115003Y-40686D02*
X113144Y-38827D01*
X118049Y-40686D02*
X115003Y-40686D01*
X118713Y-41349D02*
X118049Y-40686D01*
X118870Y-44125D02*
X118713Y-44282D01*
X117768Y-43967D02*
X117768Y-43966D01*
X105498Y-28200D02*
X106000Y-28200D01*
X105177Y-28521D02*
X105498Y-28200D01*
X105177Y-34947D02*
X105177Y-28521D01*
X105536Y-35306D02*
X105177Y-34947D01*
X108027Y-35306D02*
X105536Y-35306D01*
X108221Y-35500D02*
X108027Y-35306D01*
X109221Y-35500D02*
X108221Y-35500D01*
X109731Y-36010D02*
X109221Y-35500D01*
X110877Y-36010D02*
X109731Y-36010D01*
X111177Y-36310D02*
X110877Y-36010D01*
X111900Y-36310D02*
X111177Y-36310D01*
X112544Y-36954D02*
X111900Y-36310D01*
X112544Y-39076D02*
X112544Y-36954D01*
X114754Y-41286D02*
X112544Y-39076D01*
X117496Y-41286D02*
X114754Y-41286D01*
X117919Y-41709D02*
X117496Y-41286D01*
X117919Y-43814D02*
X117919Y-41709D01*
X117768Y-43966D02*
X117919Y-43814D01*
X117768Y-44282D02*
X117925Y-44125D01*
X117925Y-44440D02*
X117768Y-44597D01*
X117926Y-44754D02*
X117769Y-44911D01*
X118083Y-43653D02*
X118083Y-41398D01*
X106973Y-26200D02*
X107500Y-26200D01*
X106523Y-26649D02*
X106973Y-26200D01*
X106523Y-34839D02*
X106523Y-26649D01*
X106870Y-35186D02*
X106523Y-34839D01*
X108076Y-35186D02*
X106870Y-35186D01*
X108270Y-35380D02*
X108076Y-35186D01*
X109271Y-35380D02*
X108270Y-35380D01*
X109781Y-35890D02*
X109271Y-35380D01*
X110927Y-35890D02*
X109781Y-35890D01*
X111227Y-36190D02*
X110927Y-35890D01*
X111955Y-36190D02*
X111227Y-36190D01*
X112664Y-36899D02*
X111955Y-36190D01*
X112664Y-39026D02*
X112664Y-36899D01*
X114804Y-41166D02*
X112664Y-39026D01*
X117850Y-41166D02*
X114804Y-41166D01*
X118083Y-41398D02*
X117850Y-41166D01*
X118083Y-43967D02*
X118083Y-43966D01*
X106920Y-28200D02*
X107500Y-28200D01*
X106644Y-28476D02*
X106920Y-28200D01*
X106644Y-34790D02*
X106644Y-28476D01*
X106920Y-35066D02*
X106644Y-34790D01*
X108126Y-35066D02*
X106920Y-35066D01*
X108320Y-35260D02*
X108126Y-35066D01*
X109321Y-35260D02*
X108320Y-35260D01*
X109831Y-35770D02*
X109321Y-35260D01*
X110976Y-35770D02*
X109831Y-35770D01*
X111276Y-36070D02*
X110976Y-35770D01*
X112005Y-36070D02*
X111276Y-36070D01*
X112784Y-36849D02*
X112005Y-36070D01*
X112784Y-38977D02*
X112784Y-36849D01*
X114853Y-41046D02*
X112784Y-38977D01*
X117900Y-41046D02*
X114853Y-41046D01*
X118239Y-41384D02*
X117900Y-41046D01*
X118239Y-43810D02*
X118239Y-41384D01*
X118083Y-43966D02*
X118239Y-43810D01*
X118083Y-44282D02*
X118240Y-44125D01*
X118240Y-44440D02*
X118083Y-44597D01*
X118398Y-43653D02*
X118398Y-41373D01*
X108352Y-26200D02*
X109000Y-26200D01*
X107983Y-26568D02*
X108352Y-26200D01*
X107983Y-34753D02*
X107983Y-26568D01*
X108370Y-35140D02*
X107983Y-34753D01*
X109370Y-35140D02*
X108370Y-35140D01*
X109880Y-35650D02*
X109370Y-35140D01*
X111026Y-35650D02*
X109880Y-35650D01*
X111326Y-35950D02*
X111026Y-35650D01*
X112055Y-35950D02*
X111326Y-35950D01*
X112904Y-36799D02*
X112055Y-35950D01*
X112904Y-38927D02*
X112904Y-36799D01*
X114903Y-40926D02*
X112904Y-38927D01*
X117950Y-40926D02*
X114903Y-40926D01*
X118398Y-41373D02*
X117950Y-40926D01*
X119972Y-43653D02*
X119972Y-40190D01*
X115912Y-26200D02*
X116500Y-26200D01*
X115566Y-26545D02*
X115912Y-26200D01*
X115566Y-39337D02*
X115566Y-26545D01*
X115955Y-39726D02*
X115566Y-39337D01*
X118447Y-39726D02*
X115955Y-39726D01*
X118751Y-40030D02*
X118447Y-39726D01*
X119811Y-40030D02*
X118751Y-40030D01*
X119972Y-40190D02*
X119811Y-40030D01*
X119659Y-44911D02*
X119657Y-44911D01*
X119816Y-44754D02*
X119659Y-44911D01*
X119659Y-44597D02*
X119658Y-44597D01*
X119816Y-44440D02*
X119659Y-44597D01*
X119660Y-44282D02*
X119658Y-44282D01*
X119816Y-44126D02*
X119660Y-44282D01*
X119658Y-43967D02*
X119658Y-43966D01*
X114360Y-28200D02*
X115000Y-28200D01*
X114185Y-28375D02*
X114360Y-28200D01*
X114185Y-38680D02*
X114185Y-28375D01*
X115351Y-39846D02*
X114185Y-38680D01*
X118397Y-39846D02*
X115351Y-39846D01*
X118701Y-40150D02*
X118397Y-39846D01*
X119683Y-40150D02*
X118701Y-40150D01*
X119815Y-40282D02*
X119683Y-40150D01*
X119815Y-43809D02*
X119815Y-40282D01*
X119658Y-43966D02*
X119815Y-43809D01*
X119657Y-43653D02*
X119657Y-40498D01*
X114428Y-26200D02*
X115000Y-26200D01*
X114064Y-26563D02*
X114428Y-26200D01*
X114064Y-38729D02*
X114064Y-26563D01*
X115301Y-39966D02*
X114064Y-38729D01*
X118348Y-39966D02*
X115301Y-39966D01*
X118652Y-40270D02*
X118348Y-39966D01*
X119429Y-40270D02*
X118652Y-40270D01*
X119657Y-40498D02*
X119429Y-40270D01*
X119500Y-44754D02*
X119343Y-44911D01*
X119500Y-44440D02*
X119343Y-44597D01*
X119343Y-44281D02*
X119343Y-44282D01*
X119500Y-44124D02*
X119343Y-44281D01*
X119973Y-44911D02*
X119972Y-44911D01*
X120130Y-44754D02*
X119973Y-44911D01*
X120444Y-44754D02*
X120287Y-44911D01*
X120289Y-44597D02*
X120288Y-44597D01*
X120446Y-44440D02*
X120289Y-44597D01*
X120446Y-44124D02*
X120288Y-44282D01*
X120288Y-43967D02*
X120288Y-43966D01*
X117405Y-28200D02*
X118000Y-28200D01*
X117119Y-28486D02*
X117405Y-28200D01*
X117119Y-38912D02*
X117119Y-28486D01*
X117573Y-39366D02*
X117119Y-38912D01*
X118596Y-39366D02*
X117573Y-39366D01*
X118900Y-39670D02*
X118596Y-39366D01*
X119960Y-39670D02*
X118900Y-39670D01*
X120444Y-40153D02*
X119960Y-39670D01*
X120444Y-43810D02*
X120444Y-40153D01*
X120288Y-43966D02*
X120444Y-43810D01*
X120287Y-43653D02*
X120287Y-40165D01*
X117988Y-26212D02*
X118000Y-26200D01*
X117248Y-26212D02*
X117988Y-26212D01*
X116998Y-26461D02*
X117248Y-26212D01*
X116998Y-38961D02*
X116998Y-26461D01*
X117523Y-39486D02*
X116998Y-38961D01*
X118546Y-39486D02*
X117523Y-39486D01*
X118850Y-39790D02*
X118546Y-39486D01*
X119911Y-39790D02*
X118850Y-39790D01*
X120287Y-40165D02*
X119911Y-39790D01*
X119343Y-43967D02*
X119500Y-43810D01*
X112862Y-28200D02*
X113500Y-28200D01*
X112660Y-28402D02*
X112862Y-28200D01*
X112660Y-35367D02*
X112660Y-28402D01*
X113745Y-36452D02*
X112660Y-35367D01*
X113745Y-38579D02*
X113745Y-36452D01*
X115251Y-40086D02*
X113745Y-38579D01*
X118298Y-40086D02*
X115251Y-40086D01*
X118602Y-40390D02*
X118298Y-40086D01*
X119374Y-40390D02*
X118602Y-40390D01*
X119500Y-40516D02*
X119374Y-40390D01*
X119500Y-43810D02*
X119500Y-40516D01*
X120130Y-44440D02*
X119973Y-44597D01*
X119974Y-44282D02*
X119973Y-44282D01*
X120130Y-44126D02*
X119974Y-44282D01*
X119973Y-43967D02*
X119974Y-43967D01*
X116053Y-28200D02*
X116500Y-28200D01*
X115687Y-28566D02*
X116053Y-28200D01*
X115687Y-39288D02*
X115687Y-28566D01*
X116005Y-39606D02*
X115687Y-39288D01*
X118497Y-39606D02*
X116005Y-39606D01*
X118801Y-39910D02*
X118497Y-39606D01*
X119861Y-39910D02*
X118801Y-39910D01*
X120129Y-40177D02*
X119861Y-39910D01*
X120129Y-43812D02*
X120129Y-40177D01*
X119974Y-43967D02*
X120129Y-43812D01*
X104500Y-26200D02*
X103920Y-26200D01*
X117453Y-41752D02*
X117453Y-43653D01*
X117346Y-41646D02*
X117453Y-41752D01*
X114605Y-41646D02*
X117346Y-41646D01*
X112184Y-39225D02*
X114605Y-41646D01*
X112184Y-37826D02*
X112184Y-39225D01*
X110728Y-36370D02*
X112184Y-37826D01*
X105096Y-36370D02*
X110728Y-36370D01*
X103545Y-34819D02*
X105096Y-36370D01*
X103545Y-26574D02*
X103545Y-34819D01*
X103920Y-26200D02*
X103545Y-26574D01*
X117454Y-43966D02*
X117455Y-43966D01*
X103966Y-28200D02*
X104500Y-28200D01*
X103666Y-28500D02*
X103966Y-28200D01*
X103666Y-34770D02*
X103666Y-28500D01*
X105146Y-36250D02*
X103666Y-34770D01*
X110777Y-36250D02*
X105146Y-36250D01*
X112304Y-37777D02*
X110777Y-36250D01*
X112304Y-39175D02*
X112304Y-37777D01*
X114655Y-41526D02*
X112304Y-39175D01*
X117396Y-41526D02*
X114655Y-41526D01*
X117610Y-41739D02*
X117396Y-41526D01*
X117610Y-43811D02*
X117610Y-41739D01*
X117455Y-43966D02*
X117610Y-43811D01*
X117454Y-44282D02*
X117454Y-44281D01*
X117454Y-44281D02*
X117610Y-44125D01*
X117454Y-44598D02*
X117454Y-44596D01*
X117454Y-44596D02*
X117610Y-44440D01*
X117455Y-44911D02*
X117454Y-44911D01*
X117612Y-44754D02*
X117455Y-44911D01*
X106000Y-26200D02*
X105405Y-26200D01*
X117768Y-41727D02*
X117768Y-43653D01*
X117446Y-41406D02*
X117768Y-41727D01*
X114704Y-41406D02*
X117446Y-41406D01*
X112424Y-39126D02*
X114704Y-41406D01*
X112424Y-37004D02*
X112424Y-39126D01*
X111850Y-36430D02*
X112424Y-37004D01*
X111127Y-36430D02*
X111850Y-36430D01*
X110827Y-36130D02*
X111127Y-36430D01*
X109682Y-36130D02*
X110827Y-36130D01*
X109172Y-35620D02*
X109682Y-36130D01*
X108171Y-35620D02*
X109172Y-35620D01*
X107977Y-35426D02*
X108171Y-35620D01*
X105486Y-35426D02*
X107977Y-35426D01*
X105056Y-34996D02*
X105486Y-35426D01*
X105056Y-26548D02*
X105056Y-34996D01*
X105405Y-26200D02*
X105056Y-26548D01*
X119186Y-44124D02*
X119028Y-44282D01*
X119343Y-43653D02*
X119343Y-40601D01*
X112910Y-26200D02*
X113500Y-26200D01*
X112539Y-26570D02*
X112910Y-26200D01*
X112539Y-35416D02*
X112539Y-26570D01*
X113624Y-36501D02*
X112539Y-35416D01*
X113624Y-38629D02*
X113624Y-36501D01*
X115201Y-40206D02*
X113624Y-38629D01*
X118248Y-40206D02*
X115201Y-40206D01*
X118552Y-40510D02*
X118248Y-40206D01*
X119252Y-40510D02*
X118552Y-40510D01*
X119343Y-40601D02*
X119252Y-40510D01*
X112000Y-26200D02*
X111392Y-26200D01*
X119028Y-40924D02*
X119028Y-43653D01*
X118854Y-40750D02*
X119028Y-40924D01*
X118453Y-40750D02*
X118854Y-40750D01*
X118149Y-40446D02*
X118453Y-40750D01*
X115102Y-40446D02*
X118149Y-40446D01*
X113384Y-38728D02*
X115102Y-40446D01*
X113384Y-36601D02*
X113384Y-38728D01*
X112253Y-35470D02*
X113384Y-36601D01*
X111525Y-35470D02*
X112253Y-35470D01*
X111003Y-34948D02*
X111525Y-35470D01*
X111003Y-26588D02*
X111003Y-34948D01*
X111392Y-26200D02*
X111003Y-26588D01*
X119029Y-44911D02*
X119028Y-44911D01*
X119186Y-44754D02*
X119029Y-44911D01*
X119028Y-44596D02*
X119028Y-44597D01*
X119186Y-44438D02*
X119028Y-44596D01*
X119028Y-43967D02*
X119029Y-43967D01*
X111498Y-28200D02*
X112000Y-28200D01*
X111124Y-28574D02*
X111498Y-28200D01*
X111124Y-34899D02*
X111124Y-28574D01*
X111575Y-35350D02*
X111124Y-34899D01*
X112303Y-35350D02*
X111575Y-35350D01*
X113504Y-36551D02*
X112303Y-35350D01*
X113504Y-38678D02*
X113504Y-36551D01*
X115152Y-40326D02*
X113504Y-38678D01*
X118198Y-40326D02*
X115152Y-40326D01*
X118502Y-40630D02*
X118198Y-40326D01*
X119103Y-40630D02*
X118502Y-40630D01*
X119186Y-40713D02*
X119103Y-40630D01*
X119186Y-43810D02*
X119186Y-40713D01*
X119029Y-43967D02*
X119186Y-43810D01*
X118870Y-44754D02*
X118713Y-44911D01*
X118870Y-44440D02*
X118713Y-44597D01*
X119026Y-49949D02*
X119029Y-49949D01*
X118870Y-50105D02*
X119026Y-49949D01*
X119341Y-49949D02*
X119344Y-49949D01*
X119185Y-50105D02*
X119341Y-49949D01*
X118178Y-52310D02*
X118254Y-52234D01*
X116846Y-52310D02*
X118178Y-52310D01*
X118860Y-51628D02*
X118860Y-51626D01*
X118254Y-52234D02*
X118860Y-51628D01*
X119190Y-50418D02*
X119344Y-50264D01*
X118860Y-51626D02*
X119190Y-51296D01*
X119190Y-51296D02*
X119190Y-50418D01*
X115446Y-53710D02*
X116846Y-52310D01*
X115230Y-53710D02*
X115446Y-53710D01*
X114370Y-59610D02*
X114370Y-53906D01*
X114566Y-53710D02*
X115230Y-53710D01*
X114370Y-53906D02*
X114566Y-53710D01*
X113500Y-64700D02*
X114240Y-64700D01*
X114370Y-64570D02*
X114370Y-59610D01*
X114370Y-59610D02*
X114370Y-59620D01*
X114240Y-64700D02*
X114370Y-64570D01*
X115390Y-53830D02*
X115496Y-53830D01*
X118228Y-52430D02*
X118299Y-52359D01*
X116896Y-52430D02*
X118228Y-52430D01*
X115496Y-53830D02*
X116896Y-52430D01*
X119344Y-51314D02*
X119344Y-50580D01*
X118299Y-52359D02*
X119344Y-51314D01*
X113500Y-66700D02*
X114300Y-66700D01*
X114616Y-53830D02*
X115390Y-53830D01*
X114490Y-53956D02*
X114616Y-53830D01*
X114490Y-66509D02*
X114490Y-53956D01*
X114300Y-66700D02*
X114490Y-66509D01*
X118198Y-52118D02*
X118198Y-52120D01*
X118127Y-52190D02*
X118198Y-52118D01*
X116796Y-52190D02*
X118127Y-52190D01*
X118740Y-51577D02*
X118740Y-51579D01*
X118740Y-51579D02*
X118198Y-52120D01*
X119029Y-50580D02*
X119029Y-51288D01*
X118740Y-51577D02*
X119029Y-51288D01*
X115396Y-53590D02*
X116796Y-52190D01*
X115260Y-53590D02*
X115396Y-53590D01*
X113000Y-55776D02*
X113000Y-59559D01*
X113440Y-55336D02*
X113000Y-55776D01*
X113440Y-54666D02*
X113440Y-55336D01*
X114516Y-53590D02*
X113440Y-54666D01*
X115260Y-53590D02*
X114516Y-53590D01*
X112000Y-66700D02*
X112610Y-66700D01*
X113000Y-66309D02*
X113000Y-59559D01*
X112610Y-66700D02*
X113000Y-66309D01*
X115240Y-53470D02*
X115347Y-53470D01*
X118158Y-51988D02*
X118158Y-51990D01*
X118077Y-52070D02*
X118158Y-51988D01*
X116747Y-52070D02*
X118077Y-52070D01*
X115347Y-53470D02*
X116747Y-52070D01*
X118620Y-51529D02*
X118620Y-51527D01*
X118158Y-51990D02*
X118620Y-51529D01*
X119029Y-50264D02*
X119026Y-50264D01*
X118870Y-51277D02*
X118620Y-51527D01*
X118870Y-50420D02*
X118870Y-51277D01*
X119026Y-50264D02*
X118870Y-50420D01*
X112880Y-57820D02*
X112880Y-55727D01*
X114467Y-53470D02*
X115240Y-53470D01*
X113320Y-54617D02*
X114467Y-53470D01*
X113320Y-55287D02*
X113320Y-54617D01*
X112880Y-55727D02*
X113320Y-55287D01*
X112650Y-64700D02*
X112000Y-64700D01*
X112880Y-64470D02*
X112650Y-64700D01*
X112880Y-57820D02*
X112880Y-64470D01*
X119025Y-49635D02*
X119029Y-49635D01*
X118870Y-49790D02*
X119025Y-49635D01*
X118870Y-49480D02*
X119029Y-49321D01*
X118555Y-49480D02*
X118714Y-49321D01*
X119655Y-49635D02*
X119659Y-49635D01*
X119500Y-49790D02*
X119655Y-49635D01*
X119820Y-50418D02*
X119974Y-50264D01*
X119820Y-51349D02*
X119820Y-50418D01*
X118379Y-52790D02*
X119820Y-51349D01*
X117460Y-52790D02*
X118379Y-52790D01*
X117360Y-52890D02*
X117460Y-52790D01*
X117360Y-64620D02*
X117360Y-52890D01*
X117280Y-64700D02*
X117360Y-64620D01*
X116500Y-64700D02*
X117280Y-64700D01*
X119974Y-51365D02*
X119974Y-50580D01*
X118429Y-52910D02*
X119974Y-51365D01*
X117670Y-52910D02*
X118429Y-52910D01*
X117480Y-53100D02*
X117670Y-52910D01*
X117480Y-66499D02*
X117480Y-53100D01*
X117280Y-66700D02*
X117480Y-66499D01*
X116500Y-66700D02*
X117280Y-66700D01*
X119659Y-50580D02*
X119659Y-51341D01*
X119659Y-51341D02*
X118329Y-52670D01*
X118329Y-52670D02*
X116995Y-52670D01*
X116995Y-52670D02*
X115997Y-53667D01*
X115997Y-53667D02*
X115997Y-66457D01*
X115997Y-66457D02*
X115755Y-66700D01*
X115755Y-66700D02*
X115000Y-66700D01*
X119500Y-50423D02*
X119659Y-50264D01*
X119500Y-51328D02*
X119500Y-50423D01*
X118278Y-52550D02*
X119500Y-51328D01*
X116945Y-52550D02*
X118278Y-52550D01*
X115877Y-53617D02*
X116945Y-52550D01*
X115877Y-64432D02*
X115877Y-53617D01*
X115610Y-64700D02*
X115877Y-64432D01*
X115000Y-64700D02*
X115610Y-64700D01*
X119656Y-49949D02*
X119659Y-49949D01*
X119500Y-50105D02*
X119656Y-49949D01*
X118710Y-49635D02*
X118713Y-49635D01*
X118555Y-49790D02*
X118710Y-49635D01*
X119500Y-49480D02*
X119659Y-49321D01*
X119185Y-49480D02*
X119344Y-49321D01*
X119340Y-49635D02*
X119344Y-49635D01*
X119185Y-49790D02*
X119340Y-49635D01*
X114870Y-52510D02*
X114949Y-52510D01*
X117420Y-51110D02*
X117610Y-50920D01*
X116349Y-51110D02*
X117420Y-51110D01*
X114949Y-52510D02*
X116349Y-51110D01*
X114069Y-52510D02*
X114870Y-52510D01*
X112360Y-54219D02*
X114069Y-52510D01*
X112360Y-54889D02*
X112360Y-54219D01*
X117768Y-50264D02*
X117766Y-50264D01*
X117766Y-50264D02*
X117610Y-50420D01*
X117610Y-50420D02*
X117610Y-50920D01*
X110749Y-56500D02*
X112360Y-54889D01*
X110510Y-56500D02*
X110749Y-56500D01*
X106700Y-64700D02*
X106000Y-64700D01*
X106850Y-64550D02*
X106700Y-64700D01*
X106850Y-56800D02*
X106850Y-64550D01*
X107149Y-56500D02*
X106850Y-56800D01*
X110510Y-56500D02*
X107149Y-56500D01*
X118080Y-49635D02*
X118083Y-49635D01*
X117925Y-49790D02*
X118080Y-49635D01*
X118081Y-49949D02*
X118083Y-49949D01*
X117925Y-50105D02*
X118081Y-49949D01*
X117410Y-51350D02*
X117684Y-51350D01*
X117930Y-51105D02*
X117930Y-50865D01*
X117684Y-51350D02*
X117930Y-51105D01*
X114900Y-52750D02*
X115048Y-52750D01*
X116448Y-51350D02*
X117410Y-51350D01*
X115048Y-52750D02*
X116448Y-51350D01*
X118083Y-50264D02*
X118083Y-50267D01*
X117930Y-50420D02*
X117930Y-50865D01*
X118083Y-50267D02*
X117930Y-50420D01*
X112600Y-54318D02*
X114168Y-52750D01*
X114168Y-52750D02*
X114900Y-52750D01*
X110848Y-56740D02*
X112600Y-54988D01*
X112600Y-54988D02*
X112600Y-54318D01*
X110670Y-56740D02*
X110848Y-56740D01*
X110670Y-56740D02*
X108589Y-56740D01*
X108589Y-56740D02*
X108390Y-56940D01*
X108390Y-56940D02*
X108390Y-64510D01*
X108390Y-64510D02*
X108200Y-64700D01*
X108200Y-64700D02*
X107500Y-64700D01*
X114910Y-52870D02*
X115098Y-52870D01*
X117828Y-51470D02*
X117869Y-51429D01*
X116498Y-51470D02*
X117828Y-51470D01*
X115098Y-52870D02*
X116498Y-51470D01*
X114218Y-52870D02*
X114910Y-52870D01*
X110770Y-56860D02*
X110898Y-56860D01*
X112720Y-54368D02*
X114218Y-52870D01*
X112720Y-55038D02*
X112720Y-54368D01*
X110898Y-56860D02*
X112720Y-55038D01*
X118085Y-51213D02*
X118085Y-50580D01*
X117869Y-51429D02*
X118085Y-51213D01*
X107500Y-66700D02*
X108210Y-66700D01*
X108820Y-56860D02*
X110770Y-56860D01*
X108510Y-57170D02*
X108820Y-56860D01*
X108510Y-66399D02*
X108510Y-57170D01*
X108210Y-66700D02*
X108510Y-66399D01*
X114860Y-52630D02*
X114999Y-52630D01*
X117760Y-50940D02*
X117769Y-50940D01*
X117769Y-50931D02*
X117760Y-50940D01*
X117769Y-50930D02*
X117769Y-50931D01*
X117469Y-51230D02*
X117769Y-50930D01*
X116399Y-51230D02*
X117469Y-51230D01*
X114999Y-52630D02*
X116399Y-51230D01*
X110640Y-56620D02*
X110799Y-56620D01*
X112480Y-54269D02*
X114119Y-52630D01*
X112480Y-54939D02*
X112480Y-54269D01*
X110799Y-56620D02*
X112480Y-54939D01*
X114119Y-52630D02*
X114860Y-52630D01*
X117769Y-50940D02*
X117769Y-50580D01*
X106000Y-66700D02*
X106700Y-66700D01*
X107199Y-56620D02*
X110640Y-56620D01*
X106970Y-56849D02*
X107199Y-56620D01*
X106970Y-66429D02*
X106970Y-56849D01*
X106700Y-66700D02*
X106970Y-66429D01*
X117766Y-49949D02*
X117768Y-49949D01*
X117610Y-50105D02*
X117766Y-49949D01*
X118084Y-49321D02*
X118085Y-49321D01*
X117925Y-49480D02*
X118084Y-49321D01*
X117450Y-49635D02*
X117453Y-49635D01*
X117295Y-49790D02*
X117450Y-49635D01*
X114980Y-52990D02*
X115148Y-52990D01*
X117878Y-51590D02*
X117944Y-51524D01*
X116548Y-51590D02*
X117878Y-51590D01*
X115148Y-52990D02*
X116548Y-51590D01*
X114268Y-52990D02*
X114980Y-52990D01*
X112840Y-54418D02*
X114268Y-52990D01*
X112840Y-55088D02*
X112840Y-54418D01*
X118398Y-50264D02*
X118396Y-50264D01*
X118240Y-51228D02*
X117944Y-51524D01*
X118240Y-50420D02*
X118240Y-51228D01*
X118396Y-50264D02*
X118240Y-50420D01*
X110948Y-56980D02*
X112840Y-55088D01*
X110840Y-56980D02*
X110948Y-56980D01*
X109540Y-64700D02*
X109000Y-64700D01*
X109890Y-64350D02*
X109540Y-64700D01*
X109890Y-57310D02*
X109890Y-64350D01*
X110219Y-56980D02*
X109890Y-57310D01*
X110840Y-56980D02*
X110219Y-56980D01*
X118711Y-49949D02*
X118713Y-49949D01*
X118555Y-50105D02*
X118711Y-49949D01*
X115140Y-53230D02*
X115247Y-53230D01*
X117977Y-51830D02*
X118073Y-51733D01*
X116647Y-51830D02*
X117977Y-51830D01*
X115247Y-53230D02*
X116647Y-51830D01*
X114367Y-53230D02*
X115140Y-53230D01*
X113080Y-54517D02*
X114367Y-53230D01*
X113080Y-55187D02*
X113080Y-54517D01*
X118560Y-50417D02*
X118713Y-50264D01*
X118560Y-51247D02*
X118560Y-50417D01*
X118073Y-51733D02*
X118560Y-51247D01*
X111380Y-56887D02*
X113080Y-55187D01*
X111380Y-57530D02*
X111380Y-56887D01*
X111380Y-64430D02*
X111380Y-57530D01*
X111110Y-64700D02*
X111380Y-64430D01*
X110500Y-64700D02*
X111110Y-64700D01*
X118108Y-51868D02*
X118108Y-51870D01*
X118027Y-51950D02*
X118108Y-51868D01*
X116697Y-51950D02*
X118027Y-51950D01*
X118500Y-51477D02*
X118500Y-51479D01*
X118500Y-51479D02*
X118108Y-51870D01*
X118714Y-50580D02*
X118714Y-51263D01*
X118500Y-51477D02*
X118714Y-51263D01*
X115297Y-53350D02*
X116697Y-51950D01*
X115180Y-53350D02*
X115297Y-53350D01*
X111500Y-56937D02*
X111500Y-57740D01*
X113200Y-55237D02*
X111500Y-56937D01*
X113200Y-54567D02*
X113200Y-55237D01*
X114417Y-53350D02*
X113200Y-54567D01*
X115180Y-53350D02*
X114417Y-53350D01*
X110500Y-66700D02*
X111050Y-66700D01*
X111500Y-66249D02*
X111500Y-57740D01*
X111050Y-66700D02*
X111500Y-66249D01*
X115030Y-53110D02*
X115197Y-53110D01*
X117928Y-51710D02*
X118014Y-51624D01*
X116597Y-51710D02*
X117928Y-51710D01*
X115197Y-53110D02*
X116597Y-51710D01*
X118014Y-51624D02*
X118399Y-51239D01*
X110870Y-57100D02*
X110997Y-57100D01*
X114317Y-53110D02*
X115030Y-53110D01*
X112960Y-54467D02*
X114317Y-53110D01*
X112960Y-55137D02*
X112960Y-54467D01*
X110997Y-57100D02*
X112960Y-55137D01*
X118399Y-51239D02*
X118399Y-50580D01*
X109000Y-66700D02*
X109690Y-66700D01*
X110400Y-57100D02*
X110870Y-57100D01*
X110010Y-57490D02*
X110400Y-57100D01*
X110010Y-66379D02*
X110010Y-57490D01*
X109690Y-66700D02*
X110010Y-66379D01*
X118396Y-49949D02*
X118398Y-49949D01*
X118240Y-50105D02*
X118396Y-49949D01*
X118395Y-49635D02*
X118398Y-49635D01*
X118240Y-49790D02*
X118395Y-49635D01*
X118240Y-49480D02*
X118399Y-49321D01*
X122685Y-64700D02*
X122500Y-64700D01*
X122965Y-64420D02*
X122685Y-64700D01*
X122965Y-53355D02*
X122965Y-64420D01*
X121075Y-51465D02*
X122965Y-53355D01*
X121075Y-50420D02*
X121075Y-51465D01*
X121234Y-50264D02*
X121231Y-50264D01*
X121231Y-50264D02*
X121075Y-50420D01*
X121545Y-49635D02*
X121547Y-49635D01*
X121390Y-49790D02*
X121545Y-49635D01*
X121545Y-49950D02*
X121547Y-49950D01*
X121390Y-50105D02*
X121545Y-49950D01*
X122971Y-53023D02*
X123443Y-53023D01*
X123443Y-53023D02*
X124450Y-54030D01*
X124450Y-64250D02*
X124000Y-64700D01*
X124450Y-54030D02*
X124450Y-64250D01*
X122699Y-52750D02*
X122971Y-53023D01*
X122699Y-52750D02*
X122714Y-52765D01*
X121624Y-51675D02*
X122699Y-52750D01*
X121547Y-50268D02*
X121390Y-50425D01*
X121390Y-50425D02*
X121390Y-51441D01*
X121390Y-51441D02*
X121454Y-51505D01*
X121547Y-50265D02*
X121547Y-50268D01*
X121624Y-51675D02*
X121454Y-51505D01*
X124000Y-66700D02*
X124270Y-66700D01*
X124270Y-66700D02*
X124570Y-66399D01*
X124570Y-66399D02*
X124570Y-53980D01*
X124570Y-53980D02*
X123547Y-52957D01*
X123492Y-52903D02*
X123547Y-52957D01*
X123021Y-52903D02*
X123492Y-52903D01*
X121823Y-51704D02*
X123021Y-52903D01*
X121547Y-51428D02*
X121823Y-51704D01*
X121785Y-51666D02*
X121823Y-51704D01*
X121547Y-50580D02*
X121547Y-51428D01*
X122500Y-66700D02*
X122510Y-66700D01*
X122510Y-66700D02*
X123085Y-66124D01*
X123085Y-66124D02*
X123085Y-53305D01*
X123085Y-53305D02*
X121234Y-51454D01*
X121234Y-51454D02*
X121234Y-50580D01*
X121231Y-49949D02*
X121234Y-49949D01*
X121075Y-50105D02*
X121231Y-49949D01*
X121230Y-49635D02*
X121234Y-49635D01*
X121075Y-49790D02*
X121230Y-49635D01*
X121075Y-49480D02*
X121234Y-49321D01*
X121350Y-66700D02*
X121000Y-66700D01*
X121640Y-66409D02*
X121350Y-66700D01*
X121640Y-52200D02*
X121640Y-66409D01*
X120919Y-51479D02*
X121640Y-52200D01*
X120919Y-50580D02*
X120919Y-51479D01*
X121861Y-49949D02*
X121864Y-49949D01*
X121705Y-50105D02*
X121861Y-49949D01*
X122175Y-49635D02*
X122179Y-49635D01*
X122020Y-49790D02*
X122175Y-49635D01*
X122020Y-49480D02*
X122179Y-49321D01*
X125500Y-66700D02*
X125680Y-66700D01*
X126085Y-54210D02*
X125834Y-53959D01*
X126085Y-66294D02*
X126085Y-54210D01*
X125680Y-66700D02*
X126085Y-66294D01*
X123640Y-52710D02*
X123640Y-52710D01*
X123593Y-52663D02*
X123640Y-52710D01*
X124889Y-53959D02*
X123640Y-52710D01*
X125834Y-53959D02*
X124889Y-53959D01*
X121864Y-51343D02*
X121864Y-51406D01*
X121864Y-50580D02*
X121864Y-51020D01*
X121864Y-51020D02*
X121864Y-51343D01*
X123121Y-52663D02*
X123593Y-52663D01*
X121864Y-51406D02*
X123121Y-52663D01*
X123542Y-52783D02*
X123599Y-52840D01*
X125965Y-64235D02*
X125500Y-64700D01*
X125965Y-54260D02*
X125965Y-64235D01*
X125785Y-54080D02*
X125965Y-54260D01*
X124839Y-54080D02*
X125785Y-54080D01*
X123599Y-52840D02*
X124839Y-54080D01*
X121705Y-51416D02*
X123071Y-52783D01*
X123071Y-52783D02*
X123542Y-52783D01*
X121705Y-51410D02*
X121705Y-51416D01*
X121705Y-51195D02*
X121705Y-51410D01*
X121705Y-50420D02*
X121705Y-51195D01*
X121864Y-50264D02*
X121861Y-50264D01*
X121861Y-50264D02*
X121705Y-50420D01*
X121860Y-49635D02*
X121864Y-49635D01*
X121705Y-49790D02*
X121860Y-49635D01*
X121705Y-49480D02*
X121864Y-49321D01*
X121547Y-49323D02*
X121547Y-49321D01*
X121390Y-49480D02*
X121547Y-49323D01*
X119500Y-66700D02*
X120300Y-66700D01*
X120300Y-66700D02*
X120500Y-66499D01*
X120500Y-66499D02*
X120500Y-51579D01*
X120500Y-51579D02*
X120604Y-51476D01*
X120604Y-51476D02*
X120604Y-50580D01*
X120284Y-49321D02*
X120289Y-49321D01*
X120130Y-49475D02*
X120284Y-49321D01*
X120285Y-49635D02*
X120289Y-49635D01*
X120130Y-49790D02*
X120285Y-49635D01*
X120286Y-49949D02*
X120289Y-49949D01*
X120130Y-50105D02*
X120286Y-49949D01*
X120130Y-50423D02*
X120289Y-50264D01*
X120130Y-51379D02*
X120130Y-50423D01*
X118860Y-52649D02*
X120130Y-51379D01*
X118860Y-64580D02*
X118860Y-52649D01*
X118740Y-64700D02*
X118860Y-64580D01*
X118000Y-64700D02*
X118740Y-64700D01*
X120289Y-51389D02*
X120289Y-50580D01*
X118980Y-52698D02*
X120289Y-51389D01*
X118980Y-66459D02*
X118980Y-52698D01*
X118740Y-66700D02*
X118980Y-66459D01*
X118000Y-66700D02*
X118740Y-66700D01*
X119974Y-49326D02*
X119974Y-49321D01*
X119820Y-49480D02*
X119974Y-49326D01*
X119970Y-49635D02*
X119974Y-49635D01*
X119815Y-49790D02*
X119970Y-49635D01*
X119974Y-49951D02*
X119974Y-49949D01*
X119820Y-50105D02*
X119974Y-49951D01*
X120445Y-49480D02*
X120604Y-49321D01*
X121285Y-64700D02*
X121000Y-64700D01*
X121520Y-64465D02*
X121285Y-64700D01*
X121520Y-52250D02*
X121520Y-64465D01*
X120760Y-51490D02*
X121520Y-52250D01*
X120760Y-50425D02*
X120760Y-51490D01*
X120919Y-50264D02*
X120919Y-50266D01*
X120919Y-50266D02*
X120760Y-50425D01*
X120916Y-49949D02*
X120919Y-49949D01*
X120760Y-50105D02*
X120916Y-49949D01*
X120919Y-49636D02*
X120919Y-49635D01*
X120760Y-49795D02*
X120919Y-49636D01*
X120760Y-49480D02*
X120919Y-49321D01*
X117768Y-49637D02*
X117768Y-49635D01*
X117610Y-49795D02*
X117768Y-49637D01*
X120600Y-49635D02*
X120604Y-49635D01*
X120445Y-49790D02*
X120600Y-49635D01*
X120601Y-49949D02*
X120604Y-49949D01*
X120445Y-50105D02*
X120601Y-49949D01*
X119500Y-64700D02*
X120270Y-64700D01*
X120270Y-64700D02*
X120380Y-64590D01*
X120380Y-64590D02*
X120380Y-51520D01*
X120380Y-51520D02*
X120450Y-51450D01*
X120450Y-51450D02*
X120450Y-50418D01*
X120450Y-50418D02*
X120604Y-50264D01*
X122020Y-44440D02*
X121863Y-44597D01*
X122335Y-43032D02*
X122335Y-41174D01*
X122335Y-41174D02*
X122392Y-41116D01*
X126125Y-38540D02*
X126125Y-38776D01*
X124144Y-40060D02*
X123948Y-40060D01*
X125046Y-39158D02*
X124144Y-40060D01*
X125743Y-39158D02*
X125046Y-39158D01*
X126125Y-38776D02*
X125743Y-39158D01*
X127000Y-28200D02*
X126390Y-28200D01*
X126125Y-28465D02*
X126125Y-38540D01*
X126390Y-28200D02*
X126125Y-28465D01*
X123449Y-40060D02*
X122392Y-41116D01*
X123948Y-40060D02*
X123449Y-40060D01*
X122335Y-43810D02*
X122178Y-43967D01*
X122335Y-43032D02*
X122335Y-43810D01*
X122177Y-43052D02*
X122177Y-41162D01*
X122177Y-41162D02*
X122231Y-41107D01*
X126005Y-38466D02*
X126005Y-38727D01*
X124094Y-39940D02*
X123886Y-39940D01*
X124996Y-39038D02*
X124094Y-39940D01*
X125694Y-39038D02*
X124996Y-39038D01*
X126005Y-38727D02*
X125694Y-39038D01*
X126005Y-38466D02*
X126005Y-26680D01*
X122177Y-43653D02*
X122177Y-43052D01*
X122231Y-41107D02*
X123399Y-39940D01*
X123399Y-39940D02*
X123886Y-39940D01*
X126485Y-26200D02*
X127000Y-26200D01*
X126005Y-26680D02*
X126485Y-26200D01*
X121862Y-43653D02*
X121862Y-41138D01*
X124835Y-26200D02*
X125500Y-26200D01*
X124490Y-26545D02*
X124835Y-26200D01*
X124490Y-39205D02*
X124490Y-26545D01*
X123995Y-39700D02*
X124490Y-39205D01*
X123300Y-39700D02*
X123995Y-39700D01*
X121862Y-41138D02*
X123300Y-39700D01*
X122020Y-43078D02*
X122020Y-41149D01*
X122020Y-41149D02*
X122072Y-41096D01*
X121863Y-43967D02*
X122020Y-43810D01*
X124950Y-28200D02*
X125500Y-28200D01*
X124610Y-28539D02*
X124950Y-28200D01*
X124610Y-39254D02*
X124610Y-28539D01*
X124044Y-39820D02*
X124610Y-39254D01*
X123349Y-39820D02*
X124044Y-39820D01*
X122072Y-41096D02*
X123349Y-39820D01*
X122020Y-43810D02*
X122020Y-43078D01*
X121863Y-44281D02*
X121863Y-44282D01*
X122020Y-44124D02*
X121863Y-44281D01*
X121863Y-44911D02*
X121862Y-44911D01*
X122020Y-44754D02*
X121863Y-44911D01*
X121706Y-44754D02*
X121547Y-44913D01*
X121547Y-44597D02*
X121547Y-44598D01*
X121704Y-44440D02*
X121547Y-44597D01*
X121706Y-44124D02*
X121547Y-44283D01*
X122493Y-44911D02*
X122492Y-44911D01*
X122650Y-44754D02*
X122493Y-44911D01*
X127490Y-38474D02*
X127490Y-38708D01*
X124193Y-40180D02*
X123882Y-40180D01*
X125095Y-39278D02*
X124193Y-40180D01*
X126919Y-39278D02*
X125095Y-39278D01*
X127490Y-38708D02*
X126919Y-39278D01*
X127490Y-38474D02*
X127490Y-26485D01*
X122492Y-43653D02*
X122492Y-41186D01*
X123498Y-40180D02*
X123882Y-40180D01*
X122492Y-41186D02*
X123498Y-40180D01*
X127775Y-26200D02*
X128500Y-26200D01*
X127490Y-26485D02*
X127775Y-26200D01*
X127610Y-38498D02*
X127610Y-38757D01*
X124243Y-40300D02*
X124002Y-40300D01*
X125145Y-39398D02*
X124243Y-40300D01*
X126969Y-39398D02*
X125145Y-39398D01*
X127610Y-38757D02*
X126969Y-39398D01*
X128500Y-28200D02*
X127905Y-28200D01*
X122650Y-43810D02*
X122493Y-43967D01*
X122650Y-41198D02*
X122650Y-43810D01*
X123548Y-40300D02*
X122650Y-41198D01*
X124002Y-40300D02*
X123548Y-40300D01*
X127610Y-28495D02*
X127610Y-38498D01*
X127905Y-28200D02*
X127610Y-28495D01*
X122493Y-44281D02*
X122493Y-44282D01*
X122650Y-44124D02*
X122493Y-44281D01*
X122650Y-44440D02*
X122493Y-44597D01*
X122179Y-44911D02*
X122177Y-44911D01*
X122336Y-44754D02*
X122179Y-44911D01*
X122179Y-44597D02*
X122178Y-44597D01*
X122336Y-44440D02*
X122179Y-44597D01*
X122336Y-44124D02*
X122178Y-44282D01*
X120760Y-44440D02*
X120603Y-44597D01*
X120919Y-44597D02*
X120918Y-44597D01*
X121076Y-44440D02*
X120919Y-44597D01*
X121076Y-44124D02*
X120918Y-44282D01*
X120918Y-43967D02*
X121075Y-43810D01*
X120585Y-28200D02*
X121000Y-28200D01*
X120235Y-28549D02*
X120585Y-28200D01*
X120235Y-39265D02*
X120235Y-28549D01*
X121075Y-40105D02*
X120235Y-39265D01*
X121075Y-43810D02*
X121075Y-40105D01*
X120917Y-43206D02*
X120917Y-40117D01*
X120917Y-40117D02*
X120845Y-40045D01*
X120917Y-43360D02*
X120917Y-43206D01*
X120917Y-43653D02*
X120917Y-43360D01*
X120115Y-27085D02*
X121000Y-26200D01*
X120115Y-39315D02*
X120115Y-27085D01*
X120845Y-40045D02*
X120115Y-39315D01*
X120603Y-44911D02*
X120602Y-44911D01*
X120760Y-44754D02*
X120603Y-44911D01*
X120603Y-44281D02*
X120603Y-44282D01*
X120760Y-44124D02*
X120603Y-44281D01*
X120603Y-43967D02*
X120604Y-43967D01*
X119022Y-28200D02*
X119500Y-28200D01*
X118694Y-28528D02*
X119022Y-28200D01*
X118694Y-39124D02*
X118694Y-28528D01*
X119000Y-39430D02*
X118694Y-39124D01*
X120060Y-39430D02*
X119000Y-39430D01*
X120760Y-40129D02*
X120060Y-39430D01*
X120760Y-43811D02*
X120760Y-40129D01*
X120604Y-43967D02*
X120760Y-43811D01*
X120602Y-43653D02*
X120602Y-40141D01*
X118910Y-26200D02*
X119500Y-26200D01*
X118573Y-26536D02*
X118910Y-26200D01*
X118573Y-39173D02*
X118573Y-26536D01*
X118950Y-39550D02*
X118573Y-39173D01*
X120010Y-39550D02*
X118950Y-39550D01*
X120602Y-40141D02*
X120010Y-39550D01*
X121234Y-44282D02*
X121233Y-44282D01*
X121390Y-44126D02*
X121234Y-44282D01*
X121705Y-43118D02*
X121705Y-40594D01*
X121705Y-40594D02*
X121787Y-40511D01*
X121547Y-43968D02*
X121705Y-43810D01*
X123300Y-28200D02*
X124000Y-28200D01*
X123140Y-28359D02*
X123300Y-28200D01*
X123140Y-39159D02*
X123140Y-28359D01*
X121787Y-40511D02*
X123140Y-39159D01*
X121705Y-43810D02*
X121705Y-43118D01*
X124000Y-26200D02*
X123100Y-26200D01*
X121547Y-40583D02*
X121547Y-43653D01*
X123020Y-39110D02*
X121547Y-40583D01*
X123020Y-26280D02*
X123020Y-39110D01*
X123100Y-26200D02*
X123020Y-26280D01*
X121232Y-43653D02*
X121232Y-39968D01*
X121960Y-26200D02*
X122500Y-26200D01*
X121500Y-26660D02*
X121960Y-26200D01*
X121500Y-39700D02*
X121500Y-26660D01*
X121232Y-39968D02*
X121500Y-39700D01*
X121390Y-43130D02*
X121390Y-39979D01*
X121390Y-39979D02*
X121429Y-39939D01*
X121390Y-43185D02*
X121390Y-43130D01*
X121233Y-43967D02*
X121390Y-43810D01*
X121800Y-28200D02*
X122500Y-28200D01*
X121620Y-28379D02*
X121800Y-28200D01*
X121620Y-39749D02*
X121620Y-28379D01*
X121429Y-39939D02*
X121620Y-39749D01*
X121390Y-43810D02*
X121390Y-43185D01*
X128090Y-37900D02*
X128090Y-38447D01*
X124293Y-40420D02*
X124048Y-40420D01*
X125195Y-39518D02*
X124293Y-40420D01*
X127019Y-39518D02*
X125195Y-39518D01*
X128090Y-38447D02*
X127019Y-39518D01*
X122807Y-43653D02*
X122807Y-41211D01*
X123598Y-40420D02*
X124048Y-40420D01*
X122807Y-41211D02*
X123598Y-40420D01*
X129260Y-26200D02*
X130000Y-26200D01*
X129065Y-26395D02*
X129260Y-26200D01*
X129065Y-35350D02*
X129065Y-26395D01*
X128090Y-36325D02*
X129065Y-35350D01*
X128090Y-37900D02*
X128090Y-36325D01*
X121390Y-44440D02*
X121233Y-44597D01*
X121233Y-44911D02*
X121232Y-44911D01*
X121390Y-44754D02*
X121233Y-44911D01*
X120919Y-44911D02*
X120917Y-44911D01*
X121076Y-44754D02*
X120919Y-44911D01*
X125742Y-40838D02*
X125499Y-41081D01*
X136940Y-28200D02*
X136620Y-28520D01*
X136620Y-28520D02*
X136620Y-35119D01*
X136620Y-35119D02*
X135819Y-35920D01*
X135819Y-35920D02*
X132567Y-35920D01*
X132567Y-35920D02*
X132202Y-36285D01*
X132202Y-36285D02*
X129996Y-36285D01*
X129996Y-36285D02*
X129410Y-36871D01*
X129410Y-36871D02*
X129410Y-38832D01*
X137500Y-28200D02*
X136940Y-28200D01*
X129410Y-38994D02*
X127566Y-40838D01*
X127566Y-40838D02*
X125742Y-40838D01*
X129410Y-38832D02*
X129410Y-38994D01*
X124948Y-41777D02*
X124540Y-42186D01*
X124948Y-41632D02*
X124948Y-41777D01*
X125499Y-41081D02*
X124948Y-41632D01*
X124540Y-43809D02*
X124381Y-43968D01*
X124540Y-42186D02*
X124540Y-43809D01*
X129290Y-38700D02*
X129290Y-38944D01*
X124790Y-41620D02*
X124680Y-41620D01*
X125692Y-40718D02*
X124790Y-41620D01*
X127516Y-40718D02*
X125692Y-40718D01*
X129290Y-38944D02*
X127516Y-40718D01*
X124381Y-43653D02*
X124381Y-41919D01*
X136645Y-26200D02*
X137500Y-26200D01*
X136500Y-26345D02*
X136645Y-26200D01*
X136500Y-35070D02*
X136500Y-26345D01*
X135769Y-35800D02*
X136500Y-35070D01*
X132518Y-35800D02*
X135769Y-35800D01*
X132153Y-36165D02*
X132518Y-35800D01*
X129947Y-36165D02*
X132153Y-36165D01*
X129290Y-36822D02*
X129947Y-36165D01*
X129290Y-38700D02*
X129290Y-36822D01*
X124381Y-41919D02*
X124680Y-41620D01*
X129050Y-38622D02*
X129050Y-38845D01*
X124690Y-41380D02*
X124592Y-41380D01*
X125592Y-40478D02*
X124690Y-41380D01*
X127417Y-40478D02*
X125592Y-40478D01*
X129050Y-38845D02*
X127417Y-40478D01*
X124066Y-43653D02*
X124066Y-41554D01*
X124240Y-41380D02*
X124592Y-41380D01*
X124066Y-41554D02*
X124240Y-41380D01*
X135170Y-26200D02*
X136000Y-26200D01*
X135000Y-26370D02*
X135170Y-26200D01*
X135000Y-35180D02*
X135000Y-26370D01*
X134619Y-35560D02*
X135000Y-35180D01*
X132418Y-35560D02*
X134619Y-35560D01*
X132053Y-35925D02*
X132418Y-35560D01*
X129847Y-35925D02*
X132053Y-35925D01*
X129050Y-36722D02*
X129847Y-35925D01*
X129050Y-38622D02*
X129050Y-36722D01*
X129170Y-38668D02*
X129170Y-38894D01*
X124740Y-41500D02*
X124680Y-41500D01*
X125642Y-40598D02*
X124740Y-41500D01*
X127466Y-40598D02*
X125642Y-40598D01*
X129170Y-38894D02*
X127466Y-40598D01*
X136000Y-28200D02*
X135360Y-28200D01*
X124225Y-43809D02*
X124067Y-43967D01*
X124225Y-41720D02*
X124225Y-43809D01*
X124444Y-41500D02*
X124225Y-41720D01*
X124680Y-41500D02*
X124444Y-41500D01*
X129170Y-36772D02*
X129170Y-38668D01*
X129897Y-36045D02*
X129170Y-36772D01*
X132103Y-36045D02*
X129897Y-36045D01*
X132468Y-35680D02*
X132103Y-36045D01*
X134669Y-35680D02*
X132468Y-35680D01*
X135120Y-35229D02*
X134669Y-35680D01*
X135120Y-28440D02*
X135120Y-35229D01*
X135360Y-28200D02*
X135120Y-28440D01*
X124067Y-44281D02*
X124067Y-44282D01*
X124224Y-44124D02*
X124067Y-44281D01*
X124224Y-44440D02*
X124067Y-44597D01*
X124069Y-44911D02*
X124066Y-44911D01*
X124224Y-44756D02*
X124069Y-44911D01*
X123908Y-44754D02*
X123751Y-44911D01*
X123753Y-44597D02*
X123752Y-44597D01*
X123910Y-44440D02*
X123753Y-44597D01*
X117453Y-50264D02*
X117451Y-50264D01*
X116660Y-50459D02*
X116610Y-50510D01*
X117255Y-50459D02*
X116660Y-50459D01*
X117451Y-50264D02*
X117255Y-50459D01*
X116610Y-50510D02*
X114850Y-52270D01*
X112120Y-54120D02*
X112120Y-54790D01*
X113970Y-52270D02*
X114850Y-52270D01*
X112120Y-54120D02*
X113970Y-52270D01*
X110650Y-56260D02*
X112110Y-54800D01*
X112120Y-54790D02*
X112110Y-54800D01*
X110400Y-56260D02*
X106700Y-56260D01*
X110400Y-56260D02*
X110650Y-56260D01*
X105840Y-56260D02*
X105379Y-56720D01*
X106700Y-56260D02*
X105840Y-56260D01*
X105379Y-56720D02*
X105379Y-64400D01*
X105379Y-64400D02*
X105379Y-64450D01*
X105379Y-64450D02*
X105130Y-64700D01*
X104500Y-64700D02*
X105130Y-64700D01*
X117769Y-49321D02*
X117610Y-49480D01*
X117295Y-49480D02*
X117454Y-49321D01*
X117453Y-49949D02*
X117451Y-49949D01*
X117451Y-49949D02*
X117295Y-50105D01*
X114780Y-52390D02*
X114899Y-52390D01*
X116709Y-50580D02*
X117454Y-50580D01*
X114899Y-52390D02*
X116709Y-50580D01*
X110400Y-56380D02*
X110699Y-56380D01*
X114019Y-52390D02*
X114780Y-52390D01*
X112240Y-54169D02*
X114019Y-52390D01*
X112240Y-54839D02*
X112240Y-54169D01*
X110699Y-56380D02*
X112240Y-54839D01*
X105240Y-66700D02*
X104500Y-66700D01*
X105500Y-66440D02*
X105240Y-66700D01*
X105500Y-56770D02*
X105500Y-66440D01*
X105889Y-56380D02*
X105500Y-56770D01*
X110400Y-56380D02*
X105889Y-56380D01*
X124383Y-44913D02*
X124381Y-44913D01*
X124542Y-44754D02*
X124383Y-44913D01*
X124381Y-44597D02*
X124381Y-44598D01*
X124538Y-44440D02*
X124381Y-44597D01*
X124538Y-44126D02*
X124381Y-44283D01*
X122811Y-44911D02*
X122807Y-44911D01*
X122966Y-44756D02*
X122811Y-44911D01*
X123280Y-44440D02*
X123122Y-44598D01*
X123123Y-44283D02*
X123122Y-44283D01*
X123280Y-44126D02*
X123123Y-44283D01*
X128450Y-38384D02*
X128450Y-38596D01*
X124442Y-40780D02*
X124256Y-40780D01*
X125344Y-39878D02*
X124442Y-40780D01*
X127168Y-39878D02*
X125344Y-39878D01*
X128450Y-38596D02*
X127168Y-39878D01*
X131500Y-28200D02*
X130885Y-28200D01*
X123280Y-43810D02*
X123122Y-43968D01*
X123280Y-41247D02*
X123280Y-43810D01*
X123747Y-40780D02*
X123280Y-41247D01*
X124256Y-40780D02*
X123747Y-40780D01*
X128450Y-36474D02*
X128450Y-38384D01*
X129599Y-35325D02*
X128450Y-36474D01*
X130339Y-35325D02*
X129599Y-35325D01*
X130645Y-35019D02*
X130339Y-35325D01*
X130645Y-28440D02*
X130645Y-35019D01*
X130885Y-28200D02*
X130645Y-28440D01*
X128330Y-38294D02*
X128330Y-38546D01*
X124392Y-40660D02*
X124208Y-40660D01*
X125294Y-39758D02*
X124392Y-40660D01*
X127118Y-39758D02*
X125294Y-39758D01*
X128330Y-38546D02*
X127118Y-39758D01*
X123122Y-43653D02*
X123122Y-41235D01*
X123697Y-40660D02*
X124208Y-40660D01*
X123122Y-41235D02*
X123697Y-40660D01*
X130735Y-26200D02*
X131500Y-26200D01*
X130525Y-26410D02*
X130735Y-26200D01*
X130525Y-34970D02*
X130525Y-26410D01*
X130290Y-35205D02*
X130525Y-34970D01*
X129549Y-35205D02*
X130290Y-35205D01*
X128330Y-36424D02*
X129549Y-35205D01*
X128330Y-38294D02*
X128330Y-36424D01*
X122808Y-44596D02*
X122808Y-44597D01*
X122964Y-44440D02*
X122808Y-44596D01*
X122964Y-44126D02*
X122808Y-44282D01*
X128210Y-38246D02*
X128210Y-38497D01*
X124342Y-40540D02*
X124138Y-40540D01*
X125244Y-39638D02*
X124342Y-40540D01*
X127069Y-39638D02*
X125244Y-39638D01*
X128210Y-38497D02*
X127069Y-39638D01*
X130000Y-28200D02*
X129400Y-28200D01*
X122965Y-43810D02*
X122808Y-43967D01*
X122965Y-41222D02*
X122965Y-43810D01*
X123647Y-40540D02*
X122965Y-41222D01*
X124138Y-40540D02*
X123647Y-40540D01*
X128210Y-36374D02*
X128210Y-38246D01*
X129185Y-35399D02*
X128210Y-36374D01*
X129185Y-28414D02*
X129185Y-35399D01*
X129400Y-28200D02*
X129185Y-28414D01*
X123910Y-44124D02*
X123752Y-44282D01*
X128930Y-38574D02*
X128930Y-38795D01*
X124641Y-41260D02*
X124508Y-41260D01*
X125543Y-40358D02*
X124641Y-41260D01*
X127367Y-40358D02*
X125543Y-40358D01*
X128930Y-38795D02*
X127367Y-40358D01*
X134500Y-28200D02*
X133885Y-28200D01*
X123910Y-43809D02*
X123752Y-43967D01*
X123910Y-41475D02*
X123910Y-43809D01*
X124124Y-41260D02*
X123910Y-41475D01*
X124508Y-41260D02*
X124124Y-41260D01*
X128930Y-36672D02*
X128930Y-38574D01*
X129797Y-35805D02*
X128930Y-36672D01*
X132004Y-35805D02*
X129797Y-35805D01*
X132369Y-35440D02*
X132004Y-35805D01*
X133264Y-35440D02*
X132369Y-35440D01*
X133635Y-35069D02*
X133264Y-35440D01*
X133635Y-28450D02*
X133635Y-35069D01*
X133885Y-28200D02*
X133635Y-28450D01*
X128810Y-38552D02*
X128810Y-38745D01*
X124591Y-41140D02*
X124430Y-41140D01*
X125493Y-40238D02*
X124591Y-41140D01*
X127317Y-40238D02*
X125493Y-40238D01*
X128810Y-38745D02*
X127317Y-40238D01*
X123751Y-43653D02*
X123751Y-41285D01*
X123896Y-41140D02*
X124430Y-41140D01*
X123751Y-41285D02*
X123896Y-41140D01*
X133845Y-26200D02*
X134500Y-26200D01*
X133515Y-26530D02*
X133845Y-26200D01*
X133515Y-35020D02*
X133515Y-26530D01*
X133215Y-35320D02*
X133515Y-35020D01*
X132319Y-35320D02*
X133215Y-35320D01*
X131954Y-35685D02*
X132319Y-35320D01*
X129748Y-35685D02*
X131954Y-35685D01*
X128810Y-36623D02*
X129748Y-35685D01*
X128810Y-38552D02*
X128810Y-36623D01*
X128570Y-38426D02*
X128570Y-38646D01*
X124492Y-40900D02*
X124340Y-40900D01*
X125394Y-39998D02*
X124492Y-40900D01*
X127218Y-39998D02*
X125394Y-39998D01*
X128570Y-38646D02*
X127218Y-39998D01*
X123436Y-43653D02*
X123436Y-41261D01*
X123797Y-40900D02*
X124340Y-40900D01*
X123436Y-41261D02*
X123797Y-40900D01*
X132260Y-26200D02*
X133000Y-26200D01*
X132055Y-26405D02*
X132260Y-26200D01*
X132055Y-35245D02*
X132055Y-26405D01*
X131855Y-35445D02*
X132055Y-35245D01*
X129648Y-35445D02*
X131855Y-35445D01*
X128570Y-36523D02*
X129648Y-35445D01*
X128570Y-38426D02*
X128570Y-36523D01*
X128690Y-38462D02*
X128690Y-38695D01*
X124541Y-41020D02*
X124356Y-41020D01*
X125443Y-40118D02*
X124541Y-41020D01*
X127267Y-40118D02*
X125443Y-40118D01*
X128690Y-38695D02*
X127267Y-40118D01*
X133000Y-28200D02*
X132455Y-28200D01*
X123595Y-43809D02*
X123437Y-43967D01*
X123595Y-41271D02*
X123595Y-43809D01*
X123846Y-41020D02*
X123595Y-41271D01*
X124356Y-41020D02*
X123846Y-41020D01*
X128690Y-36573D02*
X128690Y-38462D01*
X129698Y-35565D02*
X128690Y-36573D01*
X131904Y-35565D02*
X129698Y-35565D01*
X132175Y-35294D02*
X131904Y-35565D01*
X132175Y-28480D02*
X132175Y-35294D01*
X132455Y-28200D02*
X132175Y-28480D01*
X130100Y-80800D02*
X130100Y-81040D01*
X131117Y-83747D02*
X131117Y-85367D01*
X130090Y-82720D02*
X131117Y-83747D01*
X129720Y-82720D02*
X130090Y-82720D01*
X129680Y-82680D02*
X129720Y-82720D01*
X129680Y-81460D02*
X129680Y-82680D01*
X130100Y-81040D02*
X129680Y-81460D01*
X123437Y-44281D02*
X123437Y-44282D01*
X123594Y-44124D02*
X123437Y-44281D01*
X123437Y-44597D02*
X123594Y-44440D01*
X123437Y-44911D02*
X123436Y-44911D01*
X123594Y-44754D02*
X123437Y-44911D01*
X123122Y-44912D02*
X123122Y-44913D01*
X123280Y-44754D02*
X123122Y-44912D01*
X131353Y-83713D02*
X131353Y-85367D01*
X130890Y-83250D02*
X131353Y-83713D01*
X131300Y-71800D02*
X131300Y-72340D01*
X131589Y-83548D02*
X131589Y-85367D01*
X131120Y-83080D02*
X131589Y-83548D01*
X130830Y-83080D02*
X131120Y-83080D01*
X130509Y-82759D02*
X130830Y-83080D01*
X130509Y-73130D02*
X130509Y-82759D01*
X131300Y-72340D02*
X130509Y-73130D01*
X131300Y-74800D02*
X131300Y-75230D01*
X131825Y-83614D02*
X131825Y-85367D01*
X131170Y-82960D02*
X131825Y-83614D01*
X130880Y-82960D02*
X131170Y-82960D01*
X130629Y-82709D02*
X130880Y-82960D01*
X130629Y-75900D02*
X130629Y-82709D01*
X131300Y-75230D02*
X130629Y-75900D01*
X131300Y-77800D02*
X131300Y-78180D01*
X132062Y-83681D02*
X132062Y-85367D01*
X131220Y-82840D02*
X132062Y-83681D01*
X130930Y-82840D02*
X131220Y-82840D01*
X130750Y-82659D02*
X130930Y-82840D01*
X130750Y-78730D02*
X130750Y-82659D01*
X131300Y-78180D02*
X130750Y-78730D01*
X131300Y-80800D02*
X131300Y-81050D01*
X132298Y-83748D02*
X132298Y-85367D01*
X131270Y-82720D02*
X132298Y-83748D01*
X130980Y-82720D02*
X131270Y-82720D01*
X130880Y-82620D02*
X130980Y-82720D01*
X130880Y-81470D02*
X130880Y-82620D01*
X131300Y-81050D02*
X130880Y-81470D01*
X132534Y-83394D02*
X132534Y-85367D01*
X132400Y-83260D02*
X132534Y-83394D01*
X132500Y-71800D02*
X132500Y-72160D01*
X132770Y-83380D02*
X132770Y-85367D01*
X132470Y-83080D02*
X132770Y-83380D01*
X131970Y-83080D02*
X132470Y-83080D01*
X131719Y-82829D02*
X131970Y-83080D01*
X131719Y-72940D02*
X131719Y-82829D01*
X132500Y-72160D02*
X131719Y-72940D01*
X132500Y-74800D02*
X132500Y-75290D01*
X133007Y-83156D02*
X133007Y-85367D01*
X132810Y-82960D02*
X133007Y-83156D01*
X132020Y-82960D02*
X132810Y-82960D01*
X131839Y-82779D02*
X132020Y-82960D01*
X131839Y-75950D02*
X131839Y-82779D01*
X132500Y-75290D02*
X131839Y-75950D01*
X132500Y-77800D02*
X132500Y-78110D01*
X133243Y-83222D02*
X133243Y-85367D01*
X132860Y-82840D02*
X133243Y-83222D01*
X132070Y-82840D02*
X132860Y-82840D01*
X131959Y-82729D02*
X132070Y-82840D01*
X131959Y-78650D02*
X131959Y-82729D01*
X132500Y-78110D02*
X131959Y-78650D01*
X132500Y-80800D02*
X132500Y-81120D01*
X133479Y-83289D02*
X133479Y-85367D01*
X132910Y-82720D02*
X133479Y-83289D01*
X132120Y-82720D02*
X132910Y-82720D01*
X132080Y-82680D02*
X132120Y-82720D01*
X132080Y-81540D02*
X132080Y-82680D01*
X132500Y-81120D02*
X132080Y-81540D01*
M02*
