G04 (created by PCBNEW (2012-oct-18)-testing) date Mon 18 Feb 2013 10:37:03 UTC*
%MOIN*%
G04 Gerber Fmt 3.4, Leading zero omitted, Abs format*
%FSLAX34Y34*%
G01*
G70*
G90*
G04 APERTURE LIST*
%ADD10C,0.006*%
%ADD11R,0.0177X0.1003*%
%ADD12R,0.06X0.06*%
%ADD13C,0.16*%
%ADD14C,0.0145*%
%ADD15C,0.008*%
%ADD16C,0.01*%
G04 APERTURE END LIST*
G54D10*
G54D11*
X108800Y-85367D03*
X109035Y-85367D03*
X109271Y-85367D03*
X109508Y-85367D03*
X109744Y-85367D03*
X109980Y-85367D03*
X110216Y-85367D03*
X110452Y-85367D03*
X110689Y-85367D03*
X110925Y-85367D03*
X111161Y-85367D03*
X111397Y-85367D03*
X111634Y-85367D03*
X111870Y-85367D03*
X112106Y-85367D03*
X112342Y-85367D03*
X112578Y-85367D03*
X112815Y-85367D03*
X113051Y-85367D03*
X113287Y-85367D03*
X114941Y-85367D03*
X115177Y-85367D03*
X115413Y-85367D03*
X115649Y-85367D03*
X115886Y-85367D03*
X116122Y-85367D03*
X116358Y-85367D03*
X116594Y-85367D03*
X116830Y-85367D03*
X117067Y-85367D03*
X117303Y-85367D03*
X117539Y-85367D03*
X117775Y-85367D03*
X118012Y-85367D03*
X118248Y-85367D03*
X118484Y-85367D03*
X118720Y-85367D03*
X118956Y-85367D03*
X119193Y-85367D03*
X119429Y-85367D03*
X119665Y-85367D03*
X119901Y-85367D03*
X120137Y-85367D03*
X120374Y-85367D03*
X120610Y-85367D03*
X120846Y-85367D03*
X121082Y-85367D03*
X121318Y-85367D03*
X121554Y-85367D03*
X121790Y-85367D03*
X122026Y-85367D03*
X122262Y-85367D03*
X122499Y-85367D03*
X122735Y-85367D03*
X122971Y-85367D03*
X123207Y-85367D03*
X123444Y-85367D03*
X123680Y-85367D03*
X123916Y-85367D03*
X124152Y-85367D03*
X124388Y-85367D03*
X124625Y-85367D03*
X124861Y-85367D03*
X125097Y-85367D03*
X125333Y-85367D03*
X125570Y-85367D03*
X125806Y-85367D03*
X126042Y-85367D03*
X126278Y-85367D03*
X126514Y-85367D03*
X126751Y-85367D03*
X126987Y-85367D03*
X127223Y-85367D03*
X127459Y-85367D03*
X127696Y-85367D03*
X127932Y-85367D03*
X128168Y-85367D03*
X128404Y-85367D03*
X128640Y-85367D03*
X128877Y-85367D03*
X129113Y-85367D03*
X129349Y-85367D03*
X129585Y-85367D03*
X129822Y-85367D03*
X130058Y-85367D03*
X130294Y-85367D03*
X130530Y-85367D03*
X130766Y-85367D03*
X131003Y-85367D03*
X131239Y-85367D03*
X131475Y-85367D03*
X131711Y-85367D03*
X131948Y-85367D03*
X132184Y-85367D03*
X132420Y-85367D03*
X132656Y-85367D03*
X132892Y-85367D03*
X133129Y-85367D03*
X133365Y-85367D03*
X133601Y-85367D03*
G54D12*
X109500Y-45200D03*
X109500Y-37700D03*
X109500Y-39200D03*
X109500Y-42200D03*
X109500Y-43700D03*
X109500Y-46700D03*
X107500Y-37700D03*
X107500Y-39200D03*
X107500Y-42200D03*
X107500Y-43700D03*
X107500Y-45200D03*
X107500Y-46700D03*
X101500Y-49700D03*
X101500Y-37700D03*
X101500Y-39200D03*
X101500Y-42200D03*
X101500Y-43700D03*
X101500Y-45200D03*
X101500Y-46700D03*
X137500Y-66700D03*
X137500Y-64700D03*
X137500Y-62700D03*
X137500Y-60700D03*
X137500Y-58700D03*
X136000Y-66700D03*
X136000Y-64700D03*
X136000Y-62700D03*
X136000Y-60700D03*
X105500Y-37700D03*
X105500Y-39200D03*
X105500Y-42200D03*
X105500Y-43700D03*
X105500Y-45200D03*
X105500Y-46700D03*
X103500Y-37700D03*
X103500Y-39200D03*
X103500Y-42200D03*
X103500Y-43700D03*
X103500Y-45200D03*
X103500Y-46700D03*
X136000Y-58700D03*
X115000Y-34200D03*
X122500Y-30200D03*
X121000Y-34200D03*
X121000Y-32200D03*
X121000Y-30200D03*
X119500Y-34200D03*
X119500Y-32200D03*
X119500Y-30200D03*
X118000Y-34200D03*
X118000Y-32200D03*
X118000Y-30200D03*
X116500Y-34200D03*
X116500Y-32200D03*
X116500Y-30200D03*
X122500Y-32200D03*
X115000Y-32200D03*
X115000Y-30200D03*
X113500Y-34200D03*
X113500Y-32200D03*
X113500Y-30200D03*
X112000Y-34200D03*
X112000Y-32200D03*
X112000Y-30200D03*
X110500Y-34200D03*
X110500Y-32200D03*
X110500Y-30200D03*
X109000Y-34200D03*
X109000Y-32200D03*
X128500Y-34200D03*
X136000Y-30200D03*
X134500Y-34200D03*
X134500Y-32200D03*
X134500Y-30200D03*
X133000Y-34200D03*
X133000Y-32200D03*
X133000Y-30200D03*
X131500Y-34200D03*
X131500Y-32200D03*
X131500Y-30200D03*
X130000Y-34200D03*
X130000Y-32200D03*
X130000Y-30200D03*
X109000Y-30200D03*
X128500Y-32200D03*
X128500Y-30200D03*
X127000Y-34200D03*
X127000Y-32200D03*
X127000Y-30200D03*
X125500Y-34200D03*
X125500Y-32200D03*
X125500Y-30200D03*
X124000Y-34200D03*
X124000Y-32200D03*
X124000Y-30200D03*
X122500Y-34200D03*
X125500Y-26200D03*
X110500Y-28200D03*
X109000Y-28200D03*
X107500Y-28200D03*
X106000Y-28200D03*
X104500Y-28200D03*
X137500Y-26200D03*
X136000Y-26200D03*
X134500Y-26200D03*
X133000Y-26200D03*
X131500Y-26200D03*
X130000Y-26200D03*
X127000Y-26200D03*
X128500Y-26200D03*
X112000Y-28200D03*
X124000Y-26200D03*
X122500Y-26200D03*
X121000Y-26200D03*
X119500Y-26200D03*
X116500Y-26200D03*
X118000Y-26200D03*
X115000Y-26200D03*
X113500Y-26200D03*
X112000Y-26200D03*
X110500Y-26200D03*
X109000Y-26200D03*
X106000Y-26200D03*
X107500Y-26200D03*
X131500Y-28200D03*
X107500Y-34200D03*
X107500Y-32200D03*
X107500Y-30200D03*
X106000Y-34200D03*
X106000Y-32200D03*
X106000Y-30200D03*
X104500Y-34200D03*
X104500Y-32200D03*
X104500Y-30200D03*
X137500Y-28200D03*
X136000Y-28200D03*
X134500Y-28200D03*
X133000Y-28200D03*
X136000Y-32200D03*
X130000Y-28200D03*
X128500Y-28200D03*
X127000Y-28200D03*
X125500Y-28200D03*
X124000Y-28200D03*
X122500Y-28200D03*
X121000Y-28200D03*
X119500Y-28200D03*
X118000Y-28200D03*
X116500Y-28200D03*
X115000Y-28200D03*
X113500Y-28200D03*
X122500Y-66700D03*
X127000Y-62700D03*
X127000Y-60700D03*
X127000Y-58700D03*
X125500Y-66700D03*
X125500Y-64700D03*
X125500Y-62700D03*
X125500Y-60700D03*
X125500Y-58700D03*
X124000Y-66700D03*
X124000Y-64700D03*
X124000Y-62700D03*
X124000Y-60700D03*
X124000Y-58700D03*
X127000Y-64700D03*
X122500Y-64700D03*
X122500Y-62700D03*
X122500Y-60700D03*
X122500Y-58700D03*
X121000Y-66700D03*
X121000Y-64700D03*
X121000Y-62700D03*
X121000Y-60700D03*
X121000Y-58700D03*
X119500Y-66700D03*
X119500Y-64700D03*
X119500Y-62700D03*
X119500Y-60700D03*
X131500Y-60700D03*
X134500Y-66700D03*
X134500Y-64700D03*
X134500Y-62700D03*
X134500Y-60700D03*
X134500Y-58700D03*
X133000Y-66700D03*
X133000Y-64700D03*
X133000Y-62700D03*
X133000Y-60700D03*
X133000Y-58700D03*
X131500Y-66700D03*
X131500Y-64700D03*
X131500Y-62700D03*
X119500Y-58700D03*
X131500Y-58700D03*
X130000Y-66700D03*
X130000Y-64700D03*
X130000Y-62700D03*
X130000Y-60700D03*
X130000Y-58700D03*
X128500Y-66700D03*
X128500Y-64700D03*
X128500Y-62700D03*
X128500Y-60700D03*
X128500Y-58700D03*
X127000Y-66700D03*
X106000Y-66700D03*
X110500Y-62700D03*
X110500Y-60700D03*
X110500Y-58700D03*
X109000Y-66700D03*
X109000Y-64700D03*
X109000Y-62700D03*
X109000Y-60700D03*
X109000Y-58700D03*
X107500Y-66700D03*
X107500Y-64700D03*
X107500Y-62700D03*
X107500Y-60700D03*
X107500Y-58700D03*
X110500Y-64700D03*
X106000Y-64700D03*
X106000Y-62700D03*
X106000Y-60700D03*
X106000Y-58700D03*
X104500Y-66700D03*
X104500Y-64700D03*
X104500Y-62700D03*
X104500Y-60700D03*
X104500Y-58700D03*
X137500Y-34200D03*
X137500Y-32200D03*
X137500Y-30200D03*
X136000Y-34200D03*
X115000Y-60700D03*
X118000Y-66700D03*
X118000Y-64700D03*
X118000Y-62700D03*
X118000Y-60700D03*
X118000Y-58700D03*
X116500Y-66700D03*
X116500Y-64700D03*
X116500Y-62700D03*
X116500Y-60700D03*
X116500Y-58700D03*
X115000Y-66700D03*
X115000Y-64700D03*
X115000Y-62700D03*
X104500Y-26200D03*
X115000Y-58700D03*
X113500Y-66700D03*
X113500Y-64700D03*
X113500Y-62700D03*
X113500Y-60700D03*
X113500Y-58700D03*
X112000Y-66700D03*
X112000Y-64700D03*
X112000Y-62700D03*
X112000Y-60700D03*
X112000Y-58700D03*
X110500Y-66700D03*
X134500Y-51200D03*
X132500Y-45200D03*
X132500Y-43700D03*
X132500Y-42200D03*
X132500Y-40700D03*
X132500Y-39200D03*
X132500Y-37700D03*
X134500Y-55700D03*
X136500Y-54200D03*
X134500Y-52700D03*
X132500Y-46700D03*
X134500Y-49700D03*
X134500Y-48200D03*
X134500Y-46700D03*
X134500Y-45200D03*
X134500Y-43700D03*
X134500Y-42200D03*
X134500Y-40700D03*
X134500Y-39200D03*
X134500Y-37700D03*
X127000Y-38200D03*
X125500Y-38200D03*
X125500Y-36200D03*
X127000Y-56700D03*
X127000Y-54700D03*
X130500Y-49700D03*
X130500Y-48200D03*
X130500Y-46700D03*
X130500Y-45200D03*
X130500Y-43700D03*
X136500Y-55700D03*
X127000Y-36200D03*
X132500Y-54200D03*
X132500Y-55700D03*
X134500Y-54200D03*
X132500Y-52700D03*
X132500Y-51200D03*
X132500Y-49700D03*
X132500Y-48200D03*
X140500Y-51200D03*
X138500Y-45200D03*
X138500Y-43700D03*
X138500Y-42200D03*
X138500Y-40700D03*
X138500Y-39200D03*
X138500Y-37700D03*
X140500Y-55700D03*
X101500Y-54200D03*
X140500Y-52700D03*
X138500Y-46700D03*
X140500Y-49700D03*
X140500Y-48200D03*
X140500Y-46700D03*
X140500Y-45200D03*
X140500Y-43700D03*
X140500Y-42200D03*
X140500Y-40700D03*
X140500Y-39200D03*
X140500Y-37700D03*
X136500Y-40700D03*
X138500Y-54200D03*
X136500Y-52700D03*
X136500Y-51200D03*
X136500Y-49700D03*
X136500Y-48200D03*
X136500Y-46700D03*
X136500Y-45200D03*
X136500Y-43700D03*
X136500Y-42200D03*
X128500Y-43700D03*
X136500Y-39200D03*
X136500Y-37700D03*
X138500Y-55700D03*
X140500Y-54200D03*
X138500Y-52700D03*
X138500Y-51200D03*
X138500Y-49700D03*
X138500Y-48200D03*
X109500Y-51200D03*
X107500Y-55700D03*
X109500Y-54200D03*
X107500Y-52700D03*
X107500Y-51200D03*
X107500Y-49700D03*
X107500Y-48200D03*
X107500Y-40700D03*
X109500Y-55700D03*
X109500Y-52700D03*
X105500Y-40700D03*
X109500Y-49700D03*
X109500Y-48200D03*
X109500Y-40700D03*
X115000Y-56700D03*
X115000Y-54700D03*
X111500Y-49700D03*
X111500Y-48200D03*
X111500Y-46700D03*
X111500Y-45200D03*
X103500Y-49700D03*
X103500Y-54200D03*
X101500Y-52700D03*
X101500Y-51200D03*
X101500Y-48200D03*
X101500Y-40700D03*
X103500Y-55700D03*
X105500Y-54200D03*
X103500Y-52700D03*
X103500Y-51200D03*
X111500Y-43700D03*
X103500Y-48200D03*
X103500Y-40700D03*
X105500Y-55700D03*
X107500Y-54200D03*
X105500Y-52700D03*
X105500Y-51200D03*
X105500Y-49700D03*
X105500Y-48200D03*
X124000Y-54700D03*
X121000Y-56700D03*
X121000Y-54700D03*
X121000Y-38200D03*
X121000Y-36200D03*
X122500Y-56700D03*
X122500Y-54700D03*
X122500Y-38200D03*
X122500Y-36200D03*
X124000Y-56700D03*
X119500Y-36200D03*
X124000Y-38200D03*
X124000Y-36200D03*
X125500Y-56700D03*
X125500Y-54700D03*
X128500Y-49700D03*
X128500Y-48200D03*
X128500Y-46700D03*
X128500Y-45200D03*
X116500Y-38200D03*
X115000Y-38200D03*
X115000Y-36200D03*
X116500Y-56700D03*
X116500Y-54700D03*
X113500Y-49700D03*
X113500Y-48200D03*
X113500Y-46700D03*
X113500Y-45200D03*
X113500Y-43700D03*
X101500Y-55700D03*
X116500Y-36200D03*
X118000Y-56700D03*
X118000Y-54700D03*
X118000Y-38200D03*
X118000Y-36200D03*
X119500Y-56700D03*
X119500Y-54700D03*
X119500Y-38200D03*
G54D13*
X101000Y-26200D03*
X141000Y-26200D03*
X101000Y-67200D03*
X141000Y-67200D03*
G54D12*
X125300Y-82300D03*
X124100Y-79300D03*
X124100Y-77800D03*
X124100Y-82300D03*
X124100Y-80800D03*
X125300Y-70300D03*
X125300Y-68800D03*
X125300Y-73300D03*
X125300Y-71800D03*
X125300Y-76300D03*
X125300Y-74800D03*
X125300Y-79300D03*
X125300Y-77800D03*
X124100Y-74800D03*
X125300Y-80800D03*
X126500Y-70300D03*
X126500Y-68800D03*
X126500Y-73300D03*
X126500Y-71800D03*
X126500Y-76300D03*
X126500Y-74800D03*
X126500Y-79300D03*
X126500Y-77800D03*
X126500Y-82300D03*
X126500Y-80800D03*
X122900Y-71800D03*
X121700Y-68800D03*
X121700Y-73300D03*
X121700Y-71800D03*
X121700Y-76300D03*
X121700Y-74800D03*
X121700Y-79300D03*
X121700Y-77800D03*
X121700Y-82300D03*
X121700Y-80800D03*
X122900Y-70300D03*
X122900Y-68800D03*
X122900Y-73300D03*
X127700Y-70300D03*
X122900Y-76300D03*
X122900Y-74800D03*
X122900Y-79300D03*
X122900Y-77800D03*
X122900Y-82300D03*
X122900Y-80800D03*
X124100Y-70300D03*
X124100Y-68800D03*
X124100Y-73300D03*
X124100Y-71800D03*
X124100Y-76300D03*
X131300Y-82300D03*
X130100Y-79300D03*
X130100Y-77800D03*
X130100Y-82300D03*
X130100Y-80800D03*
X131300Y-70300D03*
X131300Y-68800D03*
X131300Y-73300D03*
X131300Y-71800D03*
X131300Y-76300D03*
X131300Y-74800D03*
X131300Y-79300D03*
X131300Y-77800D03*
X130100Y-74800D03*
X131300Y-80800D03*
X132500Y-70300D03*
X132500Y-68800D03*
X132500Y-73300D03*
X132500Y-71800D03*
X132500Y-76300D03*
X132500Y-74800D03*
X132500Y-79300D03*
X132500Y-77800D03*
X132500Y-82300D03*
X132500Y-80800D03*
X128900Y-71800D03*
X127700Y-68800D03*
X127700Y-73300D03*
X127700Y-71800D03*
X127700Y-76300D03*
X127700Y-74800D03*
X127700Y-79300D03*
X127700Y-77800D03*
X127700Y-82300D03*
X127700Y-80800D03*
X128900Y-70300D03*
X128900Y-68800D03*
X128900Y-73300D03*
X121700Y-70300D03*
X128900Y-76300D03*
X128900Y-74800D03*
X128900Y-79300D03*
X128900Y-77800D03*
X128900Y-82300D03*
X128900Y-80800D03*
X130100Y-70300D03*
X130100Y-68800D03*
X130100Y-73300D03*
X130100Y-71800D03*
X130100Y-76300D03*
X113300Y-82300D03*
X112100Y-79300D03*
X112100Y-77800D03*
X112100Y-82300D03*
X112100Y-80800D03*
X113300Y-70300D03*
X113300Y-68800D03*
X113300Y-73300D03*
X113300Y-71800D03*
X113300Y-76300D03*
X113300Y-74800D03*
X113300Y-79300D03*
X113300Y-77800D03*
X112100Y-74800D03*
X113300Y-80800D03*
X114500Y-70300D03*
X114500Y-68800D03*
X114500Y-73300D03*
X114500Y-71800D03*
X114500Y-76300D03*
X114500Y-74800D03*
X114500Y-79300D03*
X114500Y-77800D03*
X114500Y-82300D03*
X114500Y-80800D03*
X110900Y-71800D03*
X109700Y-68800D03*
X109700Y-73300D03*
X109700Y-71800D03*
X109700Y-76300D03*
X109700Y-74800D03*
X109700Y-79300D03*
X109700Y-77800D03*
X109700Y-82300D03*
X109700Y-80800D03*
X110900Y-70300D03*
X110900Y-68800D03*
X110900Y-73300D03*
X115700Y-70300D03*
X110900Y-76300D03*
X110900Y-74800D03*
X110900Y-79300D03*
X110900Y-77800D03*
X110900Y-82300D03*
X110900Y-80800D03*
X112100Y-70300D03*
X112100Y-68800D03*
X112100Y-73300D03*
X112100Y-71800D03*
X112100Y-76300D03*
X119300Y-82300D03*
X118100Y-79300D03*
X118100Y-77800D03*
X118100Y-82300D03*
X118100Y-80800D03*
X119300Y-70300D03*
X119300Y-68800D03*
X119300Y-73300D03*
X119300Y-71800D03*
X119300Y-76300D03*
X119300Y-74800D03*
X119300Y-79300D03*
X119300Y-77800D03*
X118100Y-74800D03*
X119300Y-80800D03*
X120500Y-70300D03*
X120500Y-68800D03*
X120500Y-73300D03*
X120500Y-71800D03*
X120500Y-76300D03*
X120500Y-74800D03*
X120500Y-79300D03*
X120500Y-77800D03*
X120500Y-82300D03*
X120500Y-80800D03*
X116900Y-71800D03*
X115700Y-68800D03*
X115700Y-73300D03*
X115700Y-71800D03*
X115700Y-76300D03*
X115700Y-74800D03*
X115700Y-79300D03*
X115700Y-77800D03*
X115700Y-82300D03*
X115700Y-80800D03*
X116900Y-70300D03*
X116900Y-68800D03*
X116900Y-73300D03*
X109700Y-70300D03*
X116900Y-76300D03*
X116900Y-74800D03*
X116900Y-79300D03*
X116900Y-77800D03*
X116900Y-82300D03*
X116900Y-80800D03*
X118100Y-70300D03*
X118100Y-68800D03*
X118100Y-73300D03*
X118100Y-71800D03*
X118100Y-76300D03*
G54D14*
X117925Y-48845D03*
X117925Y-49160D03*
X118240Y-49165D03*
X118555Y-48850D03*
X118240Y-48850D03*
X123280Y-49162D03*
X123596Y-49164D03*
X123910Y-49164D03*
X118555Y-47590D03*
X118555Y-47905D03*
X118240Y-47905D03*
X117925Y-47905D03*
X118240Y-47590D03*
X117925Y-47590D03*
X118240Y-48220D03*
X117925Y-48530D03*
X118240Y-48530D03*
X118555Y-48530D03*
X118555Y-48220D03*
X117925Y-48220D03*
X123280Y-47590D03*
X123596Y-47588D03*
X123910Y-47588D03*
X123910Y-46960D03*
X123596Y-46960D03*
X123280Y-46958D03*
X123910Y-47904D03*
X123280Y-47274D03*
X123596Y-47274D03*
X123910Y-47272D03*
X123910Y-48532D03*
X123596Y-48532D03*
X123280Y-48532D03*
X123282Y-48848D03*
X123596Y-48848D03*
X123910Y-48848D03*
X123596Y-48218D03*
X123596Y-47904D03*
X123280Y-47906D03*
X123280Y-48218D03*
X123910Y-48218D03*
X123280Y-49480D03*
X123595Y-49790D03*
X123595Y-50105D03*
X123280Y-49790D03*
X123280Y-50105D03*
X124225Y-49790D03*
X123910Y-49480D03*
X123910Y-49790D03*
X123910Y-50105D03*
X124225Y-50105D03*
X123595Y-49480D03*
X122335Y-49480D03*
X122340Y-49790D03*
X122335Y-50105D03*
X122020Y-50105D03*
X122965Y-49480D03*
X122965Y-50105D03*
X122965Y-49790D03*
X122650Y-49480D03*
X122650Y-49790D03*
X122650Y-50105D03*
X118240Y-46645D03*
X117925Y-46645D03*
X118555Y-46645D03*
X118555Y-46330D03*
X118240Y-46330D03*
X117925Y-46330D03*
X118555Y-47275D03*
X118240Y-47275D03*
X117925Y-47275D03*
X118555Y-46960D03*
X118240Y-46960D03*
X117925Y-46960D03*
X118240Y-45385D03*
X117925Y-45700D03*
X118556Y-45385D03*
X117925Y-45385D03*
X124220Y-49475D03*
X117925Y-46015D03*
X118555Y-46015D03*
X118240Y-46015D03*
X118555Y-45700D03*
X118240Y-45700D03*
X119500Y-47905D03*
X122336Y-46958D03*
X122020Y-46644D03*
X122334Y-46644D03*
X119815Y-47905D03*
X119815Y-47590D03*
X119500Y-47590D03*
X119815Y-47275D03*
X119500Y-47275D03*
X118242Y-44754D03*
X122338Y-47904D03*
X122022Y-47904D03*
X122336Y-47590D03*
X122022Y-47588D03*
X122022Y-47274D03*
X122338Y-47274D03*
X122022Y-46960D03*
X120760Y-48220D03*
X121390Y-48220D03*
X121390Y-48535D03*
X121075Y-48535D03*
X121075Y-48215D03*
X121705Y-48535D03*
X120760Y-48535D03*
X120445Y-48220D03*
X120445Y-48530D03*
X119815Y-46960D03*
X119500Y-46960D03*
X119815Y-46645D03*
X119500Y-46645D03*
X122020Y-48220D03*
X122020Y-48535D03*
X121705Y-48215D03*
X124210Y-83820D03*
X122500Y-83220D03*
X121340Y-83250D03*
X120670Y-83930D03*
X119490Y-83850D03*
X129720Y-83290D03*
X128460Y-83260D03*
X127320Y-83280D03*
X126090Y-83250D03*
X124910Y-83300D03*
X111130Y-83970D03*
X109950Y-83490D03*
X108600Y-83800D03*
X117980Y-83410D03*
X116530Y-83300D03*
X120135Y-48220D03*
X115460Y-83450D03*
X114250Y-83570D03*
X112320Y-82970D03*
X123280Y-45384D03*
X123594Y-45384D03*
X123908Y-45384D03*
X123908Y-45700D03*
X123594Y-45700D03*
X123596Y-46644D03*
X123910Y-46330D03*
X123280Y-46646D03*
X123910Y-46644D03*
X123280Y-45700D03*
X123278Y-46014D03*
X123594Y-46014D03*
X123908Y-46014D03*
X123278Y-46330D03*
X123594Y-46328D03*
X122018Y-46016D03*
X122020Y-45700D03*
X121702Y-46014D03*
X121704Y-45700D03*
X121388Y-46014D03*
X121390Y-45700D03*
X121074Y-46014D03*
X121074Y-45700D03*
X120760Y-46014D03*
X119500Y-48215D03*
X120130Y-48535D03*
X119815Y-48215D03*
X119815Y-48535D03*
X119500Y-48535D03*
X122334Y-46016D03*
X122336Y-45698D03*
X120130Y-46016D03*
X120760Y-45700D03*
X120444Y-46014D03*
X120444Y-45700D03*
X120130Y-45700D03*
X119816Y-46016D03*
X119816Y-45700D03*
X121705Y-47903D03*
X120130Y-47903D03*
X118555Y-49165D03*
X121390Y-46644D03*
X121706Y-47588D03*
X121390Y-47590D03*
X121076Y-47588D03*
X120760Y-47588D03*
X120446Y-47588D03*
X121706Y-47274D03*
X121390Y-47274D03*
X121076Y-47274D03*
X120762Y-47274D03*
X120448Y-47274D03*
X120132Y-47274D03*
X121706Y-46960D03*
X121390Y-46960D03*
X121078Y-46958D03*
X120762Y-46960D03*
X120132Y-46958D03*
X120446Y-46958D03*
X121076Y-46644D03*
X120760Y-46644D03*
X118555Y-44125D03*
X118555Y-44440D03*
X118556Y-44754D03*
X118870Y-44125D03*
X117925Y-44125D03*
X117925Y-44440D03*
X117926Y-44754D03*
X118240Y-44125D03*
X118240Y-44440D03*
X119816Y-44754D03*
X119816Y-44440D03*
X119816Y-44126D03*
X119500Y-44754D03*
X119500Y-44440D03*
X119500Y-44124D03*
X120130Y-44754D03*
X120444Y-44754D03*
X120446Y-44440D03*
X120446Y-44124D03*
X120130Y-44440D03*
X120130Y-44126D03*
X117610Y-44125D03*
X117610Y-44440D03*
X117612Y-44754D03*
X119186Y-44124D03*
X119186Y-44754D03*
X119186Y-44438D03*
X118870Y-44754D03*
X118870Y-44440D03*
X118870Y-50105D03*
X119185Y-50105D03*
X118870Y-49790D03*
X118870Y-49480D03*
X118555Y-49480D03*
X119500Y-49790D03*
X119500Y-50105D03*
X118555Y-49790D03*
X119500Y-49480D03*
X119185Y-49480D03*
X119185Y-49790D03*
X117925Y-49790D03*
X117925Y-50105D03*
X117610Y-50105D03*
X117925Y-49480D03*
X117295Y-49790D03*
X118555Y-50105D03*
X118240Y-50105D03*
X118240Y-49790D03*
X118240Y-49480D03*
X121390Y-49790D03*
X121390Y-50105D03*
X121075Y-50105D03*
X121075Y-49790D03*
X121075Y-49480D03*
X121705Y-50105D03*
X122020Y-49790D03*
X122020Y-49480D03*
X121705Y-49790D03*
X121705Y-49480D03*
X121390Y-49480D03*
X120130Y-49475D03*
X120130Y-49790D03*
X120130Y-50105D03*
X119820Y-49480D03*
X119815Y-49790D03*
X119820Y-50105D03*
X120445Y-49480D03*
X120760Y-50105D03*
X120760Y-49795D03*
X120760Y-49480D03*
X117610Y-49795D03*
X120445Y-49790D03*
X120445Y-50105D03*
X122020Y-44440D03*
X122020Y-44124D03*
X122020Y-44754D03*
X121706Y-44754D03*
X121704Y-44440D03*
X121706Y-44124D03*
X122650Y-44754D03*
X122650Y-44124D03*
X122650Y-44440D03*
X122336Y-44754D03*
X122336Y-44440D03*
X122336Y-44124D03*
X120760Y-44440D03*
X121076Y-44440D03*
X121076Y-44124D03*
X120760Y-44754D03*
X120760Y-44124D03*
X121390Y-44126D03*
X121390Y-44440D03*
X121390Y-44754D03*
X121076Y-44754D03*
X124224Y-44124D03*
X124224Y-44440D03*
X124224Y-44756D03*
X123908Y-44754D03*
X123910Y-44440D03*
X117610Y-49480D03*
X117295Y-49480D03*
X117295Y-50105D03*
X124542Y-44754D03*
X124538Y-44440D03*
X124538Y-44126D03*
X122966Y-44756D03*
X123280Y-44440D03*
X123280Y-44126D03*
X122964Y-44440D03*
X122964Y-44126D03*
X123910Y-44124D03*
X123594Y-44124D03*
X123594Y-44440D03*
X123594Y-44754D03*
X123280Y-44754D03*
X130890Y-83250D03*
X132400Y-83260D03*
G54D15*
X118550Y-49165D02*
X118550Y-49170D01*
X122881Y-49005D02*
X122593Y-48717D01*
X124749Y-49005D02*
X122881Y-49005D01*
X124938Y-49194D02*
X124749Y-49005D01*
X124938Y-50756D02*
X124938Y-49194D01*
X124601Y-51093D02*
X124938Y-50756D01*
X117183Y-51093D02*
X124601Y-51093D01*
X116856Y-50766D02*
X117183Y-51093D01*
X116856Y-49487D02*
X116856Y-50766D01*
X117018Y-49325D02*
X116856Y-49487D01*
X118395Y-49325D02*
X117018Y-49325D01*
X118550Y-49170D02*
X118395Y-49325D01*
X119133Y-48852D02*
X122459Y-48852D01*
X122459Y-48852D02*
X122593Y-48717D01*
X122723Y-47562D02*
X122724Y-47562D01*
X122593Y-48717D02*
X122723Y-48588D01*
X122723Y-48588D02*
X122723Y-47562D01*
X119133Y-47601D02*
X119133Y-48852D01*
X119133Y-48852D02*
X119133Y-48904D01*
X118872Y-49165D02*
X118550Y-49165D01*
X118550Y-49165D02*
X118555Y-49165D01*
X119133Y-48904D02*
X118872Y-49165D01*
X122724Y-47562D02*
X122724Y-47656D01*
X122724Y-47656D02*
X122634Y-47746D01*
X122634Y-47746D02*
X121862Y-47746D01*
X121862Y-47746D02*
X121705Y-47903D01*
X122724Y-45353D02*
X122724Y-47562D01*
X119133Y-47601D02*
X119133Y-45381D01*
X119133Y-45381D02*
X119217Y-45297D01*
X119217Y-45297D02*
X122668Y-45297D01*
X122668Y-45297D02*
X122724Y-45353D01*
X119133Y-47670D02*
X119133Y-47601D01*
X119211Y-47748D02*
X119133Y-47670D01*
X119975Y-47748D02*
X119211Y-47748D01*
X120130Y-47903D02*
X119975Y-47748D01*
X128900Y-82300D02*
X128900Y-82790D01*
X130058Y-83948D02*
X130058Y-85367D01*
X128900Y-82790D02*
X130058Y-83948D01*
X130100Y-70300D02*
X130100Y-70670D01*
X130294Y-83602D02*
X130294Y-85367D01*
X129771Y-83080D02*
X130294Y-83602D01*
X129570Y-83080D02*
X129771Y-83080D01*
X129319Y-82829D02*
X129570Y-83080D01*
X129319Y-71450D02*
X129319Y-82829D01*
X130100Y-70670D02*
X129319Y-71450D01*
X130100Y-73300D02*
X130100Y-73740D01*
X130530Y-83669D02*
X130530Y-85367D01*
X129820Y-82960D02*
X130530Y-83669D01*
X129620Y-82960D02*
X129820Y-82960D01*
X129439Y-82779D02*
X129620Y-82960D01*
X129439Y-74400D02*
X129439Y-82779D01*
X130100Y-73740D02*
X129439Y-74400D01*
X130100Y-76300D02*
X130100Y-76760D01*
X130766Y-83735D02*
X130766Y-85367D01*
X129870Y-82840D02*
X130766Y-83735D01*
X129670Y-82840D02*
X129870Y-82840D01*
X129559Y-82729D02*
X129670Y-82840D01*
X129559Y-77300D02*
X129559Y-82729D01*
X130100Y-76760D02*
X129559Y-77300D01*
X130100Y-79300D02*
X130100Y-79730D01*
X131003Y-83802D02*
X131003Y-85367D01*
X129920Y-82720D02*
X131003Y-83802D01*
X129720Y-82720D02*
X129920Y-82720D01*
X129680Y-82680D02*
X129720Y-82720D01*
X129680Y-80150D02*
X129680Y-82680D01*
X130100Y-79730D02*
X129680Y-80150D01*
X130100Y-82300D02*
X130100Y-82730D01*
X131239Y-83869D02*
X131239Y-85367D01*
X130100Y-82730D02*
X131239Y-83869D01*
X128900Y-79300D02*
X128900Y-79740D01*
X129822Y-83881D02*
X129822Y-85367D01*
X128660Y-82720D02*
X129822Y-83881D01*
X128520Y-82720D02*
X128660Y-82720D01*
X128480Y-82680D02*
X128520Y-82720D01*
X128480Y-80160D02*
X128480Y-82680D01*
X128900Y-79740D02*
X128480Y-80160D01*
X131300Y-70300D02*
X131300Y-70650D01*
X131475Y-83603D02*
X131475Y-85367D01*
X130951Y-83080D02*
X131475Y-83603D01*
X130830Y-83080D02*
X130951Y-83080D01*
X130519Y-82769D02*
X130830Y-83080D01*
X130519Y-71430D02*
X130519Y-82769D01*
X131300Y-70650D02*
X130519Y-71430D01*
X131300Y-73300D02*
X131300Y-73620D01*
X131711Y-83670D02*
X131711Y-85367D01*
X131000Y-82960D02*
X131711Y-83670D01*
X130880Y-82960D02*
X131000Y-82960D01*
X130639Y-82719D02*
X130880Y-82960D01*
X130639Y-74280D02*
X130639Y-82719D01*
X131300Y-73620D02*
X130639Y-74280D01*
X131300Y-76300D02*
X131300Y-76740D01*
X131948Y-83737D02*
X131948Y-85367D01*
X131050Y-82840D02*
X131948Y-83737D01*
X130930Y-82840D02*
X131050Y-82840D01*
X130759Y-82669D02*
X130930Y-82840D01*
X130759Y-77280D02*
X130759Y-82669D01*
X131300Y-76740D02*
X130759Y-77280D01*
X131300Y-79300D02*
X131300Y-79870D01*
X132184Y-83803D02*
X132184Y-85367D01*
X131100Y-82720D02*
X132184Y-83803D01*
X130980Y-82720D02*
X131100Y-82720D01*
X130880Y-82620D02*
X130980Y-82720D01*
X130880Y-80290D02*
X130880Y-82620D01*
X131300Y-79870D02*
X130880Y-80290D01*
X131300Y-82300D02*
X131300Y-82750D01*
X132420Y-83870D02*
X132420Y-85367D01*
X131300Y-82750D02*
X132420Y-83870D01*
X132500Y-70300D02*
X132500Y-70600D01*
X132656Y-83105D02*
X132656Y-85367D01*
X132630Y-83080D02*
X132656Y-83105D01*
X131970Y-83080D02*
X132630Y-83080D01*
X131719Y-82829D02*
X131970Y-83080D01*
X131719Y-71380D02*
X131719Y-82829D01*
X132500Y-70600D02*
X131719Y-71380D01*
X127700Y-76300D02*
X127700Y-76930D01*
X128404Y-83783D02*
X128404Y-85367D01*
X127470Y-82850D02*
X128404Y-83783D01*
X127280Y-82850D02*
X127470Y-82850D01*
X127159Y-82729D02*
X127280Y-82850D01*
X127159Y-77470D02*
X127159Y-82729D01*
X127700Y-76930D02*
X127159Y-77470D01*
X126500Y-73300D02*
X126500Y-73840D01*
X126987Y-83746D02*
X126987Y-85367D01*
X126200Y-82960D02*
X126987Y-83746D01*
X126030Y-82960D02*
X126200Y-82960D01*
X125839Y-82769D02*
X126030Y-82960D01*
X125839Y-74500D02*
X125839Y-82769D01*
X126500Y-73840D02*
X125839Y-74500D01*
X126500Y-76300D02*
X126500Y-76720D01*
X127223Y-83812D02*
X127223Y-85367D01*
X126250Y-82840D02*
X127223Y-83812D01*
X126080Y-82840D02*
X126250Y-82840D01*
X125959Y-82719D02*
X126080Y-82840D01*
X125959Y-77260D02*
X125959Y-82719D01*
X126500Y-76720D02*
X125959Y-77260D01*
X126500Y-79300D02*
X126500Y-79870D01*
X127459Y-83878D02*
X127459Y-85367D01*
X126300Y-82720D02*
X127459Y-83878D01*
X126130Y-82720D02*
X126300Y-82720D01*
X126080Y-82670D02*
X126130Y-82720D01*
X126080Y-80290D02*
X126080Y-82670D01*
X126500Y-79870D02*
X126080Y-80290D01*
X126500Y-82300D02*
X126500Y-82750D01*
X127696Y-83946D02*
X127696Y-85367D01*
X126500Y-82750D02*
X127696Y-83946D01*
X127700Y-70300D02*
X127700Y-70690D01*
X127932Y-83650D02*
X127932Y-85367D01*
X127371Y-83090D02*
X127932Y-83650D01*
X127180Y-83090D02*
X127371Y-83090D01*
X126919Y-82829D02*
X127180Y-83090D01*
X126919Y-71470D02*
X126919Y-82829D01*
X127700Y-70690D02*
X126919Y-71470D01*
X127700Y-73300D02*
X127700Y-73800D01*
X128168Y-83717D02*
X128168Y-85367D01*
X127420Y-82970D02*
X128168Y-83717D01*
X127230Y-82970D02*
X127420Y-82970D01*
X127039Y-82779D02*
X127230Y-82970D01*
X127039Y-74460D02*
X127039Y-82779D01*
X127700Y-73800D02*
X127039Y-74460D01*
X127700Y-79300D02*
X127700Y-79850D01*
X128640Y-83849D02*
X128640Y-85367D01*
X127520Y-82730D02*
X128640Y-83849D01*
X127330Y-82730D02*
X127520Y-82730D01*
X127280Y-82680D02*
X127330Y-82730D01*
X127280Y-80270D02*
X127280Y-82680D01*
X127700Y-79850D02*
X127280Y-80270D01*
X127700Y-82300D02*
X127700Y-82740D01*
X128877Y-83917D02*
X128877Y-85367D01*
X127700Y-82740D02*
X128877Y-83917D01*
X128900Y-70300D02*
X128900Y-70810D01*
X129113Y-83681D02*
X129113Y-85367D01*
X128511Y-83080D02*
X129113Y-83681D01*
X128370Y-83080D02*
X128511Y-83080D01*
X128119Y-82829D02*
X128370Y-83080D01*
X128119Y-71590D02*
X128119Y-82829D01*
X128900Y-70810D02*
X128119Y-71590D01*
X128900Y-73300D02*
X128900Y-73830D01*
X129349Y-83748D02*
X129349Y-85367D01*
X128560Y-82960D02*
X129349Y-83748D01*
X128420Y-82960D02*
X128560Y-82960D01*
X128239Y-82779D02*
X128420Y-82960D01*
X128239Y-74490D02*
X128239Y-82779D01*
X128900Y-73830D02*
X128239Y-74490D01*
X128900Y-76300D02*
X128900Y-76600D01*
X129585Y-83814D02*
X129585Y-85367D01*
X128610Y-82840D02*
X129585Y-83814D01*
X128470Y-82840D02*
X128610Y-82840D01*
X128359Y-82729D02*
X128470Y-82840D01*
X128359Y-77140D02*
X128359Y-82729D01*
X128900Y-76600D02*
X128359Y-77140D01*
X132500Y-73300D02*
X132500Y-73680D01*
X132892Y-83171D02*
X132892Y-85367D01*
X132680Y-82960D02*
X132892Y-83171D01*
X132020Y-82960D02*
X132680Y-82960D01*
X131839Y-82779D02*
X132020Y-82960D01*
X131839Y-74340D02*
X131839Y-82779D01*
X132500Y-73680D02*
X131839Y-74340D01*
X132500Y-76300D02*
X132500Y-76680D01*
X133129Y-83239D02*
X133129Y-85367D01*
X132730Y-82840D02*
X133129Y-83239D01*
X132070Y-82840D02*
X132730Y-82840D01*
X131959Y-82729D02*
X132070Y-82840D01*
X131959Y-77220D02*
X131959Y-82729D01*
X132500Y-76680D02*
X131959Y-77220D01*
X132500Y-79300D02*
X132500Y-79660D01*
X133365Y-83175D02*
X133365Y-85367D01*
X132910Y-82720D02*
X133365Y-83175D01*
X132120Y-82720D02*
X132910Y-82720D01*
X132080Y-82680D02*
X132120Y-82720D01*
X132080Y-80080D02*
X132080Y-82680D01*
X132500Y-79660D02*
X132080Y-80080D01*
X133601Y-83350D02*
X133601Y-83241D01*
X132659Y-82300D02*
X132500Y-82300D01*
X133601Y-83241D02*
X132659Y-82300D01*
X133601Y-83350D02*
X133601Y-85367D01*
X121700Y-73300D02*
X121700Y-73580D01*
X122262Y-83771D02*
X122262Y-85367D01*
X121455Y-82965D02*
X122262Y-83771D01*
X121265Y-82965D02*
X121455Y-82965D01*
X121039Y-82739D02*
X121265Y-82965D01*
X121039Y-74240D02*
X121039Y-82739D01*
X121700Y-73580D02*
X121039Y-74240D01*
X124100Y-79300D02*
X124100Y-79710D01*
X125097Y-83956D02*
X125097Y-85367D01*
X123860Y-82720D02*
X125097Y-83956D01*
X123770Y-82720D02*
X123860Y-82720D01*
X123680Y-82630D02*
X123770Y-82720D01*
X123680Y-80130D02*
X123680Y-82630D01*
X124100Y-79710D02*
X123680Y-80130D01*
X124100Y-76300D02*
X124100Y-76820D01*
X124861Y-83890D02*
X124861Y-85367D01*
X123810Y-82840D02*
X124861Y-83890D01*
X123720Y-82840D02*
X123810Y-82840D01*
X123559Y-82679D02*
X123720Y-82840D01*
X123559Y-77360D02*
X123559Y-82679D01*
X124100Y-76820D02*
X123559Y-77360D01*
X124100Y-73300D02*
X124100Y-73870D01*
X124625Y-83824D02*
X124625Y-85367D01*
X123760Y-82960D02*
X124625Y-83824D01*
X123670Y-82960D02*
X123760Y-82960D01*
X123439Y-82729D02*
X123670Y-82960D01*
X123439Y-74530D02*
X123439Y-82729D01*
X124100Y-73870D02*
X123439Y-74530D01*
X124100Y-70300D02*
X124100Y-70580D01*
X124388Y-83756D02*
X124388Y-85367D01*
X123711Y-83080D02*
X124388Y-83756D01*
X123620Y-83080D02*
X123711Y-83080D01*
X123319Y-82779D02*
X123620Y-83080D01*
X123319Y-71360D02*
X123319Y-82779D01*
X124100Y-70580D02*
X123319Y-71360D01*
X124152Y-84680D02*
X124152Y-84575D01*
X124036Y-83836D02*
X123950Y-83750D01*
X124036Y-84460D02*
X124036Y-83836D01*
X124152Y-84575D02*
X124036Y-84460D01*
X122900Y-82300D02*
X122900Y-82700D01*
X122900Y-82700D02*
X123950Y-83750D01*
X124152Y-84680D02*
X124152Y-85367D01*
X122535Y-82695D02*
X122725Y-82695D01*
X122725Y-82695D02*
X122900Y-82869D01*
X122900Y-79300D02*
X122900Y-79880D01*
X123916Y-83885D02*
X123916Y-85367D01*
X122900Y-82869D02*
X123916Y-83885D01*
X122480Y-82640D02*
X122535Y-82695D01*
X122480Y-80300D02*
X122480Y-82640D01*
X122900Y-79880D02*
X122480Y-80300D01*
X122900Y-76300D02*
X122900Y-76820D01*
X123680Y-83819D02*
X123680Y-85367D01*
X122675Y-82815D02*
X123680Y-83819D01*
X122485Y-82815D02*
X122675Y-82815D01*
X122359Y-82689D02*
X122485Y-82815D01*
X122359Y-77360D02*
X122359Y-82689D01*
X122900Y-76820D02*
X122359Y-77360D01*
X122900Y-73300D02*
X122900Y-73700D01*
X123444Y-83753D02*
X123444Y-85367D01*
X122625Y-82935D02*
X123444Y-83753D01*
X122435Y-82935D02*
X122625Y-82935D01*
X122239Y-82739D02*
X122435Y-82935D01*
X122239Y-74360D02*
X122239Y-82739D01*
X122900Y-73700D02*
X122239Y-74360D01*
X122900Y-70300D02*
X122900Y-70690D01*
X123207Y-83685D02*
X123207Y-85367D01*
X122576Y-83055D02*
X123207Y-83685D01*
X122385Y-83055D02*
X122576Y-83055D01*
X122119Y-82789D02*
X122385Y-83055D01*
X122119Y-71470D02*
X122119Y-82789D01*
X122900Y-70690D02*
X122119Y-71470D01*
X121700Y-82300D02*
X121700Y-82700D01*
X122971Y-83971D02*
X122971Y-85367D01*
X121700Y-82700D02*
X122971Y-83971D01*
X121365Y-82725D02*
X121555Y-82725D01*
X121555Y-82725D02*
X121780Y-82949D01*
X121700Y-79300D02*
X121700Y-79650D01*
X122735Y-83904D02*
X122735Y-85367D01*
X121780Y-82949D02*
X122735Y-83904D01*
X121280Y-82640D02*
X121365Y-82725D01*
X121280Y-80070D02*
X121280Y-82640D01*
X121700Y-79650D02*
X121280Y-80070D01*
X121700Y-76300D02*
X121700Y-76720D01*
X122499Y-83838D02*
X122499Y-85367D01*
X121505Y-82845D02*
X122499Y-83838D01*
X121315Y-82845D02*
X121505Y-82845D01*
X121159Y-82689D02*
X121315Y-82845D01*
X121159Y-77260D02*
X121159Y-82689D01*
X121700Y-76720D02*
X121159Y-77260D01*
X124100Y-82300D02*
X124100Y-82790D01*
X125333Y-84023D02*
X125333Y-85367D01*
X124100Y-82790D02*
X125333Y-84023D01*
X121700Y-70300D02*
X121700Y-70570D01*
X122026Y-83704D02*
X122026Y-85367D01*
X121406Y-83085D02*
X122026Y-83704D01*
X121215Y-83085D02*
X121406Y-83085D01*
X120919Y-82789D02*
X121215Y-83085D01*
X120919Y-71350D02*
X120919Y-82789D01*
X121700Y-70570D02*
X120919Y-71350D01*
X120500Y-82300D02*
X120500Y-82840D01*
X121790Y-84130D02*
X121790Y-85367D01*
X120500Y-82840D02*
X121790Y-84130D01*
X120500Y-79300D02*
X120500Y-79880D01*
X121554Y-84063D02*
X121554Y-85367D01*
X120270Y-82780D02*
X121554Y-84063D01*
X120230Y-82780D02*
X120270Y-82780D01*
X120080Y-82630D02*
X120230Y-82780D01*
X120080Y-80300D02*
X120080Y-82630D01*
X120500Y-79880D02*
X120080Y-80300D01*
X120500Y-76300D02*
X120500Y-76590D01*
X121318Y-83997D02*
X121318Y-85367D01*
X120220Y-82899D02*
X121318Y-83997D01*
X120180Y-82899D02*
X120220Y-82899D01*
X119959Y-82679D02*
X120180Y-82899D01*
X119959Y-77130D02*
X119959Y-82679D01*
X120500Y-76590D02*
X119959Y-77130D01*
X120500Y-73300D02*
X120500Y-73590D01*
X121082Y-83931D02*
X121082Y-85367D01*
X120170Y-83019D02*
X121082Y-83931D01*
X120130Y-83019D02*
X120170Y-83019D01*
X119839Y-82729D02*
X120130Y-83019D01*
X119839Y-74250D02*
X119839Y-82729D01*
X120500Y-73590D02*
X119839Y-74250D01*
X120500Y-70300D02*
X120500Y-70670D01*
X120846Y-83864D02*
X120846Y-85367D01*
X120120Y-83139D02*
X120846Y-83864D01*
X120080Y-83139D02*
X120120Y-83139D01*
X119719Y-82779D02*
X120080Y-83139D01*
X119719Y-71450D02*
X119719Y-82779D01*
X120500Y-70670D02*
X119719Y-71450D01*
X120610Y-84730D02*
X120610Y-84645D01*
X120494Y-83924D02*
X120435Y-83865D01*
X120494Y-84530D02*
X120494Y-83924D01*
X120610Y-84645D02*
X120494Y-84530D01*
X119300Y-82300D02*
X119300Y-82730D01*
X119300Y-82730D02*
X120435Y-83865D01*
X120610Y-84730D02*
X120610Y-85367D01*
X119300Y-79300D02*
X119300Y-79910D01*
X120374Y-83973D02*
X120374Y-85367D01*
X119200Y-82800D02*
X120374Y-83973D01*
X118980Y-82800D02*
X119200Y-82800D01*
X118880Y-82700D02*
X118980Y-82800D01*
X118880Y-80330D02*
X118880Y-82700D01*
X119300Y-79910D02*
X118880Y-80330D01*
X119300Y-76300D02*
X119300Y-76880D01*
X120137Y-83906D02*
X120137Y-85367D01*
X119150Y-82920D02*
X120137Y-83906D01*
X118930Y-82920D02*
X119150Y-82920D01*
X118759Y-82749D02*
X118930Y-82920D01*
X118759Y-77420D02*
X118759Y-82749D01*
X119300Y-76880D02*
X118759Y-77420D01*
X119300Y-73300D02*
X119300Y-73580D01*
X119901Y-83840D02*
X119901Y-85367D01*
X119100Y-83040D02*
X119901Y-83840D01*
X118880Y-83040D02*
X119100Y-83040D01*
X118639Y-82799D02*
X118880Y-83040D01*
X118639Y-74240D02*
X118639Y-82799D01*
X119300Y-73580D02*
X118639Y-74240D01*
X119300Y-70300D02*
X119300Y-70580D01*
X119665Y-83773D02*
X119665Y-85367D01*
X119051Y-83160D02*
X119665Y-83773D01*
X118830Y-83160D02*
X119051Y-83160D01*
X118519Y-82849D02*
X118830Y-83160D01*
X118519Y-71360D02*
X118519Y-82849D01*
X119300Y-70580D02*
X118519Y-71360D01*
X119429Y-85367D02*
X119429Y-84595D01*
X119313Y-83813D02*
X119215Y-83715D01*
X119313Y-84480D02*
X119313Y-83813D01*
X119429Y-84595D02*
X119313Y-84480D01*
X118100Y-82300D02*
X118100Y-82600D01*
X118100Y-82600D02*
X119215Y-83715D01*
X126500Y-70300D02*
X126500Y-70670D01*
X126751Y-83679D02*
X126751Y-85367D01*
X126151Y-83080D02*
X126751Y-83679D01*
X125980Y-83080D02*
X126151Y-83080D01*
X125719Y-82819D02*
X125980Y-83080D01*
X125719Y-71450D02*
X125719Y-82819D01*
X126500Y-70670D02*
X125719Y-71450D01*
X125300Y-82300D02*
X125300Y-82770D01*
X126514Y-83984D02*
X126514Y-85367D01*
X125300Y-82770D02*
X126514Y-83984D01*
X125300Y-79300D02*
X125300Y-79760D01*
X126278Y-83917D02*
X126278Y-85367D01*
X125080Y-82720D02*
X126278Y-83917D01*
X124970Y-82720D02*
X125080Y-82720D01*
X124890Y-82640D02*
X124970Y-82720D01*
X124890Y-80170D02*
X124890Y-82640D01*
X125300Y-79760D02*
X124890Y-80170D01*
X125300Y-76300D02*
X125300Y-76690D01*
X126042Y-83851D02*
X126042Y-85367D01*
X125030Y-82840D02*
X126042Y-83851D01*
X124920Y-82840D02*
X125030Y-82840D01*
X124769Y-82689D02*
X124920Y-82840D01*
X124769Y-77220D02*
X124769Y-82689D01*
X125300Y-76690D02*
X124769Y-77220D01*
X125300Y-73300D02*
X125300Y-73750D01*
X125806Y-83785D02*
X125806Y-85367D01*
X124980Y-82960D02*
X125806Y-83785D01*
X124870Y-82960D02*
X124980Y-82960D01*
X124649Y-82739D02*
X124870Y-82960D01*
X124649Y-74400D02*
X124649Y-82739D01*
X125300Y-73750D02*
X124649Y-74400D01*
X125300Y-70300D02*
X125300Y-70640D01*
X125570Y-83718D02*
X125570Y-85367D01*
X124931Y-83080D02*
X125570Y-83718D01*
X124820Y-83080D02*
X124931Y-83080D01*
X124529Y-82789D02*
X124820Y-83080D01*
X124529Y-71410D02*
X124529Y-82789D01*
X125300Y-70640D02*
X124529Y-71410D01*
X109039Y-78740D02*
X109039Y-78690D01*
X109159Y-74410D02*
X109220Y-74350D01*
X109159Y-78570D02*
X109159Y-74410D01*
X109039Y-78690D02*
X109159Y-78570D01*
X109700Y-73300D02*
X109700Y-73870D01*
X109700Y-73870D02*
X109220Y-74350D01*
X109035Y-83824D02*
X109035Y-85367D01*
X109039Y-83819D02*
X109035Y-83824D01*
X109039Y-78740D02*
X109039Y-83819D01*
X112100Y-79300D02*
X112100Y-79860D01*
X111870Y-83620D02*
X111870Y-85367D01*
X111680Y-83430D02*
X111870Y-83620D01*
X111680Y-80280D02*
X111680Y-83430D01*
X112100Y-79860D02*
X111680Y-80280D01*
X112100Y-76300D02*
X112100Y-76890D01*
X111634Y-83553D02*
X111634Y-85367D01*
X111559Y-83479D02*
X111634Y-83553D01*
X111559Y-77430D02*
X111559Y-83479D01*
X112100Y-76890D02*
X111559Y-77430D01*
X112100Y-73300D02*
X112100Y-73780D01*
X111397Y-84293D02*
X111397Y-85367D01*
X111439Y-84250D02*
X111397Y-84293D01*
X111439Y-74440D02*
X111439Y-84250D01*
X112100Y-73780D02*
X111439Y-74440D01*
X112100Y-70300D02*
X112100Y-70420D01*
X111161Y-84219D02*
X111161Y-85367D01*
X111319Y-84060D02*
X111161Y-84219D01*
X111319Y-71200D02*
X111319Y-84060D01*
X112100Y-70420D02*
X111319Y-71200D01*
X110900Y-82300D02*
X110900Y-83600D01*
X110925Y-83625D02*
X110925Y-85367D01*
X110900Y-83600D02*
X110925Y-83625D01*
X110900Y-79300D02*
X110900Y-79860D01*
X110689Y-83649D02*
X110689Y-85367D01*
X110480Y-83440D02*
X110689Y-83649D01*
X110480Y-80280D02*
X110480Y-83440D01*
X110900Y-79860D02*
X110480Y-80280D01*
X110900Y-76300D02*
X110900Y-76890D01*
X110452Y-83583D02*
X110452Y-85367D01*
X110359Y-83491D02*
X110452Y-83583D01*
X110359Y-80220D02*
X110359Y-83491D01*
X110480Y-80100D02*
X110359Y-80220D01*
X110480Y-77310D02*
X110480Y-80100D01*
X110900Y-76890D02*
X110480Y-77310D01*
X110900Y-73300D02*
X110900Y-73830D01*
X110216Y-83674D02*
X110216Y-85367D01*
X110239Y-83650D02*
X110216Y-83674D01*
X110239Y-74490D02*
X110239Y-83650D01*
X110900Y-73830D02*
X110239Y-74490D01*
X110900Y-70300D02*
X110900Y-70520D01*
X109980Y-83714D02*
X109980Y-85367D01*
X110119Y-83574D02*
X109980Y-83714D01*
X110119Y-71300D02*
X110119Y-83574D01*
X110900Y-70520D02*
X110119Y-71300D01*
X109700Y-82300D02*
X109700Y-83600D01*
X109744Y-83644D02*
X109744Y-85367D01*
X109700Y-83600D02*
X109744Y-83644D01*
X109700Y-79300D02*
X109700Y-79880D01*
X109508Y-83928D02*
X109508Y-85367D01*
X109280Y-83700D02*
X109508Y-83928D01*
X109280Y-80300D02*
X109280Y-83700D01*
X109700Y-79880D02*
X109280Y-80300D01*
X109700Y-76300D02*
X109700Y-76520D01*
X109271Y-83860D02*
X109271Y-85367D01*
X109159Y-83749D02*
X109271Y-83860D01*
X109159Y-80250D02*
X109159Y-83749D01*
X109280Y-80130D02*
X109159Y-80250D01*
X109280Y-76940D02*
X109280Y-80130D01*
X109700Y-76520D02*
X109280Y-76940D01*
X112100Y-82300D02*
X112100Y-83600D01*
X112106Y-83606D02*
X112106Y-85367D01*
X112100Y-83600D02*
X112106Y-83606D01*
X108919Y-78810D02*
X108919Y-78630D01*
X109039Y-71220D02*
X109170Y-71090D01*
X109039Y-78510D02*
X109039Y-71220D01*
X108919Y-78630D02*
X109039Y-78510D01*
X108800Y-82810D02*
X108800Y-82679D01*
X108919Y-82560D02*
X108919Y-78810D01*
X108800Y-82679D02*
X108919Y-82560D01*
X108800Y-82810D02*
X108800Y-85367D01*
X109700Y-70300D02*
X109700Y-70560D01*
X109700Y-70560D02*
X109170Y-71090D01*
X115700Y-73300D02*
X115700Y-73530D01*
X116358Y-83947D02*
X116358Y-85367D01*
X115575Y-83164D02*
X116358Y-83947D01*
X115445Y-83164D02*
X115575Y-83164D01*
X115039Y-82759D02*
X115445Y-83164D01*
X115039Y-74190D02*
X115039Y-82759D01*
X115700Y-73530D02*
X115039Y-74190D01*
X118100Y-79300D02*
X118100Y-79820D01*
X119193Y-83862D02*
X119193Y-85367D01*
X118210Y-82880D02*
X119193Y-83862D01*
X117810Y-82880D02*
X118210Y-82880D01*
X117680Y-82750D02*
X117810Y-82880D01*
X117680Y-80240D02*
X117680Y-82750D01*
X118100Y-79820D02*
X117680Y-80240D01*
X118100Y-76300D02*
X118100Y-76670D01*
X118956Y-83795D02*
X118956Y-85367D01*
X118160Y-83000D02*
X118956Y-83795D01*
X117760Y-83000D02*
X118160Y-83000D01*
X117559Y-82799D02*
X117760Y-83000D01*
X117559Y-77210D02*
X117559Y-82799D01*
X118100Y-76670D02*
X117559Y-77210D01*
X118100Y-73300D02*
X118100Y-73750D01*
X118720Y-83729D02*
X118720Y-85367D01*
X118110Y-83120D02*
X118720Y-83729D01*
X117710Y-83120D02*
X118110Y-83120D01*
X117439Y-82849D02*
X117710Y-83120D01*
X117439Y-74410D02*
X117439Y-82849D01*
X118100Y-73750D02*
X117439Y-74410D01*
X118100Y-70300D02*
X118100Y-70770D01*
X118484Y-83662D02*
X118484Y-85367D01*
X118061Y-83240D02*
X118484Y-83662D01*
X117660Y-83240D02*
X118061Y-83240D01*
X117319Y-82899D02*
X117660Y-83240D01*
X117319Y-71550D02*
X117319Y-82899D01*
X118100Y-70770D02*
X117319Y-71550D01*
X116900Y-82300D02*
X116900Y-82750D01*
X118248Y-84098D02*
X118248Y-85367D01*
X116900Y-82750D02*
X118248Y-84098D01*
X116900Y-79300D02*
X116900Y-79650D01*
X118012Y-84031D02*
X118012Y-85367D01*
X116760Y-82780D02*
X118012Y-84031D01*
X116580Y-82780D02*
X116760Y-82780D01*
X116480Y-82680D02*
X116580Y-82780D01*
X116480Y-80070D02*
X116480Y-82680D01*
X116900Y-79650D02*
X116480Y-80070D01*
X116900Y-76300D02*
X116900Y-76940D01*
X117775Y-83964D02*
X117775Y-85367D01*
X116710Y-82900D02*
X117775Y-83964D01*
X116530Y-82900D02*
X116710Y-82900D01*
X116359Y-82729D02*
X116530Y-82900D01*
X116359Y-77480D02*
X116359Y-82729D01*
X116900Y-76940D02*
X116359Y-77480D01*
X116900Y-73300D02*
X116900Y-73540D01*
X117539Y-83898D02*
X117539Y-85367D01*
X116660Y-83020D02*
X117539Y-83898D01*
X116480Y-83020D02*
X116660Y-83020D01*
X116239Y-82779D02*
X116480Y-83020D01*
X116239Y-74200D02*
X116239Y-82779D01*
X116900Y-73540D02*
X116239Y-74200D01*
X116900Y-70300D02*
X116900Y-70770D01*
X117303Y-83831D02*
X117303Y-85367D01*
X116611Y-83140D02*
X117303Y-83831D01*
X116430Y-83140D02*
X116611Y-83140D01*
X116119Y-82829D02*
X116430Y-83140D01*
X116119Y-71550D02*
X116119Y-82829D01*
X116900Y-70770D02*
X116119Y-71550D01*
X115700Y-82300D02*
X115700Y-82780D01*
X117067Y-84147D02*
X117067Y-85367D01*
X115700Y-82780D02*
X117067Y-84147D01*
X115700Y-79300D02*
X115700Y-79900D01*
X116830Y-84079D02*
X116830Y-85367D01*
X115675Y-82924D02*
X116830Y-84079D01*
X115544Y-82924D02*
X115675Y-82924D01*
X115280Y-82660D02*
X115544Y-82924D01*
X115280Y-80320D02*
X115280Y-82660D01*
X115700Y-79900D02*
X115280Y-80320D01*
X115700Y-76300D02*
X115700Y-76790D01*
X116594Y-84013D02*
X116594Y-85367D01*
X115625Y-83044D02*
X116594Y-84013D01*
X115495Y-83044D02*
X115625Y-83044D01*
X115159Y-82709D02*
X115495Y-83044D01*
X115159Y-77330D02*
X115159Y-82709D01*
X115700Y-76790D02*
X115159Y-77330D01*
X115700Y-70300D02*
X115700Y-70830D01*
X116122Y-83880D02*
X116122Y-85367D01*
X115526Y-83284D02*
X116122Y-83880D01*
X115395Y-83284D02*
X115526Y-83284D01*
X114919Y-82809D02*
X115395Y-83284D01*
X114919Y-71610D02*
X114919Y-82809D01*
X115700Y-70830D02*
X114919Y-71610D01*
X114500Y-82300D02*
X114500Y-82900D01*
X115886Y-84286D02*
X115886Y-85367D01*
X114500Y-82900D02*
X115886Y-84286D01*
X114500Y-79300D02*
X114500Y-79780D01*
X115649Y-84218D02*
X115649Y-85367D01*
X114080Y-82649D02*
X115649Y-84218D01*
X114080Y-80200D02*
X114080Y-82649D01*
X114500Y-79780D02*
X114080Y-80200D01*
X114500Y-76300D02*
X114500Y-76860D01*
X115413Y-84152D02*
X115413Y-85367D01*
X113959Y-82699D02*
X115413Y-84152D01*
X113959Y-77400D02*
X113959Y-82699D01*
X114500Y-76860D02*
X113959Y-77400D01*
X114500Y-73300D02*
X114500Y-73430D01*
X115177Y-84086D02*
X115177Y-85367D01*
X113839Y-82749D02*
X115177Y-84086D01*
X113839Y-74090D02*
X113839Y-82749D01*
X114500Y-73430D02*
X113839Y-74090D01*
X114500Y-70300D02*
X114500Y-70970D01*
X114941Y-84019D02*
X114941Y-85367D01*
X113719Y-82798D02*
X114941Y-84019D01*
X113719Y-71750D02*
X113719Y-82798D01*
X114500Y-70970D02*
X113719Y-71750D01*
X113300Y-82300D02*
X113300Y-83800D01*
X113287Y-83813D02*
X113287Y-85367D01*
X113300Y-83800D02*
X113287Y-83813D01*
X113300Y-79300D02*
X113300Y-79840D01*
X113051Y-83794D02*
X113051Y-85367D01*
X112880Y-83623D02*
X113051Y-83794D01*
X112880Y-80260D02*
X112880Y-83623D01*
X113300Y-79840D02*
X112880Y-80260D01*
X113300Y-76300D02*
X113300Y-76880D01*
X112815Y-83745D02*
X112815Y-85367D01*
X112759Y-83689D02*
X112815Y-83745D01*
X112759Y-77420D02*
X112759Y-83689D01*
X113300Y-76880D02*
X112759Y-77420D01*
X113300Y-73300D02*
X113300Y-73460D01*
X112578Y-84572D02*
X112578Y-85367D01*
X112639Y-84510D02*
X112578Y-84572D01*
X112639Y-74120D02*
X112639Y-84510D01*
X113300Y-73460D02*
X112639Y-74120D01*
X113300Y-70300D02*
X113300Y-70650D01*
X112342Y-84518D02*
X112342Y-85367D01*
X112519Y-84340D02*
X112342Y-84518D01*
X112519Y-74070D02*
X112519Y-84340D01*
X112760Y-73830D02*
X112519Y-74070D01*
X112760Y-71190D02*
X112760Y-73830D01*
X113300Y-70650D02*
X112760Y-71190D01*
G54D10*
G36*
X121934Y-46330D02*
X121837Y-46370D01*
X121746Y-46461D01*
X121697Y-46579D01*
X121697Y-46707D01*
X121737Y-46804D01*
X121699Y-46895D01*
X121699Y-47023D01*
X121737Y-47117D01*
X121699Y-47209D01*
X121699Y-47337D01*
X121737Y-47431D01*
X121699Y-47523D01*
X121699Y-47651D01*
X121738Y-47746D01*
X121699Y-47839D01*
X121699Y-47892D01*
X121641Y-47892D01*
X121541Y-47933D01*
X121454Y-47897D01*
X121326Y-47897D01*
X121238Y-47933D01*
X121139Y-47892D01*
X121011Y-47892D01*
X120911Y-47933D01*
X120824Y-47897D01*
X120696Y-47897D01*
X120602Y-47936D01*
X120509Y-47897D01*
X120381Y-47897D01*
X120289Y-47935D01*
X120199Y-47897D01*
X120137Y-47897D01*
X120137Y-47841D01*
X120098Y-47747D01*
X120137Y-47654D01*
X120137Y-47526D01*
X120098Y-47432D01*
X120137Y-47339D01*
X120137Y-47211D01*
X120098Y-47117D01*
X120137Y-47024D01*
X120137Y-46896D01*
X120098Y-46802D01*
X120137Y-46709D01*
X120137Y-46581D01*
X120088Y-46462D01*
X119997Y-46371D01*
X119898Y-46330D01*
X119973Y-46300D01*
X120065Y-46338D01*
X120193Y-46338D01*
X120289Y-46299D01*
X120379Y-46336D01*
X120507Y-46336D01*
X120602Y-46297D01*
X120695Y-46336D01*
X120823Y-46336D01*
X120917Y-46298D01*
X121009Y-46336D01*
X121137Y-46336D01*
X121231Y-46298D01*
X121323Y-46336D01*
X121451Y-46336D01*
X121545Y-46298D01*
X121637Y-46336D01*
X121765Y-46336D01*
X121857Y-46298D01*
X121934Y-46330D01*
X121934Y-46330D01*
G37*
G54D16*
X121934Y-46330D02*
X121837Y-46370D01*
X121746Y-46461D01*
X121697Y-46579D01*
X121697Y-46707D01*
X121737Y-46804D01*
X121699Y-46895D01*
X121699Y-47023D01*
X121737Y-47117D01*
X121699Y-47209D01*
X121699Y-47337D01*
X121737Y-47431D01*
X121699Y-47523D01*
X121699Y-47651D01*
X121738Y-47746D01*
X121699Y-47839D01*
X121699Y-47892D01*
X121641Y-47892D01*
X121541Y-47933D01*
X121454Y-47897D01*
X121326Y-47897D01*
X121238Y-47933D01*
X121139Y-47892D01*
X121011Y-47892D01*
X120911Y-47933D01*
X120824Y-47897D01*
X120696Y-47897D01*
X120602Y-47936D01*
X120509Y-47897D01*
X120381Y-47897D01*
X120289Y-47935D01*
X120199Y-47897D01*
X120137Y-47897D01*
X120137Y-47841D01*
X120098Y-47747D01*
X120137Y-47654D01*
X120137Y-47526D01*
X120098Y-47432D01*
X120137Y-47339D01*
X120137Y-47211D01*
X120098Y-47117D01*
X120137Y-47024D01*
X120137Y-46896D01*
X120098Y-46802D01*
X120137Y-46709D01*
X120137Y-46581D01*
X120088Y-46462D01*
X119997Y-46371D01*
X119898Y-46330D01*
X119973Y-46300D01*
X120065Y-46338D01*
X120193Y-46338D01*
X120289Y-46299D01*
X120379Y-46336D01*
X120507Y-46336D01*
X120602Y-46297D01*
X120695Y-46336D01*
X120823Y-46336D01*
X120917Y-46298D01*
X121009Y-46336D01*
X121137Y-46336D01*
X121231Y-46298D01*
X121323Y-46336D01*
X121451Y-46336D01*
X121545Y-46298D01*
X121637Y-46336D01*
X121765Y-46336D01*
X121857Y-46298D01*
X121934Y-46330D01*
G54D10*
G36*
X123197Y-45069D02*
X123097Y-45110D01*
X123006Y-45201D01*
X122957Y-45319D01*
X122957Y-45447D01*
X122996Y-45542D01*
X122957Y-45635D01*
X122957Y-45763D01*
X122994Y-45854D01*
X122955Y-45949D01*
X122955Y-46077D01*
X122994Y-46172D01*
X122955Y-46265D01*
X122955Y-46393D01*
X122995Y-46490D01*
X122957Y-46581D01*
X122957Y-46709D01*
X122995Y-46802D01*
X122957Y-46893D01*
X122957Y-47021D01*
X122996Y-47116D01*
X122957Y-47209D01*
X122957Y-47337D01*
X122996Y-47432D01*
X122957Y-47525D01*
X122957Y-47653D01*
X122996Y-47748D01*
X122957Y-47841D01*
X122957Y-47969D01*
X122995Y-48062D01*
X122957Y-48153D01*
X122957Y-48281D01*
X122995Y-48375D01*
X122957Y-48467D01*
X122957Y-48595D01*
X122997Y-48692D01*
X122959Y-48783D01*
X122959Y-48911D01*
X122996Y-49002D01*
X122957Y-49097D01*
X122957Y-49157D01*
X122901Y-49157D01*
X122807Y-49196D01*
X122714Y-49157D01*
X122660Y-49157D01*
X122660Y-47840D01*
X122621Y-47744D01*
X122658Y-47654D01*
X122658Y-47526D01*
X122620Y-47434D01*
X122660Y-47338D01*
X122660Y-47210D01*
X122620Y-47113D01*
X122658Y-47022D01*
X122658Y-46894D01*
X122619Y-46798D01*
X122656Y-46708D01*
X122656Y-46580D01*
X122607Y-46461D01*
X122516Y-46370D01*
X122418Y-46329D01*
X122516Y-46289D01*
X122607Y-46198D01*
X122656Y-46080D01*
X122656Y-45952D01*
X122618Y-45859D01*
X122658Y-45762D01*
X122658Y-45634D01*
X122609Y-45515D01*
X122518Y-45424D01*
X122400Y-45375D01*
X122272Y-45375D01*
X122175Y-45415D01*
X122084Y-45377D01*
X121956Y-45377D01*
X121861Y-45416D01*
X121768Y-45377D01*
X121640Y-45377D01*
X121546Y-45415D01*
X121454Y-45377D01*
X121326Y-45377D01*
X121231Y-45416D01*
X121138Y-45377D01*
X121010Y-45377D01*
X120916Y-45415D01*
X120824Y-45377D01*
X120696Y-45377D01*
X120601Y-45416D01*
X120508Y-45377D01*
X120380Y-45377D01*
X120286Y-45415D01*
X120194Y-45377D01*
X120066Y-45377D01*
X119972Y-45415D01*
X119880Y-45377D01*
X119752Y-45377D01*
X119633Y-45426D01*
X119542Y-45517D01*
X119493Y-45635D01*
X119493Y-45763D01*
X119532Y-45858D01*
X119493Y-45951D01*
X119493Y-46079D01*
X119542Y-46198D01*
X119633Y-46289D01*
X119732Y-46330D01*
X119657Y-46361D01*
X119564Y-46322D01*
X119436Y-46322D01*
X119317Y-46371D01*
X119226Y-46462D01*
X119177Y-46580D01*
X119177Y-46708D01*
X119216Y-46802D01*
X119177Y-46895D01*
X119177Y-47023D01*
X119216Y-47117D01*
X119177Y-47210D01*
X119177Y-47338D01*
X119216Y-47432D01*
X119177Y-47525D01*
X119177Y-47653D01*
X119216Y-47747D01*
X119177Y-47840D01*
X119177Y-47968D01*
X119215Y-48060D01*
X119177Y-48150D01*
X119177Y-48278D01*
X119217Y-48375D01*
X119177Y-48470D01*
X119177Y-48598D01*
X119226Y-48717D01*
X119317Y-48808D01*
X119435Y-48857D01*
X119563Y-48857D01*
X119657Y-48818D01*
X119750Y-48857D01*
X119878Y-48857D01*
X119972Y-48818D01*
X120065Y-48857D01*
X120193Y-48857D01*
X120293Y-48816D01*
X120380Y-48852D01*
X120508Y-48852D01*
X120596Y-48816D01*
X120695Y-48857D01*
X120823Y-48857D01*
X120917Y-48818D01*
X121010Y-48857D01*
X121138Y-48857D01*
X121232Y-48818D01*
X121325Y-48857D01*
X121453Y-48857D01*
X121547Y-48818D01*
X121640Y-48857D01*
X121768Y-48857D01*
X121862Y-48818D01*
X121955Y-48857D01*
X122083Y-48857D01*
X122202Y-48808D01*
X122293Y-48717D01*
X122342Y-48599D01*
X122342Y-48471D01*
X122303Y-48377D01*
X122342Y-48284D01*
X122342Y-48226D01*
X122401Y-48226D01*
X122520Y-48177D01*
X122611Y-48086D01*
X122660Y-47968D01*
X122660Y-47840D01*
X122660Y-49157D01*
X122586Y-49157D01*
X122492Y-49196D01*
X122399Y-49157D01*
X122271Y-49157D01*
X122177Y-49196D01*
X122084Y-49157D01*
X121956Y-49157D01*
X121862Y-49196D01*
X121769Y-49157D01*
X121641Y-49157D01*
X121547Y-49196D01*
X121454Y-49157D01*
X121326Y-49157D01*
X121232Y-49196D01*
X121139Y-49157D01*
X121011Y-49157D01*
X120917Y-49196D01*
X120824Y-49157D01*
X120696Y-49157D01*
X120602Y-49196D01*
X120509Y-49157D01*
X120381Y-49157D01*
X120293Y-49193D01*
X120194Y-49152D01*
X120066Y-49152D01*
X119968Y-49192D01*
X119884Y-49157D01*
X119756Y-49157D01*
X119659Y-49197D01*
X119564Y-49157D01*
X119436Y-49157D01*
X119342Y-49196D01*
X119249Y-49157D01*
X119121Y-49157D01*
X119027Y-49196D01*
X118934Y-49157D01*
X118806Y-49157D01*
X118712Y-49196D01*
X118637Y-49164D01*
X118737Y-49123D01*
X118828Y-49032D01*
X118877Y-48914D01*
X118877Y-48786D01*
X118837Y-48689D01*
X118877Y-48594D01*
X118877Y-48466D01*
X118839Y-48374D01*
X118877Y-48284D01*
X118877Y-48156D01*
X118838Y-48062D01*
X118877Y-47969D01*
X118877Y-47841D01*
X118838Y-47747D01*
X118877Y-47654D01*
X118877Y-47526D01*
X118838Y-47432D01*
X118877Y-47339D01*
X118877Y-47211D01*
X118838Y-47117D01*
X118877Y-47024D01*
X118877Y-46896D01*
X118838Y-46802D01*
X118877Y-46709D01*
X118877Y-46581D01*
X118838Y-46487D01*
X118877Y-46394D01*
X118877Y-46266D01*
X118838Y-46172D01*
X118877Y-46079D01*
X118877Y-45951D01*
X118838Y-45857D01*
X118877Y-45764D01*
X118877Y-45636D01*
X118839Y-45543D01*
X118878Y-45449D01*
X118878Y-45321D01*
X118829Y-45202D01*
X118738Y-45111D01*
X118637Y-45069D01*
X118713Y-45038D01*
X118805Y-45076D01*
X118933Y-45076D01*
X119028Y-45037D01*
X119121Y-45076D01*
X119249Y-45076D01*
X119343Y-45038D01*
X119435Y-45076D01*
X119563Y-45076D01*
X119658Y-45037D01*
X119751Y-45076D01*
X119879Y-45076D01*
X119973Y-45038D01*
X120065Y-45076D01*
X120193Y-45076D01*
X120287Y-45038D01*
X120379Y-45076D01*
X120507Y-45076D01*
X120602Y-45037D01*
X120695Y-45076D01*
X120823Y-45076D01*
X120918Y-45037D01*
X121011Y-45076D01*
X121139Y-45076D01*
X121233Y-45038D01*
X121325Y-45076D01*
X121453Y-45076D01*
X121548Y-45037D01*
X121641Y-45076D01*
X121769Y-45076D01*
X121863Y-45038D01*
X121955Y-45076D01*
X122083Y-45076D01*
X122178Y-45037D01*
X122271Y-45076D01*
X122399Y-45076D01*
X122493Y-45038D01*
X122585Y-45076D01*
X122713Y-45076D01*
X122805Y-45038D01*
X122901Y-45078D01*
X123029Y-45078D01*
X123125Y-45039D01*
X123197Y-45069D01*
X123197Y-45069D01*
G37*
G54D16*
X123197Y-45069D02*
X123097Y-45110D01*
X123006Y-45201D01*
X122957Y-45319D01*
X122957Y-45447D01*
X122996Y-45542D01*
X122957Y-45635D01*
X122957Y-45763D01*
X122994Y-45854D01*
X122955Y-45949D01*
X122955Y-46077D01*
X122994Y-46172D01*
X122955Y-46265D01*
X122955Y-46393D01*
X122995Y-46490D01*
X122957Y-46581D01*
X122957Y-46709D01*
X122995Y-46802D01*
X122957Y-46893D01*
X122957Y-47021D01*
X122996Y-47116D01*
X122957Y-47209D01*
X122957Y-47337D01*
X122996Y-47432D01*
X122957Y-47525D01*
X122957Y-47653D01*
X122996Y-47748D01*
X122957Y-47841D01*
X122957Y-47969D01*
X122995Y-48062D01*
X122957Y-48153D01*
X122957Y-48281D01*
X122995Y-48375D01*
X122957Y-48467D01*
X122957Y-48595D01*
X122997Y-48692D01*
X122959Y-48783D01*
X122959Y-48911D01*
X122996Y-49002D01*
X122957Y-49097D01*
X122957Y-49157D01*
X122901Y-49157D01*
X122807Y-49196D01*
X122714Y-49157D01*
X122660Y-49157D01*
X122660Y-47840D01*
X122621Y-47744D01*
X122658Y-47654D01*
X122658Y-47526D01*
X122620Y-47434D01*
X122660Y-47338D01*
X122660Y-47210D01*
X122620Y-47113D01*
X122658Y-47022D01*
X122658Y-46894D01*
X122619Y-46798D01*
X122656Y-46708D01*
X122656Y-46580D01*
X122607Y-46461D01*
X122516Y-46370D01*
X122418Y-46329D01*
X122516Y-46289D01*
X122607Y-46198D01*
X122656Y-46080D01*
X122656Y-45952D01*
X122618Y-45859D01*
X122658Y-45762D01*
X122658Y-45634D01*
X122609Y-45515D01*
X122518Y-45424D01*
X122400Y-45375D01*
X122272Y-45375D01*
X122175Y-45415D01*
X122084Y-45377D01*
X121956Y-45377D01*
X121861Y-45416D01*
X121768Y-45377D01*
X121640Y-45377D01*
X121546Y-45415D01*
X121454Y-45377D01*
X121326Y-45377D01*
X121231Y-45416D01*
X121138Y-45377D01*
X121010Y-45377D01*
X120916Y-45415D01*
X120824Y-45377D01*
X120696Y-45377D01*
X120601Y-45416D01*
X120508Y-45377D01*
X120380Y-45377D01*
X120286Y-45415D01*
X120194Y-45377D01*
X120066Y-45377D01*
X119972Y-45415D01*
X119880Y-45377D01*
X119752Y-45377D01*
X119633Y-45426D01*
X119542Y-45517D01*
X119493Y-45635D01*
X119493Y-45763D01*
X119532Y-45858D01*
X119493Y-45951D01*
X119493Y-46079D01*
X119542Y-46198D01*
X119633Y-46289D01*
X119732Y-46330D01*
X119657Y-46361D01*
X119564Y-46322D01*
X119436Y-46322D01*
X119317Y-46371D01*
X119226Y-46462D01*
X119177Y-46580D01*
X119177Y-46708D01*
X119216Y-46802D01*
X119177Y-46895D01*
X119177Y-47023D01*
X119216Y-47117D01*
X119177Y-47210D01*
X119177Y-47338D01*
X119216Y-47432D01*
X119177Y-47525D01*
X119177Y-47653D01*
X119216Y-47747D01*
X119177Y-47840D01*
X119177Y-47968D01*
X119215Y-48060D01*
X119177Y-48150D01*
X119177Y-48278D01*
X119217Y-48375D01*
X119177Y-48470D01*
X119177Y-48598D01*
X119226Y-48717D01*
X119317Y-48808D01*
X119435Y-48857D01*
X119563Y-48857D01*
X119657Y-48818D01*
X119750Y-48857D01*
X119878Y-48857D01*
X119972Y-48818D01*
X120065Y-48857D01*
X120193Y-48857D01*
X120293Y-48816D01*
X120380Y-48852D01*
X120508Y-48852D01*
X120596Y-48816D01*
X120695Y-48857D01*
X120823Y-48857D01*
X120917Y-48818D01*
X121010Y-48857D01*
X121138Y-48857D01*
X121232Y-48818D01*
X121325Y-48857D01*
X121453Y-48857D01*
X121547Y-48818D01*
X121640Y-48857D01*
X121768Y-48857D01*
X121862Y-48818D01*
X121955Y-48857D01*
X122083Y-48857D01*
X122202Y-48808D01*
X122293Y-48717D01*
X122342Y-48599D01*
X122342Y-48471D01*
X122303Y-48377D01*
X122342Y-48284D01*
X122342Y-48226D01*
X122401Y-48226D01*
X122520Y-48177D01*
X122611Y-48086D01*
X122660Y-47968D01*
X122660Y-47840D01*
X122660Y-49157D01*
X122586Y-49157D01*
X122492Y-49196D01*
X122399Y-49157D01*
X122271Y-49157D01*
X122177Y-49196D01*
X122084Y-49157D01*
X121956Y-49157D01*
X121862Y-49196D01*
X121769Y-49157D01*
X121641Y-49157D01*
X121547Y-49196D01*
X121454Y-49157D01*
X121326Y-49157D01*
X121232Y-49196D01*
X121139Y-49157D01*
X121011Y-49157D01*
X120917Y-49196D01*
X120824Y-49157D01*
X120696Y-49157D01*
X120602Y-49196D01*
X120509Y-49157D01*
X120381Y-49157D01*
X120293Y-49193D01*
X120194Y-49152D01*
X120066Y-49152D01*
X119968Y-49192D01*
X119884Y-49157D01*
X119756Y-49157D01*
X119659Y-49197D01*
X119564Y-49157D01*
X119436Y-49157D01*
X119342Y-49196D01*
X119249Y-49157D01*
X119121Y-49157D01*
X119027Y-49196D01*
X118934Y-49157D01*
X118806Y-49157D01*
X118712Y-49196D01*
X118637Y-49164D01*
X118737Y-49123D01*
X118828Y-49032D01*
X118877Y-48914D01*
X118877Y-48786D01*
X118837Y-48689D01*
X118877Y-48594D01*
X118877Y-48466D01*
X118839Y-48374D01*
X118877Y-48284D01*
X118877Y-48156D01*
X118838Y-48062D01*
X118877Y-47969D01*
X118877Y-47841D01*
X118838Y-47747D01*
X118877Y-47654D01*
X118877Y-47526D01*
X118838Y-47432D01*
X118877Y-47339D01*
X118877Y-47211D01*
X118838Y-47117D01*
X118877Y-47024D01*
X118877Y-46896D01*
X118838Y-46802D01*
X118877Y-46709D01*
X118877Y-46581D01*
X118838Y-46487D01*
X118877Y-46394D01*
X118877Y-46266D01*
X118838Y-46172D01*
X118877Y-46079D01*
X118877Y-45951D01*
X118838Y-45857D01*
X118877Y-45764D01*
X118877Y-45636D01*
X118839Y-45543D01*
X118878Y-45449D01*
X118878Y-45321D01*
X118829Y-45202D01*
X118738Y-45111D01*
X118637Y-45069D01*
X118713Y-45038D01*
X118805Y-45076D01*
X118933Y-45076D01*
X119028Y-45037D01*
X119121Y-45076D01*
X119249Y-45076D01*
X119343Y-45038D01*
X119435Y-45076D01*
X119563Y-45076D01*
X119658Y-45037D01*
X119751Y-45076D01*
X119879Y-45076D01*
X119973Y-45038D01*
X120065Y-45076D01*
X120193Y-45076D01*
X120287Y-45038D01*
X120379Y-45076D01*
X120507Y-45076D01*
X120602Y-45037D01*
X120695Y-45076D01*
X120823Y-45076D01*
X120918Y-45037D01*
X121011Y-45076D01*
X121139Y-45076D01*
X121233Y-45038D01*
X121325Y-45076D01*
X121453Y-45076D01*
X121548Y-45037D01*
X121641Y-45076D01*
X121769Y-45076D01*
X121863Y-45038D01*
X121955Y-45076D01*
X122083Y-45076D01*
X122178Y-45037D01*
X122271Y-45076D01*
X122399Y-45076D01*
X122493Y-45038D01*
X122585Y-45076D01*
X122713Y-45076D01*
X122805Y-45038D01*
X122901Y-45078D01*
X123029Y-45078D01*
X123125Y-45039D01*
X123197Y-45069D01*
G54D10*
G36*
X127450Y-53479D02*
X126979Y-53950D01*
X124864Y-53950D01*
X124864Y-44690D01*
X124824Y-44592D01*
X124860Y-44504D01*
X124860Y-44376D01*
X124822Y-44282D01*
X124860Y-44190D01*
X124860Y-44062D01*
X124811Y-43943D01*
X124720Y-43852D01*
X124602Y-43803D01*
X124474Y-43803D01*
X124383Y-43840D01*
X124288Y-43801D01*
X124160Y-43801D01*
X124066Y-43839D01*
X123974Y-43801D01*
X123846Y-43801D01*
X123751Y-43840D01*
X123658Y-43801D01*
X123530Y-43801D01*
X123434Y-43840D01*
X123344Y-43803D01*
X123216Y-43803D01*
X123121Y-43842D01*
X123028Y-43803D01*
X122900Y-43803D01*
X122809Y-43840D01*
X122714Y-43801D01*
X122586Y-43801D01*
X122492Y-43839D01*
X122400Y-43801D01*
X122272Y-43801D01*
X122177Y-43840D01*
X122084Y-43801D01*
X121956Y-43801D01*
X121862Y-43839D01*
X121770Y-43801D01*
X121642Y-43801D01*
X121545Y-43841D01*
X121454Y-43803D01*
X121326Y-43803D01*
X121235Y-43840D01*
X121140Y-43801D01*
X121012Y-43801D01*
X120917Y-43840D01*
X120824Y-43801D01*
X120696Y-43801D01*
X120602Y-43839D01*
X120510Y-43801D01*
X120382Y-43801D01*
X120285Y-43841D01*
X120194Y-43803D01*
X120066Y-43803D01*
X119972Y-43841D01*
X119880Y-43803D01*
X119752Y-43803D01*
X119660Y-43841D01*
X119564Y-43801D01*
X119436Y-43801D01*
X119342Y-43839D01*
X119250Y-43801D01*
X119122Y-43801D01*
X119026Y-43840D01*
X118934Y-43802D01*
X118806Y-43802D01*
X118712Y-43841D01*
X118619Y-43802D01*
X118491Y-43802D01*
X118397Y-43841D01*
X118304Y-43802D01*
X118176Y-43802D01*
X118082Y-43841D01*
X117989Y-43802D01*
X117861Y-43802D01*
X117767Y-43841D01*
X117674Y-43802D01*
X117546Y-43802D01*
X117427Y-43851D01*
X117336Y-43942D01*
X117287Y-44060D01*
X117287Y-44188D01*
X117326Y-44282D01*
X117287Y-44375D01*
X117287Y-44503D01*
X117326Y-44599D01*
X117289Y-44689D01*
X117289Y-44817D01*
X117338Y-44936D01*
X117429Y-45027D01*
X117547Y-45076D01*
X117675Y-45076D01*
X117769Y-45038D01*
X117844Y-45069D01*
X117742Y-45111D01*
X117651Y-45202D01*
X117602Y-45320D01*
X117602Y-45448D01*
X117641Y-45542D01*
X117602Y-45635D01*
X117602Y-45763D01*
X117641Y-45857D01*
X117602Y-45950D01*
X117602Y-46078D01*
X117641Y-46172D01*
X117602Y-46265D01*
X117602Y-46393D01*
X117641Y-46487D01*
X117602Y-46580D01*
X117602Y-46708D01*
X117641Y-46802D01*
X117602Y-46895D01*
X117602Y-47023D01*
X117641Y-47117D01*
X117602Y-47210D01*
X117602Y-47338D01*
X117641Y-47432D01*
X117602Y-47525D01*
X117602Y-47653D01*
X117641Y-47747D01*
X117602Y-47840D01*
X117602Y-47968D01*
X117641Y-48062D01*
X117602Y-48155D01*
X117602Y-48283D01*
X117640Y-48375D01*
X117602Y-48465D01*
X117602Y-48593D01*
X117641Y-48687D01*
X117602Y-48780D01*
X117602Y-48908D01*
X117641Y-49002D01*
X117602Y-49095D01*
X117602Y-49157D01*
X117546Y-49157D01*
X117452Y-49196D01*
X117359Y-49157D01*
X117231Y-49157D01*
X117112Y-49206D01*
X117021Y-49297D01*
X116972Y-49415D01*
X116972Y-49543D01*
X117010Y-49635D01*
X116972Y-49725D01*
X116972Y-49853D01*
X117011Y-49947D01*
X116972Y-50040D01*
X116972Y-50168D01*
X117021Y-50287D01*
X117112Y-50378D01*
X117230Y-50427D01*
X117358Y-50427D01*
X117452Y-50388D01*
X117545Y-50427D01*
X117673Y-50427D01*
X117767Y-50388D01*
X117860Y-50427D01*
X117988Y-50427D01*
X118082Y-50388D01*
X118175Y-50427D01*
X118303Y-50427D01*
X118397Y-50388D01*
X118490Y-50427D01*
X118618Y-50427D01*
X118712Y-50388D01*
X118805Y-50427D01*
X118933Y-50427D01*
X119027Y-50388D01*
X119120Y-50427D01*
X119248Y-50427D01*
X119342Y-50388D01*
X119435Y-50427D01*
X119563Y-50427D01*
X119660Y-50387D01*
X119755Y-50427D01*
X119883Y-50427D01*
X119975Y-50389D01*
X120065Y-50427D01*
X120193Y-50427D01*
X120287Y-50388D01*
X120380Y-50427D01*
X120508Y-50427D01*
X120602Y-50388D01*
X120695Y-50427D01*
X120823Y-50427D01*
X120917Y-50388D01*
X121010Y-50427D01*
X121138Y-50427D01*
X121232Y-50388D01*
X121325Y-50427D01*
X121453Y-50427D01*
X121547Y-50388D01*
X121640Y-50427D01*
X121768Y-50427D01*
X121862Y-50388D01*
X121955Y-50427D01*
X122083Y-50427D01*
X122177Y-50388D01*
X122270Y-50427D01*
X122398Y-50427D01*
X122492Y-50388D01*
X122585Y-50427D01*
X122713Y-50427D01*
X122807Y-50388D01*
X122900Y-50427D01*
X123028Y-50427D01*
X123122Y-50388D01*
X123215Y-50427D01*
X123343Y-50427D01*
X123437Y-50388D01*
X123530Y-50427D01*
X123658Y-50427D01*
X123752Y-50388D01*
X123845Y-50427D01*
X123973Y-50427D01*
X124067Y-50388D01*
X124160Y-50427D01*
X124288Y-50427D01*
X124407Y-50378D01*
X124498Y-50287D01*
X124547Y-50169D01*
X124547Y-50041D01*
X124508Y-49947D01*
X124547Y-49854D01*
X124547Y-49726D01*
X124506Y-49626D01*
X124542Y-49539D01*
X124542Y-49411D01*
X124493Y-49292D01*
X124402Y-49201D01*
X124284Y-49152D01*
X124232Y-49152D01*
X124232Y-49100D01*
X124193Y-49005D01*
X124232Y-48912D01*
X124232Y-48784D01*
X124193Y-48689D01*
X124232Y-48596D01*
X124232Y-48468D01*
X124194Y-48374D01*
X124232Y-48282D01*
X124232Y-48154D01*
X124194Y-48060D01*
X124232Y-47968D01*
X124232Y-47840D01*
X124193Y-47745D01*
X124232Y-47652D01*
X124232Y-47524D01*
X124193Y-47429D01*
X124232Y-47336D01*
X124232Y-47208D01*
X124194Y-47115D01*
X124232Y-47024D01*
X124232Y-46896D01*
X124193Y-46801D01*
X124232Y-46708D01*
X124232Y-46580D01*
X124194Y-46486D01*
X124232Y-46394D01*
X124232Y-46266D01*
X124192Y-46169D01*
X124230Y-46078D01*
X124230Y-45950D01*
X124192Y-45856D01*
X124230Y-45764D01*
X124230Y-45636D01*
X124191Y-45541D01*
X124230Y-45448D01*
X124230Y-45320D01*
X124181Y-45201D01*
X124090Y-45110D01*
X123990Y-45068D01*
X124063Y-45038D01*
X124159Y-45078D01*
X124287Y-45078D01*
X124385Y-45038D01*
X124477Y-45076D01*
X124605Y-45076D01*
X124724Y-45027D01*
X124815Y-44936D01*
X124864Y-44818D01*
X124864Y-44690D01*
X124864Y-53950D01*
X115020Y-53950D01*
X114550Y-53479D01*
X114550Y-39520D01*
X115020Y-39050D01*
X126979Y-39050D01*
X127450Y-39520D01*
X127450Y-53479D01*
X127450Y-53479D01*
G37*
G54D16*
X127450Y-53479D02*
X126979Y-53950D01*
X124864Y-53950D01*
X124864Y-44690D01*
X124824Y-44592D01*
X124860Y-44504D01*
X124860Y-44376D01*
X124822Y-44282D01*
X124860Y-44190D01*
X124860Y-44062D01*
X124811Y-43943D01*
X124720Y-43852D01*
X124602Y-43803D01*
X124474Y-43803D01*
X124383Y-43840D01*
X124288Y-43801D01*
X124160Y-43801D01*
X124066Y-43839D01*
X123974Y-43801D01*
X123846Y-43801D01*
X123751Y-43840D01*
X123658Y-43801D01*
X123530Y-43801D01*
X123434Y-43840D01*
X123344Y-43803D01*
X123216Y-43803D01*
X123121Y-43842D01*
X123028Y-43803D01*
X122900Y-43803D01*
X122809Y-43840D01*
X122714Y-43801D01*
X122586Y-43801D01*
X122492Y-43839D01*
X122400Y-43801D01*
X122272Y-43801D01*
X122177Y-43840D01*
X122084Y-43801D01*
X121956Y-43801D01*
X121862Y-43839D01*
X121770Y-43801D01*
X121642Y-43801D01*
X121545Y-43841D01*
X121454Y-43803D01*
X121326Y-43803D01*
X121235Y-43840D01*
X121140Y-43801D01*
X121012Y-43801D01*
X120917Y-43840D01*
X120824Y-43801D01*
X120696Y-43801D01*
X120602Y-43839D01*
X120510Y-43801D01*
X120382Y-43801D01*
X120285Y-43841D01*
X120194Y-43803D01*
X120066Y-43803D01*
X119972Y-43841D01*
X119880Y-43803D01*
X119752Y-43803D01*
X119660Y-43841D01*
X119564Y-43801D01*
X119436Y-43801D01*
X119342Y-43839D01*
X119250Y-43801D01*
X119122Y-43801D01*
X119026Y-43840D01*
X118934Y-43802D01*
X118806Y-43802D01*
X118712Y-43841D01*
X118619Y-43802D01*
X118491Y-43802D01*
X118397Y-43841D01*
X118304Y-43802D01*
X118176Y-43802D01*
X118082Y-43841D01*
X117989Y-43802D01*
X117861Y-43802D01*
X117767Y-43841D01*
X117674Y-43802D01*
X117546Y-43802D01*
X117427Y-43851D01*
X117336Y-43942D01*
X117287Y-44060D01*
X117287Y-44188D01*
X117326Y-44282D01*
X117287Y-44375D01*
X117287Y-44503D01*
X117326Y-44599D01*
X117289Y-44689D01*
X117289Y-44817D01*
X117338Y-44936D01*
X117429Y-45027D01*
X117547Y-45076D01*
X117675Y-45076D01*
X117769Y-45038D01*
X117844Y-45069D01*
X117742Y-45111D01*
X117651Y-45202D01*
X117602Y-45320D01*
X117602Y-45448D01*
X117641Y-45542D01*
X117602Y-45635D01*
X117602Y-45763D01*
X117641Y-45857D01*
X117602Y-45950D01*
X117602Y-46078D01*
X117641Y-46172D01*
X117602Y-46265D01*
X117602Y-46393D01*
X117641Y-46487D01*
X117602Y-46580D01*
X117602Y-46708D01*
X117641Y-46802D01*
X117602Y-46895D01*
X117602Y-47023D01*
X117641Y-47117D01*
X117602Y-47210D01*
X117602Y-47338D01*
X117641Y-47432D01*
X117602Y-47525D01*
X117602Y-47653D01*
X117641Y-47747D01*
X117602Y-47840D01*
X117602Y-47968D01*
X117641Y-48062D01*
X117602Y-48155D01*
X117602Y-48283D01*
X117640Y-48375D01*
X117602Y-48465D01*
X117602Y-48593D01*
X117641Y-48687D01*
X117602Y-48780D01*
X117602Y-48908D01*
X117641Y-49002D01*
X117602Y-49095D01*
X117602Y-49157D01*
X117546Y-49157D01*
X117452Y-49196D01*
X117359Y-49157D01*
X117231Y-49157D01*
X117112Y-49206D01*
X117021Y-49297D01*
X116972Y-49415D01*
X116972Y-49543D01*
X117010Y-49635D01*
X116972Y-49725D01*
X116972Y-49853D01*
X117011Y-49947D01*
X116972Y-50040D01*
X116972Y-50168D01*
X117021Y-50287D01*
X117112Y-50378D01*
X117230Y-50427D01*
X117358Y-50427D01*
X117452Y-50388D01*
X117545Y-50427D01*
X117673Y-50427D01*
X117767Y-50388D01*
X117860Y-50427D01*
X117988Y-50427D01*
X118082Y-50388D01*
X118175Y-50427D01*
X118303Y-50427D01*
X118397Y-50388D01*
X118490Y-50427D01*
X118618Y-50427D01*
X118712Y-50388D01*
X118805Y-50427D01*
X118933Y-50427D01*
X119027Y-50388D01*
X119120Y-50427D01*
X119248Y-50427D01*
X119342Y-50388D01*
X119435Y-50427D01*
X119563Y-50427D01*
X119660Y-50387D01*
X119755Y-50427D01*
X119883Y-50427D01*
X119975Y-50389D01*
X120065Y-50427D01*
X120193Y-50427D01*
X120287Y-50388D01*
X120380Y-50427D01*
X120508Y-50427D01*
X120602Y-50388D01*
X120695Y-50427D01*
X120823Y-50427D01*
X120917Y-50388D01*
X121010Y-50427D01*
X121138Y-50427D01*
X121232Y-50388D01*
X121325Y-50427D01*
X121453Y-50427D01*
X121547Y-50388D01*
X121640Y-50427D01*
X121768Y-50427D01*
X121862Y-50388D01*
X121955Y-50427D01*
X122083Y-50427D01*
X122177Y-50388D01*
X122270Y-50427D01*
X122398Y-50427D01*
X122492Y-50388D01*
X122585Y-50427D01*
X122713Y-50427D01*
X122807Y-50388D01*
X122900Y-50427D01*
X123028Y-50427D01*
X123122Y-50388D01*
X123215Y-50427D01*
X123343Y-50427D01*
X123437Y-50388D01*
X123530Y-50427D01*
X123658Y-50427D01*
X123752Y-50388D01*
X123845Y-50427D01*
X123973Y-50427D01*
X124067Y-50388D01*
X124160Y-50427D01*
X124288Y-50427D01*
X124407Y-50378D01*
X124498Y-50287D01*
X124547Y-50169D01*
X124547Y-50041D01*
X124508Y-49947D01*
X124547Y-49854D01*
X124547Y-49726D01*
X124506Y-49626D01*
X124542Y-49539D01*
X124542Y-49411D01*
X124493Y-49292D01*
X124402Y-49201D01*
X124284Y-49152D01*
X124232Y-49152D01*
X124232Y-49100D01*
X124193Y-49005D01*
X124232Y-48912D01*
X124232Y-48784D01*
X124193Y-48689D01*
X124232Y-48596D01*
X124232Y-48468D01*
X124194Y-48374D01*
X124232Y-48282D01*
X124232Y-48154D01*
X124194Y-48060D01*
X124232Y-47968D01*
X124232Y-47840D01*
X124193Y-47745D01*
X124232Y-47652D01*
X124232Y-47524D01*
X124193Y-47429D01*
X124232Y-47336D01*
X124232Y-47208D01*
X124194Y-47115D01*
X124232Y-47024D01*
X124232Y-46896D01*
X124193Y-46801D01*
X124232Y-46708D01*
X124232Y-46580D01*
X124194Y-46486D01*
X124232Y-46394D01*
X124232Y-46266D01*
X124192Y-46169D01*
X124230Y-46078D01*
X124230Y-45950D01*
X124192Y-45856D01*
X124230Y-45764D01*
X124230Y-45636D01*
X124191Y-45541D01*
X124230Y-45448D01*
X124230Y-45320D01*
X124181Y-45201D01*
X124090Y-45110D01*
X123990Y-45068D01*
X124063Y-45038D01*
X124159Y-45078D01*
X124287Y-45078D01*
X124385Y-45038D01*
X124477Y-45076D01*
X124605Y-45076D01*
X124724Y-45027D01*
X124815Y-44936D01*
X124864Y-44818D01*
X124864Y-44690D01*
X124864Y-53950D01*
X115020Y-53950D01*
X114550Y-53479D01*
X114550Y-39520D01*
X115020Y-39050D01*
X126979Y-39050D01*
X127450Y-39520D01*
X127450Y-53479D01*
M02*
