M48
;DRILL file {Pcbnew (2012-oct-18)-testing} date Mon 18 Feb 2013 10:37:06 UTC
;FORMAT={-:-/ absolute / inch / decimal}
FMAT,2
INCH,TZ
T1C0.006
T2C0.040
T3C0.120
%
G90
G05
M72
T1
X10.86Y8.38
X10.995Y8.349
X11.113Y8.397
X11.232Y8.297
X11.425Y8.357
X11.546Y8.345
X11.653Y8.33
X11.7295Y4.948
X11.7295Y4.979
X11.7295Y5.0105
X11.761Y4.4125
X11.761Y4.444
X11.761Y4.948
X11.761Y4.9795
X11.761Y5.0105
X11.7612Y4.4754
X11.7925Y4.4125
X11.7925Y4.444
X11.7925Y4.5385
X11.7925Y4.57
X11.7925Y4.6015
X11.7925Y4.633
X11.7925Y4.6645
X11.7925Y4.696
X11.7925Y4.7275
X11.7925Y4.759
X11.7925Y4.7905
X11.7925Y4.822
X11.7925Y4.853
X11.7925Y4.8845
X11.7925Y4.916
X11.7925Y4.948
X11.7925Y4.979
X11.7925Y5.0105
X11.7926Y4.4754
X11.798Y8.341
X11.824Y4.4125
X11.824Y4.444
X11.824Y4.5385
X11.824Y4.57
X11.824Y4.6015
X11.824Y4.633
X11.824Y4.6645
X11.824Y4.696
X11.824Y4.7275
X11.824Y4.759
X11.824Y4.7905
X11.824Y4.822
X11.824Y4.853
X11.824Y4.885
X11.824Y4.9165
X11.824Y4.948
X11.824Y4.979
X11.824Y5.0105
X11.8242Y4.4754
X11.8555Y4.4125
X11.8555Y4.444
X11.8555Y4.57
X11.8555Y4.6015
X11.8555Y4.633
X11.8555Y4.6645
X11.8555Y4.696
X11.8555Y4.7275
X11.8555Y4.759
X11.8555Y4.7905
X11.8555Y4.822
X11.8555Y4.853
X11.8555Y4.885
X11.8555Y4.9165
X11.8555Y4.948
X11.8555Y4.979
X11.8555Y5.0105
X11.8556Y4.4754
X11.8556Y4.5385
X11.887Y4.4125
X11.887Y4.444
X11.887Y4.4754
X11.887Y4.948
X11.887Y4.979
X11.887Y5.0105
X11.9185Y4.948
X11.9185Y4.979
X11.9185Y5.0105
X11.9186Y4.4124
X11.9186Y4.4438
X11.9186Y4.4754
X11.949Y8.385
X11.95Y4.4124
X11.95Y4.444
X11.95Y4.4754
X11.95Y4.6645
X11.95Y4.696
X11.95Y4.7275
X11.95Y4.759
X11.95Y4.7905
X11.95Y4.8215
X11.95Y4.8535
X11.95Y4.948
X11.95Y4.979
X11.95Y5.0105
X11.9815Y4.6645
X11.9815Y4.696
X11.9815Y4.7275
X11.9815Y4.759
X11.9815Y4.7905
X11.9815Y4.8215
X11.9815Y4.8535
X11.9815Y4.979
X11.9816Y4.4126
X11.9816Y4.444
X11.9816Y4.4754
X11.9816Y4.57
X11.9816Y4.6016
X11.982Y4.948
X11.982Y5.0105
X12.013Y4.4126
X12.013Y4.444
X12.013Y4.4754
X12.013Y4.57
X12.013Y4.6016
X12.013Y4.7903
X12.013Y4.8535
X12.013Y4.9475
X12.013Y4.979
X12.013Y5.0105
X12.0132Y4.6958
X12.0132Y4.7274
X12.0135Y4.822
X12.0444Y4.4754
X12.0444Y4.57
X12.0444Y4.6014
X12.0445Y4.822
X12.0445Y4.853
X12.0445Y4.948
X12.0445Y4.979
X12.0445Y5.0105
X12.0446Y4.4124
X12.0446Y4.444
X12.0446Y4.6958
X12.0446Y4.7588
X12.0448Y4.7274
X12.067Y8.393
X12.076Y4.4124
X12.076Y4.444
X12.076Y4.4754
X12.076Y4.57
X12.076Y4.6014
X12.076Y4.6644
X12.076Y4.7588
X12.076Y4.822
X12.076Y4.8535
X12.076Y4.948
X12.076Y4.9795
X12.076Y5.0105
X12.0762Y4.696
X12.0762Y4.7274
X12.1074Y4.57
X12.1074Y4.6014
X12.1075Y4.8215
X12.1075Y4.8535
X12.1075Y4.948
X12.1075Y4.979
X12.1075Y5.0105
X12.1076Y4.4124
X12.1076Y4.444
X12.1076Y4.4754
X12.1076Y4.6644
X12.1076Y4.7274
X12.1076Y4.7588
X12.1078Y4.6958
X12.134Y8.325
X12.1388Y4.6014
X12.139Y4.4126
X12.139Y4.444
X12.139Y4.4754
X12.139Y4.57
X12.139Y4.6644
X12.139Y4.696
X12.139Y4.7274
X12.139Y4.759
X12.139Y4.822
X12.139Y4.8535
X12.139Y4.948
X12.139Y4.979
X12.139Y5.0105
X12.1702Y4.6014
X12.1704Y4.444
X12.1704Y4.57
X12.1705Y4.7903
X12.1705Y4.8215
X12.1705Y4.8535
X12.1705Y4.948
X12.1705Y4.979
X12.1705Y5.0105
X12.1706Y4.4124
X12.1706Y4.4754
X12.1706Y4.696
X12.1706Y4.7274
X12.1706Y4.7588
X12.2018Y4.6016
X12.202Y4.4124
X12.202Y4.444
X12.202Y4.4754
X12.202Y4.57
X12.202Y4.6644
X12.202Y4.822
X12.202Y4.8535
X12.202Y4.948
X12.202Y4.979
X12.202Y5.0105
X12.2022Y4.696
X12.2022Y4.7274
X12.2022Y4.7588
X12.2022Y4.7904
X12.2334Y4.6016
X12.2334Y4.6644
X12.2335Y4.948
X12.2335Y5.0105
X12.2336Y4.4124
X12.2336Y4.444
X12.2336Y4.4754
X12.2336Y4.5698
X12.2336Y4.6958
X12.2336Y4.759
X12.2338Y4.7274
X12.2338Y4.7904
X12.234Y4.979
X12.25Y8.322
X12.265Y4.4124
X12.265Y4.444
X12.265Y4.4754
X12.265Y4.948
X12.265Y4.979
X12.265Y5.0105
X12.2964Y4.4126
X12.2964Y4.444
X12.2965Y4.948
X12.2965Y4.979
X12.2965Y5.0105
X12.2966Y4.4756
X12.3278Y4.6014
X12.3278Y4.633
X12.328Y4.4126
X12.328Y4.444
X12.328Y4.4754
X12.328Y4.5384
X12.328Y4.57
X12.328Y4.6646
X12.328Y4.6958
X12.328Y4.7274
X12.328Y4.759
X12.328Y4.7906
X12.328Y4.8218
X12.328Y4.8532
X12.328Y4.9162
X12.328Y4.948
X12.328Y4.979
X12.328Y5.0105
X12.3282Y4.8848
X12.3594Y4.4124
X12.3594Y4.444
X12.3594Y4.4754
X12.3594Y4.5384
X12.3594Y4.57
X12.3594Y4.6014
X12.3594Y4.6328
X12.3595Y4.948
X12.3595Y4.979
X12.3595Y5.0105
X12.3596Y4.6644
X12.3596Y4.696
X12.3596Y4.7274
X12.3596Y4.7588
X12.3596Y4.7904
X12.3596Y4.8218
X12.3596Y4.8532
X12.3596Y4.8848
X12.3596Y4.9164
X12.3908Y4.4754
X12.3908Y4.5384
X12.3908Y4.57
X12.3908Y4.6014
X12.391Y4.4124
X12.391Y4.444
X12.391Y4.633
X12.391Y4.6644
X12.391Y4.696
X12.391Y4.7272
X12.391Y4.7588
X12.391Y4.7904
X12.391Y4.8218
X12.391Y4.8532
X12.391Y4.8848
X12.391Y4.9164
X12.391Y4.948
X12.391Y4.979
X12.391Y5.0105
X12.421Y8.382
X12.422Y4.9475
X12.4224Y4.4124
X12.4224Y4.444
X12.4224Y4.4756
X12.4225Y4.979
X12.4225Y5.0105
X12.4538Y4.4126
X12.4538Y4.444
X12.4542Y4.4754
X12.491Y8.33
X12.609Y8.325
X12.732Y8.328
X12.846Y8.326
X12.972Y8.329
X13.089Y8.325
X13.24Y8.326
T2
X10.15Y3.77
X10.15Y3.92
X10.15Y4.07
X10.15Y4.22
X10.15Y4.37
X10.15Y4.52
X10.15Y4.67
X10.15Y4.82
X10.15Y4.97
X10.15Y5.12
X10.15Y5.27
X10.15Y5.42
X10.15Y5.57
X10.35Y3.77
X10.35Y3.92
X10.35Y4.07
X10.35Y4.22
X10.35Y4.37
X10.35Y4.52
X10.35Y4.67
X10.35Y4.82
X10.35Y4.97
X10.35Y5.12
X10.35Y5.27
X10.35Y5.42
X10.35Y5.57
X10.45Y2.62
X10.45Y2.82
X10.45Y3.02
X10.45Y3.22
X10.45Y3.42
X10.45Y5.87
X10.45Y6.07
X10.45Y6.27
X10.45Y6.47
X10.45Y6.67
X10.55Y3.77
X10.55Y3.92
X10.55Y4.07
X10.55Y4.22
X10.55Y4.37
X10.55Y4.52
X10.55Y4.67
X10.55Y4.82
X10.55Y4.97
X10.55Y5.12
X10.55Y5.27
X10.55Y5.42
X10.55Y5.57
X10.6Y2.62
X10.6Y2.82
X10.6Y3.02
X10.6Y3.22
X10.6Y3.42
X10.6Y5.87
X10.6Y6.07
X10.6Y6.27
X10.6Y6.47
X10.6Y6.67
X10.75Y2.62
X10.75Y2.82
X10.75Y3.02
X10.75Y3.22
X10.75Y3.42
X10.75Y3.77
X10.75Y3.92
X10.75Y4.07
X10.75Y4.22
X10.75Y4.37
X10.75Y4.52
X10.75Y4.67
X10.75Y4.82
X10.75Y4.97
X10.75Y5.12
X10.75Y5.27
X10.75Y5.42
X10.75Y5.57
X10.75Y5.87
X10.75Y6.07
X10.75Y6.27
X10.75Y6.47
X10.75Y6.67
X10.9Y2.62
X10.9Y2.82
X10.9Y3.02
X10.9Y3.22
X10.9Y3.42
X10.9Y5.87
X10.9Y6.07
X10.9Y6.27
X10.9Y6.47
X10.9Y6.67
X10.95Y3.77
X10.95Y3.92
X10.95Y4.07
X10.95Y4.22
X10.95Y4.37
X10.95Y4.52
X10.95Y4.67
X10.95Y4.82
X10.95Y4.97
X10.95Y5.12
X10.95Y5.27
X10.95Y5.42
X10.95Y5.57
X10.97Y6.88
X10.97Y7.03
X10.97Y7.18
X10.97Y7.33
X10.97Y7.48
X10.97Y7.63
X10.97Y7.78
X10.97Y7.93
X10.97Y8.08
X10.97Y8.23
X11.05Y2.62
X11.05Y2.82
X11.05Y3.02
X11.05Y3.22
X11.05Y3.42
X11.05Y5.87
X11.05Y6.07
X11.05Y6.27
X11.05Y6.47
X11.05Y6.67
X11.09Y6.88
X11.09Y7.03
X11.09Y7.18
X11.09Y7.33
X11.09Y7.48
X11.09Y7.63
X11.09Y7.78
X11.09Y7.93
X11.09Y8.08
X11.09Y8.23
X11.15Y4.37
X11.15Y4.52
X11.15Y4.67
X11.15Y4.82
X11.15Y4.97
X11.2Y2.62
X11.2Y2.82
X11.2Y3.02
X11.2Y3.22
X11.2Y3.42
X11.2Y5.87
X11.2Y6.07
X11.2Y6.27
X11.2Y6.47
X11.2Y6.67
X11.21Y6.88
X11.21Y7.03
X11.21Y7.18
X11.21Y7.33
X11.21Y7.48
X11.21Y7.63
X11.21Y7.78
X11.21Y7.93
X11.21Y8.08
X11.21Y8.23
X11.33Y6.88
X11.33Y7.03
X11.33Y7.18
X11.33Y7.33
X11.33Y7.48
X11.33Y7.63
X11.33Y7.78
X11.33Y7.93
X11.33Y8.08
X11.33Y8.23
X11.35Y2.62
X11.35Y2.82
X11.35Y3.02
X11.35Y3.22
X11.35Y3.42
X11.35Y4.37
X11.35Y4.52
X11.35Y4.67
X11.35Y4.82
X11.35Y4.97
X11.35Y5.87
X11.35Y6.07
X11.35Y6.27
X11.35Y6.47
X11.35Y6.67
X11.45Y6.88
X11.45Y7.03
X11.45Y7.18
X11.45Y7.33
X11.45Y7.48
X11.45Y7.63
X11.45Y7.78
X11.45Y7.93
X11.45Y8.08
X11.45Y8.23
X11.5Y2.62
X11.5Y2.82
X11.5Y3.02
X11.5Y3.22
X11.5Y3.42
X11.5Y3.62
X11.5Y3.82
X11.5Y5.47
X11.5Y5.67
X11.5Y5.87
X11.5Y6.07
X11.5Y6.27
X11.5Y6.47
X11.5Y6.67
X11.57Y6.88
X11.57Y7.03
X11.57Y7.18
X11.57Y7.33
X11.57Y7.48
X11.57Y7.63
X11.57Y7.78
X11.57Y7.93
X11.57Y8.08
X11.57Y8.23
X11.65Y2.62
X11.65Y2.82
X11.65Y3.02
X11.65Y3.22
X11.65Y3.42
X11.65Y3.62
X11.65Y3.82
X11.65Y5.47
X11.65Y5.67
X11.65Y5.87
X11.65Y6.07
X11.65Y6.27
X11.65Y6.47
X11.65Y6.67
X11.69Y6.88
X11.69Y7.03
X11.69Y7.18
X11.69Y7.33
X11.69Y7.48
X11.69Y7.63
X11.69Y7.78
X11.69Y7.93
X11.69Y8.08
X11.69Y8.23
X11.8Y2.62
X11.8Y2.82
X11.8Y3.02
X11.8Y3.22
X11.8Y3.42
X11.8Y3.62
X11.8Y3.82
X11.8Y5.47
X11.8Y5.67
X11.8Y5.87
X11.8Y6.07
X11.8Y6.27
X11.8Y6.47
X11.8Y6.67
X11.81Y6.88
X11.81Y7.03
X11.81Y7.18
X11.81Y7.33
X11.81Y7.48
X11.81Y7.63
X11.81Y7.78
X11.81Y7.93
X11.81Y8.08
X11.81Y8.23
X11.93Y6.88
X11.93Y7.03
X11.93Y7.18
X11.93Y7.33
X11.93Y7.48
X11.93Y7.63
X11.93Y7.78
X11.93Y7.93
X11.93Y8.08
X11.93Y8.23
X11.95Y2.62
X11.95Y2.82
X11.95Y3.02
X11.95Y3.22
X11.95Y3.42
X11.95Y3.62
X11.95Y3.82
X11.95Y5.47
X11.95Y5.67
X11.95Y5.87
X11.95Y6.07
X11.95Y6.27
X11.95Y6.47
X11.95Y6.67
X12.05Y6.88
X12.05Y7.03
X12.05Y7.18
X12.05Y7.33
X12.05Y7.48
X12.05Y7.63
X12.05Y7.78
X12.05Y7.93
X12.05Y8.08
X12.05Y8.23
X12.1Y2.62
X12.1Y2.82
X12.1Y3.02
X12.1Y3.22
X12.1Y3.42
X12.1Y3.62
X12.1Y3.82
X12.1Y5.47
X12.1Y5.67
X12.1Y5.87
X12.1Y6.07
X12.1Y6.27
X12.1Y6.47
X12.1Y6.67
X12.17Y6.88
X12.17Y7.03
X12.17Y7.18
X12.17Y7.33
X12.17Y7.48
X12.17Y7.63
X12.17Y7.78
X12.17Y7.93
X12.17Y8.08
X12.17Y8.23
X12.25Y2.62
X12.25Y2.82
X12.25Y3.02
X12.25Y3.22
X12.25Y3.42
X12.25Y3.62
X12.25Y3.82
X12.25Y5.47
X12.25Y5.67
X12.25Y5.87
X12.25Y6.07
X12.25Y6.27
X12.25Y6.47
X12.25Y6.67
X12.29Y6.88
X12.29Y7.03
X12.29Y7.18
X12.29Y7.33
X12.29Y7.48
X12.29Y7.63
X12.29Y7.78
X12.29Y7.93
X12.29Y8.08
X12.29Y8.23
X12.4Y2.62
X12.4Y2.82
X12.4Y3.02
X12.4Y3.22
X12.4Y3.42
X12.4Y3.62
X12.4Y3.82
X12.4Y5.47
X12.4Y5.67
X12.4Y5.87
X12.4Y6.07
X12.4Y6.27
X12.4Y6.47
X12.4Y6.67
X12.41Y6.88
X12.41Y7.03
X12.41Y7.18
X12.41Y7.33
X12.41Y7.48
X12.41Y7.63
X12.41Y7.78
X12.41Y7.93
X12.41Y8.08
X12.41Y8.23
X12.53Y6.88
X12.53Y7.03
X12.53Y7.18
X12.53Y7.33
X12.53Y7.48
X12.53Y7.63
X12.53Y7.78
X12.53Y7.93
X12.53Y8.08
X12.53Y8.23
X12.55Y2.62
X12.55Y2.82
X12.55Y3.02
X12.55Y3.22
X12.55Y3.42
X12.55Y3.62
X12.55Y3.82
X12.55Y5.47
X12.55Y5.67
X12.55Y5.87
X12.55Y6.07
X12.55Y6.27
X12.55Y6.47
X12.55Y6.67
X12.65Y6.88
X12.65Y7.03
X12.65Y7.18
X12.65Y7.33
X12.65Y7.48
X12.65Y7.63
X12.65Y7.78
X12.65Y7.93
X12.65Y8.08
X12.65Y8.23
X12.7Y2.62
X12.7Y2.82
X12.7Y3.02
X12.7Y3.22
X12.7Y3.42
X12.7Y3.62
X12.7Y3.82
X12.7Y5.47
X12.7Y5.67
X12.7Y5.87
X12.7Y6.07
X12.7Y6.27
X12.7Y6.47
X12.7Y6.67
X12.77Y6.88
X12.77Y7.03
X12.77Y7.18
X12.77Y7.33
X12.77Y7.48
X12.77Y7.63
X12.77Y7.78
X12.77Y7.93
X12.77Y8.08
X12.77Y8.23
X12.85Y2.62
X12.85Y2.82
X12.85Y3.02
X12.85Y3.22
X12.85Y3.42
X12.85Y4.37
X12.85Y4.52
X12.85Y4.67
X12.85Y4.82
X12.85Y4.97
X12.85Y5.87
X12.85Y6.07
X12.85Y6.27
X12.85Y6.47
X12.85Y6.67
X12.89Y6.88
X12.89Y7.03
X12.89Y7.18
X12.89Y7.33
X12.89Y7.48
X12.89Y7.63
X12.89Y7.78
X12.89Y7.93
X12.89Y8.08
X12.89Y8.23
X13.Y2.62
X13.Y2.82
X13.Y3.02
X13.Y3.22
X13.Y3.42
X13.Y5.87
X13.Y6.07
X13.Y6.27
X13.Y6.47
X13.Y6.67
X13.01Y6.88
X13.01Y7.03
X13.01Y7.18
X13.01Y7.33
X13.01Y7.48
X13.01Y7.63
X13.01Y7.78
X13.01Y7.93
X13.01Y8.08
X13.01Y8.23
X13.05Y4.37
X13.05Y4.52
X13.05Y4.67
X13.05Y4.82
X13.05Y4.97
X13.13Y6.88
X13.13Y7.03
X13.13Y7.18
X13.13Y7.33
X13.13Y7.48
X13.13Y7.63
X13.13Y7.78
X13.13Y7.93
X13.13Y8.08
X13.13Y8.23
X13.15Y2.62
X13.15Y2.82
X13.15Y3.02
X13.15Y3.22
X13.15Y3.42
X13.15Y5.87
X13.15Y6.07
X13.15Y6.27
X13.15Y6.47
X13.15Y6.67
X13.25Y3.77
X13.25Y3.92
X13.25Y4.07
X13.25Y4.22
X13.25Y4.37
X13.25Y4.52
X13.25Y4.67
X13.25Y4.82
X13.25Y4.97
X13.25Y5.12
X13.25Y5.27
X13.25Y5.42
X13.25Y5.57
X13.25Y6.88
X13.25Y7.03
X13.25Y7.18
X13.25Y7.33
X13.25Y7.48
X13.25Y7.63
X13.25Y7.78
X13.25Y7.93
X13.25Y8.08
X13.25Y8.23
X13.3Y2.62
X13.3Y2.82
X13.3Y3.02
X13.3Y3.22
X13.3Y3.42
X13.3Y5.87
X13.3Y6.07
X13.3Y6.27
X13.3Y6.47
X13.3Y6.67
X13.45Y2.62
X13.45Y2.82
X13.45Y3.02
X13.45Y3.22
X13.45Y3.42
X13.45Y3.77
X13.45Y3.92
X13.45Y4.07
X13.45Y4.22
X13.45Y4.37
X13.45Y4.52
X13.45Y4.67
X13.45Y4.82
X13.45Y4.97
X13.45Y5.12
X13.45Y5.27
X13.45Y5.42
X13.45Y5.57
X13.45Y5.87
X13.45Y6.07
X13.45Y6.27
X13.45Y6.47
X13.45Y6.67
X13.6Y2.62
X13.6Y2.82
X13.6Y3.02
X13.6Y3.22
X13.6Y3.42
X13.6Y5.87
X13.6Y6.07
X13.6Y6.27
X13.6Y6.47
X13.6Y6.67
X13.65Y3.77
X13.65Y3.92
X13.65Y4.07
X13.65Y4.22
X13.65Y4.37
X13.65Y4.52
X13.65Y4.67
X13.65Y4.82
X13.65Y4.97
X13.65Y5.12
X13.65Y5.27
X13.65Y5.42
X13.65Y5.57
X13.75Y2.62
X13.75Y2.82
X13.75Y3.02
X13.75Y3.22
X13.75Y3.42
X13.75Y5.87
X13.75Y6.07
X13.75Y6.27
X13.75Y6.47
X13.75Y6.67
X13.85Y3.77
X13.85Y3.92
X13.85Y4.07
X13.85Y4.22
X13.85Y4.37
X13.85Y4.52
X13.85Y4.67
X13.85Y4.82
X13.85Y4.97
X13.85Y5.12
X13.85Y5.27
X13.85Y5.42
X13.85Y5.57
X14.05Y3.77
X14.05Y3.92
X14.05Y4.07
X14.05Y4.22
X14.05Y4.37
X14.05Y4.52
X14.05Y4.67
X14.05Y4.82
X14.05Y4.97
X14.05Y5.12
X14.05Y5.27
X14.05Y5.42
X14.05Y5.57
T3
X10.1Y2.62
X10.1Y6.72
X14.1Y2.62
X14.1Y6.72
T0
M30
